<?xml version="1.0" encoding="utf-8"?>
<!-- Generator: Adobe Illustrator 26.5.0, SVG Export Plug-In . SVG Version: 6.00 Build 0)  -->
<svg version="1.1" id="레이어_1" xmlns="http://www.w3.org/2000/svg" xmlns:xlink="http://www.w3.org/1999/xlink" x="0px"
	 y="0px" viewBox="0 0 60 62" style="enable-background:new 0 0 60 62;" xml:space="preserve">
<style type="text/css">
	.st0{fill-rule:evenodd;clip-rule:evenodd;}
	.st1{fill:#1CE2D9;}
	.st2{fill:#1D1D1D;}
</style>
<g>
	<path class="st0" d="M56.1,21.4C52.9,9.1,41.8,0,28.5,0C12.8,0,0,12.8,0,28.5v1C0,39.9,5.6,49,13.9,54c4.7,4.1,10.9,6.5,17.6,6.5
		c14.9,0,27-12.1,27-27v-1C58.5,28.5,57.6,24.8,56.1,21.4z"/>
	<path class="st1" d="M54,28.6C54,14.5,42.6,3.1,28.5,3.1l0,0C14.4,3.1,3,14.5,3,28.6v0.9C3,43.6,14.4,55,28.5,55l0,0
		C42.6,54.9,54,43.5,54,29.4V28.6z"/>
	<path class="st2" d="M16.5,29.7c-1.2-0.8-1.2-2.5,0-3.3l16.7-11.2c1.3-0.9,3.1,0.1,3.1,1.7v22.5c0,1.6-1.8,2.6-3.1,1.7L16.5,29.7z"
		/>
</g>
</svg>
