<?xml version="1.0" encoding="utf-8"?>
<!-- Generator: Adobe Illustrator 26.5.0, SVG Export Plug-In . SVG Version: 6.00 Build 0)  -->
<svg version="1.1" id="레이어_1" xmlns="http://www.w3.org/2000/svg" xmlns:xlink="http://www.w3.org/1999/xlink" x="0px"
	 y="0px" viewBox="0 0 60 62" style="enable-background:new 0 0 60 62;" xml:space="preserve">
<style type="text/css">
	.st0{fill-rule:evenodd;clip-rule:evenodd;}
	.st1{fill:#1CE2D9;}
	.st2{fill:#1D1D1D;}
</style>
<g>
	<path class="st0" d="M1.5,32.5v1c0,14.9,12.1,27,27,27c6.7,0,12.9-2.4,17.6-6.5C54.4,49,60,39.9,60,29.5v-1C60,12.8,47.2,0,31.5,0
		C18.2,0,7.1,9.1,3.9,21.4C2.4,24.8,1.5,28.5,1.5,32.5z"/>
	<path class="st1" d="M6,29.4C6,43.5,17.4,54.9,31.5,55l0,0C45.6,55,57,43.6,57,29.5v-0.9C57,14.5,45.6,3.1,31.5,3.1l0,0
		C17.4,3.1,6,14.5,6,28.6V29.4z"/>
	<path class="st2" d="M26.8,41.1c-1.3,0.9-3.1-0.1-3.1-1.7V16.9c0-1.6,1.8-2.6,3.1-1.7l16.7,11.2c1.2,0.8,1.2,2.5,0,3.3L26.8,41.1z"
		/>
</g>
</svg>
