<svg width="164" height="56" viewBox="0 0 164 56" fill="none" xmlns="http://www.w3.org/2000/svg">
<rect width="164" height="56" rx="10" fill="black"/>
<path fill-rule="evenodd" clip-rule="evenodd" d="M38.2079 26.6442C38.2079 25.9733 38.1521 25.3303 38.0406 24.7153H29.2993V28.3634H34.2903C34.0812 29.5375 33.426 30.5439 32.4361 31.2148V33.5769H35.4335C37.1901 31.9416 38.2079 29.5235 38.2079 26.6442Z" fill="#4285F4"/>
<path fill-rule="evenodd" clip-rule="evenodd" d="M29.2988 35.8552C31.8083 35.8552 33.9135 35.0166 35.447 33.5769L32.4496 31.2148C31.6131 31.7739 30.5536 32.1093 29.2988 32.1093C26.873 32.1093 24.8376 30.446 24.0987 28.2236H20.9897V30.6697C22.5233 33.7447 25.6601 35.8692 29.2849 35.8692L29.2988 35.8552Z" fill="#34A853"/>
<path fill-rule="evenodd" clip-rule="evenodd" d="M24.0988 28.2098C23.9175 27.6507 23.806 27.0357 23.806 26.4207C23.806 25.8057 23.9175 25.1907 24.0988 24.6316V22.1855H20.9898C20.3625 23.4575 20 24.8971 20 26.4207C20 27.9442 20.3625 29.3839 20.9898 30.6558L24.0988 28.2098Z" fill="#FBBC05"/>
<path fill-rule="evenodd" clip-rule="evenodd" d="M29.299 20.7459C30.6653 20.7459 31.8922 21.2211 32.8541 22.1576L35.5169 19.46C33.9136 17.9365 31.8085 17 29.299 17C25.6743 17 22.5235 19.1106 21.0039 22.1996L24.1128 24.6456C24.8378 22.4232 26.8872 20.7599 29.313 20.7599L29.299 20.7459Z" fill="#EA4335"/>
<path d="M55.0496 23.4238H57.3875C57.0008 20.9277 54.8299 19.1875 52.0261 19.1875C48.6951 19.1875 46.199 21.6396 46.2078 25.7266C46.199 29.7607 48.5808 32.2656 52.0965 32.2656C55.2429 32.2656 57.4929 30.2354 57.4929 26.957V25.4277H52.325V27.2383H55.2781C55.2429 29.0488 54.0213 30.209 52.0965 30.209C49.9695 30.209 48.5017 28.6006 48.5105 25.709C48.5017 22.8438 49.9959 21.2441 52.0437 21.2441C53.5906 21.2441 54.6365 22.0703 55.0496 23.4238Z" fill="white"/>
<path d="M63.5377 32.2832C66.3326 32.2832 68.1168 30.3057 68.108 27.3613C68.1168 24.3906 66.3326 22.4219 63.5377 22.4219C60.7516 22.4219 58.9674 24.3906 58.9674 27.3613C58.9674 30.3057 60.7516 32.2832 63.5377 32.2832ZM61.235 27.3438C61.235 25.5947 61.9996 24.1885 63.5553 24.1973C65.0846 24.1885 65.8492 25.5947 65.8404 27.3438C65.8492 29.0928 65.0846 30.4902 63.5553 30.4902C61.9996 30.4902 61.235 29.0928 61.235 27.3438Z" fill="white"/>
<path d="M73.9243 32.2832C76.7192 32.2832 78.5034 30.3057 78.4946 27.3613C78.5034 24.3906 76.7192 22.4219 73.9243 22.4219C71.1381 22.4219 69.354 24.3906 69.354 27.3613C69.354 30.3057 71.1381 32.2832 73.9243 32.2832ZM71.6215 27.3438C71.6215 25.5947 72.3862 24.1885 73.9419 24.1973C75.4711 24.1885 76.2358 25.5947 76.227 27.3438C76.2358 29.0928 75.4711 30.4902 73.9419 30.4902C72.3862 30.4902 71.6215 29.0928 71.6215 27.3438Z" fill="white"/>
<path d="M84.3108 35.8691C86.886 35.8691 88.7757 34.6914 88.7757 32.248V22.5449H86.5608V24.1094H86.4554C86.1038 23.4326 85.3919 22.4219 83.7132 22.4219C81.4983 22.4219 79.7581 24.1006 79.7581 27.2383C79.7581 30.3496 81.4895 31.9492 83.6956 31.9492C85.3392 31.9492 86.1038 31.0703 86.4554 30.3672H86.5608V32.1953C86.5608 33.5928 85.6907 34.1729 84.346 34.1816C83.1946 34.1729 82.4124 33.7861 82.2542 32.9512H80.0218C80.1712 34.7441 81.7796 35.8691 84.3108 35.8691ZM82.0433 27.2734C82.0433 25.5332 82.8167 24.2588 84.3108 24.25C85.7698 24.2588 86.5784 25.4541 86.5784 27.2734C86.5784 29.1016 85.761 30.1914 84.3108 30.1914C82.8343 30.1914 82.0433 29.0312 82.0433 27.2734Z" fill="white"/>
<path d="M93.0802 19.3633H90.8302V32.0898H93.0802V19.3633Z" fill="white"/>
<path d="M99.3711 32.2832C101.586 32.2832 103.115 31.1934 103.52 29.541H101.322C101.032 30.1123 100.373 30.5342 99.3886 30.5254C97.9384 30.5342 96.9804 29.5674 96.9453 27.9414H103.607V27.2383C103.607 23.8896 101.586 22.4219 99.248 22.4219C96.5234 22.4219 94.7304 24.4258 94.7304 27.3789C94.7304 30.3672 96.497 32.2832 99.3711 32.2832ZM96.9541 26.4121C97.0332 25.1992 97.9384 24.1621 99.2832 24.1621C100.575 24.1621 101.454 25.1113 101.463 26.4121H96.9541Z" fill="white"/>
<path d="M109.545 32.0898H111.83V27.7832H114.291C117.226 27.7832 118.799 26.0166 118.808 23.582C118.799 21.1387 117.244 19.3633 114.326 19.3633H109.545V32.0898ZM111.83 25.9023V21.2793H113.974C115.697 21.2793 116.47 22.2197 116.47 23.582C116.47 24.9268 115.697 25.8936 113.974 25.9023H111.83Z" fill="white"/>
<path d="M122.708 19.3633H120.458V32.0898H122.708V19.3633Z" fill="white"/>
<path d="M124.324 29.4004C124.324 31.29 125.703 32.2832 127.523 32.2832C129.026 32.2832 129.913 31.5801 130.335 30.7715H130.406V32.0898H132.55V25.709C132.55 23.1689 130.458 22.4219 128.648 22.4219C126.257 22.4219 124.798 23.6436 124.64 25.2695H126.802C126.978 24.584 127.593 24.127 128.595 24.127C129.711 24.127 130.318 24.6719 130.318 25.6211L130.326 26.3857C129.905 26.4033 128.542 26.4648 127.874 26.5176C126.108 26.6318 124.324 27.2559 124.324 29.4004ZM126.486 29.3828C126.486 28.5479 127.162 28.0996 128.226 28.0117C128.674 27.9766 129.922 27.8975 130.326 27.8799L130.335 28.6621C130.335 29.7344 129.465 30.6309 128.103 30.6309C127.162 30.6309 126.486 30.209 126.486 29.3828Z" fill="white"/>
<path d="M135.571 35.6758C137.364 35.667 138.366 34.7705 138.911 33.25L142.743 22.5449H140.37L138.155 29.752H138.05L135.835 22.5449H133.462L136.943 32.2832L136.749 32.793C136.362 33.8213 135.905 33.8564 135.361 33.8652C135.062 33.8564 134.684 33.8564 134.411 33.8301V35.623C134.701 35.6582 135.123 35.667 135.571 35.6758Z" fill="white"/>
</svg>
