<svg width="568" height="134" viewBox="0 0 568 134" fill="none" xmlns="http://www.w3.org/2000/svg">
<mask id="mask0_472_13729" style="mask-type:luminance" maskUnits="userSpaceOnUse" x="0" y="0" width="568" height="134">
<path d="M568 0H0V134H568V0Z" fill="white"/>
</mask>
<g mask="url(#mask0_472_13729)">
<path d="M356.379 38.0949L354.528 30.3779L350.793 37.4472L332.016 37.4235C330.601 37.4235 329.338 38.2686 328.789 39.5719L327.176 43.4343L318.698 37.9606C318.133 37.5973 317.482 37.4077 316.814 37.4077L302.249 37.3919C298.816 37.3919 295.74 37.7078 293.063 38.3476C290.377 38.9874 287.929 40.0695 285.807 41.5545C283.678 43.0394 281.723 45.0615 279.999 47.5416C278.282 50.0139 276.613 53.1259 275.016 56.7988L264.384 81.9954C262.382 86.703 261.325 90.6128 261.253 93.63L256.604 90.202L262.389 98.7404C262.588 99.0959 262.819 99.4355 263.073 99.7515C263.47 100.249 263.931 100.699 264.463 101.094C266.577 102.69 269.923 103.495 274.42 103.503L333.716 103.582C335.441 103.582 336.625 102.753 337.229 101.118L345.231 82.256C345.652 81.3635 345.707 80.7 345.405 80.2103L343.427 71.6877L340.32 79.5073H339.589L356.356 40.1722C356.697 39.256 356.697 38.5767 356.371 38.1028H356.356L356.379 38.0949ZM311.625 79.4599L295.764 79.4441C295.288 79.4441 294.938 79.3572 294.715 79.1835C294.517 79.0255 294.429 78.7885 294.429 78.4489C294.429 77.8644 294.58 77.2167 294.882 76.5532L300.024 64.5947C300.85 62.4858 302.042 61.459 303.647 61.459L319.23 61.4748L311.617 79.4599H311.625Z" fill="black"/>
<path d="M274.547 38.103L274.603 38.0161L272.457 29.2407L269.453 37.4H208.695C206.963 37.4 205.779 38.2372 205.183 39.8723L199.191 53.8528L194.193 53.6948L191.682 53.3947L197.07 60.8431C197.364 61.2696 197.912 61.4829 198.699 61.4829H224.358C222.784 62.1148 221.195 62.8256 219.63 63.6155L201.583 73.0543L188.305 79.9814C186.573 80.8977 185.397 82.1535 184.824 83.7254L179.731 95.6997L174.375 95.4548H172.15L177.538 102.903C177.832 103.33 178.38 103.543 179.167 103.543H245.13C246.862 103.543 248.046 102.714 248.642 101.071L256.612 82.2009C257.033 81.3084 257.089 80.6449 256.779 80.1552L254.808 71.68L254.403 70.7006L252.79 76.1269L251.264 79.468H228.021C229.515 78.8756 231.064 78.1647 232.646 77.3354L240.195 73.315H240.274L263.47 61.2143C265.123 60.385 266.338 59.1291 267.077 57.4704L274.468 40.1329C274.785 39.2562 274.801 38.6085 274.515 38.1346L274.531 38.103H274.547Z" fill="black"/>
<path d="M188.227 37.3212L186.018 29.8096L185.056 30.1887L184.619 31.9817L184.754 33.5535L182.942 36.5945L182.736 37.4396L163.498 37.4159C162.083 37.4159 160.82 38.2611 160.271 39.5644L158.658 43.4268L150.179 37.953C149.615 37.5897 148.964 37.4001 148.296 37.4001L133.73 37.3843C130.329 37.3843 127.222 37.7003 124.544 38.3401C121.858 38.9799 119.411 40.062 117.289 41.5469C115.16 43.0318 113.205 45.0539 111.48 47.5341C109.772 50.0063 108.095 53.1184 106.498 56.7912L95.8658 81.9878C93.7998 86.8455 92.7429 90.8501 92.727 93.9147L89.1511 92.2955L94.1017 99.1199C94.2448 99.349 94.4037 99.5622 94.5706 99.7676V99.7834C94.9599 100.265 95.4208 100.7 95.9373 101.087C98.0511 102.682 101.397 103.488 105.894 103.496L165.198 103.575C166.922 103.575 168.106 102.745 168.71 101.11L176.712 82.2485C177.054 81.5218 177.149 80.9531 177.014 80.495L177.873 78.9548L174.662 71.0956L185.787 45.0065L187.845 40.1726C187.877 40.0936 187.901 40.0146 187.925 39.9356L188.092 39.5407C188.386 38.8377 188.433 38.0636 188.219 37.3369L188.203 37.3527L188.227 37.3212ZM143.107 79.4524L127.246 79.4366C126.769 79.4366 126.42 79.3497 126.197 79.1759C126.006 79.0179 125.911 78.7889 125.911 78.4413C125.911 77.8489 126.062 77.2092 126.364 76.5457L131.505 64.5872C132.332 62.4782 133.524 61.4514 135.129 61.4514L150.712 61.4672L143.107 79.4524ZM174.964 79.484H171.078L173.74 73.2283L173.486 74.0339L174.948 79.484H174.964Z" fill="black"/>
<path d="M184.945 30.2438L185.056 30.1964L185.445 28.5771L184.945 30.2438Z" fill="black"/>
<path d="M107.602 38.0953L105.281 31.1919L104.272 33.9959C104.272 33.9959 103.144 36.247 102.747 37.3923H76.2215C75.4507 37.3923 74.7276 37.8109 74.3461 38.4981L72.3357 42.1236L67.552 37.9215C67.1626 37.5819 66.662 37.3923 66.1455 37.3923H46.645C43.1486 37.3923 40.0177 37.7398 37.3398 38.4191C34.6539 39.1063 32.2144 40.2042 30.0927 41.6892C27.9631 43.1741 26.0162 45.1961 24.2998 47.6842C22.5834 50.1644 20.9544 53.2369 19.4445 56.8308L8.01763 83.9546C6.49987 87.4853 5.72907 90.708 5.72907 93.5278C5.72907 93.7331 5.72907 93.9227 5.74496 94.1202L1.08838 90.3367L7.26272 99.1595C7.28656 99.2069 7.31835 99.2385 7.35013 99.2779L7.42165 99.3806C9.44798 102.145 13.294 103.535 18.9201 103.535H47.0265L43.7764 108.875C42.2348 110.984 40.7409 111.963 39.0801 111.963H18.3003C16.5679 111.963 15.3839 112.792 14.788 114.435L9.79762 126.196L2.04195 125.809L7.46933 133.321C7.76335 133.787 8.34343 134.016 9.24932 134.016H37.2365C41.9964 134.016 46.0649 133.613 49.3389 132.815C52.6287 132.01 55.537 130.62 57.9766 128.692C60.4161 126.765 62.6252 124.166 64.5403 120.952C66.4395 117.777 68.4499 113.701 70.508 108.851L91.6216 61.4831H95.9365C97.6609 61.4831 98.8528 60.6458 99.4488 59.0108L107.554 40.1094C107.872 39.2248 107.888 38.5692 107.602 38.0953ZM56.0774 79.4603H40.2164C39.0324 79.4603 38.8735 78.9311 38.8735 78.473C38.8735 77.8806 39.0244 77.2408 39.3264 76.5694L44.4518 64.6109C45.2783 62.502 46.4623 61.4673 48.0754 61.4673H63.6583L56.0774 79.4603Z" fill="black"/>
<path d="M458.466 49.2002L455.828 40.0378H458.426C460.246 40.0378 461.478 39.1689 462.145 37.4312L466.325 28.0398L470.425 18.9406L471.76 16.105C472.134 15.3072 472.229 14.4226 472.038 13.5616L469.774 3.52246L469.043 8.56968L467.024 3.93319L456.519 11.2789H410.875C406.004 11.2789 401.848 11.6501 398.415 12.3926C394.982 13.1351 391.947 14.4857 389.301 16.4367C386.655 18.3877 384.279 21.0179 382.173 24.3353C380.067 27.6527 377.937 31.8864 375.792 37.0205L358.063 78.82C356.569 82.2875 355.568 85.4311 355.044 88.243L351.969 89.0645L352.819 91.0786L351.46 90.3124L355.719 97.903L355.767 98.0215H355.783C357.912 102.129 362.919 104.198 370.825 104.198H412.973C417.685 104.198 421.73 103.827 425.115 103.077C428.5 102.334 431.496 100.999 434.102 99.0957C436.701 97.1921 439.045 94.6014 441.111 91.3235C443.177 88.0535 445.243 83.883 447.301 78.82L454.739 61.7432C455.732 59.342 456.495 57.3515 457.036 55.7718L458.347 52.0989C458.681 51.1669 458.712 50.1559 458.434 49.2081L458.466 49.2002ZM436.24 47.81H427.682C427.547 47.81 427.419 47.8416 427.292 47.889L425.346 51.1116L426.688 61.4114L428.222 72.8407L420.943 75.076L394.394 83.2116L389.261 84.7834L398.272 67.7619L399.011 66.5376L398.995 66.4033L398.169 60.195L397.478 54.9898L396.174 44.927L396.135 44.8954L396.119 44.7532L396.142 44.7374L403.89 42.3837L407.657 41.2383L408.054 41.1199L430.399 34.3271L433.276 39.3743C433.109 39.6665 433.308 40.0457 433.657 40.0457L444.441 47.8179H436.224L436.24 47.81ZM453.476 40.8039C453.476 40.8039 448.175 40.4485 444.012 40.0378H455.669L455.438 45.7169L453.476 40.8039Z" fill="black"/>
<path d="M567.611 18.9097L567.595 18.8623V18.8386L565.092 8.74414V13.12L565.29 14.5654C562.652 11.7377 558.083 10.3081 551.622 10.3081H508.776C504.079 10.3081 500.003 10.6872 496.665 11.4297C493.296 12.18 490.284 13.5544 487.71 15.5133C485.143 17.4642 482.767 20.1418 480.653 23.4672C478.555 26.7688 476.402 31.0419 474.272 36.1523L456.615 77.7859C454.303 83.1728 453.127 87.8093 453.127 91.5532C453.127 91.964 453.143 92.351 453.175 92.738L448.852 89.5312L454.851 97.9906C454.971 98.1723 455.098 98.346 455.225 98.5119L455.288 98.5988V98.583C457.831 101.853 462.623 103.504 469.632 103.504H512.479C517.175 103.504 521.251 103.125 524.589 102.382C527.95 101.632 530.97 100.281 533.544 98.3618C536.111 96.4425 538.471 93.8122 540.545 90.5343C542.603 87.2722 544.733 83.0701 546.871 78.0308L564.527 36.3893C566.84 30.9156 568.008 26.1606 568.008 22.2587C568.008 21.0423 567.873 19.9128 567.619 18.8781V18.8939L567.611 18.9097ZM530.112 41.3733L516.913 72.2253C515.935 74.6344 514.529 75.8034 512.622 75.8034H492.366C490.761 75.8034 490.57 75.1083 490.57 74.5949C490.57 74.1605 490.761 73.4496 491.135 72.4781L504.334 41.6182C505.311 39.2091 506.709 38.0401 508.625 38.0401H528.88C530.485 38.0401 530.676 38.7352 530.676 39.2486C530.676 39.6751 530.485 40.386 530.112 41.3733Z" fill="black"/>
<path d="M465.73 95.7947C460.128 95.7947 455.836 94.7442 452.976 92.6827C449.996 90.5422 448.486 87.3037 448.486 83.0701C448.486 79.2234 449.678 74.4922 452.03 69.0184L469.687 27.3848C471.841 22.2349 474.01 17.9302 476.124 14.5891C478.285 11.1927 480.717 8.45184 483.355 6.44559C486.017 4.42355 489.132 3.0018 492.597 2.22773C495.99 1.46947 500.122 1.09033 504.866 1.09033H547.721C553.275 1.09033 557.534 2.14085 560.387 4.20239C563.343 6.34291 564.845 9.58134 564.845 13.8071C564.845 17.8117 563.653 22.6693 561.301 28.23L543.636 69.8715C541.483 74.9424 539.337 79.1839 537.255 82.4856C535.141 85.8504 532.718 88.5517 530.072 90.5185C527.41 92.501 524.303 93.8991 520.838 94.6652C517.445 95.4235 513.321 95.8026 508.569 95.8026H465.722L465.73 95.7947ZM487.932 64.2635C487.471 65.4641 487.423 65.9538 487.423 66.1038C487.423 66.3092 487.423 66.5699 488.472 66.5699H508.728C510.826 66.5699 511.795 64.7927 512.335 63.4578L525.526 32.6137C525.987 31.4052 526.035 30.9234 526.035 30.7733C526.035 30.568 526.035 30.3073 524.978 30.3073H504.723C502.617 30.3073 501.655 32.0845 501.115 33.4194L487.924 64.2714H487.94L487.932 64.2635Z" fill="#1CE2D9"/>
<path d="M548.165 2.14842C558.869 2.14842 564.217 6.03454 564.217 13.791C564.217 17.6771 563.065 22.3452 560.76 27.7952L543.104 69.4367C540.958 74.476 538.86 78.6307 536.81 81.8928C534.752 85.1629 532.448 87.7378 529.897 89.6335C527.346 91.5292 524.398 92.8561 521.068 93.5986C517.731 94.3411 513.726 94.7123 509.03 94.7123H466.183C455.391 94.7123 450.004 90.8262 450.004 83.0697C450.004 79.3495 451.156 74.8078 453.46 69.4367L471.117 27.7952C473.263 22.6769 475.377 18.467 477.474 15.1495C479.572 11.8479 481.901 9.22558 484.451 7.28252C487.002 5.33946 489.95 3.9967 493.28 3.25423C496.617 2.51176 500.622 2.14052 505.319 2.14052H548.165M488.909 67.6358H509.165C511.207 67.6358 512.732 66.3721 513.758 63.8524L526.949 33.0083C527.338 31.9894 527.537 31.239 527.537 30.7651C527.537 29.7462 526.829 29.2249 525.423 29.2249H505.168C503.125 29.2249 501.592 30.4887 500.575 33.0083L487.376 63.8524C486.978 64.8792 486.788 65.6217 486.788 66.0956C486.788 67.1145 487.487 67.6358 488.901 67.6358H488.909ZM548.165 0H505.311C500.487 0 496.276 0.387032 492.811 1.169C489.195 1.97465 485.937 3.46749 483.156 5.58432C480.415 7.66956 477.896 10.5052 475.671 14.0121C473.517 17.4006 471.324 21.7607 469.139 26.9738L451.482 68.6074C449.042 74.2944 447.858 79.0335 447.858 83.0776C447.858 89.3728 451.037 96.8686 466.167 96.8686H509.014C513.837 96.8686 518.049 96.4816 521.513 95.6996C525.129 94.894 528.371 93.4327 531.152 91.3633C533.902 89.3175 536.413 86.5135 538.598 83.0381C540.712 79.6891 542.873 75.4002 545.058 70.274L562.723 28.6325C565.131 22.9297 566.347 17.9378 566.347 13.791C566.347 7.49579 563.192 0 548.158 0L548.165 0ZM489.362 64.666L502.537 33.8535L502.553 33.814C503.539 31.3654 504.683 31.3654 505.168 31.3654H525.264C525.2 31.5787 525.105 31.8472 524.978 32.1948L511.803 63.0072L511.787 63.0467C510.794 65.4953 509.657 65.4953 509.173 65.4953H489.068C489.132 65.2899 489.227 65.0135 489.354 64.666H489.362Z" fill="black"/>
<path d="M175.274 95.7944C174.241 95.7944 173.486 95.4705 173.041 94.8307C172.572 94.1515 172.548 93.2194 172.969 92.082C172.969 92.0662 172.985 92.0504 172.985 92.0346L180.232 74.9736C180.876 73.228 182.171 71.83 184.063 70.8347L197.126 64.0419C197.19 63.9945 197.261 63.9393 197.333 63.8998L212.987 55.7089L215.379 54.4609C215.872 54.2082 216.381 53.9712 216.873 53.7342H194.798C193.757 53.7342 193.002 53.4104 192.557 52.7706C192.088 52.0913 192.065 51.1593 192.478 50.0219C192.478 50.0061 192.494 49.9824 192.494 49.9745L200.575 31.1205C201.29 29.1932 202.744 28.1743 204.779 28.1743H268.962C270.003 28.1743 270.75 28.4982 271.195 29.1301C271.664 29.8093 271.687 30.7414 271.274 31.8788C271.274 31.8946 271.258 31.9104 271.258 31.9262L263.876 49.2557C263.058 51.0882 261.731 52.4705 259.919 53.3788L246.386 60.4007C246.322 60.4481 246.259 60.5034 246.187 60.5428L236.803 65.44C236.715 65.4874 236.628 65.519 236.533 65.5348L229.103 69.492C228.618 69.7447 228.133 69.9896 227.648 70.2266H251.106C252.266 70.2266 253.069 70.5741 253.514 71.2692C253.959 71.9721 253.919 72.8963 253.395 74.01L245.432 92.8482C244.717 94.7755 243.255 95.7944 241.221 95.7944H175.258H175.274Z" fill="#1CE2D9"/>
<path d="M268.985 29.241C270.415 29.241 270.852 29.9993 270.296 31.5079L262.914 48.8375C262.199 50.433 261.047 51.6257 259.457 52.4156L245.646 59.5875H245.71L236.333 64.4846H236.246L228.625 68.5445C226.798 69.5003 225.034 70.298 223.325 70.9378C222.983 71.0642 222.626 71.1748 222.284 71.2933H251.129C252.719 71.2933 253.148 72.0515 252.433 73.5602L244.454 92.4378C243.906 93.9544 242.825 94.7048 241.236 94.7048H175.265C173.843 94.7048 173.398 93.9465 173.962 92.4378L181.225 75.3531C181.773 73.8366 182.886 72.6518 184.563 71.7751L197.905 64.848H197.841L213.495 56.6571L215.887 55.4091C217.635 54.5324 219.384 53.7583 221.124 53.079C221.513 52.929 221.911 52.8026 222.3 52.6604H194.805C193.375 52.6604 192.938 51.9022 193.502 50.3935L201.6 31.5158C202.156 29.9993 203.229 29.2489 204.818 29.2489H269.001M269.001 27.1084H204.818C202.347 27.1084 200.503 28.388 199.621 30.7181L191.547 49.5563C191.547 49.5563 191.516 49.6274 191.508 49.6668C190.959 51.1597 191.023 52.4156 191.706 53.4029C192.159 54.0506 193.065 54.8246 194.813 54.8246H212.423L196.864 62.9681C196.752 63.0234 196.665 63.0866 196.57 63.1577L183.601 69.8952H183.585C181.463 71.0168 180.001 72.5965 179.262 74.587L172.015 91.6322C172.015 91.6322 171.991 91.6954 171.975 91.7349C171.427 93.2277 171.491 94.4836 172.174 95.4709C172.627 96.1186 173.533 96.8927 175.281 96.8927H241.244C243.715 96.8927 245.567 95.6052 246.441 93.2751L254.38 74.4685C255.063 73.0072 255.071 71.7435 254.427 70.7167C253.99 70.0137 253.052 69.1764 251.121 69.1764H232.034L236.945 66.562C237.072 66.5225 237.199 66.4751 237.319 66.4119L246.703 61.5148C246.807 61.4595 246.902 61.4042 246.989 61.3331L260.427 54.3507C262.445 53.3318 263.947 51.7758 264.861 49.7379L264.877 49.6984L272.259 32.3689C272.259 32.3689 272.283 32.2978 272.299 32.2662C272.847 30.7734 272.775 29.5175 272.092 28.5301C271.639 27.8825 270.733 27.1084 268.977 27.1084H269.001Z" fill="black"/>
<path d="M5.33961 126.267C4.17944 126.267 3.37685 125.919 2.93185 125.224C2.48686 124.521 2.52659 123.597 3.05105 122.483L10.179 105.675C10.8941 103.748 12.3483 102.729 14.3906 102.729H35.1545C36.0365 102.729 37.4192 102.445 39.223 99.9803L41.7738 95.794H14.9945C10.4889 95.794 7.03219 94.9015 4.71185 93.1559C2.29614 91.3392 1.06445 88.6063 1.06445 85.044C1.06445 82.1215 1.85909 78.8041 3.41658 75.1787L14.8435 48.0548C16.3692 44.4215 18.03 41.3015 19.7703 38.7818C21.5423 36.2227 23.5527 34.1375 25.7539 32.5972C27.955 31.057 30.474 29.9196 33.2473 29.2087C35.9888 28.5136 39.1753 28.1582 42.7433 28.1582H62.2437C62.943 28.1582 63.6105 28.411 64.1429 28.877L68.2353 32.4708L69.8007 29.651C70.3093 28.7269 71.2788 28.1661 72.3197 28.1661H102.047C103.08 28.1661 103.835 28.4899 104.28 29.1218C104.749 29.8011 104.773 30.7331 104.36 31.8706C104.36 31.8863 104.344 31.91 104.344 31.9179L96.2543 50.7719C95.5391 52.6913 94.077 53.7181 92.0427 53.7181H88.2125L67.2976 100.644C65.2236 105.517 63.1973 109.625 61.2822 112.823C59.3194 116.109 57.0468 118.779 54.5437 120.762C52.0088 122.76 49.013 124.19 45.6199 125.027C42.2824 125.84 38.1582 126.251 33.3427 126.251H5.33961V126.267ZM35.7346 70.1472C35.7346 70.1472 35.8855 70.2341 36.3146 70.2341H51.683L58.6361 53.7339H44.1736C43.3631 53.7339 42.1791 54.0104 41.2414 56.4037C41.2414 56.4195 36.108 68.3859 36.108 68.3859C35.8537 68.9703 35.7187 69.5075 35.7187 69.9972C35.7187 70.092 35.7346 70.1393 35.7346 70.1551V70.1472Z" fill="#1CE2D9"/>
<path d="M102.04 29.2407C103.462 29.2407 103.907 29.999 103.343 31.5076L95.2454 50.3853C94.6892 51.9018 93.6164 52.6522 92.0271 52.6522H87.5057L66.3047 100.218C64.2386 105.075 62.26 109.104 60.3449 112.287C58.4378 115.47 56.2763 118.021 53.8527 119.933C51.429 121.844 48.5922 123.203 45.3421 123.992C42.0841 124.79 38.0791 125.193 33.3192 125.193H5.33997C3.7507 125.193 3.31364 124.435 4.03677 122.926L11.1806 106.078C11.7368 104.562 12.8096 103.812 14.3989 103.812H35.1548C36.903 103.812 38.4923 102.808 40.1213 100.581L43.6813 94.7202H14.9948C6.42068 94.7202 2.12963 91.4897 2.12963 85.0444C2.12963 82.2562 2.88454 79.1126 4.39435 75.6056L15.8213 48.4817C17.3311 44.8958 18.9362 41.8706 20.6447 39.3983C22.3532 36.9261 24.2603 34.9593 26.3661 33.4823C28.4719 32.0052 30.8558 30.931 33.5099 30.2517C36.164 29.5803 39.2472 29.2328 42.7436 29.2328H62.2441C62.6811 29.2328 63.1102 29.3908 63.436 29.683L68.5217 34.1457L70.7308 30.1648C71.0487 29.5882 71.6606 29.2249 72.3122 29.2249H102.04M36.3071 71.3087H52.3826L60.2416 52.668H44.166C42.4178 52.668 41.1146 53.7817 40.2405 56.017L35.123 67.9676C34.8052 68.6864 34.6463 69.3578 34.6463 69.9976C34.6463 70.8743 35.2025 71.3087 36.315 71.3087H36.3071ZM102.032 27.1002H72.3042C70.8739 27.1002 69.5468 27.8821 68.8475 29.138L67.9337 30.8046L64.8346 28.0875C64.1115 27.4556 63.1897 27.1002 62.2361 27.1002H42.7357C39.0883 27.1002 35.8064 27.4635 32.9855 28.1823C30.085 28.9169 27.4468 30.1096 25.1424 31.7288C22.8379 33.3401 20.7401 35.5122 18.8965 38.1819C17.1086 40.7648 15.416 43.9479 13.8665 47.6524L2.4316 74.7604C0.818478 78.5202 0 81.9719 0 85.0444C0 88.97 1.36678 91.9873 4.06855 94.0172C6.6114 95.9366 10.1873 96.8686 14.9948 96.8686H39.875L38.3413 99.3883C36.8315 101.434 35.8064 101.671 35.1548 101.671H14.3909C11.9116 101.671 10.0681 102.958 9.18603 105.289L2.08195 122.057C1.40651 123.519 1.38267 124.782 2.03428 125.809C2.47133 126.512 3.409 127.349 5.33997 127.349H33.3351C38.238 127.349 42.4496 126.931 45.8666 126.094C49.4027 125.225 52.5495 123.724 55.1956 121.631C57.81 119.569 60.1621 116.797 62.1964 113.4C64.1353 110.162 66.1775 106.015 68.2754 101.087L88.8963 54.8085H92.0351C94.5144 54.8085 96.35 53.5289 97.232 51.1989L105.306 32.3607C105.306 32.3607 105.337 32.2896 105.353 32.2501C105.902 30.7572 105.83 29.5014 105.147 28.514C104.694 27.8663 103.788 27.0923 102.04 27.0923L102.032 27.1002ZM36.9348 69.1603C36.9746 69.0497 37.0143 68.9391 37.0699 68.8286L37.0858 68.8049L42.2033 56.8543C42.2033 56.8543 42.2192 56.8069 42.2271 56.7911C43.0059 54.8085 43.8243 54.8085 44.166 54.8085H57.0233L50.9761 69.1682H36.9428L36.9348 69.1603Z" fill="black"/>
<path d="M102 95.7467C97.272 95.7467 93.8709 94.9016 91.5983 93.1876C89.262 91.4262 88.078 88.8276 88.086 85.4548C88.086 82.2954 89.1667 78.1723 91.2804 73.212L101.905 48.0154C103.526 44.2873 105.218 41.1357 106.967 38.624C108.739 36.0648 110.757 33.9875 112.958 32.4472C115.167 30.907 117.686 29.7854 120.475 29.1219C123.193 28.4742 126.316 28.1504 129.765 28.1504L144.402 28.1662C145.213 28.1662 146.007 28.4031 146.691 28.8376L154.422 33.8216L155.694 30.7806C156.353 29.2009 157.895 28.1741 159.603 28.1741L182.346 28.2057C183.379 28.2057 184.134 28.5374 184.579 29.1693C185.048 29.8486 185.072 30.7806 184.651 31.918C184.651 31.9338 184.643 31.9496 184.635 31.9654L168.313 70.25H171.221C172.381 70.25 173.184 70.6054 173.621 71.3005C174.058 72.0035 174.026 72.9276 173.502 74.0413L165.516 92.8716C164.8 94.791 163.338 95.8099 161.312 95.8099L102.008 95.7309L102 95.7467ZM122.764 70.1236C122.764 70.1236 122.915 70.2105 123.344 70.2105L138.712 70.2263L145.689 53.734L131.227 53.7182C130.408 53.7182 129.224 53.9947 128.287 56.38C128.287 56.3958 123.138 68.3543 123.138 68.3543C122.875 68.9388 122.748 69.4759 122.748 69.9657C122.748 70.0604 122.764 70.1078 122.764 70.1236Z" fill="#1CE2D9"/>
<path d="M129.757 29.2248H129.828L140.953 29.2406H144.394C145.006 29.2406 145.594 29.4222 146.102 29.754L154.907 35.4331L156.663 31.2152C157.156 30.0304 158.308 29.2643 159.587 29.2643H164.498L182.33 29.288C183.76 29.288 184.197 30.0541 183.633 31.5549L166.676 71.3244H171.205C172.786 71.3244 173.231 72.0905 172.508 73.5992L164.506 92.469C163.95 93.9855 162.877 94.7359 161.296 94.7359L147.97 94.7201H146.293L132.824 94.7043H131.688L116.415 94.6885H113.236L101.992 94.6727C97.542 94.6727 94.2919 93.8828 92.2259 92.3347C90.1678 90.7787 89.1347 88.4881 89.1427 85.4629C89.1427 82.4377 90.1757 78.4963 92.2497 73.6308L102.882 48.4342C104.471 44.7692 106.124 41.7046 107.833 39.2402C109.541 36.7758 111.448 34.8091 113.554 33.332C115.66 31.8629 118.044 30.8124 120.706 30.1726C123.344 29.5407 126.364 29.2248 129.749 29.2248M139.412 71.3007L147.294 52.6679L131.219 52.6521C129.471 52.6521 128.167 53.7658 127.293 55.9932L122.16 67.9359C121.842 68.6547 121.683 69.326 121.683 69.9658C121.683 70.8426 122.239 71.2849 123.352 71.2849L139.427 71.3007M129.765 27.0763C126.236 27.0763 123.026 27.416 120.237 28.0795C117.329 28.7745 114.674 29.9435 112.362 31.5628C110.058 33.1741 107.952 35.3383 106.1 38.008C104.32 40.5751 102.588 43.7898 100.943 47.5654V47.5812L90.3029 72.7777C88.1017 77.9434 87.0289 82.0823 87.021 85.4392C87.021 89.1674 88.3401 92.0503 90.9624 94.025C93.4258 95.8891 97.0414 96.7895 102 96.7974L113.244 96.8132H116.423L131.696 96.8369H132.832L146.301 96.8527H147.978L161.304 96.8685C163.783 96.8685 165.627 95.5889 166.509 93.2588L174.479 74.468C175.154 73.0147 175.178 71.743 174.527 70.7162C174.09 70.0132 173.16 69.176 171.221 69.176H169.926L185.612 32.3842C185.612 32.3842 185.636 32.3131 185.652 32.2815C186.2 30.7887 186.136 29.5328 185.453 28.5455C185 27.8978 184.102 27.1237 182.346 27.1237L164.514 27.1H159.603C157.458 27.1 155.535 28.3717 154.7 30.3622L153.922 32.2183L147.263 27.9215C146.404 27.3686 145.419 27.0763 144.394 27.0763H140.953L129.828 27.0605H129.757L129.765 27.0763ZM123.988 69.1444C124.027 69.0338 124.067 68.9232 124.123 68.8126L124.139 68.7889L129.272 56.8462C129.272 56.8462 129.288 56.7988 129.296 56.783C130.075 54.8005 130.893 54.8005 131.235 54.8005L144.092 54.8163L138.021 69.1681L123.988 69.1523V69.1444Z" fill="black"/>
<path d="M270.511 95.7467C265.783 95.7467 262.382 94.9016 260.109 93.1876C257.773 91.4262 256.589 88.8276 256.597 85.4548C256.597 82.2954 257.677 78.1723 259.791 73.212L270.415 48.0154C272.037 44.2873 273.737 41.1357 275.477 38.624C277.249 36.0648 279.268 33.9875 281.461 32.4472C283.67 30.907 286.189 29.7854 288.978 29.1219C291.696 28.4742 294.811 28.1504 298.268 28.1504L312.897 28.1662C313.707 28.1662 314.502 28.4031 315.185 28.8376L322.917 33.8216L324.189 30.7806C324.848 29.2009 326.39 28.1741 328.098 28.1741L350.841 28.2057C351.882 28.2057 352.629 28.5374 353.074 29.1693C353.543 29.8486 353.567 30.7806 353.145 31.918C353.145 31.9338 353.129 31.9496 353.129 31.9654L336.808 70.25H339.716C340.876 70.25 341.679 70.6054 342.116 71.3005C342.553 72.0035 342.513 72.9276 341.997 74.0413L334.01 92.8716C333.295 94.791 331.841 95.8099 329.807 95.8099L270.503 95.7309L270.511 95.7467ZM291.275 70.1236C291.275 70.1236 291.426 70.2105 291.855 70.2105L307.223 70.2263L314.2 53.734L299.738 53.7182C298.919 53.7182 297.735 53.9947 296.798 56.38C296.798 56.3958 291.648 68.3543 291.648 68.3543C291.386 68.9388 291.259 69.4759 291.259 69.9657C291.259 70.0604 291.275 70.1078 291.275 70.1236Z" fill="#1CE2D9"/>
<path d="M298.268 29.2248H298.339L309.464 29.2406H312.897C313.509 29.2406 314.097 29.4222 314.605 29.754L323.41 35.4331L325.166 31.2152C325.659 30.0304 326.811 29.2643 328.09 29.2643H333.001L350.833 29.288C352.263 29.288 352.7 30.0541 352.136 31.5549L335.179 71.3244H339.708C341.289 71.3244 341.734 72.0905 341.011 73.5992L333.009 92.469C332.453 93.9855 331.38 94.7359 329.799 94.7359L316.473 94.7201H314.796L301.327 94.7043H300.191L284.918 94.6885H281.739L270.503 94.6727C266.053 94.6727 262.803 93.8828 260.737 92.3347C258.679 90.7787 257.646 88.4881 257.654 85.4629C257.654 82.4377 258.695 78.4963 260.769 73.6308L271.401 48.4342C272.99 44.7692 274.643 41.7046 276.351 39.2402C278.06 36.7758 279.967 34.8091 282.073 33.332C284.179 31.8629 286.563 30.8124 289.225 30.1726C291.863 29.5407 294.882 29.2248 298.268 29.2248ZM307.93 71.3007L315.813 52.6679L299.738 52.6521C297.989 52.6521 296.686 53.7658 295.812 55.9932L290.679 67.9359C290.361 68.6547 290.202 69.326 290.202 69.9658C290.202 70.8426 290.75 71.2849 291.863 71.2849L307.938 71.3007M298.275 27.0763C294.747 27.0763 291.537 27.416 288.74 28.0795C285.831 28.7745 283.177 29.9435 280.865 31.5628C278.561 33.1741 276.455 35.3383 274.603 38.008C272.823 40.5751 271.091 43.7898 269.446 47.5654V47.5812L258.806 72.7777C256.605 77.9434 255.532 82.0823 255.524 85.4392C255.524 89.1674 256.843 92.0503 259.465 94.025C261.929 95.8891 265.544 96.7895 270.503 96.7974L281.747 96.8132H284.926L300.199 96.8369H301.335L314.804 96.8527H316.481L329.807 96.8685C332.286 96.8685 334.13 95.5889 335.012 93.2588L342.982 74.468C343.665 73.0147 343.681 71.743 343.03 70.7162C342.593 70.0132 341.663 69.176 339.724 69.176H338.429L354.115 32.3842C354.115 32.3842 354.139 32.3131 354.155 32.2815C354.703 30.7887 354.639 29.5328 353.956 28.5455C353.503 27.8978 352.605 27.1237 350.849 27.1237L333.017 27.1H328.106C325.961 27.1 324.038 28.3717 323.203 30.3622L322.425 32.2183L315.766 27.9215C314.915 27.3686 313.922 27.0763 312.897 27.0763H309.464L298.339 27.0605H298.268L298.275 27.0763ZM292.498 69.1444C292.538 69.0338 292.578 68.9232 292.634 68.8126L292.649 68.7889L297.783 56.8462C297.783 56.8462 297.799 56.7988 297.807 56.783C298.585 54.8005 299.404 54.8005 299.746 54.8005L312.603 54.8163L306.532 69.1681L292.506 69.1523L292.498 69.1444Z" fill="black"/>
<path d="M176.886 80.1947L174.494 73.8047H174.574L171.888 79.6734L173.191 80.9766" fill="black"/>
<path d="M404.042 30.3545L392.4 33.8931L393.02 35.9467L404.661 32.4081L404.042 30.3545Z" fill="#1CE2D9"/>
<path d="M404.352 31.4046L400.545 32.5657L392.71 34.9432L404.352 31.4046ZM403.732 29.3589L392.09 32.8975L393.33 37.0047L401.165 34.6273L404.971 33.4662L403.732 29.3589Z" fill="black"/>
<path d="M462.686 17.6141L467.938 5.80566L469.949 6.50864C469.877 6.80879 469.774 7.10104 469.639 7.38539L464.625 18.4987L462.678 17.622L462.686 17.6141Z" fill="#1CE2D9"/>
<path d="M468.924 6.23994C468.869 6.4769 468.789 6.70596 468.678 6.94292L463.664 18.0563L468.916 6.24784M466.97 5.37109L461.717 17.1795L465.611 18.9409L470.625 7.82756" fill="black"/>
<path d="M394.752 58.3865L382.261 76.1978L382.245 76.7349L425.815 59.7687L418.011 48.6791L424.202 38.1344C424.329 38.087 424.464 38.0554 424.599 38.0554H443.345C447.604 38.0554 450.631 38.2924 452.427 38.7505C454.223 39.2086 455.121 40.3618 455.121 42.2101C455.121 43.2132 454.851 44.5165 454.303 46.1041C453.754 47.6996 452.991 49.7138 451.982 52.1465L444.465 69.4129C442.375 74.5233 440.285 78.7412 438.203 82.0586C436.113 85.3681 433.753 87.9905 431.123 89.9256C428.493 91.8529 425.465 93.1957 422.04 93.946C418.615 94.7043 414.515 95.0834 409.755 95.0834H367.139C356.197 95.0834 350.721 91.1894 350.721 83.3856C350.721 79.5231 351.89 74.8709 354.234 69.4287L372.161 27.1632C374.33 21.9659 376.484 17.6849 378.613 14.328C380.743 10.9711 383.143 8.30924 385.821 6.34248C388.491 4.37573 391.566 3.00926 395.031 2.2589C398.495 1.50063 402.699 1.12939 407.626 1.12939H464.943C467.684 1.12939 469.584 3.72804 468.94 6.27139L463.687 18.0798L459.468 27.574C458.792 29.3353 457.545 30.2121 455.709 30.2121H430.678C430.305 30.2121 430.09 29.7935 430.312 29.4933L435.017 23.0244C435.239 22.819 436.868 20.8048 434.89 20.1414H434.874C434.453 20.1414 434.031 20.2203 433.634 20.3704L404.781 31.3021L404.383 31.4206L392.813 35.3146V35.9781L394.784 58.4101" fill="#1CE2D9"/>
<path d="M409.74 96.1341H367.132C361.458 96.1341 357.103 95.0836 354.203 93.0142C351.183 90.8657 349.65 87.6194 349.65 83.3699C349.65 79.3811 350.858 74.5393 353.241 68.9787L371.161 26.7211C373.338 21.5001 375.547 17.1243 377.692 13.7279C379.886 10.2762 382.397 7.48795 385.17 5.458C387.951 3.41226 391.193 1.97471 394.793 1.19275C398.321 0.426583 402.628 0.0395508 407.619 0.0395508H464.936C466.549 0.0395508 468.035 0.774122 469.028 2.0458C470.022 3.32537 470.371 4.96039 469.974 6.51642C469.958 6.57171 469.934 6.627 469.918 6.69019L460.446 27.9691C459.612 30.1333 457.975 31.2707 455.694 31.2707H430.663C430.091 31.2707 429.566 30.9468 429.304 30.4413C429.05 29.9279 429.09 29.3197 429.431 28.8537L434.136 22.3847C434.175 22.3373 434.215 22.2821 434.263 22.2426C434.485 22.0056 434.779 21.4764 434.771 21.2631C434.755 21.2473 434.724 21.2315 434.684 21.2157C434.438 21.2315 434.215 21.2868 433.993 21.3658L405.139 32.2975C405.139 32.2975 405.092 32.3133 405.068 32.3212L404.678 32.4397L393.863 36.0809L395.818 58.3155C395.842 58.5683 395.77 58.821 395.627 59.0264L384.661 74.6657L424.147 59.2871L417.138 49.3111C416.892 48.9636 416.876 48.5134 417.091 48.15L423.281 37.6054C423.4 37.4 423.591 37.242 423.813 37.1551C424.076 37.0446 424.338 36.9972 424.608 36.9972H443.353C447.74 36.9972 450.791 37.2341 452.706 37.7238C454.963 38.3004 456.203 39.896 456.203 42.2182C456.203 43.3556 455.917 44.7378 455.329 46.4597C454.772 48.0789 453.986 50.1326 452.984 52.5653L445.467 69.8396C443.361 74.9816 441.232 79.2864 439.118 82.6354C436.965 86.0476 434.493 88.7884 431.768 90.7867C429.026 92.793 425.84 94.2068 422.28 94.9888C418.791 95.755 414.58 96.1499 409.772 96.1499L409.74 96.1341ZM407.611 2.17218C402.779 2.17218 398.615 2.54341 395.238 3.28588C391.932 4.00466 388.976 5.31583 386.426 7.1878C383.875 9.07557 381.539 11.6584 379.488 14.8889C377.398 18.1827 375.253 22.44 373.115 27.5583L355.188 69.8238C352.916 75.1238 351.763 79.6734 351.763 83.3699C351.763 90.5182 356.786 93.9936 367.116 93.9936H409.732C414.397 93.9936 418.457 93.6223 421.787 92.8799C425.053 92.1611 427.977 90.8657 430.472 89.0412C432.983 87.2008 435.272 84.6574 437.282 81.4743C439.333 78.2279 441.415 74.0338 443.465 69.0024L443.481 68.9787L450.998 51.7123C451.975 49.3427 452.746 47.3365 453.286 45.7567C453.787 44.2797 454.049 43.087 454.049 42.2103C454.049 40.8517 453.485 40.1329 452.158 39.7854C450.45 39.351 447.478 39.1298 443.338 39.1298H424.862L419.284 48.6318L426.69 59.1607C426.881 59.4292 426.936 59.7689 426.841 60.0848C426.746 60.4008 426.515 60.6535 426.205 60.772L382.635 77.7382C382.301 77.8725 381.92 77.8172 381.634 77.6119C381.34 77.4065 381.173 77.0589 381.189 76.6956L381.205 76.1585C381.205 75.9531 381.284 75.7557 381.395 75.5819L393.665 58.0865L391.726 36.0414V35.2832C391.726 34.8251 392.02 34.4143 392.457 34.2643L404.027 30.3702L404.059 30.3544L404.432 30.2439L433.254 19.3201C433.77 19.1226 434.31 19.0199 434.867 19.0199C434.978 19.0199 435.113 19.0357 435.224 19.0752C436.424 19.478 436.774 20.2837 436.869 20.7339C437.155 22.0293 436.178 23.2773 435.852 23.6406L431.887 29.0986H455.71C457.109 29.0986 457.959 28.4983 458.475 27.1476C458.475 27.1318 458.491 27.1081 458.499 27.0923L467.94 5.87663C468.138 4.98408 467.94 4.06784 467.36 3.33327C466.779 2.5829 465.905 2.15638 464.952 2.15638H407.603L407.611 2.17218Z" fill="black"/>
</g>
</svg>
