<svg width="132" height="44" viewBox="0 0 132 44" fill="none" xmlns="http://www.w3.org/2000/svg">
<rect width="131.02" height="43.5661" rx="6" fill="black"/>
<path fill-rule="evenodd" clip-rule="evenodd" d="M29.0204 21.9559C29.0204 21.4025 28.9744 20.8721 28.8824 20.3647H21.6714V23.3742H25.7887C25.6162 24.3428 25.0756 25.1729 24.2591 25.7264V27.6751H26.7318C28.1809 26.326 29.0204 24.3312 29.0204 21.9559Z" fill="#4285F4"/>
<path fill-rule="evenodd" clip-rule="evenodd" d="M21.671 29.5547C23.7412 29.5547 25.4778 28.8628 26.7429 27.6752L24.2702 25.7266C23.5802 26.1878 22.7061 26.4645 21.671 26.4645C19.6699 26.4645 17.9908 25.0924 17.3812 23.259H14.8165V25.2769C16.0816 27.8136 18.6693 29.5662 21.6595 29.5662L21.671 29.5547Z" fill="#34A853"/>
<path fill-rule="evenodd" clip-rule="evenodd" d="M17.3813 23.2475C17.2317 22.7862 17.1397 22.2789 17.1397 21.7716C17.1397 21.2642 17.2317 20.7569 17.3813 20.2957V18.2778H14.8166C14.299 19.3271 14 20.5147 14 21.7716C14 23.0284 14.299 24.216 14.8166 25.2653L17.3813 23.2475Z" fill="#FBBC05"/>
<path fill-rule="evenodd" clip-rule="evenodd" d="M21.6711 17.0902C22.7982 17.0902 23.8103 17.4822 24.6039 18.2547L26.8005 16.0294C25.4779 14.7725 23.7413 14 21.6711 14C18.6809 14 16.0817 15.7411 14.8281 18.2893L17.3928 20.3072C17.9909 18.4738 19.6815 17.1017 21.6826 17.1017L21.6711 17.0902Z" fill="#EA4335"/>
<path d="M44.3477 18.5843H46.2851C45.9646 16.6391 44.1656 15.283 41.8421 15.283C39.0817 15.283 37.0131 17.1939 37.0204 20.3788C37.0131 23.5227 38.987 25.4747 41.9004 25.4747C44.5079 25.4747 46.3725 23.8925 46.3725 21.3378V20.146H42.0898V21.5569H44.5371C44.5079 22.9679 43.4955 23.872 41.9004 23.872C40.1378 23.872 38.9214 22.6186 38.9287 20.3652C38.9214 18.1323 40.1596 16.8857 41.8567 16.8857C43.1386 16.8857 44.0054 17.5295 44.3477 18.5843Z" fill="white"/>
<path d="M51.3819 25.4884C53.6981 25.4884 55.1766 23.9473 55.1694 21.6528C55.1766 19.3378 53.6981 17.8035 51.3819 17.8035C49.073 17.8035 47.5944 19.3378 47.5944 21.6528C47.5944 23.9473 49.073 25.4884 51.3819 25.4884ZM49.4736 21.6391C49.4736 20.2761 50.1073 19.1802 51.3965 19.1871C52.6638 19.1802 53.2975 20.2761 53.2902 21.6391C53.2975 23.0021 52.6638 24.0912 51.3965 24.0912C50.1073 24.0912 49.4736 23.0021 49.4736 21.6391Z" fill="white"/>
<path d="M59.9893 25.4884C62.3055 25.4884 63.7841 23.9473 63.7768 21.6528C63.7841 19.3378 62.3055 17.8035 59.9893 17.8035C57.6804 17.8035 56.2019 19.3378 56.2019 21.6528C56.2019 23.9473 57.6804 25.4884 59.9893 25.4884ZM58.081 21.6391C58.081 20.2761 58.7147 19.1802 60.0039 19.1871C61.2712 19.1802 61.9049 20.2761 61.8976 21.6391C61.9049 23.0021 61.2712 24.0912 60.0039 24.0912C58.7147 24.0912 58.081 23.0021 58.081 21.6391Z" fill="white"/>
<path d="M68.5968 28.283C70.7309 28.283 72.2968 27.3652 72.2968 25.461V17.8994H70.4614V19.1186H70.374C70.0826 18.5912 69.4927 17.8035 68.1015 17.8035C66.266 17.8035 64.8239 19.1117 64.8239 21.5569C64.8239 23.9816 66.2588 25.2282 68.0869 25.2282C69.449 25.2282 70.0826 24.5432 70.374 23.9953H70.4614V25.4199C70.4614 26.509 69.7403 26.961 68.6259 26.9679C67.6718 26.961 67.0235 26.6597 66.8924 26.009H65.0424C65.1662 27.4062 66.4991 28.283 68.5968 28.283ZM66.7176 21.5843C66.7176 20.2282 67.3586 19.235 68.5968 19.2282C69.8059 19.235 70.4759 20.1665 70.4759 21.5843C70.4759 23.009 69.7986 23.8583 68.5968 23.8583C67.3731 23.8583 66.7176 22.9542 66.7176 21.5843Z" fill="white"/>
<path d="M75.8641 15.4199H73.9995V25.3378H75.8641V15.4199Z" fill="white"/>
<path d="M81.0774 25.4884C82.9128 25.4884 84.1802 24.6391 84.5152 23.3515H82.6943C82.4539 23.7967 81.9077 24.1254 81.0919 24.1186C79.8901 24.1254 79.0962 23.372 79.0671 22.1049H84.588V21.5569C84.588 18.9473 82.9128 17.8035 80.9754 17.8035C78.7175 17.8035 77.2316 19.3652 77.2316 21.6665C77.2316 23.9953 78.6956 25.4884 81.0774 25.4884ZM79.0744 20.9131C79.1399 19.9679 79.8901 19.1597 81.0045 19.1597C82.0752 19.1597 82.8036 19.8994 82.8108 20.9131H79.0744Z" fill="white"/>
<path d="M89.5082 25.3378H91.402V21.9816H93.4414C95.8741 21.9816 97.1779 20.6049 97.1851 18.7076C97.1779 16.8035 95.8887 15.4199 93.4705 15.4199H89.5082V25.3378ZM91.402 20.5158V16.9131H93.1792C94.6068 16.9131 95.2477 17.646 95.2477 18.7076C95.2477 19.7556 94.6068 20.509 93.1792 20.5158H91.402Z" fill="white"/>
<path d="M100.417 15.4199H98.5527V25.3378H100.417V15.4199Z" fill="white"/>
<path d="M101.756 23.2419C101.756 24.7145 102.899 25.4884 104.407 25.4884C105.652 25.4884 106.388 24.9405 106.738 24.3104H106.796V25.3378H108.573V20.3652C108.573 18.3857 106.84 17.8035 105.339 17.8035C103.358 17.8035 102.149 18.7556 102.018 20.0227H103.81C103.955 19.4884 104.465 19.1323 105.296 19.1323C106.221 19.1323 106.723 19.5569 106.723 20.2967L106.73 20.8925C106.381 20.9062 105.252 20.9542 104.698 20.9953C103.234 21.0843 101.756 21.5706 101.756 23.2419ZM103.548 23.2282C103.548 22.5775 104.108 22.2282 104.99 22.1597C105.361 22.1323 106.395 22.0706 106.73 22.0569L106.738 22.6665C106.738 23.5021 106.017 24.2008 104.888 24.2008C104.108 24.2008 103.548 23.872 103.548 23.2282Z" fill="white"/>
<path d="M111.077 28.1323C112.563 28.1254 113.393 27.4268 113.845 26.2419L117.02 17.8994H115.054L113.218 23.5158H113.131L111.295 17.8994H109.329L112.213 25.4884L112.053 25.8857C111.732 26.6871 111.354 26.7145 110.902 26.7213C110.655 26.7145 110.341 26.7145 110.116 26.6939V28.0912C110.356 28.1186 110.706 28.1254 111.077 28.1323Z" fill="white"/>
</svg>
