<svg width="131" height="45" viewBox="0 0 131 45" fill="none" xmlns="http://www.w3.org/2000/svg">
<rect width="131" height="45" rx="6" fill="black"/>
<path d="M30.6925 27.2459C30.4251 27.8377 30.1043 28.3791 29.7299 28.8828C29.2219 29.5627 28.8209 30.0412 28.5 30.3056C28.0053 30.7337 27.484 30.9603 26.9091 30.9729C26.508 30.9729 26.0134 30.8596 25.4385 30.6456C24.8636 30.4189 24.3422 30.3182 23.861 30.3182C23.3797 30.3182 22.8182 30.4315 22.2433 30.6456C21.6684 30.8722 21.2005 30.9855 20.8396 30.9981C20.2914 31.0233 19.7567 30.7967 19.2219 30.3182C18.8743 30.0286 18.4465 29.5375 17.9385 28.845C17.3904 28.1021 16.9358 27.2459 16.5749 26.2638C16.1872 25.2062 16 24.1737 16 23.179C16 22.0458 16.254 21.0637 16.7754 20.2326C17.1765 19.5779 17.7246 19.0491 18.393 18.6713C19.0749 18.2936 19.7968 18.0921 20.5856 18.0795C21.0134 18.0795 21.5749 18.2055 22.2834 18.4573C22.9786 18.7091 23.4332 18.835 23.6337 18.835C23.7807 18.835 24.2754 18.6839 25.131 18.3943C25.9332 18.1173 26.6016 18.004 27.1631 18.0544C28.6604 18.1677 29.7834 18.7343 30.5321 19.7416C29.1952 20.5096 28.5267 21.6051 28.5401 22.9901C28.5401 24.073 28.9679 24.9795 29.7701 25.6972C30.131 26.0246 30.5455 26.289 31 26.4653C30.9064 26.7423 30.7995 27.0067 30.6791 27.2585L30.6925 27.2459ZM27.2567 14.3526C27.2567 15.1962 26.9358 15.9894 26.2807 16.7323C25.492 17.6011 24.5561 18.1047 23.5267 18.0292C23.5267 17.9285 23.5 17.8151 23.5 17.7018C23.5 16.8834 23.8743 16.0146 24.5294 15.2969C24.8636 14.9317 25.2781 14.6296 25.7861 14.3903C26.2941 14.1511 26.7754 14.0252 27.2299 14C27.2299 14.1133 27.2433 14.2266 27.2433 14.34L27.2567 14.3526Z" fill="white"/>
<path d="M40.9761 26.1422L41.8291 23.6347H45.7032L46.5633 26.1422H48.5395L44.9 16H42.6253L39 26.1422H40.9761ZM42.3267 22.1638L43.72 18.0733H43.8053L45.2056 22.1638H42.3267Z" fill="white"/>
<path d="M49.604 29H51.4237V24.9375H51.4948C51.7792 25.4978 52.3834 26.2753 53.7126 26.2823C55.5324 26.2753 56.8901 24.8464 56.8972 22.3459C56.8901 19.8103 55.4897 18.4375 53.7126 18.4375C52.3407 18.4375 51.7721 19.243 51.4948 19.7823H51.3811V18.5356H49.604V29ZM51.3811 22.3319C51.3882 20.854 52.028 19.9014 53.2151 19.8944C54.4306 19.9014 55.049 20.917 55.049 22.3319C55.049 23.7678 54.4164 24.8114 53.2151 24.8114C52.0422 24.8114 51.3882 23.8168 51.3811 22.3319Z" fill="white"/>
<path d="M58.2461 29H60.0658V24.9375H60.1369C60.4213 25.4978 61.0255 26.2753 62.3547 26.2823C64.1745 26.2753 65.5322 24.8464 65.5393 22.3459C65.5322 19.8103 64.1318 18.4375 62.3547 18.4375C60.9828 18.4375 60.4141 19.243 60.1369 19.7823H60.0232V18.5356H58.2461V29ZM60.0232 22.3319C60.0303 20.854 60.6701 19.9014 61.8572 19.8944C63.0727 19.9014 63.6911 20.917 63.6911 22.3319C63.6911 23.7678 63.0585 24.8114 61.8572 24.8114C60.6843 24.8114 60.0303 23.8168 60.0232 22.3319Z" fill="white"/>
<path d="M68.7079 16H66.8882V21.0711V26.1422H68.7079V16Z" fill="white"/>
<path d="M73.7958 26.2963C75.5871 26.2963 76.824 25.4278 77.151 24.111H75.3739C75.1393 24.5663 74.6062 24.9025 73.81 24.8955C72.6372 24.9025 71.8623 24.132 71.8339 22.8362H77.2221V22.2759C77.2221 19.6072 75.5871 18.4375 73.6963 18.4375C71.4927 18.4375 70.0426 20.0345 70.0426 22.3879C70.0426 24.7694 71.4714 26.2963 73.7958 26.2963ZM71.841 21.6175C71.905 20.6509 72.6372 19.8244 73.7247 19.8244C74.7697 19.8244 75.4805 20.5808 75.4876 21.6175H71.841Z" fill="white"/>
<path d="M86.3174 20.7069H88.0376C87.9026 19.327 86.7652 18.4375 84.9241 18.4375C83.0404 18.4375 81.8036 19.3551 81.8107 20.7629C81.8036 21.8486 82.5499 22.5911 83.9858 22.8782L85.2227 23.1444C85.9904 23.3055 86.3387 23.5857 86.3458 24.0269C86.3387 24.5943 85.77 24.9445 84.8957 24.9375C84.0498 24.9445 83.538 24.6223 83.4314 23.9709H81.5832C81.7751 25.4278 82.9338 26.2963 84.8957 26.2963C86.9145 26.2963 88.1869 25.3017 88.194 23.8728C88.1869 22.7802 87.4761 22.1148 86.0188 21.7996L84.7109 21.5334C83.929 21.3513 83.6091 21.0571 83.6162 20.6649C83.6091 20.1466 84.1778 19.7613 84.9526 19.7683C85.7203 19.7613 86.2036 20.1325 86.3174 20.7069Z" fill="white"/>
<path d="M93.353 18.5356H91.8318V16.7144H90.0263V18.5356H88.9173V19.9084H90.0263V24.153C90.012 25.5819 91.0641 26.2473 92.4289 26.2403C92.8909 26.2473 93.2392 26.2053 93.4525 26.1703V24.7134C93.225 24.7274 92.8696 24.7484 92.6564 24.7414C92.2014 24.7344 91.8318 24.5873 91.8318 23.8588V19.9084H93.353V18.5356Z" fill="white"/>
<path d="M97.9575 26.2963C100.218 26.2963 101.661 24.7204 101.654 22.3739C101.661 20.0065 100.218 18.4375 97.9575 18.4375C95.7041 18.4375 94.2611 20.0065 94.2611 22.3739C94.2611 24.7204 95.7041 26.2963 97.9575 26.2963ZM96.0951 22.3599C96.0951 20.9661 96.7135 19.8454 97.9717 19.8524C99.2086 19.8454 99.827 20.9661 99.8199 22.3599C99.827 23.7538 99.2086 24.8675 97.9717 24.8675C96.7135 24.8675 96.0951 23.7538 96.0951 22.3599Z" fill="white"/>
<path d="M102.989 26.1422H104.808V21.6595C104.808 20.6999 105.548 20.0135 106.557 20.0065C106.855 20.0135 107.232 20.0625 107.396 20.1185V18.4655C107.225 18.4445 106.941 18.4235 106.742 18.4235C105.853 18.4235 105.114 18.9208 104.837 19.7963H104.751V18.5356H102.989V26.1422Z" fill="white"/>
<path d="M111.574 26.2963C113.365 26.2963 114.602 25.4278 114.929 24.111H113.152C112.917 24.5663 112.384 24.9025 111.588 24.8955C110.415 24.9025 109.64 24.132 109.612 22.8362H115V22.2759C115 19.6072 113.365 18.4375 111.474 18.4375C109.271 18.4375 107.821 20.0345 107.821 22.3879C107.821 24.7694 109.249 26.2963 111.574 26.2963ZM109.619 21.6175C109.683 20.6509 110.415 19.8244 111.503 19.8244C112.548 19.8244 113.258 20.5808 113.266 21.6175H109.619Z" fill="white"/>
</svg>
