<svg width="164" height="56" viewBox="0 0 164 56" fill="none" xmlns="http://www.w3.org/2000/svg">
<rect width="164" height="56" rx="10" fill="black"/>
<path d="M37.631 33.3626C37.3102 34.0937 36.9251 34.7625 36.4759 35.3846C35.8663 36.2245 35.385 36.8156 35 37.1422C34.4064 37.671 33.7807 37.951 33.0909 37.9666C32.6096 37.9666 32.016 37.8266 31.3262 37.5622C30.6364 37.2822 30.0107 37.1578 29.4332 37.1578C28.8556 37.1578 28.1818 37.2977 27.492 37.5622C26.8021 37.8421 26.2406 37.9821 25.8075 37.9977C25.1497 38.0288 24.508 37.7488 23.8663 37.1578C23.4492 36.8 22.9358 36.1934 22.3262 35.338C21.6685 34.4203 21.123 33.3626 20.6898 32.1494C20.2246 30.8429 20 29.5675 20 28.3387C20 26.9389 20.3048 25.7257 20.9305 24.6991C21.4118 23.8903 22.0695 23.2371 22.8717 22.7705C23.6898 22.3039 24.5561 22.055 25.5027 22.0394C26.016 22.0394 26.6898 22.195 27.5401 22.5061C28.3743 22.8171 28.9198 22.9727 29.1604 22.9727C29.3369 22.9727 29.9305 22.786 30.9572 22.4283C31.9198 22.0861 32.7219 21.9461 33.3957 22.0083C35.1925 22.1483 36.5401 22.8482 37.4385 24.0925C35.8342 25.0413 35.0321 26.3945 35.0481 28.1054C35.0481 29.4431 35.5615 30.5629 36.5241 31.4495C36.9572 31.8539 37.4545 32.1805 38 32.3983C37.8877 32.7405 37.7594 33.0671 37.615 33.3782L37.631 33.3626ZM33.508 17.4355C33.508 18.4776 33.123 19.4575 32.3369 20.3752C31.3904 21.4484 30.2674 22.0705 29.0321 21.9772C29.0321 21.8528 29 21.7128 29 21.5728C29 20.5618 29.4492 19.4886 30.2353 18.602C30.6364 18.151 31.1337 17.7777 31.7433 17.4822C32.3529 17.1866 32.9305 17.0311 33.4759 17C33.4759 17.14 33.492 17.28 33.492 17.42L33.508 17.4355Z" fill="white"/>
<path d="M48.4434 34.4141L49.498 31.2676H54.2881L55.3516 34.4141H57.7949L53.2949 21.6875H50.4824L46 34.4141H48.4434ZM50.1133 29.4219L51.8359 24.2891H51.9414L53.6729 29.4219H50.1133Z" fill="white"/>
<path d="M59.1112 38H61.3612V32.9023H61.4491C61.8006 33.6055 62.5477 34.5811 64.1912 34.5898C66.4412 34.5811 68.12 32.7881 68.1287 29.6504C68.12 26.4688 66.3885 24.7461 64.1912 24.7461C62.495 24.7461 61.7918 25.7568 61.4491 26.4336H61.3084V24.8691H59.1112V38ZM61.3084 29.6328C61.3172 27.7783 62.1082 26.583 63.576 26.5742C65.0789 26.583 65.8436 27.8574 65.8436 29.6328C65.8436 31.4346 65.0614 32.7441 63.576 32.7441C62.1258 32.7441 61.3172 31.4961 61.3084 29.6328Z" fill="white"/>
<path d="M69.7966 38H72.0466V32.9023H72.1345C72.486 33.6055 73.2331 34.5811 74.8766 34.5898C77.1266 34.5811 78.8054 32.7881 78.8141 29.6504C78.8054 26.4688 77.0739 24.7461 74.8766 24.7461C73.1804 24.7461 72.4772 25.7568 72.1345 26.4336H71.9938V24.8691H69.7966V38ZM71.9938 29.6328C72.0026 27.7783 72.7936 26.583 74.2614 26.5742C75.7643 26.583 76.529 27.8574 76.529 29.6328C76.529 31.4346 75.7468 32.7441 74.2614 32.7441C72.8112 32.7441 72.0026 31.4961 71.9938 29.6328Z" fill="white"/>
<path d="M82.732 21.6875H80.482V34.4141H82.732V21.6875Z" fill="white"/>
<path d="M89.0228 34.6074C91.2377 34.6074 92.767 33.5176 93.1712 31.8652H90.974C90.6839 32.4365 90.0248 32.8584 89.0404 32.8496C87.5902 32.8584 86.6322 31.8916 86.597 30.2656H93.2591V29.5625C93.2591 26.2139 91.2377 24.7461 88.8998 24.7461C86.1752 24.7461 84.3822 26.75 84.3822 29.7031C84.3822 32.6914 86.1488 34.6074 89.0228 34.6074ZM86.6058 28.7363C86.6849 27.5234 87.5902 26.4863 88.9349 26.4863C90.2269 26.4863 91.1058 27.4355 91.1146 28.7363H86.6058Z" fill="white"/>
<path d="M104.505 27.5938H106.632C106.465 25.8623 105.059 24.7461 102.782 24.7461C100.453 24.7461 98.9239 25.8975 98.9327 27.6641C98.9239 29.0264 99.8467 29.958 101.622 30.3184L103.151 30.6523C104.101 30.8545 104.531 31.2061 104.54 31.7598C104.531 32.4717 103.828 32.9111 102.747 32.9023C101.701 32.9111 101.068 32.5068 100.937 31.6895H98.6514C98.8887 33.5176 100.321 34.6074 102.747 34.6074C105.243 34.6074 106.816 33.3594 106.825 31.5664C106.816 30.1953 105.938 29.3604 104.136 28.9648L102.519 28.6309C101.552 28.4023 101.156 28.0332 101.165 27.541C101.156 26.8906 101.859 26.4072 102.817 26.416C103.767 26.4072 104.364 26.873 104.505 27.5938Z" fill="white"/>
<path d="M113.204 24.8691H111.323V22.584H109.091V24.8691H107.72V26.5918H109.091V31.918C109.073 33.7109 110.374 34.5459 112.061 34.5371C112.633 34.5459 113.063 34.4932 113.327 34.4492V32.6211C113.046 32.6387 112.606 32.665 112.343 32.6562C111.78 32.6475 111.323 32.4629 111.323 31.5488V26.5918H113.204V24.8691Z" fill="white"/>
<path d="M118.897 34.6074C121.692 34.6074 123.476 32.6299 123.467 29.6855C123.476 26.7148 121.692 24.7461 118.897 24.7461C116.111 24.7461 114.327 26.7148 114.327 29.6855C114.327 32.6299 116.111 34.6074 118.897 34.6074ZM116.594 29.668C116.594 27.9189 117.359 26.5127 118.915 26.5215C120.444 26.5127 121.209 27.9189 121.2 29.668C121.209 31.417 120.444 32.8145 118.915 32.8145C117.359 32.8145 116.594 31.417 116.594 29.668Z" fill="white"/>
<path d="M125.118 34.4141H127.368V28.7891C127.368 27.585 128.282 26.7236 129.53 26.7148C129.899 26.7236 130.365 26.7852 130.567 26.8555V24.7812C130.356 24.7549 130.004 24.7285 129.758 24.7285C128.66 24.7285 127.746 25.3525 127.403 26.4512H127.297V24.8691H125.118V34.4141Z" fill="white"/>
<path d="M135.733 34.6074C137.948 34.6074 139.477 33.5176 139.881 31.8652H137.684C137.394 32.4365 136.735 32.8584 135.75 32.8496C134.3 32.8584 133.342 31.8916 133.307 30.2656H139.969V29.5625C139.969 26.2139 137.948 24.7461 135.61 24.7461C132.885 24.7461 131.092 26.75 131.092 29.7031C131.092 32.6914 132.859 34.6074 135.733 34.6074ZM133.316 28.7363C133.395 27.5234 134.3 26.4863 135.645 26.4863C136.937 26.4863 137.816 27.4355 137.825 28.7363H133.316Z" fill="white"/>
</svg>
