<svg width="50" height="50" viewBox="0 0 50 50" fill="none" xmlns="http://www.w3.org/2000/svg">
<path d="M38.8573 10.356C36.2684 9.14369 33.4998 8.26142 30.6062 7.75928C30.2499 8.40221 29.8359 9.26884 29.5484 9.95714C26.472 9.4941 23.4237 9.4941 20.4036 9.95714C20.1176 9.26884 19.6926 8.40377 19.3333 7.75928C16.4366 8.26142 13.6648 9.14526 11.0743 10.3623C5.85271 18.2636 4.43716 25.9679 5.14493 33.5642C8.60882 36.1547 11.9649 37.7268 15.2663 38.7561C16.0819 37.633 16.8084 36.4394 17.4334 35.1817C16.2413 34.728 15.0991 34.168 14.0195 33.5188C14.3054 33.3061 14.5851 33.0839 14.857 32.8556C21.4379 35.9373 28.5891 35.9373 35.0919 32.8556C35.3653 33.0839 35.645 33.3061 35.9293 33.5188C34.8466 34.1711 33.7013 34.7312 32.5092 35.1848C33.1357 36.4394 33.8591 37.6361 34.6763 38.7593C37.9792 37.73 41.34 36.1563 44.8039 33.5642C45.6351 24.7587 43.3852 17.1248 38.8573 10.356ZM18.3287 28.8916C16.3538 28.8916 14.7335 27.0457 14.7335 24.7962C14.7335 22.5467 16.3194 20.6977 18.3287 20.6977C20.3379 20.6977 21.9597 22.5436 21.9238 24.7962C21.9269 27.0457 20.3379 28.8916 18.3287 28.8916ZM31.6171 28.8916C29.6422 28.8916 28.0219 27.0457 28.0219 24.7962C28.0219 22.5467 29.6078 20.6977 31.6171 20.6977C33.6263 20.6977 35.2481 22.5436 35.2122 24.7962C35.2122 27.0457 33.6263 28.8916 31.6171 28.8916Z" fill="#1CE2D9"/>
</svg>
