<svg width="50" height="50" viewBox="0 0 50 50" fill="none" xmlns="http://www.w3.org/2000/svg">
<path d="M31.7885 7.84302H34.3272C35.9488 8.05537 37.5703 8.24176 38.8824 9.41677C39.3236 9.8108 39.8988 9.64328 40.4231 9.49699C41.3125 9.24925 42.1464 8.85994 42.9803 8.47063C43.3822 8.28188 43.8049 8.19458 44.1468 8.56973C44.4748 8.92836 44.424 9.35542 44.2369 9.76833C43.7449 10.8442 43.0819 11.7715 42.2203 12.2859C43.0265 12.1065 43.9089 11.033 45.0477 11.9886C45.2094 12.6728 44.9738 13.2721 44.4517 13.6425C42.2318 15.2257 41.8415 17.505 41.5158 20.0744C40.4832 28.2003 36.3368 34.3444 29.2545 38.3554C27.1363 39.5564 24.854 40.3256 22.3847 40.3633C22.0451 40.368 21.6848 40.3114 21.4076 40.5969H15.1776C14.6417 40.1863 13.9926 40.3185 13.4082 40.2949C10.9157 40.1934 8.79056 39.0632 6.65385 37.9425C6.22882 37.7184 5.92159 37.3833 5.88232 36.8642C6.30967 36.0502 7.09043 36.3263 7.73029 36.3121C10.3036 36.2579 12.7152 35.5949 15.002 34.4293C15.27 34.2924 15.5726 34.1933 15.7505 33.8866C15.6604 33.4501 15.2492 33.4714 14.9535 33.3581C12.9762 32.6125 11.4586 31.2983 10.3775 29.4839C9.49279 27.9974 9.94323 27.2424 11.6272 27.2377C11.6018 27.233 11.6203 27.2188 11.5972 27.2141C9.11165 25.9801 7.594 23.9911 6.96338 21.2942C6.804 20.61 6.60534 19.8691 7.17821 19.3099C7.77187 18.7319 8.4048 19.258 9.02849 19.3949C6.85251 16.6744 6.14104 13.6779 7.43231 10.3252C7.95205 8.97555 8.71433 8.90949 9.71455 9.97124C13.4082 13.895 17.8525 16.4125 23.2024 17.144C24.332 17.2997 24.5607 17.1251 24.5306 16.0067C24.4613 13.3618 25.5747 11.3279 27.3811 9.50407C28.6493 8.22289 30.2362 8.16154 31.7885 7.84302V7.84302Z" fill="#1CE2D9"/>
</svg>
