<svg width="50" height="50" viewBox="0 0 50 50" fill="none" xmlns="http://www.w3.org/2000/svg">
<g clip-path="url(#clip0_472_23309)">
<path d="M13.0957 22.9526C12.6159 22.9526 12.205 23.1259 11.8657 23.4697C11.5237 23.8135 11.354 24.2309 11.354 24.719C11.354 25.2072 11.5237 25.6246 11.8657 25.9684C12.2076 26.3122 12.6159 26.4854 13.0957 26.4854C13.5756 26.4854 13.9997 26.3122 14.347 25.9684C14.6943 25.6246 14.8666 25.2072 14.8666 24.719C14.8666 24.2309 14.6943 23.8135 14.347 23.4697C13.9997 23.1259 13.5835 22.9526 13.0957 22.9526Z" fill="#1CE2D9"/>
<path d="M27.9761 22.9397C27.4963 22.9397 27.0854 23.1103 26.746 23.4541C26.404 23.798 26.2344 24.2153 26.2344 24.7035C26.2344 25.1917 26.4067 25.609 26.746 25.9528C27.0854 26.2967 27.4963 26.4673 27.9761 26.4673C28.456 26.4673 28.8801 26.294 29.2274 25.9528C29.5747 25.609 29.747 25.1917 29.747 24.7035C29.747 24.2153 29.5747 23.798 29.2274 23.4541C28.8801 23.1103 28.4639 22.9397 27.9761 22.9397Z" fill="#1CE2D9"/>
<path d="M37.8989 22.9526C37.4191 22.9526 37.0082 23.1259 36.6662 23.4697C36.3269 23.8135 36.1545 24.2309 36.1545 24.719C36.1545 25.2072 36.3269 25.6246 36.6662 25.9684C37.0082 26.3122 37.4191 26.4854 37.8989 26.4854C38.3788 26.4854 38.8029 26.3122 39.1502 25.9684C39.4975 25.6246 39.6698 25.2072 39.6698 24.719C39.6698 24.2309 39.4949 23.8135 39.1502 23.4697C38.8029 23.1259 38.3867 22.9526 37.8989 22.9526Z" fill="#1CE2D9"/>
<path d="M42.3103 10H8.68705C6.11023 10 4 12.0892 4 14.6404V33.4672C4 36.0184 6.11023 38.1076 8.68705 38.1076H21.8893C21.8893 38.1076 24.4396 44.9974 25.3674 44.9974C26.2953 44.9974 29.0551 38.1076 29.0551 38.1076H42.3103C44.8898 38.1076 46.9974 36.0184 46.9974 33.4672V14.6404C46.9974 12.0892 44.8871 10 42.3103 10ZM16.497 27.3806C15.8316 28.1234 14.811 28.4357 13.6975 28.4357C12.6928 28.4357 11.9584 28.1365 11.415 27.727H11.3832V28.2572H8.85937V17.357H11.3832V21.5223H11.415C12.099 20.9449 13.0056 20.748 14.074 20.7139C14.9886 20.6824 15.9403 21.2493 16.5103 21.9029C17.0776 22.5538 17.4938 23.5748 17.4938 24.7034C17.4938 25.9318 17.1651 26.6352 16.497 27.378V27.3806ZM21.9158 28.3386H19.3416V21.5932C19.3416 20.0367 18.0983 19.832 18.0983 19.832V17.1339C18.0983 17.1339 21.7064 17.3517 21.9158 21.6798V28.3412V28.3386ZM32.0163 26.2703C31.7989 26.7585 31.4861 27.1942 31.0699 27.5774C30.6616 27.9554 30.1924 28.2467 29.6595 28.4488C29.1293 28.6509 28.5673 28.7533 27.9761 28.7533C27.3849 28.7533 26.8441 28.6509 26.3192 28.4488C25.7916 28.2467 25.3224 27.9554 24.9088 27.5774C24.482 27.1785 24.1612 26.7402 23.9412 26.2546C23.7238 25.7717 23.6125 25.2598 23.6125 24.7165C23.6125 24.1732 23.7211 23.6614 23.9412 23.1785C24.1612 22.6955 24.482 22.2546 24.9088 21.8556C25.325 21.4777 25.7943 21.1864 26.3192 20.9843C26.8441 20.7822 27.3955 20.6824 27.9761 20.6824C28.5567 20.6824 29.1266 20.7822 29.6595 20.9843C30.1897 21.1864 30.6589 21.4777 31.0699 21.8556C31.4861 22.2388 31.7989 22.6745 32.0163 23.1627C32.231 23.6509 32.3397 24.168 32.3397 24.7165C32.3397 25.2651 32.231 25.7795 32.0163 26.2677V26.2703ZM42.1406 27.3517C42.1406 29.2651 41.7748 30.4331 40.9105 31.2441C39.8846 32.2074 38.4239 32.2756 37.1938 32.1024V30.1234C38.2197 30.2257 39.6327 29.5564 39.6301 28.2388V27.7323H39.5983C39.023 28.5197 38.1826 28.8058 37.0639 28.8058C36.0273 28.8058 35.1286 28.4278 34.5215 27.7218C33.9118 27.0157 33.6096 26.0709 33.6096 24.8845C33.6096 23.5538 33.9489 22.4987 34.6276 21.7165C35.3036 20.9344 36.2712 20.5696 37.3767 20.5696C38.3682 20.5696 38.9912 20.8058 39.6009 21.357H39.6327V20.7612H42.1406V27.3543V27.3517Z" fill="#1CE2D9"/>
</g>
<defs>
<clipPath id="clip0_472_23309">
<rect width="43" height="35" fill="white" transform="translate(4 10)"/>
</clipPath>
</defs>
</svg>
