<svg width="50" height="50" viewBox="0 0 50 50" fill="none" xmlns="http://www.w3.org/2000/svg">
<path d="M17.44 7H32.56C38.32 7 43 11.68 43 17.44V32.56C43 35.3289 41.9001 37.9843 39.9422 39.9422C37.9843 41.9001 35.3289 43 32.56 43H17.44C11.68 43 7 38.32 7 32.56V17.44C7 14.6711 8.09993 12.0157 10.0578 10.0578C12.0157 8.09993 14.6711 7 17.44 7ZM17.08 10.6C15.3614 10.6 13.7132 11.2827 12.4979 12.4979C11.2827 13.7132 10.6 15.3614 10.6 17.08V32.92C10.6 36.502 13.498 39.4 17.08 39.4H32.92C34.6386 39.4 36.2868 38.7173 37.5021 37.5021C38.7173 36.2868 39.4 34.6386 39.4 32.92V17.08C39.4 13.498 36.502 10.6 32.92 10.6H17.08ZM34.45 13.3C35.0467 13.3 35.619 13.5371 36.041 13.959C36.4629 14.381 36.7 14.9533 36.7 15.55C36.7 16.1467 36.4629 16.719 36.041 17.141C35.619 17.5629 35.0467 17.8 34.45 17.8C33.8533 17.8 33.281 17.5629 32.859 17.141C32.437 16.719 32.2 16.1467 32.2 15.55C32.2 14.9533 32.437 14.381 32.859 13.959C33.281 13.5371 33.8533 13.3 34.45 13.3ZM25 16C27.3869 16 29.6761 16.9482 31.364 18.636C33.0518 20.3239 34 22.6131 34 25C34 27.3869 33.0518 29.6761 31.364 31.364C29.6761 33.0518 27.3869 34 25 34C22.6131 34 20.3239 33.0518 18.636 31.364C16.9482 29.6761 16 27.3869 16 25C16 22.6131 16.9482 20.3239 18.636 18.636C20.3239 16.9482 22.6131 16 25 16ZM25 19.6C23.5678 19.6 22.1943 20.1689 21.1816 21.1816C20.1689 22.1943 19.6 23.5678 19.6 25C19.6 26.4322 20.1689 27.8057 21.1816 28.8184C22.1943 29.8311 23.5678 30.4 25 30.4C26.4322 30.4 27.8057 29.8311 28.8184 28.8184C29.8311 27.8057 30.4 26.4322 30.4 25C30.4 23.5678 29.8311 22.1943 28.8184 21.1816C27.8057 20.1689 26.4322 19.6 25 19.6Z" fill="#1CE2D9"/>
</svg>
