<svg width="24" height="22" viewBox="0 0 24 22" fill="none" xmlns="http://www.w3.org/2000/svg">
<g clip-path="url(#clip0_561_1354)">
<path d="M21.9393 0.224681C21.0143 0.536746 20.0937 0.879578 19.1731 1.20922C16.8152 2.05751 14.4572 2.91459 12.0906 3.7497C11.8691 3.82881 11.5738 3.82881 11.3524 3.75409C9.6979 3.20029 8.05212 2.62011 6.40633 2.04433C4.7258 1.45975 3.04093 0.870787 1.35605 0.277424C0.995631 0.149961 0.665605 0.14117 0.37466 0.426864C0.101086 0.694976 0.0316067 1.0466 0.222675 1.40701C0.544016 2.00477 0.882727 2.59374 1.22144 3.18271C2.3635 5.18256 3.50991 7.17802 4.65632 9.17348C5.66811 10.9404 6.68424 12.7073 7.69603 14.4742C8.74691 16.307 9.79344 18.1399 10.8443 19.9727C11.0267 20.2891 11.2047 20.6056 11.3958 20.9177C11.5565 21.1814 11.791 21.3308 12.0689 21.3528C12.5162 21.3616 12.768 21.1242 12.9461 20.777C13.8449 19.0453 14.7395 17.3135 15.6384 15.5862C16.9845 12.993 18.335 10.4042 19.6855 7.81533C20.7408 5.78471 21.8003 3.75409 22.8425 1.71468C22.9598 1.48613 23.0683 1.21362 23.0553 0.971879C23.0205 0.396097 22.4821 0.044474 21.9393 0.229076V0.224681Z" fill="#B8FF70"/>
</g>
<defs>
<clipPath id="clip0_561_1354">
<rect width="22.9412" height="21.1765" fill="white" transform="translate(0.114258 0.176514)"/>
</clipPath>
</defs>
</svg>
