<svg width="164" height="56" viewBox="0 0 164 56" fill="none" xmlns="http://www.w3.org/2000/svg">
<rect width="164" height="56" rx="10" fill="white"/>
<path d="M37.631 32.3626C37.3102 33.0937 36.9251 33.7625 36.4759 34.3846C35.8663 35.2245 35.385 35.8156 35 36.1422C34.4064 36.671 33.7807 36.951 33.0909 36.9666C32.6096 36.9666 32.016 36.8266 31.3262 36.5622C30.6364 36.2822 30.0107 36.1578 29.4332 36.1578C28.8556 36.1578 28.1818 36.2977 27.492 36.5622C26.8021 36.8421 26.2406 36.9821 25.8075 36.9977C25.1497 37.0288 24.508 36.7488 23.8663 36.1578C23.4492 35.8 22.9358 35.1934 22.3262 34.338C21.6685 33.4203 21.123 32.3626 20.6898 31.1494C20.2246 29.8429 20 28.5675 20 27.3387C20 25.9389 20.3048 24.7257 20.9305 23.6991C21.4118 22.8903 22.0695 22.2371 22.8717 21.7705C23.6898 21.3039 24.5561 21.055 25.5027 21.0394C26.016 21.0394 26.6898 21.195 27.5401 21.5061C28.3743 21.8171 28.9198 21.9727 29.1604 21.9727C29.3369 21.9727 29.9305 21.786 30.9572 21.4283C31.9198 21.0861 32.7219 20.9461 33.3957 21.0083C35.1925 21.1483 36.5401 21.8482 37.4385 23.0925C35.8342 24.0413 35.0321 25.3945 35.0481 27.1054C35.0481 28.4431 35.5615 29.5629 36.5241 30.4495C36.9572 30.8539 37.4545 31.1805 38 31.3983C37.8877 31.7405 37.7594 32.0671 37.615 32.3782L37.631 32.3626ZM33.508 16.4355C33.508 17.4776 33.123 18.4575 32.3369 19.3752C31.3904 20.4484 30.2674 21.0705 29.0321 20.9772C29.0321 20.8528 29 20.7128 29 20.5728C29 19.5618 29.4492 18.4886 30.2353 17.602C30.6364 17.151 31.1337 16.7777 31.7433 16.4822C32.3529 16.1866 32.9305 16.0311 33.4759 16C33.4759 16.14 33.492 16.28 33.492 16.42L33.508 16.4355Z" fill="black"/>
<path d="M48.4434 33.7266L49.498 30.5801H54.2881L55.3516 33.7266H57.7949L53.2949 21H50.4824L46 33.7266H48.4434ZM50.1133 28.7344L51.8359 23.6016H51.9414L53.6729 28.7344H50.1133Z" fill="black"/>
<path d="M59.1112 37.3125H61.3612V32.2148H61.4491C61.8006 32.918 62.5477 33.8936 64.1912 33.9023C66.4412 33.8936 68.12 32.1006 68.1287 28.9629C68.12 25.7812 66.3885 24.0586 64.1912 24.0586C62.495 24.0586 61.7918 25.0693 61.4491 25.7461H61.3084V24.1816H59.1112V37.3125ZM61.3084 28.9453C61.3172 27.0908 62.1082 25.8955 63.576 25.8867C65.0789 25.8955 65.8436 27.1699 65.8436 28.9453C65.8436 30.7471 65.0614 32.0566 63.576 32.0566C62.1258 32.0566 61.3172 30.8086 61.3084 28.9453Z" fill="black"/>
<path d="M69.7966 37.3125H72.0466V32.2148H72.1345C72.486 32.918 73.2331 33.8936 74.8766 33.9023C77.1266 33.8936 78.8054 32.1006 78.8141 28.9629C78.8054 25.7812 77.0739 24.0586 74.8766 24.0586C73.1804 24.0586 72.4772 25.0693 72.1345 25.7461H71.9938V24.1816H69.7966V37.3125ZM71.9938 28.9453C72.0026 27.0908 72.7936 25.8955 74.2614 25.8867C75.7643 25.8955 76.529 27.1699 76.529 28.9453C76.529 30.7471 75.7468 32.0566 74.2614 32.0566C72.8112 32.0566 72.0026 30.8086 71.9938 28.9453Z" fill="black"/>
<path d="M82.732 21H80.482V33.7266H82.732V21Z" fill="black"/>
<path d="M89.0228 33.9199C91.2377 33.9199 92.767 32.8301 93.1712 31.1777H90.974C90.6839 31.749 90.0248 32.1709 89.0404 32.1621C87.5902 32.1709 86.6322 31.2041 86.597 29.5781H93.2591V28.875C93.2591 25.5264 91.2377 24.0586 88.8998 24.0586C86.1752 24.0586 84.3822 26.0625 84.3822 29.0156C84.3822 32.0039 86.1488 33.9199 89.0228 33.9199ZM86.6058 28.0488C86.6849 26.8359 87.5902 25.7988 88.9349 25.7988C90.2269 25.7988 91.1058 26.748 91.1146 28.0488H86.6058Z" fill="black"/>
<path d="M104.505 26.9062H106.632C106.465 25.1748 105.059 24.0586 102.782 24.0586C100.453 24.0586 98.9239 25.21 98.9327 26.9766C98.9239 28.3389 99.8467 29.2705 101.622 29.6309L103.151 29.9648C104.101 30.167 104.531 30.5186 104.54 31.0723C104.531 31.7842 103.828 32.2236 102.747 32.2148C101.701 32.2236 101.068 31.8193 100.937 31.002H98.6514C98.8887 32.8301 100.321 33.9199 102.747 33.9199C105.243 33.9199 106.816 32.6719 106.825 30.8789C106.816 29.5078 105.938 28.6729 104.136 28.2773L102.519 27.9434C101.552 27.7148 101.156 27.3457 101.165 26.8535C101.156 26.2031 101.859 25.7197 102.817 25.7285C103.767 25.7197 104.364 26.1855 104.505 26.9062Z" fill="black"/>
<path d="M113.204 24.1816H111.323V21.8965H109.091V24.1816H107.72V25.9043H109.091V31.2305C109.073 33.0234 110.374 33.8584 112.061 33.8496C112.633 33.8584 113.063 33.8057 113.327 33.7617V31.9336C113.046 31.9512 112.606 31.9775 112.343 31.9688C111.78 31.96 111.323 31.7754 111.323 30.8613V25.9043H113.204V24.1816Z" fill="black"/>
<path d="M118.897 33.9199C121.692 33.9199 123.476 31.9424 123.467 28.998C123.476 26.0273 121.692 24.0586 118.897 24.0586C116.111 24.0586 114.327 26.0273 114.327 28.998C114.327 31.9424 116.111 33.9199 118.897 33.9199ZM116.594 28.9805C116.594 27.2314 117.359 25.8252 118.915 25.834C120.444 25.8252 121.209 27.2314 121.2 28.9805C121.209 30.7295 120.444 32.127 118.915 32.127C117.359 32.127 116.594 30.7295 116.594 28.9805Z" fill="black"/>
<path d="M125.118 33.7266H127.368V28.1016C127.368 26.8975 128.282 26.0361 129.53 26.0273C129.899 26.0361 130.365 26.0977 130.567 26.168V24.0938C130.356 24.0674 130.004 24.041 129.758 24.041C128.66 24.041 127.746 24.665 127.403 25.7637H127.297V24.1816H125.118V33.7266Z" fill="black"/>
<path d="M135.733 33.9199C137.948 33.9199 139.477 32.8301 139.881 31.1777H137.684C137.394 31.749 136.735 32.1709 135.75 32.1621C134.3 32.1709 133.342 31.2041 133.307 29.5781H139.969V28.875C139.969 25.5264 137.948 24.0586 135.61 24.0586C132.885 24.0586 131.092 26.0625 131.092 29.0156C131.092 32.0039 132.859 33.9199 135.733 33.9199ZM133.316 28.0488C133.395 26.8359 134.3 25.7988 135.645 25.7988C136.937 25.7988 137.816 26.748 137.825 28.0488H133.316Z" fill="black"/>
</svg>
