<svg width="164" height="56" viewBox="0 0 164 56" fill="none" xmlns="http://www.w3.org/2000/svg">
<rect width="164" height="56" rx="10" fill="white"/>
<path fill-rule="evenodd" clip-rule="evenodd" d="M38.2079 26.6442C38.2079 25.9733 38.1521 25.3303 38.0406 24.7153H29.2993V28.3634H34.2903C34.0812 29.5375 33.426 30.5439 32.4361 31.2148V33.5769H35.4335C37.1901 31.9416 38.2079 29.5235 38.2079 26.6442Z" fill="#4285F4"/>
<path fill-rule="evenodd" clip-rule="evenodd" d="M29.2988 35.8552C31.8083 35.8552 33.9135 35.0166 35.447 33.5769L32.4496 31.2148C31.6131 31.7739 30.5536 32.1093 29.2988 32.1093C26.873 32.1093 24.8376 30.446 24.0987 28.2236H20.9897V30.6697C22.5233 33.7447 25.6601 35.8692 29.2849 35.8692L29.2988 35.8552Z" fill="#34A853"/>
<path fill-rule="evenodd" clip-rule="evenodd" d="M24.0988 28.2098C23.9175 27.6507 23.806 27.0357 23.806 26.4207C23.806 25.8057 23.9175 25.1907 24.0988 24.6316V22.1855H20.9898C20.3625 23.4575 20 24.8971 20 26.4207C20 27.9442 20.3625 29.3839 20.9898 30.6558L24.0988 28.2098Z" fill="#FBBC05"/>
<path fill-rule="evenodd" clip-rule="evenodd" d="M29.299 20.7459C30.6653 20.7459 31.8922 21.2211 32.8541 22.1576L35.5169 19.46C33.9136 17.9365 31.8085 17 29.299 17C25.6743 17 22.5235 19.1106 21.0039 22.1996L24.1128 24.6456C24.8378 22.4232 26.8872 20.7599 29.313 20.7599L29.299 20.7459Z" fill="#EA4335"/>
<path d="M54.8418 24.2363H57.1797C56.793 21.7402 54.6221 20 51.8184 20C48.4873 20 45.9912 22.4521 46 26.5391C45.9912 30.5732 48.3731 33.0781 51.8887 33.0781C55.0352 33.0781 57.2852 31.0479 57.2852 27.7695V26.2402H52.1172V28.0508H55.0703C55.0352 29.8613 53.8135 31.0215 51.8887 31.0215C49.7617 31.0215 48.294 29.4131 48.3028 26.5215C48.294 23.6562 49.7881 22.0566 51.836 22.0566C53.3828 22.0566 54.4287 22.8828 54.8418 24.2363Z" fill="black"/>
<path d="M63.3299 33.0957C66.1249 33.0957 67.909 31.1182 67.9003 28.1738C67.909 25.2031 66.1249 23.2344 63.3299 23.2344C60.5438 23.2344 58.7596 25.2031 58.7596 28.1738C58.7596 31.1182 60.5438 33.0957 63.3299 33.0957ZM61.0272 28.1562C61.0272 26.4072 61.7919 25.001 63.3475 25.0098C64.8768 25.001 65.6415 26.4072 65.6327 28.1562C65.6415 29.9053 64.8768 31.3027 63.3475 31.3027C61.7919 31.3027 61.0272 29.9053 61.0272 28.1562Z" fill="black"/>
<path d="M73.7165 33.0957C76.5114 33.0957 78.2956 31.1182 78.2868 28.1738C78.2956 25.2031 76.5114 23.2344 73.7165 23.2344C70.9304 23.2344 69.1462 25.2031 69.1462 28.1738C69.1462 31.1182 70.9304 33.0957 73.7165 33.0957ZM71.4138 28.1562C71.4138 26.4072 72.1784 25.001 73.7341 25.0098C75.2634 25.001 76.028 26.4072 76.0192 28.1562C76.028 29.9053 75.2634 31.3027 73.7341 31.3027C72.1784 31.3027 71.4138 29.9053 71.4138 28.1562Z" fill="black"/>
<path d="M84.1031 36.6816C86.6783 36.6816 88.5679 35.5039 88.5679 33.0605V23.3574H86.3531V24.9219H86.2476C85.896 24.2451 85.1841 23.2344 83.5054 23.2344C81.2906 23.2344 79.5503 24.9131 79.5503 28.0508C79.5503 31.1621 81.2818 32.7617 83.4878 32.7617C85.1314 32.7617 85.896 31.8828 86.2476 31.1797H86.3531V33.0078C86.3531 34.4053 85.483 34.9854 84.1382 34.9941C82.9869 34.9854 82.2046 34.5986 82.0464 33.7637H79.814C79.9634 35.5566 81.5718 36.6816 84.1031 36.6816ZM81.8355 28.0859C81.8355 26.3457 82.6089 25.0713 84.1031 25.0625C85.5621 25.0713 86.3706 26.2666 86.3706 28.0859C86.3706 29.9141 85.5533 31.0039 84.1031 31.0039C82.6265 31.0039 81.8355 29.8438 81.8355 28.0859Z" fill="black"/>
<path d="M92.8724 20.1758H90.6224V32.9023H92.8724V20.1758Z" fill="black"/>
<path d="M99.1633 33.0957C101.378 33.0957 102.907 32.0059 103.312 30.3535H101.114C100.824 30.9248 100.165 31.3467 99.1809 31.3379C97.7307 31.3467 96.7727 30.3799 96.7375 28.7539H103.4V28.0508C103.4 24.7021 101.378 23.2344 99.0403 23.2344C96.3156 23.2344 94.5227 25.2383 94.5227 28.1914C94.5227 31.1797 96.2893 33.0957 99.1633 33.0957ZM96.7463 27.2246C96.8254 26.0117 97.7307 24.9746 99.0754 24.9746C100.367 24.9746 101.246 25.9238 101.255 27.2246H96.7463Z" fill="black"/>
<path d="M109.337 32.9023H111.622V28.5957H114.083C117.018 28.5957 118.592 26.8291 118.6 24.3945C118.592 21.9512 117.036 20.1758 114.118 20.1758H109.337V32.9023ZM111.622 26.7148V22.0918H113.767C115.489 22.0918 116.263 23.0322 116.263 24.3945C116.263 25.7393 115.489 26.7061 113.767 26.7148H111.622Z" fill="black"/>
<path d="M122.501 20.1758H120.251V32.9023H122.501V20.1758Z" fill="black"/>
<path d="M124.116 30.2129C124.116 32.1025 125.496 33.0957 127.315 33.0957C128.818 33.0957 129.706 32.3926 130.128 31.584H130.198V32.9023H132.342V26.5215C132.342 23.9814 130.251 23.2344 128.44 23.2344C126.049 23.2344 124.59 24.4561 124.432 26.082H126.594C126.77 25.3965 127.385 24.9395 128.387 24.9395C129.504 24.9395 130.11 25.4844 130.11 26.4336L130.119 27.1982C129.697 27.2158 128.335 27.2773 127.667 27.3301C125.9 27.4443 124.116 28.0684 124.116 30.2129ZM126.278 30.1953C126.278 29.3604 126.955 28.9121 128.018 28.8242C128.466 28.7891 129.714 28.71 130.119 28.6924L130.128 29.4746C130.128 30.5469 129.257 31.4434 127.895 31.4434C126.955 31.4434 126.278 31.0215 126.278 30.1953Z" fill="black"/>
<path d="M135.364 36.4883C137.157 36.4795 138.159 35.583 138.704 34.0625L142.536 23.3574H140.163L137.948 30.5645H137.842L135.627 23.3574H133.254L136.735 33.0957L136.541 33.6055C136.155 34.6338 135.698 34.6689 135.153 34.6777C134.854 34.6689 134.476 34.6689 134.204 34.6426V36.4355C134.494 36.4707 134.915 36.4795 135.364 36.4883Z" fill="black"/>
</svg>
