<svg width="211" height="210" viewBox="0 0 211 210" fill="none" xmlns="http://www.w3.org/2000/svg">
<rect x="4.53613" y="4.50049" width="203" height="203" rx="28.5" fill="#1D1D1D" stroke="black" stroke-width="3"/>
<g filter="url(#filter0_d_1076_15745)">
<rect x="1.03613" y="1.00049" width="204" height="204" rx="29" fill="#1D1D1D" stroke="black" stroke-width="2"/>
</g>
<rect x="5.5" y="5.50049" width="203" height="203" rx="28.5" fill="black" stroke="black" stroke-width="3"/>
<rect x="1" y="1.00049" width="204" height="204" rx="29" fill="#1D1D1D" stroke="black" stroke-width="2"/>
<g clip-path="url(#clip0_1076_15745)">
<path d="M161.649 63.2388C160.537 61.3181 158.942 59.7148 157.024 58.6095L109.813 31.3151C105.977 29.1044 101.018 29.1044 97.1871 31.3151L49.9708 58.615C48.1185 59.6875 46.5512 61.2306 45.4497 63.0746L45.3456 63.2498C44.2386 65.1704 43.6577 67.3592 43.6577 69.5699V124.164C43.6577 126.38 44.2441 128.569 45.3511 130.495C46.4635 132.416 48.0637 134.019 49.9762 135.125L59.8239 140.821L51.4011 154.95C50.2776 156.837 50.316 159.158 51.4997 161.013C52.6889 162.862 54.7768 163.864 56.9633 163.623L66.8329 162.539L70.5649 171.754C71.3924 173.79 73.2611 175.163 75.4531 175.327C75.6011 175.338 75.7545 175.344 75.9025 175.344C77.941 175.344 79.7824 174.293 80.829 172.537L89.504 157.976L97.1816 162.413C99.0996 163.524 101.281 164.11 103.5 164.11C105.72 164.11 107.901 163.524 109.819 162.413L117.496 157.976L126.171 172.537C127.295 174.425 129.355 175.492 131.547 175.327C133.739 175.158 135.608 173.79 136.435 171.754L140.167 162.539L150.037 163.623C152.218 163.864 154.311 162.862 155.501 161.013C156.684 159.163 156.723 156.837 155.599 154.95L147.176 140.821L157.024 135.125C158.937 134.019 160.537 132.416 161.649 130.495C162.756 128.575 163.343 126.386 163.343 124.17V69.5699C163.343 67.3538 162.756 65.1704 161.649 63.2388Z" fill="#EEEEEF"/>
<path d="M75.9024 176C75.738 176 75.5681 175.995 75.4037 175.984C72.965 175.803 70.8826 174.277 69.9565 172L66.4109 163.245L57.0345 164.274C54.6068 164.548 52.2723 163.426 50.9461 161.368C49.6254 159.3 49.587 156.717 50.8365 154.616L58.9196 141.056L49.6473 135.694C47.6361 134.534 45.9538 132.848 44.781 130.824C43.6138 128.793 43 126.49 43 124.164V69.5699C43 67.2388 43.6138 64.9406 44.7755 62.9214L44.8851 62.7409C46.0414 60.8038 47.6855 59.1786 49.6418 58.0459L96.8582 30.746C100.891 28.4204 106.103 28.4204 110.142 30.746L157.353 58.0404C159.358 59.195 161.041 60.8804 162.219 62.9105C163.381 64.9461 164 67.2498 164 69.5699V124.17C164 126.501 163.386 128.799 162.219 130.824C161.046 132.848 159.364 134.534 157.353 135.694L148.08 141.056L156.163 154.616C157.413 156.717 157.375 159.305 156.054 161.368C154.728 163.431 152.393 164.548 149.966 164.279L140.589 163.251L137.044 172.006C136.123 174.271 134.035 175.798 131.596 175.99C129.141 176.17 126.856 174.983 125.607 172.881L117.266 158.879L110.153 162.993C108.136 164.159 105.84 164.777 103.505 164.777C101.171 164.777 98.8748 164.159 96.8582 162.993L89.745 158.879L81.4044 172.881C80.2371 174.84 78.1821 176.011 75.9133 176.011L75.9024 176ZM67.2548 161.833L71.1731 171.508C71.9074 173.314 73.5678 174.528 75.5023 174.671C77.4423 174.813 79.2671 173.872 80.2645 172.197L89.2737 157.078L97.5158 161.844C99.3297 162.895 101.401 163.453 103.505 163.453C105.61 163.453 107.681 162.895 109.495 161.844L117.737 157.078L126.746 172.197C127.738 173.866 129.558 174.808 131.509 174.671C133.443 174.523 135.104 173.308 135.838 171.502L139.756 161.828L150.119 162.966C152.053 163.18 153.906 162.293 154.958 160.651C156.01 159.01 156.043 156.952 155.046 155.278L146.283 140.58L156.706 134.55C158.52 133.499 160.038 131.984 161.09 130.161C162.142 128.339 162.696 126.265 162.696 124.164V69.5699C162.696 67.4741 162.142 65.4003 161.09 63.5671C160.032 61.7395 158.514 60.2183 156.706 59.1786L109.484 31.8842C105.845 29.7884 101.149 29.7884 97.5158 31.8842L50.2995 59.1841C48.5404 60.2018 47.0553 61.6683 46.014 63.4139L45.9099 63.589C44.8687 65.4003 44.3152 67.4687 44.3152 69.5754V124.17C44.3152 126.271 44.8687 128.345 45.9209 130.172C46.9785 131.995 48.491 133.51 50.3049 134.561L60.728 140.591L51.9654 155.289C50.9735 156.958 51.0064 159.021 52.0531 160.662C53.1053 162.299 54.9575 163.185 56.892 162.972L67.2548 161.833Z" fill="black"/>
<path d="M105.139 123.13L97.2749 118.429L71.3486 161.932L74.6531 170.091C75.0696 171.114 76.4725 171.223 77.0424 170.271L105.144 123.124H105.139V123.13Z" fill="#A745FF"/>
<path d="M75.8971 171.47C75.8478 171.47 75.7985 171.47 75.7492 171.47C75.0313 171.415 74.4175 170.966 74.1435 170.299L70.839 162.14C70.7733 161.981 70.7897 161.801 70.8774 161.653L96.8036 118.15C96.8803 118.025 97.0009 117.937 97.1379 117.899C97.2749 117.86 97.4283 117.882 97.5544 117.959L105.342 122.616C105.391 122.632 105.435 122.659 105.479 122.692C105.698 122.862 105.753 123.168 105.616 123.404L77.5137 170.55C77.1685 171.13 76.5547 171.47 75.8971 171.47ZM71.9624 161.976L75.1628 169.883C75.2779 170.167 75.53 170.348 75.8314 170.375C76.1382 170.397 76.4122 170.255 76.5712 169.987L104.388 123.316L97.4612 119.179L71.957 161.976H71.9624Z" fill="black"/>
<path d="M83.2895 110.068L55.1877 157.215C54.6232 158.162 55.385 159.355 56.481 159.234L65.2217 158.277L91.1479 114.774L83.284 110.074L83.2895 110.068Z" fill="#A745FF"/>
<path d="M56.3331 159.787C55.6974 159.787 55.1055 159.469 54.7548 158.922C54.3657 158.315 54.3493 157.554 54.7164 156.93L82.7909 109.833C82.8183 109.773 82.8566 109.718 82.9059 109.674C83.1032 109.488 83.4101 109.472 83.6183 109.636L91.4274 114.303C91.685 114.457 91.7727 114.796 91.6193 115.053L65.693 158.556C65.6053 158.703 65.4519 158.802 65.282 158.818L56.5413 159.776C56.4701 159.781 56.3988 159.787 56.3331 159.787ZM83.4759 110.823L55.659 157.494C55.5001 157.757 55.5056 158.069 55.6755 158.331C55.8399 158.588 56.1193 158.72 56.4207 158.687L64.8929 157.757L90.3972 114.96L83.4759 110.823Z" fill="black"/>
<path d="M94.2113 116.602L91.1534 114.769L65.2217 158.277L69.666 157.784L71.3429 161.932L97.2746 118.429L94.2113 116.602Z" fill="white"/>
<path d="M71.2277 163.404L69.2384 158.49L63.9775 159.07L90.9231 113.86L98.1732 118.194L71.2277 163.398V163.404ZM70.0878 157.073L71.4524 160.454L96.3702 118.654L91.3779 115.666L66.46 157.472L70.0878 157.073Z" fill="black"/>
<path d="M80.3301 146.922C80.3301 146.922 86.1718 151.36 84.2154 158.233L88.0625 151.754L80.3301 146.922Z" fill="black"/>
<path d="M82.1988 162.917L83.5853 158.052C85.3937 151.705 80.1547 147.612 79.9355 147.442L80.6808 146.364L88.9557 151.535L82.1988 162.917ZM83.5962 149.735C84.4621 151.163 85.2074 153.007 85.2677 155.174L87.1692 151.967L83.5962 149.735Z" fill="black"/>
<path d="M101.861 123.13L109.725 118.429L135.652 161.932L132.347 170.091C131.931 171.114 130.528 171.223 129.958 170.271L101.856 123.124H101.861V123.13Z" fill="#A745FF"/>
<path d="M131.103 171.47C130.44 171.47 129.832 171.125 129.487 170.55L101.385 123.404C101.242 123.168 101.303 122.862 101.522 122.692C101.566 122.659 101.609 122.632 101.659 122.616L109.446 117.959C109.572 117.882 109.72 117.86 109.862 117.899C110.005 117.937 110.125 118.025 110.197 118.15L136.123 161.653C136.211 161.801 136.222 161.981 136.161 162.14L132.857 170.299C132.583 170.966 131.969 171.415 131.257 171.47C131.207 171.47 131.158 171.47 131.109 171.47H131.103ZM102.607 123.316L130.424 169.987C130.583 170.249 130.868 170.403 131.163 170.37C131.47 170.348 131.717 170.162 131.832 169.877L135.032 161.97L109.528 119.174L102.601 123.311L102.607 123.316Z" fill="black"/>
<path d="M123.71 110.068L151.812 157.215C152.377 158.162 151.615 159.355 150.519 159.234L141.778 158.277L115.852 114.774L123.716 110.074H123.71V110.068Z" fill="#A745FF"/>
<path d="M150.667 159.787C150.596 159.787 150.53 159.787 150.459 159.776L141.718 158.818C141.548 158.802 141.395 158.703 141.307 158.556L115.381 115.053C115.227 114.796 115.309 114.457 115.572 114.304L123.36 109.652L123.376 109.636C123.595 109.466 123.902 109.483 124.099 109.68C124.143 109.729 124.176 109.778 124.204 109.833L152.278 156.936C152.645 157.554 152.634 158.315 152.24 158.928C151.889 159.475 151.297 159.792 150.661 159.792L150.667 159.787ZM142.107 157.762L150.579 158.692C150.881 158.725 151.16 158.594 151.324 158.337C151.494 158.074 151.5 157.762 151.341 157.5L123.524 110.829L116.603 114.966L142.107 157.762Z" fill="black"/>
<path d="M112.789 116.602L115.847 114.769L141.779 158.277L137.334 157.784L135.657 161.932L109.726 118.429L112.789 116.602Z" fill="white"/>
<path d="M135.772 163.404L108.827 118.2L116.077 113.866L143.022 159.076L137.761 158.49L135.772 163.404ZM110.63 118.654L135.547 160.455L136.918 157.073L140.545 157.472L115.627 115.666L110.635 118.654H110.63Z" fill="black"/>
<path d="M126.669 146.922C126.669 146.922 120.828 151.36 122.784 158.233L118.937 151.754L126.669 146.922Z" fill="black"/>
<path d="M124.801 162.917L118.044 151.535L126.319 146.364L127.07 147.442C126.845 147.612 121.611 151.705 123.42 158.052L124.806 162.917H124.801ZM119.83 151.973L121.732 155.179C121.792 153.013 122.538 151.168 123.403 149.74L119.83 151.973Z" fill="black"/>
<path d="M50.6118 71.0747V123.836C50.6118 125.231 50.979 126.605 51.675 127.814C52.3764 129.023 53.3793 130.03 54.5849 130.731L100.206 157.111C101.412 157.806 102.788 158.178 104.18 158.178C105.571 158.178 106.947 157.812 108.153 157.111L153.774 130.731C154.98 130.036 155.983 129.023 156.684 127.819C157.38 126.61 157.747 125.237 157.747 123.841V71.0747C157.747 69.6794 157.38 68.3059 156.684 67.0966C155.983 65.8873 154.98 64.8804 153.774 64.1855L108.153 37.7995C105.736 36.4041 102.618 36.4041 100.206 37.7995L54.5849 64.1855C53.3793 64.8804 52.3764 65.8873 51.675 67.0966C50.979 68.3059 50.6118 69.6848 50.6118 71.0802V71.0747Z" fill="black"/>
<path d="M104.179 158.835C102.678 158.835 101.187 158.435 99.8776 157.68L54.256 131.3C52.9517 130.544 51.8666 129.45 51.1049 128.142C50.3487 126.834 49.9541 125.346 49.9541 123.836V71.0747C49.9541 69.5644 50.3541 68.0761 51.1049 66.7683C51.8666 65.455 52.9572 64.366 54.256 63.6164L99.8776 37.2304C102.486 35.7201 105.867 35.7201 108.481 37.2304L154.103 63.6164C155.402 64.366 156.492 65.455 157.254 66.7683C158.01 68.0761 158.405 69.5644 158.405 71.0747V123.841C158.405 125.352 158.005 126.84 157.254 128.148C156.487 129.467 155.396 130.555 154.103 131.3L108.481 157.68C107.182 158.435 105.692 158.835 104.179 158.835ZM51.2693 71.0802V123.836C51.2693 125.116 51.6091 126.375 52.2448 127.486C52.8859 128.596 53.8121 129.521 54.9136 130.161L100.535 156.542C102.76 157.828 105.626 157.817 107.818 156.542L153.44 130.161C154.536 129.532 155.462 128.607 156.109 127.491C156.744 126.386 157.084 125.122 157.084 123.841V71.0747C157.084 69.7943 156.744 68.5302 156.109 67.4249C155.462 66.3141 154.541 65.3893 153.44 64.7546L107.824 38.3685C105.61 37.0881 102.749 37.0881 100.535 38.3685L54.9136 64.7546C53.8121 65.3893 52.8859 66.3141 52.2448 67.4249C51.6091 68.5302 51.2693 69.7943 51.2693 71.0802Z" fill="black"/>
<path d="M48.0688 69.5754V124.17C48.0688 125.614 48.447 127.037 49.1703 128.285C49.8937 129.538 50.9349 130.577 52.1789 131.3L99.3897 158.599C100.639 159.322 102.059 159.705 103.5 159.705C104.941 159.705 106.366 159.322 107.61 158.599L154.821 131.305C156.07 130.583 157.106 129.543 157.829 128.29C158.553 127.037 158.931 125.614 158.931 124.17V69.5754C158.931 68.1308 158.553 66.708 157.829 65.4604C157.106 64.2073 156.065 63.1677 154.821 62.4454L107.61 35.1455C105.111 33.7064 101.883 33.7064 99.3897 35.1455L52.1789 62.4454C50.9294 63.1677 49.8937 64.2073 49.1703 65.455C48.4525 66.7081 48.0688 68.1308 48.0688 69.5754Z" fill="#A745FF"/>
<path d="M103.5 160.252C101.966 160.252 100.448 159.842 99.1159 159.076L51.9051 131.77C50.5734 130.999 49.4664 129.888 48.6937 128.553C47.9265 127.228 47.521 125.707 47.521 124.164V69.5754C47.521 68.0432 47.9265 66.522 48.6937 65.1814C49.4664 63.8462 50.5789 62.7354 51.9051 61.9693L99.1159 34.6695C101.779 33.1318 105.221 33.1318 107.884 34.6695L155.095 61.9693C156.426 62.7409 157.533 63.8571 158.301 65.1868C159.068 66.5111 159.473 68.0268 159.473 69.5754V124.17C159.473 125.713 159.068 127.234 158.301 128.564C157.528 129.899 156.421 131.01 155.095 131.781L107.884 159.076C106.558 159.847 105.04 160.252 103.5 160.252ZM103.5 34.6093C102.163 34.6093 100.831 34.9431 99.6639 35.6161L52.4531 62.916C51.2913 63.589 50.3213 64.5576 49.6418 65.7286C48.9677 66.8996 48.6115 68.2347 48.6115 69.5754V124.17C48.6115 125.521 48.9677 126.851 49.6418 128.011C50.3158 129.176 51.2858 130.151 52.4531 130.829L99.6639 158.129C102.004 159.48 105.012 159.475 107.336 158.129L154.547 130.835C155.709 130.161 156.679 129.187 157.353 128.022C158.027 126.856 158.383 125.527 158.383 124.175V69.5754C158.383 68.2238 158.027 66.8941 157.353 65.734C156.679 64.5685 155.709 63.5945 154.541 62.916L107.336 35.6161C106.169 34.9431 104.832 34.6093 103.5 34.6093Z" fill="black"/>
<path d="M103.5 154.118C104.454 154.118 105.407 153.872 106.262 153.379L150.979 127.524C151.834 127.031 152.525 126.326 153.002 125.499C153.478 124.673 153.741 123.721 153.741 122.736V71.0145C153.741 70.0241 153.478 69.0774 153.002 68.2512C152.525 67.4249 151.834 66.719 150.979 66.2265L106.262 40.3713C105.407 39.8788 104.454 39.6326 103.5 39.6326C102.547 39.6326 101.593 39.8788 100.738 40.3713L56.0207 66.2265C55.1659 66.719 54.4754 67.4249 53.9986 68.2512C53.5218 69.0774 53.2588 70.0296 53.2588 71.0145V122.73C53.2588 123.721 53.5218 124.668 53.9986 125.494C54.4754 126.32 55.1659 127.026 56.0207 127.518L100.738 153.374C101.593 153.866 102.547 154.112 103.5 154.112V154.118Z" fill="#F3F3F3"/>
<path d="M103.5 154.775H102.842V154.736C101.987 154.643 101.16 154.375 100.409 153.943L55.6918 128.088C54.7547 127.551 53.9711 126.763 53.4286 125.822C52.886 124.881 52.6011 123.814 52.6011 122.73V71.0145C52.6011 69.9311 52.886 68.864 53.4286 67.9229C53.9711 66.9817 54.7547 66.1992 55.6918 65.6574L100.409 39.8022C102.289 38.7188 104.717 38.7188 106.591 39.8022L151.308 65.6574C152.245 66.1937 153.029 66.9817 153.571 67.9229C154.114 68.8586 154.399 69.9311 154.399 71.0145V122.736C154.399 123.819 154.114 124.886 153.571 125.828C153.029 126.769 152.245 127.551 151.308 128.093L106.591 153.948C105.654 154.49 104.58 154.775 103.5 154.775ZM103.5 40.2892C102.645 40.2892 101.807 40.5136 101.067 40.9404L56.3494 66.7956C55.6096 67.2224 54.9959 67.8353 54.5684 68.5795C54.141 69.3182 53.9163 70.1609 53.9163 71.0145V122.73C53.9163 123.584 54.141 124.427 54.5684 125.166C54.9959 125.91 55.6151 126.523 56.3494 126.949L101.067 152.805C101.807 153.231 102.645 153.456 103.5 153.456H103.73C104.503 153.417 105.265 153.199 105.933 152.81L150.651 126.955C151.39 126.528 152.004 125.915 152.432 125.171C152.859 124.432 153.084 123.59 153.084 122.736V71.0145C153.084 70.1609 152.859 69.3182 152.432 68.5795C152.004 67.8353 151.385 67.2224 150.651 66.7956L105.933 40.9404C105.193 40.5136 104.355 40.2892 103.5 40.2892Z" fill="black"/>
<path d="M65.156 71.5125L100.738 50.9377C101.593 50.4452 102.546 50.199 103.5 50.199V39.6271C102.546 39.6271 101.593 39.8733 100.738 40.3658L56.0207 66.2265C55.1658 66.719 54.4753 67.4249 53.9985 68.2511L63.1338 73.5316C63.6106 72.7054 64.3011 71.9995 65.156 71.507V71.5125Z" fill="#EEEEEF"/>
<path d="M63.3747 74.4291L53.0996 68.4919L53.4284 67.9228C53.9709 66.9817 54.7546 66.1992 55.6917 65.6574L100.409 39.7967C101.346 39.255 102.415 38.9705 103.5 38.9705H104.157V50.8557H103.5C102.645 50.8557 101.806 51.08 101.067 51.5068L65.2928 72.191C64.6406 72.6069 64.0926 73.1814 63.7035 73.86L63.3747 74.4291ZM54.9354 68.0323L62.9254 72.6507C63.435 71.9557 64.0817 71.3702 64.827 70.9379L65.8134 70.3688L100.409 50.3686C101.16 49.9364 101.987 49.6682 102.842 49.5752V40.3275C102.217 40.4151 101.615 40.6175 101.067 40.9349L56.3493 66.7956C55.8013 67.113 55.319 67.5343 54.9354 68.0323Z" fill="black"/>
<path d="M106.262 50.9377L141.844 71.5125C142.699 72.005 143.389 72.7108 143.866 73.5371L153.001 68.2566C152.525 67.4304 151.834 66.7245 150.979 66.232L106.262 40.3713C105.407 39.8788 104.454 39.6326 103.5 39.6326V50.199C104.454 50.199 105.407 50.4453 106.262 50.9377Z" fill="#9E9E9F"/>
<path d="M143.625 74.4346L143.296 73.8655C142.869 73.1213 142.249 72.5084 141.515 72.0816L105.933 51.5068C105.193 51.08 104.355 50.8557 103.5 50.8557H102.842V38.976H103.5C104.585 38.976 105.654 39.2605 106.591 39.8022L151.308 65.6629C152.245 66.1992 153.029 66.9872 153.571 67.9283L153.9 68.4974L143.625 74.4346ZM104.158 49.5752C105.012 49.6683 105.845 49.9364 106.591 50.3687L142.173 70.9434C142.918 71.3757 143.57 71.9557 144.074 72.6562L152.064 68.0378C151.675 67.5344 151.198 67.113 150.65 66.8011L105.933 40.9404C105.385 40.623 104.782 40.4206 104.158 40.333V49.5752Z" fill="black"/>
<path d="M62.3994 117.45V76.3006C62.3994 75.3101 62.6625 74.3635 63.1393 73.5372L54.004 68.2567C53.5272 69.083 53.2642 70.0351 53.2642 71.0201V122.736C53.2642 123.726 53.5272 124.673 54.004 125.499L63.1393 120.219C62.6625 119.393 62.3994 118.44 62.3994 117.456V117.45Z" fill="#9E9E9F"/>
<path d="M53.7627 126.397L53.4339 125.828C52.8914 124.892 52.6064 123.819 52.6064 122.736V71.02C52.6064 69.9366 52.8914 68.8695 53.4339 67.9283L53.7627 67.3593L64.0379 73.2964L63.7091 73.8655C63.2816 74.6042 63.0569 75.4469 63.0569 76.3005V117.455C63.0569 118.309 63.2816 119.152 63.7091 119.891L64.0379 120.46L53.7627 126.397ZM54.2833 69.176C54.0477 69.7615 53.9217 70.3853 53.9217 71.02V122.736C53.9217 123.371 54.0477 123.995 54.2833 124.58L62.2733 119.962C61.9226 119.174 61.7417 118.32 61.7417 117.455V76.3005C61.7417 75.4359 61.9226 74.5823 62.2733 73.7943L54.2833 69.176Z" fill="black"/>
<path d="M143.866 73.5372C144.343 74.3635 144.606 75.3156 144.606 76.3005V117.45C144.606 118.44 144.343 119.387 143.866 120.213L153.001 125.494C153.478 124.668 153.741 123.715 153.741 122.731V71.0146C153.741 70.0241 153.478 69.0775 153.001 68.2512L143.866 73.5317V73.5372Z" fill="#4D4D4D"/>
<path d="M153.242 126.391L142.967 120.454L143.296 119.885C143.724 119.146 143.948 118.304 143.948 117.45V76.3005C143.948 75.4469 143.724 74.6042 143.296 73.8654L143.208 73.7122V73.1541L153.242 67.3538L153.571 67.9228C154.114 68.8586 154.399 69.9311 154.399 71.0145V122.73C154.399 123.814 154.114 124.881 153.571 125.822L153.242 126.391ZM144.732 119.956L152.722 124.575C152.957 123.989 153.084 123.365 153.084 122.73V71.0145C153.084 70.3798 152.957 69.756 152.722 69.1705L144.732 73.7888C145.083 74.5768 145.263 75.4304 145.263 76.3005V117.45C145.263 118.315 145.083 119.168 144.732 119.956Z" fill="black"/>
<path d="M100.738 142.813L65.156 122.238C64.3011 121.746 63.6106 121.04 63.1338 120.213L53.9985 125.494C54.4753 126.32 55.1658 127.026 56.0207 127.519L100.738 153.374C101.593 153.866 102.546 154.112 103.5 154.112V143.546C102.546 143.546 101.593 143.3 100.738 142.807V142.813Z" fill="#4D4D4D"/>
<path d="M104.157 154.769H103.5C102.415 154.769 101.346 154.485 100.409 153.943L55.6917 128.088C54.7546 127.551 53.9709 126.763 53.4284 125.822L53.0996 125.253L63.3747 119.316L63.7035 119.885C64.131 120.629 64.7502 121.242 65.4846 121.669L100.08 141.675L101.067 142.238C101.806 142.665 102.65 142.889 103.5 142.889H104.157V154.769ZM54.9354 125.713C55.3245 126.216 55.8013 126.637 56.3493 126.949L101.067 152.805C101.615 153.122 102.217 153.324 102.842 153.412V144.17C102.349 144.115 101.861 144.006 101.395 143.836V143.951L100.409 143.387L64.827 122.813C64.0817 122.38 63.4295 121.795 62.9254 121.1L54.9354 125.718V125.713Z" fill="black"/>
<path d="M141.844 122.238L106.262 142.813C105.407 143.305 104.454 143.552 103.5 143.552V154.118C104.454 154.118 105.407 153.872 106.262 153.379L150.979 127.524C151.834 127.032 152.525 126.326 153.001 125.499L143.866 120.219C143.389 121.045 142.699 121.751 141.844 122.244V122.238Z" fill="#333333"/>
<path d="M103.5 154.775H102.842V142.895H103.5C104.355 142.895 105.193 142.67 105.933 142.244L141.701 121.559C142.354 121.144 142.907 120.569 143.296 119.891L143.625 119.321L153.9 125.259L153.571 125.828C153.029 126.769 152.245 127.551 151.308 128.093L106.591 153.948C105.654 154.49 104.579 154.775 103.5 154.775ZM104.158 144.175V153.417C104.782 153.33 105.385 153.127 105.933 152.81L150.65 126.955C151.198 126.637 151.681 126.216 152.064 125.718L144.074 121.1C143.565 121.795 142.918 122.38 142.173 122.813L141.186 123.382L106.591 143.382C105.84 143.814 105.012 144.082 104.158 144.175Z" fill="black"/>
<path d="M146.305 72.1254C145.801 71.2498 145.066 70.5002 144.162 69.9803L106.432 48.158C105.528 47.6327 104.514 47.37 103.505 47.37C102.497 47.37 101.483 47.6327 100.579 48.158L62.8433 69.9749C61.9391 70.5002 61.2048 71.2444 60.7006 72.1199C60.1965 72.9954 59.917 74.0023 59.917 75.0529V118.687C59.917 119.732 60.1965 120.744 60.7006 121.62C61.2048 122.495 61.9391 123.245 62.8433 123.765L100.574 145.582C101.478 146.107 102.492 146.37 103.5 146.37C104.508 146.37 105.522 146.107 106.426 145.582L144.157 123.765C145.061 123.239 145.795 122.495 146.299 121.62C146.804 120.744 147.083 119.737 147.083 118.687V75.0583C147.083 74.0132 146.804 73.0009 146.299 72.1254H146.305Z" fill="#B4B4B5"/>
<path d="M103.5 147.026C102.355 147.026 101.231 146.725 100.245 146.151L62.5144 124.334C61.528 123.765 60.7005 122.944 60.1306 121.948C59.5607 120.958 59.2593 119.83 59.2593 118.687V75.0529C59.2593 73.9092 59.5607 72.782 60.1306 71.7916C60.6951 70.8066 61.5225 69.9803 62.5144 69.4058L100.25 47.5889C102.223 46.4398 104.788 46.4398 106.761 47.5889L144.491 69.4113C145.477 69.9803 146.305 70.8066 146.875 71.797L147.439 72.782H147.33C147.598 73.5098 147.741 74.2813 147.741 75.0584V118.687C147.741 119.83 147.439 120.958 146.869 121.948C146.305 122.933 145.477 123.759 144.485 124.334L106.755 146.151C105.769 146.725 104.645 147.026 103.5 147.026ZM103.5 48.0267C102.59 48.0267 101.691 48.2674 100.902 48.7271L63.172 70.544C62.3829 71.0036 61.7198 71.6602 61.2705 72.4482C60.8156 73.2417 60.5745 74.1391 60.5745 75.0529V118.687C60.5745 119.6 60.8156 120.503 61.2705 121.291C61.7253 122.085 62.3829 122.741 63.172 123.196L100.902 145.012C102.481 145.926 104.525 145.926 106.092 145.012L143.822 123.196C144.611 122.736 145.269 122.079 145.724 121.291C146.179 120.498 146.42 119.6 146.42 118.687V75.0584C146.42 74.1445 146.179 73.2417 145.724 72.4537L145.609 72.2567C145.159 71.5508 144.551 70.9653 143.828 70.5494L106.103 48.7271C105.314 48.2674 104.415 48.0267 103.505 48.0267H103.5Z" fill="black"/>
<path d="M92.3863 96.6564L92.1616 96.4649C92.1616 96.4649 92.189 96.4321 92.2 96.4156L92.4082 96.6236C92.4082 96.6236 92.3918 96.6455 92.3808 96.6564H92.3863Z" fill="black"/>
<path d="M92.9781 96.1639H92.9233V96.0052L92.9124 95.9943L92.8247 95.9067L92.8685 95.863L92.9508 95.8466H93.5645L92.9781 96.1639Z" fill="black"/>
<path d="M69.4192 118.665C68.1697 118.665 67.3313 120 67.9395 121.078C67.9395 121.078 67.9505 121.094 67.9505 121.1C68.3725 121.822 68.9808 122.435 69.7315 122.867L101.067 140.827C101.817 141.259 102.661 141.472 103.5 141.472C104.338 141.472 105.177 141.259 105.933 140.827L137.268 122.867C138.019 122.435 138.627 121.822 139.049 121.1C139.049 121.1 139.06 121.084 139.06 121.078C139.668 119.995 138.83 118.665 137.58 118.665H69.4192Z" fill="#A745FF"/>
<path d="M103.5 142.019C102.546 142.019 101.609 141.773 100.793 141.303L69.4577 123.343C68.6357 122.873 67.9506 122.189 67.4739 121.379C67.4684 121.368 67.4574 121.352 67.452 121.341C67.0848 120.679 67.0958 119.891 67.4848 119.228C67.8904 118.534 68.6137 118.118 69.4138 118.118H137.575C138.375 118.118 139.098 118.528 139.504 119.223C139.893 119.885 139.904 120.668 139.537 121.33C139.531 121.346 139.52 121.357 139.515 121.374C139.038 122.189 138.353 122.867 137.537 123.338L106.202 141.297C105.38 141.768 104.442 142.014 103.494 142.014L103.5 142.019ZM68.4329 120.837C68.811 121.477 69.3535 122.019 70.0057 122.391L101.341 140.35C102.64 141.1 104.344 141.1 105.665 140.35L137 122.391C137.646 122.019 138.189 121.483 138.572 120.837C138.572 120.826 138.583 120.815 138.589 120.804C138.77 120.476 138.764 120.099 138.572 119.77C138.364 119.415 137.997 119.207 137.586 119.207H69.4193C69.0083 119.207 68.6411 119.42 68.4329 119.776C68.2411 120.109 68.2301 120.482 68.4165 120.804C68.4165 120.815 68.4274 120.826 68.4329 120.832V120.837Z" fill="black"/>
<path d="M89.7343 131.519C89.5206 131.519 89.3507 131.349 89.3507 131.135V127.546C89.3507 127.546 89.3507 127.497 89.3562 127.475C89.2356 127.425 89.1425 127.311 89.126 127.174L88.8959 125.456C88.8794 125.346 88.9178 125.237 88.989 125.155C89.0603 125.072 89.1644 125.023 89.2795 125.023C89.97 125.023 91.0167 124.963 91.4605 124.618H89.5096C89.2959 124.618 89.126 124.449 89.126 124.235V122.539C89.126 122.326 89.2959 122.156 89.5096 122.156H94.3979C94.6116 122.156 94.7815 122.326 94.7815 122.539C94.7815 123.912 94.5732 124.936 94.1458 125.669C93.7074 126.413 93.0936 126.917 92.3154 127.163H94.9897V122.419C94.9897 122.205 95.1596 122.036 95.3733 122.036H97.527C97.7407 122.036 97.9106 122.205 97.9106 122.419V123.447H98.3874C98.6011 123.447 98.771 123.617 98.771 123.83V125.559C98.771 125.773 98.6011 125.943 98.3874 125.943H97.9106V127.119C97.9106 127.19 97.8887 127.256 97.8558 127.316C97.9051 127.382 97.9325 127.458 97.9325 127.546V131.135C97.9325 131.349 97.7626 131.519 97.5489 131.519H89.7343Z" fill="white"/>
<path d="M97.5214 122.419V123.83H98.3818V125.56H97.5214V127.119H95.3678V122.419H97.5214ZM94.3923 122.533C94.3923 123.825 94.2005 124.804 93.806 125.472C93.4169 126.14 92.8798 126.577 92.1893 126.796C91.5043 127.015 90.6056 127.124 89.4986 127.124L89.2685 125.406C91.1152 125.406 92.0414 125.018 92.0414 124.235H89.4986V122.539H94.3868M97.5379 127.551V131.141H89.7288V127.551H97.5379ZM91.8824 129.592H95.3842V129.1H91.8824V129.592ZM97.516 121.658H95.3623C95.1431 121.658 94.9458 121.751 94.8088 121.893C94.6882 121.817 94.5458 121.773 94.3923 121.773H89.4986C89.0766 121.773 88.7314 122.118 88.7314 122.539V124.235C88.7314 124.421 88.7972 124.596 88.9122 124.728C88.83 124.772 88.7533 124.832 88.693 124.903C88.5451 125.067 88.4793 125.291 88.5122 125.51L88.7424 127.228C88.7643 127.404 88.8465 127.557 88.967 127.672V131.141C88.967 131.562 89.3123 131.907 89.7343 131.907H97.5434C97.9653 131.907 98.3106 131.562 98.3106 131.141V127.551C98.3106 127.464 98.2941 127.376 98.2667 127.3C98.2777 127.245 98.2887 127.185 98.2887 127.124V126.331H98.3818C98.8038 126.331 99.149 125.986 99.149 125.565V123.836C99.149 123.414 98.8038 123.07 98.3818 123.07H98.2887V122.424C98.2887 122.003 97.9434 121.658 97.5214 121.658H97.516ZM93.7238 126.785C94.0087 126.528 94.2553 126.222 94.4636 125.86C94.5074 125.784 94.5512 125.707 94.5896 125.625V126.785H93.7238Z" fill="black"/>
<path d="M104.953 131.519C104.739 131.519 104.569 131.349 104.569 131.135V130.315H99.2974C99.0836 130.315 98.9138 130.145 98.9138 129.932V128.213C98.9138 128 99.0836 127.83 99.2974 127.83H99.8015C99.6755 127.743 99.5604 127.65 99.4508 127.546C98.9412 127.037 98.6836 126.298 98.6836 125.346V125.001C98.6836 124.049 98.9412 123.31 99.4453 122.802C99.955 122.293 100.695 122.036 101.643 122.036C102.591 122.036 103.331 122.293 103.84 122.802C104.24 123.201 104.487 123.748 104.569 124.421V122.419C104.569 122.205 104.739 122.036 104.953 122.036H107.106C107.32 122.036 107.49 122.205 107.49 122.419V123.858H107.967C108.181 123.858 108.35 124.027 108.35 124.241V125.959C108.35 126.172 108.181 126.342 107.967 126.342H107.49V127.792C107.49 127.863 107.468 127.934 107.435 127.995C107.474 128.055 107.49 128.126 107.49 128.197V131.135C107.49 131.349 107.32 131.519 107.106 131.519H104.953ZM104.569 125.921C104.482 126.599 104.24 127.141 103.84 127.54C103.736 127.644 103.621 127.737 103.501 127.819H104.575V125.915L104.569 125.921ZM101.659 125.822V124.531H101.626V125.822H101.659Z" fill="white"/>
<path d="M107.106 122.419V124.241H107.967V125.959H107.106V127.792H104.953V122.413H107.106M101.643 122.413C102.492 122.413 103.133 122.632 103.566 123.064C103.999 123.497 104.218 124.142 104.218 124.99V125.335C104.218 126.183 103.999 126.824 103.566 127.261C103.133 127.699 102.492 127.912 101.643 127.912C100.793 127.912 100.152 127.694 99.7191 127.261C99.2862 126.824 99.067 126.183 99.067 125.335V124.99C99.067 124.142 99.2862 123.502 99.7191 123.064C100.152 122.626 100.793 122.413 101.643 122.413ZM101.643 126.2C101.911 126.2 102.043 126.068 102.043 125.8V124.536C102.043 124.268 101.911 124.137 101.643 124.137C101.374 124.137 101.243 124.268 101.243 124.536V125.8C101.243 126.068 101.374 126.2 101.643 126.2ZM107.106 128.197V131.135H104.953V129.932H99.2972V128.213L107.106 128.202M107.106 121.658H104.953C104.531 121.658 104.185 122.003 104.185 122.424V122.616C104.185 122.616 104.136 122.561 104.109 122.539C103.528 121.953 102.695 121.658 101.643 121.658C100.59 121.658 99.7575 121.953 99.1766 122.539C98.5957 123.119 98.2998 123.951 98.2998 125.007V125.352C98.2998 126.249 98.5135 126.982 98.9355 127.54C98.6944 127.672 98.53 127.923 98.53 128.219V129.937C98.53 130.358 98.8752 130.703 99.2972 130.703H104.185V131.141C104.185 131.562 104.531 131.907 104.953 131.907H107.106C107.528 131.907 107.873 131.562 107.873 131.141V128.202C107.873 128.137 107.863 128.066 107.846 128C107.863 127.934 107.873 127.869 107.873 127.798V126.731H107.967C108.389 126.731 108.734 126.386 108.734 125.964V124.246C108.734 123.825 108.389 123.48 107.967 123.48H107.873V122.424C107.873 122.003 107.528 121.658 107.106 121.658Z" fill="black"/>
<path d="M108.882 131.519C108.668 131.519 108.498 131.349 108.498 131.135V127.869C108.498 127.77 108.537 127.677 108.597 127.612C108.559 127.568 108.526 127.513 108.509 127.453L108.049 125.735C108.016 125.62 108.043 125.499 108.115 125.401C108.186 125.308 108.301 125.253 108.416 125.253C108.772 125.253 109.068 125.127 109.315 124.865C109.567 124.602 109.693 124.175 109.693 123.606V122.424C109.693 122.211 109.863 122.041 110.077 122.041H112.219C112.433 122.041 112.603 122.211 112.603 122.424V123.606C112.603 124.175 112.729 124.596 112.981 124.865C113.228 125.127 113.524 125.253 113.88 125.253C113.973 125.253 114.055 125.286 114.126 125.341V122.424C114.126 122.211 114.296 122.041 114.51 122.041H116.664C116.877 122.041 117.047 122.211 117.047 122.424V123.934H117.524C117.738 123.934 117.908 124.104 117.908 124.317V126.036C117.908 126.249 117.738 126.419 117.524 126.419H117.047V128.099C117.047 128.312 116.877 128.482 116.664 128.482H114.51C114.296 128.482 114.126 128.312 114.126 128.099V126.2L113.792 127.453C113.748 127.622 113.595 127.737 113.419 127.737C112.943 127.737 112.477 127.644 112.038 127.458C111.715 127.321 111.414 127.141 111.151 126.917C110.877 127.141 110.581 127.321 110.252 127.458C110.23 127.469 110.208 127.475 110.186 127.486H111.025C111.238 127.486 111.408 127.655 111.408 127.869V129.034H116.658C116.872 129.034 117.042 129.204 117.042 129.417V131.135C117.042 131.349 116.872 131.519 116.658 131.519H108.882Z" fill="white"/>
<path d="M116.669 122.419V124.312H117.529V126.03H116.669V128.093H114.515V122.419H116.669ZM112.225 122.419V123.601C112.225 124.274 112.383 124.783 112.707 125.122C113.03 125.461 113.419 125.631 113.885 125.631L113.425 127.349C112.997 127.349 112.586 127.267 112.192 127.103C111.797 126.939 111.452 126.703 111.156 126.397C110.849 126.703 110.504 126.939 110.109 127.103C109.715 127.267 109.304 127.349 108.876 127.349L108.416 125.631C108.882 125.631 109.276 125.461 109.594 125.122C109.912 124.783 110.076 124.274 110.076 123.601V122.419H112.219M111.03 127.863V129.412H116.663V131.13H108.876V127.863H111.03ZM116.663 121.653H114.51C114.088 121.653 113.743 121.997 113.743 122.419V124.854C113.556 124.826 113.403 124.744 113.26 124.591C113.079 124.399 112.986 124.066 112.986 123.595V122.413C112.986 121.992 112.641 121.647 112.219 121.647H110.076C109.654 121.647 109.309 121.992 109.309 122.413V123.595C109.309 124.066 109.216 124.399 109.035 124.591C108.86 124.777 108.668 124.859 108.416 124.859C108.18 124.859 107.956 124.969 107.808 125.16C107.66 125.346 107.616 125.592 107.676 125.822L108.136 127.54C108.136 127.54 108.147 127.579 108.153 127.601C108.125 127.683 108.109 127.77 108.109 127.858V131.125C108.109 131.546 108.454 131.891 108.876 131.891H116.663C117.085 131.891 117.431 131.546 117.431 131.125V129.406C117.431 129.127 117.277 128.881 117.052 128.744C117.277 128.613 117.431 128.367 117.431 128.082V126.785H117.524C117.946 126.785 118.291 126.441 118.291 126.019V124.301C118.291 123.88 117.946 123.535 117.524 123.535H117.431V122.408C117.431 121.986 117.085 121.642 116.663 121.642V121.653ZM111.797 128.646V127.863C111.797 127.83 111.797 127.792 111.792 127.759C111.824 127.776 111.863 127.792 111.896 127.803C112.383 128.006 112.893 128.11 113.425 128.11C113.54 128.11 113.649 128.082 113.748 128.038V128.088C113.748 128.307 113.841 128.503 113.984 128.64H111.797V128.646Z" fill="black"/>
<path d="M85.6682 100.148L81.8705 97.9149L80.1169 95.8246L79.5908 90.1283L82.4953 87.5345L83.5146 92.3663L85.6682 100.148Z" fill="#FFABFF"/>
<path d="M114.044 100.126L98.3105 95.1681L98.316 95.1626L98.3325 95.1571L106.898 91.9122L114.482 89.4443L114.044 100.126Z" fill="#AF4FFF"/>
<path d="M118.894 90.2651L118.68 86.6481L122.111 83.3704L125.322 90.1228L126.232 94.5442L128.128 98.681L117.82 98.298L118.894 90.2651Z" fill="#7A18DB"/>
<path d="M104.136 64.4044L99.3408 65.3018L99.0229 62.2484L102.19 58.9707C102.289 59.102 104.13 64.3989 104.13 64.3989H104.136V64.4044Z" fill="#FFDAFF"/>
<path d="M92.562 98.2816L92.573 98.298L85.6681 100.148L83.5144 92.3663L82.4951 87.5346L84.9666 85.3895L92.562 98.2816Z" fill="#FFDAFF"/>
<path d="M101.105 70.6753V70.6808V70.6862L98.8586 75.7479L96.1953 67.3593L99.0285 62.2484L99.3409 65.3018L101.105 70.6753Z" fill="#FFCCFF"/>
<path d="M111.096 100.137L106.229 100.317L106.191 100.284L111.096 100.137Z" fill="#C361FF"/>
<path d="M104.136 67.5618L101.105 70.6753L99.3408 65.3018L104.136 64.4044V67.0529V67.5618Z" fill="#FFE2FF"/>
<path d="M104.136 70.0954L109.545 65.083L110.8 68.0051L112.712 71.7643L104.136 70.0954Z" fill="#7A18DB"/>
<path d="M106.229 100.317L102.158 100.47L106.191 100.284L106.229 100.317Z" fill="#C361FF"/>
<path d="M104.136 64.4044V60.5686L103.769 57.9037L105.413 58.9707L108.306 63.5617L104.136 64.4044Z" fill="#A240FF"/>
<path d="M96.1953 67.3594L98.8586 75.748L94.502 72.7384L96.1953 67.3594Z" fill="#FFDAFF"/>
<path d="M109.545 65.083L104.136 70.0953V67.5618V67.0529V64.4045L108.306 63.5618L109.545 65.083Z" fill="#8826E9"/>
<path d="M77.563 103.026H80.3579L86.0681 103.496L81.5744 107.83L75.2778 109.313L77.563 103.026Z" fill="#C361FF"/>
<path d="M100.842 106.38L89.4658 102.632L102.119 100.47H102.125L100.842 106.38Z" fill="#FFCAFF"/>
<path d="M88.8905 89.4389L84.9668 85.3896L86.0354 81.6303L88.0576 78.1173L88.8905 89.4389Z" fill="#FFA2FF"/>
<path d="M100.842 106.38L102.125 100.47H102.157L106.229 100.317L114.044 106.451L100.842 106.38Z" fill="#FFDAFF"/>
<path d="M82.8132 100.804L81.8706 97.915L85.6683 100.148L82.8132 100.804Z" fill="#FFB6FF"/>
<path d="M118.148 79.1022L117.458 83.7261L112.625 76.4045L112.712 71.7643L114.992 75.1131L118.148 79.1022Z" fill="#7614D7"/>
<path d="M106.542 81.6303L112.624 76.4045L109.462 86.8506L106.542 81.6303Z" fill="#C361FF"/>
<path d="M106.229 100.317L111.096 100.137L111.227 100.126H114.044L117.82 98.2981L128.128 98.6811L124.582 103.206L114.044 106.451L106.229 100.317Z" fill="#FFCAFF"/>
<path d="M104.136 77.3238L101.105 70.6863V70.6808V70.6753L104.136 67.5618V70.0953V77.3238Z" fill="#FFADFF"/>
<path d="M128.599 92.0764L132.764 92.9902L131.333 100.126L124.582 103.206L128.128 98.6811L128.599 92.0764Z" fill="#FFABFF"/>
<path d="M92.4576 82.8177L88.0571 78.1173L90.9506 76.4045L92.4576 82.8177Z" fill="#FFE2FF"/>
<path d="M89.4658 114.205L100.842 106.38L114.044 106.451L121.606 112.782L89.4658 114.205Z" fill="#8927EA"/>
<path d="M114.992 75.1132L122.538 80.9573L122.11 83.3704L117.458 83.7261L118.148 79.1023L114.992 75.1132Z" fill="#FFADFF"/>
<path d="M72.6255 103.754L76.4122 95.584L80.1167 95.8248L77.563 103.026L75.2778 109.313L72.6255 103.754Z" fill="#FFBFFF"/>
<path d="M84.9668 85.3895L88.8905 89.4388V89.4443L92.5622 98.2816L84.9668 85.3895Z" fill="#FFE2FF"/>
<path d="M89.4657 114.205L75.2778 109.313L81.5744 107.83L86.0681 103.496L89.4657 114.205Z" fill="#9A38FB"/>
<path d="M131.334 100.126L132.764 108.706L121.606 112.782L124.582 103.206L131.334 100.126Z" fill="#7A18DB"/>
<path d="M77.563 103.026L80.1167 95.8247L81.8703 97.915L82.8129 100.804L80.3578 103.026H77.563Z" fill="#FFABFF"/>
<path d="M98.1519 87.5127L98.1573 87.5237H98.1519V87.5127Z" fill="#FFBFFF"/>
<path d="M85.6681 100.148L92.573 98.2981L89.4658 102.632L86.0681 103.497L80.3579 103.026L82.813 100.804L85.6681 100.148Z" fill="#FFCAFF"/>
<path d="M104.136 70.0953L112.712 71.7643L112.624 76.4046L104.136 70.0953Z" fill="#8927EA"/>
<path d="M92.5618 98.2816L88.8901 89.4444L98.1515 87.5237L98.3049 95.1681L92.5727 98.2981L92.5618 98.2816Z" fill="#FFADFF"/>
<path d="M98.0366 81.3622L98.8586 75.7479L101.105 70.6863L104.136 77.3238L98.0366 81.3676V81.3622Z" fill="#C361FF"/>
<path d="M112.624 76.4046L106.541 81.6303L104.136 77.3239V70.0953L112.624 76.4046Z" fill="#A745FF"/>
<path d="M98.0366 81.3622L92.8086 75.1131L94.5019 72.7383L98.8586 75.7479L98.0366 81.3622Z" fill="#FFE2FF"/>
<path d="M114.482 89.4443L117.82 98.298L114.044 100.126L114.482 89.4443Z" fill="#A240FF"/>
<path d="M98.3158 95.1626L98.3105 95.1678V95.1626H98.3158Z" fill="#FFADFF"/>
<path d="M86.0679 103.496L89.4655 102.632L100.842 106.38L89.4655 114.205L86.0679 103.496Z" fill="#A240FF"/>
<path d="M132.764 92.9902L137.652 103.994L132.764 108.706L131.333 100.126L132.764 92.9902Z" fill="#7E1EE1"/>
<path d="M118.68 86.6482L118.894 90.2652L117.82 98.2981L114.482 89.4444L118.68 86.6482Z" fill="#811FE2"/>
<path d="M102.119 100.47L92.5728 98.2981L98.3049 95.1681H98.3104L114.044 100.126H111.227L111.095 100.137L106.191 100.284L102.157 100.47H102.125H102.119Z" fill="#C361FF"/>
<path d="M104.136 77.3239L98.3106 95.1626V95.1681H98.3051L98.1517 87.5237H98.1572L98.1517 87.5127L98.0366 81.3677L104.136 77.3239Z" fill="#FFA2FF"/>
<path d="M88.0571 78.1173L92.4576 82.8178V82.8287L95.5484 84.0599L98.1514 87.5127V87.5237L88.8901 89.4444V89.4389L88.0571 78.1173Z" fill="#FFBFFF"/>
<path d="M90.9507 76.4046L92.8084 75.1132L98.0364 81.3622V81.3677L92.4577 82.8287V82.8177L90.9507 76.4046Z" fill="#FFDAFF"/>
<path d="M128.599 92.0764L128.127 98.6811L126.231 94.5443L125.322 90.1229L122.11 83.3704L122.538 80.9573L126.237 86.38L128.599 92.0764Z" fill="#7614D7"/>
<path d="M106.898 91.9122L98.3325 95.1571L109.463 86.8506H113.178L117.458 83.726L122.111 83.3704L118.68 86.6481L114.482 89.4443L106.898 91.9122Z" fill="#FFADFF"/>
<path d="M109.462 86.8506L98.3325 95.1571L98.316 95.1626H98.3105L104.136 77.3239L106.542 81.6303L109.462 86.8506Z" fill="#A240FF"/>
<path d="M76.4121 95.5839L79.5905 90.1283L80.1166 95.8247L76.4121 95.5839Z" fill="#FFCAFF"/>
<path d="M112.624 76.4045L117.458 83.7261L113.178 86.8506H109.462L112.624 76.4045Z" fill="#A745FF"/>
<path d="M92.458 82.8287L98.0367 81.3677L98.1518 87.5127L95.5488 84.0599L92.458 82.8287Z" fill="#FFB6FF"/>
<path d="M114.044 106.451L124.582 103.206L121.606 112.782L114.044 106.451Z" fill="#A240FF"/>
<path d="M89.4658 102.632L92.573 98.2981L102.119 100.47L89.4658 102.632Z" fill="#FFCAFF"/>
<path d="M104.136 60.5686V64.4044C104.136 64.4044 102.294 59.1075 102.196 58.9762L103.769 57.9037L104.136 60.5686Z" fill="#FFE2FF"/>
</g>
<defs>
<filter id="filter0_d_1076_15745" x="0.0361328" y="0.000488281" width="210" height="210" filterUnits="userSpaceOnUse" color-interpolation-filters="sRGB">
<feFlood flood-opacity="0" result="BackgroundImageFix"/>
<feColorMatrix in="SourceAlpha" type="matrix" values="0 0 0 0 0 0 0 0 0 0 0 0 0 0 0 0 0 0 127 0" result="hardAlpha"/>
<feOffset dx="4" dy="4"/>
<feComposite in2="hardAlpha" operator="out"/>
<feColorMatrix type="matrix" values="0 0 0 0 0 0 0 0 0 0 0 0 0 0 0 0 0 0 1 0"/>
<feBlend mode="normal" in2="BackgroundImageFix" result="effect1_dropShadow_1076_15745"/>
<feBlend mode="normal" in="SourceGraphic" in2="effect1_dropShadow_1076_15745" result="shape"/>
</filter>
<clipPath id="clip0_1076_15745">
<rect width="121" height="147" fill="white" transform="translate(43 29.0005)"/>
</clipPath>
</defs>
</svg>
