<svg width="210" height="210" viewBox="0 0 210 210" fill="none" xmlns="http://www.w3.org/2000/svg">
<rect x="5.5" y="5.5" width="203" height="203" rx="28.5" fill="black" stroke="black" stroke-width="3"/>
<rect x="1" y="1" width="204" height="204" rx="29" fill="#1D1D1D" stroke="black" stroke-width="2"/>
<g clip-path="url(#clip0_1076_14596)">
<path d="M159.688 65.0054C158.594 63.0978 157.026 61.5054 155.139 60.4075L108.709 33.2988C104.936 31.1032 100.059 31.1032 96.2915 33.2988L49.8557 60.413C48.034 61.4782 46.4926 63.0108 45.4093 64.8423L45.3069 65.0162C44.2183 66.9238 43.647 69.0978 43.647 71.2934V125.516C43.647 127.717 44.2236 129.891 45.3123 131.804C46.4064 133.712 47.9801 135.304 49.8611 136.402L59.546 142.06L51.2623 156.092C50.1575 157.967 50.1952 160.272 51.3593 162.114C52.5289 163.951 54.5823 164.946 56.7327 164.706L66.4391 163.63L70.1094 172.783C70.9232 174.804 72.761 176.168 74.9168 176.331C75.0623 176.342 75.2132 176.348 75.3587 176.348C77.3636 176.348 79.1745 175.304 80.2039 173.56L88.7355 159.098L96.2861 163.505C98.1725 164.609 100.317 165.19 102.5 165.19C104.683 165.19 106.828 164.609 108.714 163.505L116.265 159.098L124.797 173.56C125.901 175.435 127.928 176.494 130.084 176.331C132.239 176.163 134.077 174.804 134.891 172.783L138.561 163.63L148.268 164.706C150.413 164.946 152.472 163.951 153.641 162.114C154.805 160.277 154.843 157.967 153.738 156.092L145.454 142.06L155.139 136.402C157.02 135.304 158.594 133.712 159.688 131.804C160.777 129.897 161.353 127.723 161.353 125.522V71.2934C161.353 69.0923 160.777 66.9238 159.688 65.0054Z" fill="#EEEEEF"/>
<path d="M75.3585 177C75.1968 177 75.0298 176.995 74.8681 176.984C72.4697 176.804 70.4217 175.288 69.5109 173.027L66.0239 164.332L56.8025 165.353C54.4149 165.625 52.119 164.511 50.8148 162.467C49.5159 160.413 49.4782 157.848 50.707 155.761L58.6565 142.293L49.5375 136.967C47.5595 135.815 45.9049 134.141 44.7516 132.13C43.6036 130.114 43 127.826 43 125.516V71.2935C43 68.9782 43.6036 66.6956 44.7462 64.6902L44.854 64.5109C45.9912 62.5869 47.608 60.9728 49.5321 59.8478L95.9679 32.7337C99.9346 30.4239 105.06 30.4239 109.032 32.7337L155.463 59.8424C157.435 60.9891 159.09 62.663 160.248 64.6793C161.391 66.7011 162 68.9891 162 71.2935V125.522C162 127.837 161.396 130.12 160.248 132.13C159.095 134.141 157.44 135.815 155.463 136.967L146.344 142.293L154.293 155.761C155.522 157.848 155.484 160.418 154.185 162.467C152.881 164.516 150.585 165.625 148.198 165.359L138.976 164.337L135.489 173.033C134.584 175.283 132.53 176.799 130.132 176.989C127.717 177.168 125.47 175.989 124.241 173.902L116.038 159.995L109.043 164.081C107.06 165.239 104.801 165.853 102.505 165.853C100.209 165.853 97.9513 165.239 95.9679 164.081L88.9724 159.995L80.7696 173.902C79.6216 175.848 77.6005 177.011 75.3693 177.011L75.3585 177ZM66.8539 162.929L70.7074 172.538C71.4296 174.331 73.0626 175.538 74.9651 175.679C76.873 175.821 78.6677 174.886 79.6485 173.223L88.5089 158.207L96.6147 162.94C98.3986 163.984 100.436 164.538 102.505 164.538C104.575 164.538 106.612 163.984 108.396 162.94L116.502 158.207L125.362 173.223C126.338 174.88 128.127 175.815 130.046 175.679C131.948 175.533 133.581 174.326 134.303 172.533L138.157 162.924L148.348 164.054C150.251 164.266 152.073 163.386 153.107 161.755C154.142 160.125 154.174 158.082 153.194 156.418L144.576 141.821L154.827 135.832C156.611 134.788 158.103 133.283 159.138 131.473C160.173 129.663 160.717 127.603 160.717 125.516V71.2935C160.717 69.2119 160.173 67.1522 159.138 65.3315C158.098 63.5163 156.605 62.0054 154.827 60.9728L108.385 33.8641C104.807 31.7826 100.188 31.7826 96.6147 33.8641L50.1788 60.9782C48.4488 61.9891 46.9882 63.4456 45.9642 65.1793L45.8618 65.3532C44.8378 67.1522 44.2935 69.2065 44.2935 71.2989V125.522C44.2935 127.609 44.8378 129.668 45.8726 131.484C46.9128 133.293 48.4003 134.799 50.1842 135.842L60.435 141.831L51.8172 156.429C50.8417 158.087 50.874 160.136 51.9034 161.766C52.9382 163.391 54.7599 164.272 56.6624 164.06L66.8539 162.929Z" fill="black"/>
<path d="M104.111 124.489L96.3771 119.821L70.8794 163.027L74.1293 171.13C74.5389 172.147 75.9186 172.255 76.4791 171.31L104.116 124.484H104.111V124.489Z" fill="#3FC8FF"/>
<path d="M75.3528 172.5C75.3043 172.5 75.2558 172.5 75.2073 172.5C74.5012 172.446 73.8976 172 73.6281 171.337L70.2759 162.984L96.1886 119.076L104.025 123.804L106.784 121.022L76.9427 171.587C76.6031 172.163 75.9995 172.5 75.3528 172.5ZM71.4831 163.071L74.6306 170.924C74.7438 171.206 74.9917 171.386 75.2881 171.413C75.5899 171.446 75.8594 171.293 76.0157 171.033L103.373 124.679L96.5604 120.571L71.4777 163.076L71.4831 163.071Z" fill="black"/>
<path d="M82.6236 111.516L54.9863 158.342C54.4312 159.283 55.1803 160.467 56.2582 160.348L64.8544 159.397L90.3521 116.19L82.6182 111.522L82.6236 111.516Z" fill="#3FC8FF"/>
<path d="M56.1125 160.897C55.4873 160.897 54.9053 160.581 54.5603 160.038C54.1777 159.435 54.1615 158.679 54.5226 158.06L81.8797 111.706L81.7288 111.614L85.0864 108.391L83.3564 111.326L91.0903 115.994L65.1776 159.902L56.3119 160.88C56.2419 160.886 56.1718 160.891 56.1071 160.891L56.1125 160.897ZM82.8067 112.266L55.4496 158.62C55.2933 158.88 55.2987 159.19 55.4658 159.451C55.6275 159.706 55.9023 159.837 56.1987 159.804L64.5309 158.88L89.6136 116.375L82.8067 112.266Z" fill="black"/>
<path d="M93.3649 118.005L90.3576 116.185L64.8545 159.397L69.2254 158.908L70.8746 163.027L96.3776 119.821L93.3649 118.005Z" fill="white"/>
<path d="M70.7612 164.489L68.8048 159.609L63.6309 160.185L90.131 115.283L97.2613 119.587L70.7612 164.484V164.489ZM69.6401 158.201L70.9821 161.56L95.4881 120.043L90.5783 117.076L66.0723 158.598L69.6401 158.201Z" fill="black"/>
<path d="M79.7134 148.12C79.7134 148.12 85.4586 152.527 83.5345 159.353L87.318 152.918L79.7134 148.12Z" fill="black"/>
<path d="M81.5511 164.005L82.9146 159.174C84.6931 152.87 79.5408 148.804 79.3252 148.636L80.0582 147.565L88.1963 152.701L81.5511 164.005ZM82.9254 150.913C83.7769 152.331 84.5099 154.163 84.5692 156.315L86.4393 153.13L82.9254 150.913Z" fill="black"/>
<path d="M100.889 124.489L108.623 119.821L134.12 163.027L130.87 171.13C130.461 172.147 129.081 172.255 128.521 171.31L100.883 124.484H100.889V124.489Z" fill="#3FC8FF"/>
<path d="M129.647 172.5C128.995 172.5 128.397 172.158 128.057 171.587L98.21 121.022L100.969 123.804L108.806 119.076L134.718 162.984L131.366 171.337C131.097 172 130.493 172.446 129.792 172.5C129.744 172.5 129.695 172.5 129.647 172.5ZM101.622 124.674L128.979 171.027C129.135 171.288 129.41 171.44 129.706 171.408C130.008 171.386 130.25 171.201 130.364 170.918L133.511 163.065L108.428 120.56L101.616 124.668L101.622 124.674Z" fill="black"/>
<path d="M122.376 111.516L150.014 158.342C150.569 159.283 149.82 160.467 148.742 160.348L140.146 159.397L114.648 116.19L122.382 111.522H122.376V111.516Z" fill="#3FC8FF"/>
<path d="M148.887 160.897C148.817 160.897 148.753 160.897 148.683 160.886L139.817 159.908L139.682 159.674L113.91 116L121.644 111.331L119.709 108.054L123.255 111.63L123.12 111.712L150.477 158.065C150.838 158.679 150.828 159.435 150.44 160.043C150.095 160.587 149.513 160.902 148.887 160.902V160.897ZM140.469 158.886L148.801 159.81C149.098 159.842 149.373 159.712 149.534 159.456C149.701 159.196 149.707 158.886 149.55 158.625L122.193 112.272L115.386 116.38L140.469 158.886Z" fill="black"/>
<path d="M111.635 118.005L114.643 116.185L140.146 159.397L135.775 158.908L134.126 163.027L108.623 119.821L111.635 118.005Z" fill="white"/>
<path d="M134.239 164.489L107.739 119.592L114.869 115.288L141.369 160.19L136.195 159.609L134.239 164.489ZM109.512 120.043L134.018 161.56L135.365 158.201L138.933 158.598L114.427 117.076L109.517 120.043H109.512Z" fill="black"/>
<path d="M125.287 148.12C125.287 148.12 119.541 152.527 121.466 159.353L117.682 152.918L125.287 148.12Z" fill="black"/>
<path d="M123.449 164.005L116.804 152.701L124.942 147.565L125.68 148.636C125.459 148.804 120.312 152.87 122.091 159.174L123.454 164.005H123.449ZM118.561 153.136L120.431 156.321C120.49 154.168 121.223 152.337 122.075 150.918L118.561 153.136Z" fill="black"/>
<path d="M50.4863 72.7879V125.19C50.4863 126.576 50.8474 127.94 51.5319 129.141C52.2217 130.342 53.208 131.342 54.3937 132.038L99.2612 158.239C100.447 158.929 101.8 159.299 103.169 159.299C104.538 159.299 105.89 158.935 107.076 158.239L151.944 132.038C153.129 131.348 154.116 130.342 154.805 129.147C155.49 127.945 155.851 126.581 155.851 125.196V72.7879C155.851 71.402 155.49 70.0379 154.805 68.8368C154.116 67.6357 153.129 66.6357 151.944 65.9455L107.076 39.739C104.699 38.3531 101.633 38.3531 99.2612 39.739L54.3937 65.9455C53.208 66.6357 52.2217 67.6357 51.5319 68.8368C50.8474 70.0379 50.4863 71.4075 50.4863 72.7933V72.7879Z" fill="black"/>
<path d="M103.168 159.951C101.692 159.951 100.226 159.554 98.9376 158.804L54.0701 132.603C52.7874 131.853 51.7203 130.766 50.9711 129.467C50.2274 128.168 49.8394 126.69 49.8394 125.19V72.788C49.8394 71.288 50.2328 69.8097 50.9711 68.5108C51.7203 67.2064 52.7928 66.1249 54.0701 65.3803L98.9376 39.1738C101.503 37.6738 104.828 37.6738 107.399 39.1738L152.267 65.3803C153.544 66.1249 154.616 67.2064 155.366 68.5108C156.109 69.8097 156.497 71.288 156.497 72.788V125.196C156.497 126.696 156.104 128.174 155.366 129.473C154.611 130.783 153.539 131.864 152.267 132.603L107.399 158.804C106.122 159.554 104.656 159.951 103.168 159.951ZM51.1328 72.7934V125.19C51.1328 126.462 51.467 127.712 52.0922 128.815C52.7227 129.918 53.6336 130.837 54.7168 131.473L99.5844 157.674C101.773 158.951 104.591 158.94 106.747 157.674L151.615 131.473C152.692 130.848 153.603 129.929 154.239 128.821C154.864 127.723 155.199 126.467 155.199 125.196V72.788C155.199 71.5162 154.864 70.2608 154.239 69.163C153.603 68.0597 152.698 67.1412 151.615 66.5108L106.752 40.3043C104.575 39.0325 101.762 39.0325 99.5844 40.3043L54.7168 66.5108C53.6336 67.1412 52.7227 68.0597 52.0922 69.163C51.467 70.2608 51.1328 71.5162 51.1328 72.7934Z" fill="black"/>
<path d="M47.9854 71.2988V125.522C47.9854 126.956 48.3572 128.369 49.0686 129.609C49.7801 130.853 50.8041 131.886 52.0275 132.603L98.458 159.717C99.6868 160.435 101.083 160.815 102.5 160.815C103.918 160.815 105.319 160.435 106.542 159.717L152.973 132.609C154.201 131.891 155.22 130.859 155.932 129.614C156.643 128.369 157.015 126.956 157.015 125.522V71.2988C157.015 69.864 156.643 68.451 155.932 67.2118C155.22 65.9673 154.196 64.9347 152.973 64.2173L106.542 37.1031C104.085 35.6738 100.91 35.6738 98.458 37.1031L52.0275 64.2173C50.7987 64.9347 49.7801 65.9673 49.0686 67.2064C48.3626 68.451 47.9854 69.864 47.9854 71.2988Z" fill="#3FC8FF"/>
<path d="M102.5 161.359C100.991 161.359 99.498 160.951 98.1884 160.19L51.7579 133.071C50.4482 132.304 49.3596 131.201 48.5996 129.875C47.8451 128.56 47.4463 127.049 47.4463 125.516V71.2988C47.4463 69.7771 47.8451 68.2662 48.5996 66.9347C49.3596 65.6086 50.4536 64.5054 51.7579 63.7445L98.1884 36.6304C100.808 35.1032 104.192 35.1032 106.812 36.6304L153.242 63.7445C154.552 64.5108 155.64 65.6195 156.395 66.9401C157.149 68.2554 157.548 69.7608 157.548 71.2988V125.522C157.548 127.054 157.149 128.565 156.395 129.886C155.635 131.212 154.546 132.315 153.242 133.081L106.812 160.19C105.507 160.956 104.014 161.359 102.5 161.359ZM102.5 36.5706C101.185 36.5706 99.8753 36.9021 98.7273 37.5706L52.2968 64.6847C51.1543 65.3532 50.2003 66.3151 49.532 67.4782C48.8691 68.6412 48.5188 69.9673 48.5188 71.2988V125.522C48.5188 126.864 48.8691 128.185 49.532 129.337C50.1949 130.494 51.1489 131.462 52.2968 132.136L98.7273 159.25C101.029 160.592 103.987 160.587 106.273 159.25L152.703 132.141C153.846 131.473 154.8 130.505 155.462 129.348C156.125 128.19 156.476 126.869 156.476 125.527V71.2988C156.476 69.9564 156.125 68.6358 155.462 67.4836C154.8 66.326 153.846 65.3586 152.698 64.6847L106.273 37.5706C105.125 36.9021 103.81 36.5706 102.5 36.5706Z" fill="black"/>
<path d="M102.5 155.266C103.438 155.266 104.376 155.022 105.217 154.533L149.195 128.853C150.036 128.364 150.715 127.663 151.184 126.842C151.652 126.022 151.911 125.076 151.911 124.098V72.7282C151.911 71.7445 151.652 70.8043 151.184 69.9836C150.715 69.163 150.036 68.4619 149.195 67.9727L105.217 42.2934C104.376 41.8043 103.438 41.5597 102.5 41.5597C101.562 41.5597 100.625 41.8043 99.7839 42.2934L55.8057 67.9727C54.9649 68.4619 54.2858 69.163 53.8169 69.9836C53.3481 70.8043 53.0894 71.7499 53.0894 72.7282V124.092C53.0894 125.076 53.3481 126.016 53.8169 126.837C54.2858 127.658 54.9649 128.359 55.8057 128.848L99.7839 154.527C100.625 155.016 101.562 155.261 102.5 155.261V155.266Z" fill="#F3F3F3"/>
<path d="M102.5 155.918H101.853V155.88C101.012 155.788 100.199 155.522 99.4603 155.092L55.4821 129.413C54.5605 128.88 53.7898 128.098 53.2562 127.163C52.7226 126.228 52.4424 125.168 52.4424 124.092V72.7282C52.4424 71.6521 52.7226 70.5923 53.2562 69.6576C53.7898 68.7228 54.5605 67.9456 55.4821 67.4076L99.4603 41.7282C101.309 40.6521 103.696 40.6521 105.54 41.7282L149.518 67.4076C150.44 67.9402 151.21 68.7228 151.744 69.6576C152.277 70.5869 152.558 71.6521 152.558 72.7282V124.098C152.558 125.174 152.277 126.234 151.744 127.168C151.21 128.103 150.44 128.88 149.518 129.418L105.54 155.098C104.618 155.636 103.562 155.918 102.5 155.918ZM102.5 42.2119C101.659 42.2119 100.835 42.4347 100.107 42.8586L56.1288 68.538C55.4012 68.9619 54.7976 69.5706 54.3772 70.3097C53.9568 71.0434 53.7359 71.8804 53.7359 72.7282V124.092C53.7359 124.94 53.9568 125.777 54.3772 126.511C54.7976 127.25 55.4066 127.859 56.1288 128.283L100.107 153.962C100.835 154.386 101.659 154.609 102.5 154.609H102.726C103.486 154.571 104.235 154.353 104.893 153.967L148.871 128.288C149.599 127.864 150.202 127.255 150.623 126.516C151.043 125.783 151.264 124.946 151.264 124.098V72.7282C151.264 71.8804 151.043 71.0434 150.623 70.3097C150.202 69.5706 149.593 68.9619 148.871 68.538L104.893 42.8586C104.165 42.4347 103.341 42.2119 102.5 42.2119Z" fill="black"/>
<path d="M64.7894 73.2228L99.7834 52.788C100.624 52.2989 101.562 52.0543 102.5 52.0543V41.5543C101.562 41.5543 100.624 41.7989 99.7834 42.288L55.8051 67.9728C54.9644 68.4619 54.2853 69.163 53.8164 69.9837L62.8007 75.2282C63.2696 74.4076 63.9487 73.7065 64.7894 73.2174V73.2228Z" fill="#EEEEEF"/>
<path d="M63.0379 76.1195L52.9326 70.2227L53.256 69.6575C53.7895 68.7227 54.5602 67.9456 55.4818 67.4075L99.4601 41.7228C100.382 41.1847 101.433 40.9021 102.5 40.9021H103.147V52.7064H102.5C101.659 52.7064 100.834 52.9293 100.107 53.3532L64.9242 73.8967C64.2829 74.3097 63.7439 74.8804 63.3613 75.5543L63.0379 76.1195ZM54.7381 69.7662L62.596 74.3532C63.0972 73.663 63.7332 73.0814 64.4661 72.6521L65.4362 72.0869L99.4601 52.2228C100.198 51.7934 101.012 51.5271 101.853 51.4347V42.2499C101.239 42.3369 100.646 42.538 100.107 42.8532L56.1286 68.538C55.5896 68.8532 55.1154 69.2717 54.7381 69.7662Z" fill="black"/>
<path d="M105.216 52.7881L140.21 73.2229C141.051 73.712 141.73 74.4131 142.199 75.2337L151.183 69.9892C150.714 69.1685 150.035 68.4674 149.195 67.9783L105.216 42.2935C104.376 41.8044 103.438 41.5598 102.5 41.5598V52.0544C103.438 52.0544 104.376 52.2989 105.216 52.7881Z" fill="#9E9E9F"/>
<path d="M141.962 76.125L141.638 75.5598C141.218 74.8206 140.609 74.2119 139.887 73.788L104.893 53.3532C104.165 52.9293 103.341 52.7065 102.5 52.7065H101.853V40.9076H102.5C103.567 40.9076 104.618 41.1902 105.539 41.7282L149.518 67.413C150.439 67.9456 151.21 68.7282 151.744 69.663L152.067 70.2282L141.962 76.125ZM103.147 51.4348C103.987 51.5272 104.806 51.7935 105.539 52.2228L140.533 72.6576C141.266 73.0869 141.908 73.663 142.404 74.3587L150.261 69.7717C149.879 69.2717 149.41 68.8532 148.871 68.5435L104.893 42.8587C104.354 42.5435 103.761 42.3424 103.147 42.2554V51.4348Z" fill="black"/>
<path d="M62.079 118.848V77.9783C62.079 76.9946 62.3377 76.0544 62.8066 75.2337L53.8223 69.9891C53.3534 70.8098 53.0947 71.7554 53.0947 72.7337V124.098C53.0947 125.082 53.3534 126.022 53.8223 126.842L62.8066 121.598C62.3377 120.777 62.079 119.832 62.079 118.853V118.848Z" fill="#9E9E9F"/>
<path d="M53.5849 127.734L53.2616 127.168C52.728 126.239 52.4478 125.174 52.4478 124.098V72.7336C52.4478 71.6576 52.728 70.5978 53.2616 69.663L53.5849 69.0978L63.6902 74.9945L63.3669 75.5597C62.9465 76.2934 62.7255 77.1304 62.7255 77.9782V118.853C62.7255 119.701 62.9465 120.538 63.3669 121.272L63.6902 121.837L53.5849 127.734ZM54.0969 70.9021C53.8652 71.4836 53.7412 72.1032 53.7412 72.7336V124.098C53.7412 124.728 53.8652 125.348 54.0969 125.929L61.9548 121.342C61.6099 120.56 61.432 119.712 61.432 118.853V77.9782C61.432 77.1195 61.6099 76.2717 61.9548 75.4891L54.0969 70.9021Z" fill="black"/>
<path d="M142.199 75.2336C142.668 76.0543 142.926 76.9999 142.926 77.9782V118.848C142.926 119.831 142.668 120.772 142.199 121.592L151.183 126.837C151.652 126.016 151.911 125.071 151.911 124.092V72.7282C151.911 71.7445 151.652 70.8043 151.183 69.9836L142.199 75.2282V75.2336Z" fill="#4D4D4D"/>
<path d="M151.42 127.728L141.315 121.831L141.638 121.266C142.059 120.532 142.28 119.696 142.28 118.848V77.9782C142.28 77.1303 142.059 76.2934 141.638 75.5597L141.552 75.4075V74.8532L151.42 69.0923L151.744 69.6575C152.277 70.5869 152.557 71.6521 152.557 72.7282V124.092C152.557 125.168 152.277 126.228 151.744 127.163L151.42 127.728ZM143.05 121.337L150.908 125.924C151.14 125.342 151.264 124.723 151.264 124.092V72.7282C151.264 72.0977 151.14 71.4782 150.908 70.8966L143.05 75.4836C143.395 76.2662 143.573 77.114 143.573 77.9782V118.848C143.573 119.706 143.395 120.554 143.05 121.337Z" fill="black"/>
<path d="M99.7834 144.038L64.7894 123.603C63.9487 123.114 63.2696 122.413 62.8007 121.592L53.8164 126.837C54.2853 127.658 54.9644 128.359 55.8051 128.848L99.7834 154.527C100.624 155.016 101.562 155.261 102.5 155.261V144.766C101.562 144.766 100.624 144.522 99.7834 144.033V144.038Z" fill="#4D4D4D"/>
<path d="M103.147 155.913H102.5C101.433 155.913 100.382 155.63 99.4601 155.092L55.4818 129.413C54.5602 128.88 53.7895 128.098 53.256 127.163L52.9326 126.598L63.0379 120.701L63.3613 121.266C63.7817 122.005 64.3907 122.614 65.1129 123.038L99.1367 142.908L100.107 143.467C100.834 143.891 101.664 144.114 102.5 144.114H103.147V155.913ZM54.7381 127.054C55.1208 127.554 55.5896 127.973 56.1286 128.283L100.107 153.962C100.646 154.277 101.239 154.478 101.853 154.565V145.386C101.368 145.331 100.888 145.223 100.43 145.054V145.168L99.4601 144.609L64.4661 124.174C63.7332 123.745 63.0918 123.163 62.596 122.473L54.7381 127.06V127.054Z" fill="black"/>
<path d="M140.21 123.603L105.216 144.038C104.376 144.527 103.438 144.772 102.5 144.772V155.266C103.438 155.266 104.376 155.022 105.216 154.533L149.195 128.853C150.035 128.364 150.714 127.663 151.183 126.842L142.199 121.598C141.73 122.418 141.051 123.12 140.21 123.609V123.603Z" fill="#333333"/>
<path d="M102.5 155.918H101.853V144.119H102.5C103.341 144.119 104.165 143.897 104.893 143.473L140.07 122.929C140.711 122.516 141.256 121.946 141.638 121.272L141.962 120.706L152.067 126.603L151.744 127.168C151.21 128.103 150.439 128.88 149.518 129.418L105.539 155.098C104.618 155.636 103.561 155.918 102.5 155.918ZM103.147 145.391V154.571C103.761 154.484 104.354 154.283 104.893 153.967L148.871 128.288C149.41 127.973 149.884 127.554 150.261 127.06L142.404 122.473C141.902 123.163 141.266 123.744 140.533 124.174L139.563 124.739L105.539 144.603C104.801 145.033 103.987 145.299 103.147 145.391Z" fill="black"/>
<path d="M144.598 73.8315C144.102 72.9619 143.38 72.2173 142.49 71.701L105.384 50.0271C104.494 49.5054 103.497 49.2445 102.506 49.2445C101.514 49.2445 100.517 49.5054 99.6277 50.0271L62.5157 71.6956C61.6264 72.2173 60.9042 72.9565 60.4084 73.826C59.9126 74.6956 59.6377 75.6956 59.6377 76.7391V120.076C59.6377 121.114 59.9126 122.12 60.4084 122.989C60.9042 123.859 61.6264 124.603 62.5157 125.119L99.6223 146.788C100.512 147.31 101.509 147.571 102.5 147.571C103.492 147.571 104.489 147.31 105.378 146.788L142.485 125.119C143.374 124.598 144.096 123.859 144.592 122.989C145.088 122.12 145.363 121.119 145.363 120.076V76.7445C145.363 75.7065 145.088 74.701 144.592 73.8315H144.598Z" fill="#B4B4B5"/>
<path d="M102.5 148.223C101.374 148.223 100.269 147.924 99.2987 147.353L62.1921 125.685C61.222 125.12 60.4082 124.304 59.8477 123.315C59.2871 122.331 58.9907 121.212 58.9907 120.076V76.7391C58.9907 75.6032 59.2871 74.4837 59.8477 73.5C60.4028 72.5217 61.2166 71.7011 62.1921 71.1304L99.3041 49.4619C101.244 48.3206 103.767 48.3206 105.707 49.4619L142.813 71.1358C143.784 71.7011 144.597 72.5217 145.158 73.5054L145.713 74.4837H145.605C145.869 75.2065 146.009 75.9728 146.009 76.7445V120.076C146.009 121.212 145.713 122.331 145.153 123.315C144.597 124.293 143.784 125.114 142.808 125.685L105.701 147.353C104.731 147.924 103.627 148.223 102.5 148.223ZM102.5 49.8967C101.605 49.8967 100.722 50.1358 99.9455 50.5924L62.8388 72.2608C62.0627 72.7174 61.4106 73.3695 60.9687 74.1522C60.5213 74.9402 60.2842 75.8315 60.2842 76.7391V120.076C60.2842 120.984 60.5213 121.88 60.9687 122.663C61.416 123.451 62.0627 124.103 62.8388 124.554L99.9455 146.223C101.498 147.13 103.508 147.13 105.049 146.223L142.156 124.554C142.932 124.098 143.579 123.446 144.026 122.663C144.473 121.875 144.711 120.984 144.711 120.076V76.7445C144.711 75.8369 144.473 74.9402 144.026 74.1576L143.913 73.9619C143.471 73.2608 142.873 72.6793 142.161 72.2663L105.06 50.5924C104.284 50.1358 103.4 49.8967 102.505 49.8967H102.5Z" fill="black"/>
<path d="M91.5701 98.1956L91.3491 98.0053C91.3491 98.0053 91.3761 97.9727 91.3868 97.9564L91.5917 98.1629C91.5917 98.1629 91.5755 98.1847 91.5647 98.1956H91.5701Z" fill="black"/>
<path d="M92.1524 97.7064H92.0985V97.5488L92.0877 97.538L92.0015 97.451L92.0446 97.4075L92.1254 97.3912H92.729L92.1524 97.7064Z" fill="black"/>
<path d="M68.9827 120.054C67.7539 120.054 66.9293 121.38 67.5275 122.451C67.5275 122.451 67.5383 122.467 67.5383 122.473C67.9533 123.19 68.5515 123.799 69.2899 124.228L100.107 142.065C100.845 142.495 101.675 142.706 102.5 142.706C103.325 142.706 104.149 142.495 104.893 142.065L135.71 124.228C136.448 123.799 137.047 123.19 137.462 122.473C137.462 122.473 137.472 122.456 137.472 122.451C138.071 121.375 137.246 120.054 136.017 120.054H68.9827Z" fill="#3FC8FF"/>
<path d="M102.5 143.25C101.562 143.25 100.641 143.005 99.8376 142.538L69.0205 124.701C68.2121 124.234 67.5384 123.554 67.0695 122.75L66.9886 122.598C66.6868 121.967 66.7192 121.239 67.0803 120.619C67.4791 119.929 68.1905 119.516 68.9774 119.516H136.012C136.799 119.516 137.51 119.924 137.909 120.614C138.265 121.228 138.297 121.956 138.006 122.587V122.614L137.92 122.75C137.451 123.56 136.777 124.234 135.974 124.701L105.157 142.538C104.349 143.005 103.427 143.25 102.495 143.25H102.5ZM68.0719 122.315C68.4438 122.908 68.9504 123.408 69.5594 123.761L100.377 141.598C101.654 142.342 103.33 142.342 104.629 141.598L135.446 123.761C136.05 123.413 136.556 122.918 136.928 122.326V122.315L137.009 122.19C137.187 121.864 137.181 121.489 136.993 121.163C136.788 120.81 136.427 120.603 136.023 120.603H68.9828C68.5785 120.603 68.2174 120.815 68.0126 121.168C67.824 121.5 67.8132 121.869 67.9965 122.19L68.0719 122.321V122.315Z" fill="black"/>
<path d="M131.571 111.473L125.061 107.087L130.865 102.245L131.463 103.087L132.239 109.636L131.571 111.473Z" fill="#035D9E"/>
<path d="M131.571 111.473L120.048 115.766V105.723L125.061 107.087L131.571 111.473Z" fill="#0364A7"/>
<path d="M130.865 102.245L125.061 107.087L120.048 105.723L124.861 104.136L130.865 102.245Z" fill="#36A2ED"/>
<path d="M130.865 102.245L124.861 104.136L120.048 105.723L120.167 103.625L128.036 100.652L130.865 102.245Z" fill="#78E3FF"/>
<path d="M126.079 91.5435L128.035 100.652L123.815 93.3424L126.079 91.5435Z" fill="#0364A7"/>
<path d="M123.815 93.3424L128.035 100.652L120.167 103.625L118.685 93.5598L123.815 93.3424Z" fill="#4A9EF0"/>
<path d="M126.079 91.5435L123.815 93.3424L118.685 93.5598L120.167 90.2826L123.508 89.8641L126.079 91.5435Z" fill="#8CF8FF"/>
<path d="M123.508 89.8641L120.167 90.2826L121.622 88.1793L123.508 89.8641Z" fill="#99FAFF"/>
<path d="M120.167 82.1793L121.126 86.1195L121.083 86.125L119.531 83.2228L120.167 82.1793Z" fill="#0367AE"/>
<path d="M119.504 88.8206L121.622 88.1793L120.167 90.2826L116.028 90.9565L118.119 89.2445L119.504 88.8206Z" fill="#A8FAFF"/>
<path d="M120.167 90.2826L118.685 93.5598L116.028 90.9565L120.167 90.2826Z" fill="#A8FAFF"/>
<path d="M118.685 93.5598L120.167 103.625L108.865 99.3261L118.685 93.5598Z" fill="#78E3FF"/>
<path d="M120.167 103.625L120.048 105.723H115.365L110.019 102.891L108.865 99.326L120.167 103.625Z" fill="#8CF8FF"/>
<path d="M120.167 82.1794L118.28 82.9946L114.869 84.462L113.376 84.0653L109.512 82.1468L115.984 80.0381L120.167 82.1794Z" fill="#78E3FF"/>
<path d="M120.048 105.723V115.766L115.78 112.206L115.365 105.723H120.048Z" fill="#4A9EF0"/>
<path d="M120.048 115.766L108.612 112.745L115.78 112.207L120.048 115.766Z" fill="#0D79C4"/>
<path d="M118.281 82.9945L120.167 82.1793L119.531 83.2228L118.286 83.0054L118.281 82.9945Z" fill="#0364A7"/>
<path d="M119.531 83.2228L121.083 86.1249L121.126 86.1195L121.622 88.1793L119.504 88.8206L119.051 86.1575L118.286 83.0054L119.531 83.2228Z" fill="#0364A7"/>
<path d="M118.119 89.2445L119.052 86.1576L119.504 88.8206L118.119 89.2445Z" fill="#0367AE"/>
<path d="M119.051 86.1576L118.119 89.2445L116.028 90.9565L115.203 88.1793L119.051 86.1576Z" fill="#0D79C4"/>
<path d="M118.685 93.5598L108.865 99.3261L116.028 90.9565L118.685 93.5598Z" fill="#8CF8FF"/>
<path d="M116.028 90.9565L108.865 99.326L108.008 91.6793L104.769 90.163L107.275 88.1304L116.028 90.9565Z" fill="#4A9EF0"/>
<path d="M113.635 77.0923L115.985 80.038L109.512 82.1467L108.202 79.125L111.673 77.9728L113.565 76.9619L113.635 77.0923Z" fill="#0367AE"/>
<path d="M115.365 105.723L115.78 112.207L108.612 112.745L108.342 105.462L110.018 102.891L115.365 105.723Z" fill="#0F7AC6"/>
<path d="M114.697 86.5054L114.869 84.4619L118.281 82.9945L118.286 83.0054L119.051 86.1576L115.203 88.1793L114.697 86.5054Z" fill="#0367AE"/>
<path d="M114.697 86.5054L115.203 88.1793L116.028 90.9565L107.275 88.1304L109.512 82.1467L113.376 84.0652L114.697 86.5054Z" fill="#8CF8FF"/>
<path d="M115.985 80.038L113.635 77.0923L113.565 76.9619L114.869 76.2554L115.985 80.038Z" fill="#0367AE"/>
<path d="M113.376 84.0652L114.869 84.4619L114.696 86.5054L113.376 84.0652Z" fill="#78E3FF"/>
<path d="M110.018 70.7119L110.908 74.6576L108.973 76.0054L108.202 73.5326L110.018 70.7119Z" fill="#035D9E"/>
<path d="M108.801 68.0652L110.019 70.7119L108.202 73.5326L105.244 72.1793L108.801 68.0652Z" fill="#0367AE"/>
<path d="M108.865 99.326L110.019 102.891L108.343 105.462L103.691 100.913L108.865 99.326Z" fill="#0364A7"/>
<path d="M108.202 79.125L109.512 82.1467L107.275 88.1304L106.806 82.3859L108.202 79.125Z" fill="#36A2ED"/>
<path d="M108.202 73.5326L108.973 76.0054L106.057 76.7608L105.244 72.1793L108.202 73.5326Z" fill="#0364A7"/>
<path d="M108.008 91.6793L108.865 99.3261L106.72 93.3424L108.008 91.6793Z" fill="#0364A7"/>
<path d="M106.72 93.3424L108.865 99.3261L103.691 100.913L102.554 93.9891L106.72 93.3424Z" fill="#0D79C4"/>
<path d="M108.801 68.0652L105.244 72.1793L104.538 69.4945L108.801 68.0652Z" fill="#035D9E"/>
<path d="M107.34 67.3967L108.801 68.0652L104.538 69.4946L105.292 68.3206L107.34 67.3967Z" fill="#78E3FF"/>
<path d="M108.343 105.462L108.612 112.745L104.942 112.636L104.538 108.076L108.343 105.462Z" fill="#0364A7"/>
<path d="M108.343 105.462L104.538 108.076L103.691 100.913L108.343 105.462Z" fill="#0D79C4"/>
<path d="M108.202 79.125L106.806 82.3858L102.71 78.4728L108.202 79.125Z" fill="#78E3FF"/>
<path d="M101.654 91.1631L104.769 90.1631L108.008 91.6794L106.72 93.3424L102.554 93.9892L100.042 91.6794L101.654 91.1631Z" fill="#8CF8FF"/>
<path d="M105.89 63.4728L107.34 67.3967L105.292 68.3206L102.198 68.9565V64.4891L105.89 63.4728Z" fill="#035D9E"/>
<path d="M106.807 82.3859L107.275 88.1304L104.769 90.163L104.538 83.9837L103.691 81.1467L106.807 82.3859Z" fill="#035D9E"/>
<path d="M106.806 82.3858L103.691 81.1467L103.487 80.4565L102.71 78.4728L106.806 82.3858Z" fill="#0367AE"/>
<path d="M105.243 72.1794L106.057 76.7609L103.486 76.2555L103.233 73.2772L102.198 68.9565L104.537 69.4946L105.243 72.1794Z" fill="#0D79C4"/>
<path d="M104.683 61.7717L105.89 63.4728L102.953 62.5054L104.683 61.7717Z" fill="#0367AE"/>
<path d="M105.89 63.4728L102.198 64.4891L98.8999 63.9021L102.953 62.5054L105.89 63.4728Z" fill="#8CF8FF"/>
<path d="M105.292 68.3207L104.537 69.4946L102.198 68.9565L105.292 68.3207Z" fill="#A8FAFF"/>
<path d="M104.942 112.636L102.867 112.576L104.537 108.076L104.942 112.636Z" fill="#0D79C4"/>
<path d="M104.537 83.9836L104.769 90.163L101.756 88.0108L102.71 87.2554L104.537 83.9836Z" fill="#0367AE"/>
<path d="M104.769 90.163L101.654 91.163L98.8999 90.2826L101.756 88.0109L104.769 90.163Z" fill="#0367AE"/>
<path d="M104.683 61.7717L102.953 62.5054L98.8999 63.9022L97.3154 62.2337L98.4796 61.7717L100.98 61.0109L104.683 61.7717Z" fill="#C0FAFF"/>
<path d="M103.691 100.913L104.538 108.076L102.867 112.576L100.84 100.576L103.691 100.913Z" fill="#36A2ED"/>
<path d="M102.554 93.9891L103.691 100.913L100.84 100.576L100.641 99.3913L99.5683 97.7554L99.1479 95.7337L100.043 91.6793L102.554 93.9891Z" fill="#78E3FF"/>
<path d="M106.057 76.7609L108.973 76.0054L110.908 74.6576L114.869 76.2554L113.565 76.9619L111.673 77.9728L108.202 79.125L101.428 77.0924L103.487 76.2554L106.057 76.7609Z" fill="#78E3FF"/>
<path d="M102.71 78.4728L103.486 80.4565L102.198 81.875L100.016 79.9782L102.71 78.4728Z" fill="#4A9EF0"/>
<path d="M103.486 80.4565L103.691 81.1468L104.537 83.9837L102.71 87.2555L101.756 88.0109L102.198 81.875L103.486 80.4565Z" fill="#0367AE"/>
<path d="M100.84 100.576L102.867 112.576L96.6636 109.277L97.3265 100.913L100.641 99.3912L100.84 100.576Z" fill="#0361A5"/>
<path d="M102.867 112.576L96.6633 115.217L95.1704 111.75L96.6633 109.277L102.867 112.576Z" fill="#035D9E"/>
<path d="M102.198 81.875L98.7759 83.1739L98.4795 80.1087L100.015 79.9783L102.198 81.875Z" fill="#36A2ED"/>
<path d="M101.428 77.0924L96.9707 76.5054L96.1245 76.413L96.6796 74.8206L100.231 74.2609C100.231 74.3478 101.428 77.0924 101.428 77.0924Z" fill="#0D79C4"/>
<path d="M99.7139 68.0652L103.233 73.2717L103.487 76.2554L101.428 77.0924C101.428 77.0924 100.231 74.3424 100.231 74.2608C100.231 74.1848 100.016 70.1521 100.016 70.1521L99.7085 68.0706H99.7139V68.0652Z" fill="#0364A7"/>
<path d="M100.641 99.3913L97.3265 100.913L92.2334 101.75L87.5176 98.8424L90.8591 97.5435L94.6371 96.3533L99.5685 97.7554L100.641 99.3913Z" fill="#99FAFF"/>
<path d="M100.042 91.6793L98.8999 90.2826L101.654 91.163L100.042 91.6793Z" fill="#035D9E"/>
<path d="M99.2232 87.8859L98.7759 83.1739L102.198 81.875L101.756 88.0109L98.8998 90.2826L99.2232 87.8859Z" fill="#0D79C4"/>
<path d="M100.226 74.2609L96.674 74.8207L96.992 73.9076L95.9141 68.9565L100.01 70.1522C100.01 70.1522 100.226 74.1848 100.226 74.2609Z" fill="#78E3FF"/>
<path d="M94.6367 96.3532L98.8998 90.2826L100.042 91.6793L99.1477 95.7337L94.6367 96.3532Z" fill="#0D79C4"/>
<path d="M99.7083 68.0652L100.015 70.1522L95.9141 68.9565L99.2879 65.2283L99.7083 68.0652Z" fill="#99FAFF"/>
<path d="M99.2879 65.2283L99.2233 64.7935L98.8999 63.9022L102.198 64.4892V68.9566L103.233 73.2772L99.7137 68.0653H99.7083L99.2879 65.2283Z" fill="#0D79C4"/>
<path d="M99.2233 64.7934L99.2879 65.2282L94.0386 67.1467L97.3154 62.2336L98.8999 63.9021L99.2233 64.7934Z" fill="#C0FAFF"/>
<path d="M98.7759 83.1739L99.2232 87.8858L96.0542 82.2173L98.4795 80.1086L98.7759 83.1739Z" fill="#36A2ED"/>
<path d="M96.0545 82.2174L99.2235 87.8859L92.8532 90.0326L92.2441 88.5V84.962L96.0545 82.2174Z" fill="#99FAFF"/>
<path d="M99.2234 87.8859L98.9 90.2826L94.6369 96.3533L92.853 90.0326L99.2234 87.8859Z" fill="#4A9EF0"/>
<path d="M99.5681 97.7554L94.6367 96.3532L99.1477 95.7336L99.5681 97.7554Z" fill="#035D9E"/>
<path d="M98.4798 80.1086L96.0546 82.2173L91.2256 78.4728L98.4798 80.1086Z" fill="#99FAFF"/>
<path d="M97.3265 100.913L96.6636 109.277L95.1707 111.75L92.7508 115.766L92.5783 108.038L92.2334 101.75L97.3265 100.913Z" fill="#0367AE"/>
<path d="M95.9143 68.9565L96.9976 73.9076L96.6742 74.8206L90.5625 75.7935L92.2332 68.6576L95.9143 68.9565Z" fill="#8CF8FF"/>
<path d="M96.6742 74.8207L96.1245 76.4131L90.5625 75.7935L96.6742 74.8207Z" fill="#78E3FF"/>
<path d="M95.1704 111.75L96.6633 115.217L92.7505 115.766L95.1704 111.75Z" fill="#0361A5"/>
<path d="M96.0541 82.2174L92.2438 84.9619L86.2075 82.1576L86.5363 78.5543L96.0541 82.2174Z" fill="#A8FAFF"/>
<path d="M92.8528 90.0326L94.6367 96.3532L92.4378 93.9891L92.2168 93.9565L92.8528 90.0326Z" fill="#36A2ED"/>
<path d="M94.0389 67.1468L99.2882 65.2283L95.9144 68.9565L92.2334 68.6576L94.0389 67.1468Z" fill="#C0FAFF"/>
<path d="M92.8529 90.0326L92.217 93.9565L91.8936 95.9946L88.7354 90.2283L92.2439 88.5L92.8529 90.0326Z" fill="#A8FAFF"/>
<path d="M92.5779 108.038L92.7504 115.766L85.8519 112.658L85.8195 109.141L85.7656 104.011L87.5172 98.8424L92.233 101.75L92.5779 108.038Z" fill="#4A9EF0"/>
<path d="M91.8937 95.9946L92.217 93.9565L92.438 93.9892L94.6369 96.3533L90.8589 97.5435L91.8937 95.9946Z" fill="#36A2ED"/>
<path d="M92.2438 84.9619V88.5L88.4819 86.8641L86.2075 82.1576L92.2438 84.9619Z" fill="#78E3FF"/>
<path d="M88.4823 86.8641L92.2442 88.5L88.7356 90.2283L86.402 91.3696H84.9468L81.9664 90.0707L80.3604 88.0109L85.3133 85.4783L88.4823 86.8641Z" fill="#C0FAFF"/>
<path d="M88.7356 90.2283L91.8938 95.9946L90.8591 97.5435L87.5176 98.8424L84.9468 94.875L86.4019 91.3696L88.7356 90.2283Z" fill="#78E3FF"/>
<path d="M96.0545 82.2173L86.5366 78.5543L88.5038 76.8478L91.2255 78.4728L96.0545 82.2173Z" fill="#C0FAFF"/>
<path d="M90.5622 75.7935L96.1242 76.413L96.9703 76.5054L101.427 77.0924L108.202 79.125L102.71 78.4728L100.015 79.9782L98.4794 80.1087L91.2251 78.4728L88.5034 76.8478L90.5622 75.7935Z" fill="#C0FAFF"/>
<path d="M86.2076 82.1576L88.482 86.8641L85.313 85.4782L86.2076 82.1576Z" fill="#4A9EF0"/>
<path d="M84.9468 94.875L87.5176 98.8424L85.766 104.011L84.9468 99.9022V94.875Z" fill="#78E3FF"/>
<path d="M86.4019 91.3695L84.9468 94.8749V91.3695H86.4019Z" fill="#99FAFF"/>
<path d="M85.8196 109.141L85.8519 112.658L80.0205 114.342L77.8755 114.174L78.8995 109.891L81.4002 107.12L85.7657 109.141H85.8196Z" fill="#0364A7"/>
<path d="M83.4108 99.163L83.3784 99.1576L84.9468 91.3695V94.8749V99.9021L83.4108 99.163Z" fill="#36A2ED"/>
<path d="M84.9466 91.3695L83.3782 99.1576L75.5635 97.2934L78.048 90.3695L84.9466 91.3695Z" fill="#8CF8FF"/>
<path d="M81.4004 102.413L83.4107 99.1631L84.9467 99.9022L85.7659 104.011L85.8198 109.141H85.7659L81.4004 107.12V102.413Z" fill="#0D79C4"/>
<path d="M83.4101 99.1629L83.3677 99.2219L83.3783 99.1576L83.4101 99.1629Z" fill="#0D79C4"/>
<path d="M81.966 90.0706L84.9464 91.3695L78.0479 90.3695L79.4276 88.9619L81.966 90.0706Z" fill="#78E3FF"/>
<path d="M80.3601 88.0109L81.9662 90.0706L79.4277 88.962L80.3601 88.0109Z" fill="#78E3FF"/>
<path d="M81.4003 102.413V107.12L78.2421 107.761H78.2367L76.2642 101.457L81.4003 102.413Z" fill="#78E3FF"/>
<path d="M81.4004 107.12L78.8997 109.891L78.2368 107.761H78.2422L81.4004 107.12Z" fill="#78E3FF"/>
<path d="M78.2367 107.761L78.8996 109.891L77.8756 114.174L71.6992 109.636L72.5615 100.484L74.6796 99.326L76.2641 101.456L78.2367 107.761Z" fill="#C0FAFF"/>
<path d="M83.3675 99.2228L83.4106 99.163L81.4003 102.413L76.2641 101.456L74.6796 99.3261L73.8442 98.2174L75.5635 97.2935L83.3783 99.1576L83.3675 99.2228Z" fill="#A8FAFF"/>
<path d="M74.6796 99.3261L72.5615 100.484L73.8442 98.2174L74.6796 99.3261Z" fill="#78E3FF"/>
<path d="M73.4125 81.4238L73.1861 80.864L72.9597 81.4238C72.1082 83.5488 70.6962 85.3912 68.8745 86.7499C68.9015 86.7716 68.923 86.7934 68.95 86.8097C70.7339 88.1629 72.119 89.9836 72.9544 92.076L73.1807 92.6358L73.4071 92.076C74.2424 89.9836 75.6275 88.1684 77.4115 86.8097C77.4384 86.7879 77.46 86.7662 77.4869 86.7499C75.6653 85.3912 74.2532 83.5434 73.4017 81.4238H73.4125Z" fill="#FCFFB8"/>
<path d="M73.181 93.7173C72.7444 93.7173 72.351 93.451 72.1839 93.0434L71.9575 92.4836C71.1976 90.5814 69.9419 88.9238 68.325 87.6901C68.2819 87.663 68.2442 87.6304 68.2065 87.5978C67.9585 87.3858 67.8022 87.0543 67.813 86.7228C67.8238 86.3912 67.9693 86.0706 68.2334 85.8749C69.8934 84.6358 71.1815 82.9564 71.9629 81.0162L72.1893 80.451C72.3564 80.0434 72.7498 79.7771 73.1863 79.7771C73.6229 79.7771 74.0163 80.0434 74.1834 80.451L74.4098 81.0108C74.4259 81.0543 74.4421 81.1032 74.4529 81.1467C75.2397 83.0325 76.5063 84.6684 78.1285 85.8749C78.4195 86.0923 78.5812 86.4401 78.5651 86.7988C78.5489 87.1304 78.3818 87.4347 78.1177 87.6249C78.107 87.6358 78.0908 87.6467 78.0908 87.6467C76.4308 88.9075 75.1697 90.5706 74.4098 92.4728L74.1834 93.038C74.0163 93.4456 73.6229 93.7119 73.1863 93.7119L73.181 93.7173ZM70.5617 86.7499C71.6018 87.7064 72.4857 88.8206 73.181 90.0543C73.8708 88.826 74.7547 87.7064 75.8003 86.7499C74.7601 85.7934 73.8762 84.6793 73.181 83.4456C72.4857 84.6793 71.6018 85.7934 70.5617 86.7499ZM69.5053 85.8804C69.5053 85.8804 69.5161 85.8858 69.5215 85.8912C69.5215 85.8912 69.5107 85.8858 69.5053 85.8804Z" fill="black"/>
<path d="M77.4227 86.8152C77.4227 86.8152 77.4712 86.7717 77.4981 86.7554C75.6765 85.3967 74.2644 83.5489 73.4129 81.4293L73.1865 80.8695V86.8206H77.4227V86.8152Z" fill="#51AAF6"/>
<path d="M73.1919 86.8152V92.6413L73.4183 92.0815C74.2536 89.9891 75.6387 88.1739 77.4226 86.8152H73.1919Z" fill="#0F68B4"/>
<path d="M73.192 80.8641L72.9656 81.4239C72.1141 83.5489 70.702 85.3913 68.8804 86.7499C68.9073 86.7717 68.9289 86.7934 68.9558 86.8097H73.1866V80.8586L73.192 80.8641Z" fill="#9AF3FF"/>
<path d="M68.9614 86.8152C70.7453 88.1684 72.1304 89.9891 72.9658 92.0815L73.1922 92.6413V86.8152H68.9614Z" fill="#51AAF6"/>
<path d="M73.2837 84.5543L73.1921 84.3206L73.1005 84.5543C72.7501 85.4293 72.1681 86.1901 71.4189 86.7499C72.1681 87.3097 72.7501 88.0706 73.1005 88.9456L73.1921 89.1793L73.2837 88.9456C73.634 88.0706 74.2161 87.3097 74.9652 86.7499C74.2161 86.1901 73.634 85.4293 73.2837 84.5543Z" fill="#B5FFFF"/>
<path d="M127.723 68.6032L127.497 68.0435L127.27 68.6032C126.419 70.7282 125.007 72.5706 123.185 73.9293C123.212 73.9511 123.234 73.9728 123.261 73.9891C125.044 75.3424 126.43 77.163 127.265 79.2554L127.491 79.8152L127.718 79.2554C128.553 77.163 129.938 75.3478 131.722 73.9891C131.749 73.9674 131.771 73.9456 131.797 73.9293C129.976 72.5706 128.564 70.7228 127.712 68.6032H127.723Z" fill="#FCFFB8"/>
<path d="M127.491 80.8967C127.054 80.8967 126.661 80.6304 126.494 80.2228L126.268 79.663C125.508 77.7608 124.252 76.1032 122.635 74.8695C122.592 74.8369 122.549 74.8043 122.511 74.7717C122.263 74.5543 122.112 74.2282 122.123 73.9021C122.134 73.5706 122.285 73.2554 122.549 73.0597C124.209 71.8206 125.497 70.1413 126.278 68.201L126.505 67.6358C126.672 67.2282 127.065 66.9619 127.502 66.9619C127.938 66.9619 128.332 67.2282 128.499 67.6358L128.725 68.1956C128.741 68.2391 128.758 68.2826 128.768 68.3315C129.555 70.2174 130.822 71.8532 132.444 73.0597C132.735 73.2771 132.897 73.625 132.881 73.9837C132.864 74.3152 132.697 74.6195 132.433 74.8097C132.422 74.8206 132.412 74.8315 132.406 74.8315C130.746 76.0978 129.485 77.7554 128.725 79.6576L128.499 80.2228C128.332 80.6304 127.938 80.8967 127.502 80.8967H127.491ZM124.872 73.9293C125.912 74.8858 126.796 76 127.491 77.2337C128.186 76.0054 129.065 74.8858 130.11 73.9293C129.07 72.9728 128.186 71.8587 127.491 70.625C126.796 71.8587 125.912 72.9728 124.872 73.9293ZM123.815 73.0597C123.815 73.0597 123.826 73.0652 123.837 73.0706C123.832 73.0706 123.826 73.0597 123.815 73.0597Z" fill="black"/>
<path d="M131.727 73.9891C131.727 73.9891 131.776 73.9456 131.803 73.9293C129.981 72.5706 128.569 70.7228 127.718 68.6032L127.491 68.0435V73.9945H131.727V73.9891Z" fill="#51AAF6"/>
<path d="M127.497 73.9891V79.8152L127.723 79.2554C128.558 77.1631 129.943 75.3478 131.727 73.9891H127.497Z" fill="#0F68B4"/>
<path d="M127.497 68.038L127.27 68.5978C126.419 70.7228 125.007 72.5652 123.185 73.9239C123.212 73.9456 123.234 73.9674 123.261 73.9837H127.491V68.0326L127.497 68.038Z" fill="#9AF3FF"/>
<path d="M123.266 73.9891C125.05 75.3424 126.435 77.1631 127.271 79.2554L127.497 79.8152V73.9891H123.266Z" fill="#51AAF6"/>
<path d="M127.588 71.7282L127.497 71.4945L127.405 71.7282C127.055 72.6032 126.473 73.3641 125.724 73.9239C126.473 74.4836 127.055 75.2445 127.405 76.1195L127.497 76.3532L127.588 76.1195C127.939 75.2445 128.521 74.4836 129.27 73.9239C128.521 73.3641 127.939 72.6032 127.588 71.7282Z" fill="#B5FFFF"/>
<path d="M117.127 105.527L116.901 104.967L116.675 105.527C115.823 107.652 114.411 109.495 112.589 110.853C112.616 110.875 112.638 110.897 112.665 110.913C114.449 112.266 115.834 114.087 116.669 116.179L116.896 116.739L117.122 116.179C117.957 114.087 119.342 112.272 121.126 110.913C121.153 110.891 121.175 110.87 121.202 110.853C119.38 109.495 117.968 107.647 117.117 105.527H117.127Z" fill="#FCFFB8"/>
<path d="M116.895 117.821C116.459 117.821 116.065 117.554 115.898 117.147L115.672 116.587C114.912 114.685 113.662 113.033 112.045 111.799C112.002 111.766 111.959 111.734 111.915 111.696C111.668 111.484 111.517 111.152 111.527 110.826C111.538 110.5 111.689 110.179 111.953 109.984C113.613 108.745 114.901 107.065 115.683 105.125L115.909 104.56C116.076 104.152 116.47 103.886 116.906 103.886C117.343 103.886 117.736 104.152 117.903 104.56L118.13 105.12C118.146 105.163 118.162 105.207 118.173 105.255C118.96 107.141 120.226 108.777 121.848 109.984C122.139 110.201 122.301 110.549 122.285 110.913C122.269 111.245 122.102 111.549 121.832 111.739C121.821 111.75 121.805 111.761 121.8 111.766C120.151 113.022 118.884 114.685 118.13 116.587L117.903 117.152C117.736 117.56 117.343 117.826 116.906 117.826L116.895 117.821ZM114.276 110.853C115.316 111.81 116.2 112.924 116.895 114.158C117.591 112.929 118.469 111.81 119.515 110.853C118.474 109.897 117.591 108.783 116.895 107.549C116.2 108.783 115.316 109.897 114.276 110.853ZM113.198 109.973C113.198 109.973 113.214 109.984 113.225 109.989C113.214 109.989 113.209 109.978 113.198 109.973Z" fill="black"/>
<path d="M121.132 110.918C121.132 110.918 121.18 110.875 121.207 110.859C119.385 109.5 117.973 107.652 117.122 105.533L116.896 104.973V110.924H121.132V110.918Z" fill="#51AAF6"/>
<path d="M116.901 110.918V116.745L117.127 116.185C117.963 114.092 119.348 112.277 121.132 110.918H116.901Z" fill="#0F68B4"/>
<path d="M116.901 104.967L116.675 105.527C115.823 107.652 114.411 109.495 112.589 110.853C112.616 110.875 112.638 110.897 112.665 110.913H116.896V104.962L116.901 104.967Z" fill="#9AF3FF"/>
<path d="M112.676 110.918C114.46 112.272 115.845 114.092 116.68 116.185L116.907 116.745V110.918H112.676Z" fill="#51AAF6"/>
<path d="M116.998 108.658L116.906 108.424L116.815 108.658C116.465 109.533 115.882 110.293 115.133 110.853C115.882 111.413 116.465 112.174 116.815 113.049L116.906 113.283L116.998 113.049C117.348 112.174 117.93 111.413 118.68 110.853C117.93 110.293 117.348 109.533 116.998 108.658Z" fill="#B5FFFF"/>
<path d="M95.8334 129.359C95.6232 129.359 95.4561 129.19 95.4561 128.978V126.266C95.4561 126.223 95.4615 126.185 95.4777 126.147C95.3645 126.082 95.2891 125.957 95.2891 125.815V122.489C95.2891 122.277 95.4561 122.109 95.6663 122.109H97.267C97.4772 122.109 97.6443 122.277 97.6443 122.489V124.266H99.3042C99.4821 124.266 99.633 124.391 99.6707 124.56V122.397C99.6707 122.185 99.8378 122.016 100.048 122.016H101.659C101.87 122.016 102.037 122.185 102.037 122.397V123.169H102.301C102.511 123.169 102.678 123.337 102.678 123.549V124.859C102.678 125.071 102.511 125.239 102.301 125.239H102.037V125.951C102.037 126 102.026 126.049 102.01 126.092C102.037 126.147 102.053 126.207 102.053 126.272V128.984C102.053 129.196 101.886 129.364 101.676 129.364H95.8334V129.359Z" fill="white"/>
<path d="M101.654 122.397V123.549H102.295V124.859H101.654V125.951H100.042V122.402H101.654M97.2615 122.495V124.652H99.2987V125.821H95.6608V122.495H97.2615ZM101.67 126.272V128.984H95.8279V126.272H101.67ZM97.4393 127.815H100.059V127.446H97.4393V127.815ZM101.654 121.641H100.042C99.6274 121.641 99.2879 121.984 99.2879 122.402V123.891H98.016V122.495C98.016 122.076 97.6765 121.734 97.2615 121.734H95.6608C95.2458 121.734 94.9062 122.076 94.9062 122.495V125.821C94.9062 126.005 94.9709 126.174 95.0787 126.304V128.984C95.0787 129.402 95.4183 129.745 95.8332 129.745H101.675C102.09 129.745 102.43 129.402 102.43 128.984V126.272C102.43 126.201 102.419 126.136 102.403 126.071C102.408 126.033 102.414 125.989 102.414 125.951V125.614C102.775 125.56 103.055 125.245 103.055 124.864V123.554C103.055 123.174 102.775 122.859 102.414 122.804V122.408C102.414 121.989 102.074 121.647 101.659 121.647L101.654 121.641Z" fill="black"/>
<path d="M102.985 129.359C102.775 129.359 102.607 129.19 102.607 128.978V126.511C102.607 126.44 102.629 126.375 102.661 126.315C102.645 126.288 102.629 126.255 102.618 126.217L102.273 124.919C102.241 124.804 102.268 124.685 102.338 124.587C102.408 124.495 102.521 124.44 102.634 124.44C102.882 124.44 103.071 124.353 103.243 124.174C103.416 123.989 103.502 123.69 103.502 123.288V122.397C103.502 122.185 103.669 122.016 103.879 122.016H105.48C105.69 122.016 105.857 122.185 105.857 122.397V123.288C105.857 123.696 105.944 123.989 106.116 124.174C106.283 124.353 106.477 124.44 106.725 124.44C106.757 124.44 106.79 124.44 106.817 124.451V122.397C106.817 122.185 106.984 122.016 107.194 122.016H108.805C109.016 122.016 109.183 122.185 109.183 122.397V123.446H109.447C109.657 123.446 109.824 123.614 109.824 123.826V125.125C109.824 125.337 109.657 125.505 109.447 125.505H109.183V126.685C109.183 126.897 109.016 127.065 108.805 127.065H107.194C106.984 127.065 106.817 126.897 106.817 126.685V125.951L106.747 126.223C106.704 126.391 106.553 126.505 106.38 126.505C106.008 126.505 105.653 126.435 105.313 126.288C105.087 126.19 104.871 126.065 104.682 125.913C104.58 125.995 104.472 126.065 104.359 126.13H104.591C104.801 126.13 104.968 126.299 104.968 126.511V127.299H108.805C109.016 127.299 109.183 127.467 109.183 127.679V128.978C109.183 129.19 109.016 129.359 108.805 129.359H102.985Z" fill="white"/>
<path d="M108.806 122.397V123.826H109.447V125.125H108.806V126.685H107.194V122.397H108.806ZM105.48 122.397V123.288C105.48 123.799 105.599 124.179 105.841 124.435C106.079 124.69 106.375 124.821 106.725 124.821L106.386 126.12C106.068 126.12 105.761 126.06 105.464 125.935C105.168 125.81 104.909 125.636 104.688 125.402C104.462 125.636 104.198 125.81 103.907 125.935C103.61 126.06 103.303 126.12 102.985 126.12L102.64 124.821C102.99 124.821 103.281 124.69 103.524 124.435C103.761 124.179 103.885 123.793 103.885 123.288V122.397H105.486M104.596 126.511V127.679H108.811V128.978H102.99V126.511H104.602M108.816 121.636H107.205C106.79 121.636 106.45 121.978 106.45 122.397V123.962C106.45 123.962 106.418 123.935 106.402 123.913C106.299 123.804 106.246 123.582 106.246 123.288V122.397C106.246 121.978 105.906 121.636 105.491 121.636H103.89C103.475 121.636 103.136 121.978 103.136 122.397V123.288C103.136 123.587 103.082 123.81 102.98 123.913C102.883 124.016 102.786 124.06 102.645 124.06C102.414 124.06 102.193 124.168 102.047 124.359C101.902 124.549 101.859 124.788 101.918 125.016L102.263 126.315C102.247 126.375 102.236 126.44 102.236 126.511V128.978C102.236 129.397 102.575 129.739 102.99 129.739H108.811C109.226 129.739 109.566 129.397 109.566 128.978V127.679C109.566 127.489 109.495 127.315 109.382 127.179C109.495 127.043 109.566 126.87 109.566 126.679V125.875C109.927 125.821 110.207 125.505 110.207 125.125V123.826C110.207 123.446 109.927 123.13 109.566 123.076V122.402C109.566 121.984 109.226 121.641 108.811 121.641H108.816V121.636ZM105.356 126.913V126.701C105.69 126.821 106.035 126.875 106.391 126.875H106.472C106.472 126.875 106.477 126.902 106.483 126.918H105.356V126.913Z" fill="black"/>
<path d="M94.5076 136.533C94.195 136.533 93.9363 136.505 93.7045 136.446C93.4459 136.38 93.2249 136.261 93.0524 136.098C92.88 135.935 92.756 135.717 92.6752 135.451C92.6051 135.217 92.5728 134.935 92.5728 134.587V133.223C92.5728 132.908 92.6051 132.636 92.6644 132.408C92.7344 132.147 92.853 131.929 93.0201 131.755C93.1872 131.587 93.4027 131.462 93.6614 131.386C93.8986 131.315 94.1734 131.283 94.5076 131.283C94.7178 131.283 94.8848 131.451 94.8848 131.663V132.56C94.8848 132.663 94.8471 132.755 94.7717 132.832C94.7016 132.902 94.6046 132.946 94.5022 132.946C94.4699 132.946 94.4483 132.946 94.4375 132.946V134.799C94.4375 134.837 94.4375 134.859 94.4429 134.87H94.5022C94.7124 134.87 94.8795 135.038 94.8795 135.25V136.147C94.8795 136.359 94.7124 136.527 94.5022 136.527L94.5076 136.533Z" fill="white"/>
<path d="M94.5074 131.668V132.565C94.211 132.565 94.0654 132.717 94.0654 133.027V134.804C94.0654 135.109 94.211 135.261 94.5074 135.261V136.158C94.2325 136.158 93.9954 136.136 93.796 136.082C93.5966 136.027 93.4403 135.946 93.3163 135.826C93.1924 135.707 93.1007 135.549 93.0414 135.348C92.9822 135.147 92.9498 134.897 92.9498 134.592V133.228C92.9498 132.946 92.9768 132.707 93.0253 132.505C93.0738 132.31 93.16 132.147 93.284 132.022C93.4025 131.897 93.5642 131.81 93.7636 131.75C93.963 131.69 94.211 131.663 94.5074 131.663M94.5074 130.902C94.1355 130.902 93.8283 130.94 93.5588 131.016C93.2355 131.109 92.9606 131.266 92.7504 131.484C92.5348 131.701 92.3839 131.978 92.3031 132.304C92.233 132.571 92.2007 132.864 92.2007 133.217V134.582C92.2007 134.962 92.2384 135.283 92.3193 135.554C92.4163 135.88 92.5779 136.152 92.7935 136.364C93.0145 136.576 93.2894 136.723 93.6127 136.804C93.8714 136.87 94.1625 136.902 94.5074 136.902C94.9224 136.902 95.2619 136.56 95.2619 136.141V135.245C95.2619 134.935 95.0787 134.668 94.82 134.549V133.245C95.0787 133.125 95.2619 132.859 95.2619 132.554V131.658C95.2619 131.239 94.9224 130.897 94.5074 130.897V130.902Z" fill="black"/>
<path d="M95.3376 136.533C95.1274 136.533 94.9604 136.364 94.9604 136.152V134.277C94.8903 134.206 94.8418 134.109 94.8418 134V133.168C94.8418 133 94.9496 132.859 95.1005 132.804C95.0143 132.734 94.9604 132.625 94.9604 132.505V131.668C94.9604 131.456 95.1274 131.288 95.3376 131.288H99.3582C99.4606 131.288 99.563 131.331 99.6331 131.408C99.7031 131.484 99.7408 131.587 99.7355 131.69L99.6816 132.848C99.784 132.913 99.854 133.033 99.854 133.168V134C99.854 134.109 99.8109 134.206 99.7355 134.277V136.152C99.7355 136.364 99.5684 136.533 99.3582 136.533H95.3376Z" fill="white"/>
<path d="M99.358 131.674L99.2987 132.913H98.2532V132.511H95.3375V131.674H99.358ZM99.4766 133.168V134H95.2189V133.168H99.4766ZM99.358 134.283V136.152H95.3375V134.283H99.358ZM96.4477 135.348H98.2424V135.092H96.4477V135.348ZM99.358 130.918H95.3375C94.9225 130.918 94.5829 131.261 94.5829 131.679V132.516C94.5829 132.587 94.5937 132.658 94.6099 132.723C94.5183 132.848 94.4644 133.005 94.4644 133.174V134.005C94.4644 134.158 94.5075 134.293 94.5829 134.413V136.158C94.5829 136.576 94.9225 136.918 95.3375 136.918H99.358C99.773 136.918 100.113 136.576 100.113 136.158V134.413C100.188 134.293 100.231 134.152 100.231 134.005V133.174C100.231 132.995 100.166 132.826 100.064 132.696L100.107 131.761V131.679C100.107 131.261 99.773 130.918 99.3526 130.918H99.358Z" fill="black"/>
<path d="M100.183 136.353C99.9727 136.353 99.8057 136.185 99.8057 135.973V135.076C99.8057 134.864 99.9727 134.696 100.183 134.696H101.374V134.663C101.126 134.641 100.9 134.571 100.7 134.462C100.436 134.315 100.226 134.109 100.081 133.848C99.9404 133.592 99.8649 133.299 99.8649 132.967C99.8649 132.636 99.935 132.348 100.081 132.092C100.226 131.832 100.436 131.625 100.7 131.478C100.959 131.337 101.25 131.266 101.579 131.266H103.056C103.379 131.266 103.675 131.337 103.934 131.478C104.198 131.62 104.403 131.826 104.548 132.087C104.689 132.342 104.764 132.636 104.764 132.962C104.764 133.288 104.694 133.587 104.548 133.842C104.403 134.103 104.198 134.31 103.934 134.457C103.729 134.565 103.503 134.636 103.255 134.658V134.69H104.446C104.656 134.69 104.823 134.859 104.823 135.071V135.967C104.823 136.179 104.656 136.348 104.446 136.348H100.183V136.353ZM101.773 132.946H101.73V133.016H102.845L102.888 132.978L102.845 132.94H101.773V132.946Z" fill="white"/>
<path d="M103.05 131.658C103.314 131.658 103.546 131.712 103.745 131.821C103.945 131.929 104.101 132.087 104.214 132.283C104.327 132.484 104.381 132.712 104.381 132.973C104.381 133.234 104.327 133.467 104.214 133.668C104.101 133.87 103.95 134.022 103.745 134.13C103.546 134.239 103.314 134.293 103.05 134.293H101.573C101.309 134.293 101.077 134.239 100.878 134.13C100.679 134.022 100.522 133.864 100.409 133.668C100.296 133.467 100.242 133.239 100.242 132.973C100.242 132.707 100.296 132.484 100.409 132.283C100.517 132.082 100.673 131.929 100.878 131.821C101.083 131.712 101.309 131.658 101.573 131.658H103.05ZM101.773 133.397H102.851C102.975 133.397 103.077 133.359 103.152 133.283C103.228 133.207 103.266 133.103 103.266 132.978C103.266 132.853 103.228 132.75 103.152 132.674C103.077 132.598 102.975 132.56 102.851 132.56H101.773C101.649 132.56 101.546 132.598 101.465 132.674C101.385 132.75 101.352 132.853 101.352 132.978C101.352 133.103 101.39 133.207 101.465 133.283C101.541 133.359 101.643 133.397 101.773 133.397ZM102.872 134.478V135.076H104.44V135.973H100.183V135.076H101.751V134.478H102.872ZM103.05 130.897H101.573C101.185 130.897 100.829 130.984 100.517 131.152C100.188 131.332 99.9294 131.587 99.7516 131.913C99.5791 132.228 99.4875 132.582 99.4875 132.973C99.4875 133.364 99.5737 133.728 99.7516 134.038C99.8109 134.152 99.8863 134.255 99.9618 134.348C99.6546 134.44 99.4282 134.734 99.4282 135.076V135.973C99.4282 136.391 99.7678 136.734 100.183 136.734H104.44C104.855 136.734 105.195 136.391 105.195 135.973V135.076C105.195 134.734 104.969 134.44 104.661 134.348C104.742 134.25 104.812 134.147 104.877 134.038C105.049 133.728 105.141 133.37 105.141 132.973C105.141 132.576 105.055 132.228 104.877 131.913C104.694 131.587 104.435 131.332 104.112 131.152C103.799 130.984 103.443 130.897 103.055 130.897H103.05Z" fill="black"/>
<path d="M105.265 136.533C105.054 136.533 104.887 136.364 104.887 136.152V134.451C104.887 134.402 104.898 134.359 104.909 134.315C104.909 134.304 104.898 134.293 104.898 134.277L104.661 133.38C104.629 133.266 104.656 133.147 104.726 133.049C104.796 132.957 104.909 132.902 105.022 132.902C105.157 132.902 105.265 132.859 105.356 132.755C105.453 132.652 105.502 132.473 105.502 132.223V131.609C105.502 131.397 105.669 131.228 105.879 131.228H106.984C107.194 131.228 107.361 131.397 107.361 131.609V132.223C107.361 132.473 107.41 132.652 107.507 132.755C107.588 132.842 107.679 132.891 107.787 132.902V131.609C107.787 131.397 107.954 131.228 108.164 131.228H109.274C109.485 131.228 109.652 131.397 109.652 131.609V132.212H109.716C109.927 132.212 110.094 132.38 110.094 132.592V133.489C110.094 133.701 109.927 133.87 109.716 133.87H109.652V134.565C109.652 134.717 109.565 134.848 109.436 134.908C109.565 134.967 109.652 135.098 109.652 135.25V136.147C109.652 136.359 109.485 136.527 109.274 136.527H105.265V136.533ZM107.949 134.88C107.857 134.81 107.792 134.701 107.792 134.576V134.522C107.738 134.554 107.674 134.571 107.609 134.571C107.34 134.571 107.076 134.516 106.828 134.413C106.801 134.402 106.768 134.386 106.741 134.375C106.747 134.402 106.752 134.429 106.752 134.462V134.891H107.949V134.88Z" fill="white"/>
<path d="M109.285 131.609V132.592H109.727V133.489H109.285V134.565H108.175V131.603H109.285M106.995 131.603V132.217C106.995 132.571 107.076 132.831 107.243 133.011C107.41 133.19 107.609 133.277 107.852 133.277L107.615 134.174C107.394 134.174 107.184 134.13 106.979 134.043C106.774 133.956 106.596 133.837 106.445 133.674C106.289 133.831 106.106 133.956 105.906 134.043C105.701 134.13 105.491 134.174 105.27 134.174L105.033 133.277C105.276 133.277 105.475 133.19 105.642 133.011C105.809 132.831 105.89 132.571 105.89 132.217V131.603H106.995ZM106.38 134.44V135.25H109.291V136.147H105.27V134.446H106.38M109.291 130.848H108.181C107.943 130.848 107.728 130.962 107.588 131.136C107.448 130.962 107.237 130.848 106.995 130.848H105.89C105.475 130.848 105.136 131.19 105.136 131.609V132.223C105.136 132.429 105.092 132.495 105.092 132.495C105.071 132.522 105.065 132.522 105.033 132.522C104.801 132.522 104.58 132.63 104.435 132.821C104.289 133.011 104.246 133.25 104.306 133.478L104.526 134.321C104.521 134.364 104.516 134.408 104.516 134.451V136.152C104.516 136.571 104.855 136.913 105.27 136.913H109.291C109.706 136.913 110.045 136.571 110.045 136.152V135.255C110.045 135.13 110.018 135.016 109.964 134.913C110.018 134.81 110.045 134.696 110.045 134.571V134.19C110.309 134.071 110.487 133.804 110.487 133.495V132.598C110.487 132.288 110.304 132.022 110.045 131.902V131.609C110.045 131.19 109.706 130.848 109.291 130.848Z" fill="black"/>
<path d="M110.083 136.533C109.873 136.533 109.706 136.364 109.706 136.152V135.255C109.706 135.044 109.873 134.875 110.083 134.875C110.116 134.875 110.137 134.875 110.148 134.875V133.033C110.148 132.989 110.148 132.967 110.143 132.957H110.083C109.873 132.957 109.706 132.788 109.706 132.576V131.679C109.706 131.467 109.873 131.299 110.083 131.299C110.385 131.299 110.655 131.326 110.886 131.386C111.15 131.451 111.366 131.571 111.538 131.734C111.711 131.897 111.835 132.114 111.916 132.38C111.986 132.62 112.018 132.897 112.018 133.245V134.609C112.018 134.924 111.991 135.19 111.927 135.424C111.862 135.685 111.743 135.908 111.576 136.076C111.409 136.245 111.194 136.37 110.935 136.446C110.698 136.511 110.423 136.549 110.089 136.549V136.538L110.083 136.533Z" fill="white"/>
<path d="M110.083 131.668C110.358 131.668 110.595 131.696 110.795 131.745C110.994 131.793 111.15 131.88 111.274 132C111.398 132.12 111.49 132.277 111.549 132.478C111.608 132.679 111.635 132.929 111.635 133.234V134.598C111.635 134.875 111.608 135.114 111.56 135.315C111.511 135.516 111.425 135.674 111.301 135.799C111.183 135.924 111.021 136.011 110.822 136.071C110.622 136.13 110.374 136.158 110.078 136.158V135.261C110.374 135.261 110.52 135.109 110.52 134.804V133.027C110.52 132.723 110.374 132.565 110.078 132.565V131.668M110.078 130.908C109.663 130.908 109.323 131.25 109.323 131.668V132.565C109.323 132.875 109.506 133.141 109.765 133.261V134.565C109.506 134.685 109.323 134.951 109.323 135.255V136.152C109.323 136.571 109.663 136.913 110.078 136.913C110.45 136.913 110.757 136.875 111.026 136.799C111.35 136.707 111.625 136.543 111.835 136.326C112.045 136.109 112.201 135.832 112.282 135.5C112.352 135.239 112.384 134.94 112.384 134.592V133.228C112.384 132.848 112.347 132.533 112.266 132.255C112.169 131.929 112.007 131.658 111.792 131.446C111.571 131.234 111.296 131.087 110.972 131.005C110.714 130.94 110.412 130.908 110.078 130.908Z" fill="black"/>
</g>
<defs>
<clipPath id="clip0_1076_14596">
<rect width="119" height="146" fill="white" transform="translate(43 31)"/>
</clipPath>
</defs>
</svg>
