<svg width="210" height="210" viewBox="0 0 210 210" fill="none" xmlns="http://www.w3.org/2000/svg">
<rect x="5.5" y="5.50049" width="203" height="203" rx="28.5" fill="black" stroke="black" stroke-width="3"/>
<rect x="1" y="1.00049" width="204" height="204" rx="29" fill="#1D1D1D" stroke="black" stroke-width="2"/>
<g clip-path="url(#clip0_1076_15318)">
<path d="M160.991 64.2388C159.876 62.3181 158.276 60.7148 156.353 59.6095L109.006 32.3151C105.159 30.1044 100.185 30.1044 96.3434 32.3151L48.9909 59.615C47.1333 60.6875 45.5615 62.2306 44.4568 64.0746L44.3524 64.2498C43.2422 66.1704 42.6597 68.3592 42.6597 70.5699V125.164C42.6597 127.38 43.2477 129.569 44.3579 131.495C45.4736 133.416 47.0784 135.019 48.9964 136.125L58.8725 141.821L50.4253 155.95C49.2987 157.837 49.3372 160.158 50.5243 162.013C51.7169 163.862 53.8108 164.864 56.0037 164.623L65.9017 163.539L69.6444 172.754C70.4743 174.79 72.3484 176.163 74.5468 176.327C74.6951 176.338 74.849 176.344 74.9974 176.344C77.0419 176.344 78.8885 175.293 79.9382 173.537L88.6382 158.976L96.3379 163.413C98.2615 164.524 100.449 165.11 102.675 165.11C104.9 165.11 107.088 164.524 109.011 163.413L116.711 158.976L125.411 173.537C126.538 175.425 128.604 176.492 130.803 176.327C133.001 176.158 134.875 174.79 135.705 172.754L139.448 163.539L149.346 164.623C151.533 164.864 153.632 163.862 154.825 162.013C156.012 160.163 156.051 157.837 154.924 155.95L146.477 141.821L156.353 136.125C158.271 135.019 159.876 133.416 160.991 131.495C162.102 129.575 162.69 127.386 162.69 125.17V70.5699C162.69 68.3538 162.102 66.1704 160.991 64.2388Z" fill="#EEEEEF"/>
<path d="M74.9972 177.001C74.8324 177.001 74.662 176.995 74.4971 176.984C72.0515 176.804 69.963 175.277 69.0342 173.001L65.4784 164.245L56.0749 165.274C53.6403 165.548 51.299 164.426 49.969 162.369C48.6445 160.3 48.606 157.717 49.8591 155.616L57.9655 142.056L48.6665 136.694C46.6495 135.534 44.9623 133.848 43.7862 131.824C42.6155 129.794 42 127.49 42 125.164V70.5702C42 68.2391 42.6155 65.9408 43.7807 63.9217L43.8906 63.7411C45.0502 61.804 46.699 60.1788 48.661 59.0461L96.0135 31.7463C100.058 29.4207 105.285 29.4207 109.335 31.7463L156.682 59.0406C158.694 60.1952 160.381 61.8806 161.563 63.9107C162.728 65.9463 163.349 68.25 163.349 70.5702V125.17C163.349 127.501 162.733 129.799 161.563 131.824C160.387 133.848 158.699 135.534 156.682 136.694L147.383 142.056L155.49 155.616C156.743 157.717 156.704 160.306 155.38 162.369C154.05 164.431 151.709 165.548 149.274 165.28L139.871 164.251L136.315 173.006C135.391 175.272 133.298 176.798 130.852 176.99C128.39 177.17 126.098 175.983 124.845 173.882L116.48 159.879L109.346 163.994C107.324 165.159 105.021 165.778 102.68 165.778C100.339 165.778 98.036 165.159 96.0135 163.994L88.8798 159.879L80.5151 173.882C79.3445 175.841 77.2835 177.012 75.0082 177.012L74.9972 177.001ZM66.3248 162.834L70.2543 172.508C70.9908 174.314 72.656 175.529 74.5961 175.671C76.5416 175.813 78.3717 174.872 79.372 173.198L88.4072 158.078L96.673 162.845C98.4921 163.895 100.57 164.453 102.68 164.453C104.79 164.453 106.868 163.895 108.687 162.845L116.953 158.078L125.988 173.198C126.983 174.867 128.807 175.808 130.764 175.671C132.704 175.523 134.369 174.308 135.106 172.503L139.035 162.828L149.428 163.966C151.368 164.18 153.226 163.293 154.281 161.652C155.336 160.01 155.369 157.953 154.369 156.278L145.581 141.58L156.034 135.55C157.853 134.5 159.375 132.984 160.431 131.162C161.486 129.34 162.041 127.266 162.041 125.164V70.5702C162.041 68.4744 161.486 66.4005 160.431 64.5674C159.37 62.7397 157.848 61.2185 156.034 60.1788L108.676 32.8845C105.027 30.7887 100.317 30.7887 96.673 32.8845L49.3205 60.1843C47.5563 61.2021 46.0669 62.6686 45.0227 64.4142L44.9183 64.5893C43.8741 66.4005 43.319 68.4689 43.319 70.5756V125.17C43.319 127.271 43.8741 129.345 44.9293 131.173C45.99 132.995 47.5069 134.511 49.326 135.561L59.7792 141.591L50.9913 156.289C49.9965 157.958 50.0295 160.021 51.0792 161.663C52.1344 163.299 53.992 164.185 55.9321 163.972L66.3248 162.834Z" fill="black"/>
<path d="M104.318 124.13L96.4317 119.429L70.4307 162.932L73.7447 171.091C74.1624 172.114 75.5693 172.223 76.1409 171.271L104.324 124.124H104.318V124.13Z" fill="#33FFDD"/>
<path d="M74.9921 172.47C74.9426 172.47 74.8931 172.47 74.8437 172.47C74.1237 172.415 73.5082 171.966 73.2334 171.299L69.8149 162.888L96.2391 118.68L104.23 123.44L107.044 120.639L76.6133 171.55C76.2671 172.13 75.6516 172.47 74.9921 172.47ZM71.046 162.976L74.2556 170.883C74.371 171.167 74.6238 171.348 74.9261 171.375C75.2339 171.408 75.5087 171.255 75.6681 170.992L103.565 124.321L96.6183 120.184L71.0405 162.981L71.046 162.976Z" fill="black"/>
<path d="M82.4058 111.068L54.2229 158.215C53.6568 159.162 54.4208 160.354 55.5199 160.234L64.2859 159.276L90.2869 115.774L82.4003 111.074L82.4058 111.068Z" fill="#33FFDD"/>
<path d="M55.3717 160.787C54.7342 160.787 54.1406 160.469 53.7889 159.922C53.3987 159.315 53.3822 158.554 53.7504 157.93L81.6475 111.26L81.4936 111.167L84.9175 107.922L83.1534 110.877L91.0399 115.577L64.6158 159.785L55.575 160.77C55.5036 160.776 55.4322 160.781 55.3662 160.781L55.3717 160.787ZM82.5928 111.823L54.6957 158.494C54.5363 158.757 54.5418 159.069 54.7122 159.331C54.8771 159.588 55.1574 159.72 55.4596 159.687L63.9563 158.757L89.5341 115.96L82.5928 111.823Z" fill="black"/>
<path d="M93.3593 117.602L90.2926 115.769L64.2861 159.276L68.7433 158.784L70.425 162.932L96.4315 119.429L93.3593 117.602Z" fill="white"/>
<path d="M70.3096 164.404L68.3146 159.49L63.0386 160.07L90.0618 114.86L97.3329 119.194L70.3096 164.398V164.404ZM69.1665 158.073L70.535 161.454L95.5247 119.654L90.518 116.666L65.5282 158.472L69.1665 158.073Z" fill="black"/>
<path d="M79.438 147.922C79.438 147.922 85.2966 152.36 83.3346 159.233L87.1927 152.754L79.438 147.922Z" fill="black"/>
<path d="M81.3123 163.917L82.7027 159.052C84.5164 152.705 79.2623 148.612 79.0425 148.442L79.7899 147.364L88.0887 152.535L81.3123 163.917ZM82.7137 150.735C83.5821 152.163 84.3295 154.007 84.39 156.174L86.297 152.967L82.7137 150.735Z" fill="black"/>
<path d="M101.031 124.13L108.918 119.429L134.919 162.932L131.605 171.091C131.187 172.114 129.78 172.223 129.209 171.271L101.026 124.124H101.031V124.13Z" fill="#33FFDD"/>
<path d="M130.357 172.47C129.692 172.47 129.082 172.125 128.736 171.55L98.2998 120.639L101.114 123.44L109.105 118.68L135.529 162.888L132.11 171.299C131.836 171.966 131.22 172.415 130.506 172.47C130.456 172.47 130.407 172.47 130.357 172.47ZM101.779 124.316L129.676 170.987C129.835 171.249 130.115 171.402 130.418 171.37C130.725 171.348 130.973 171.162 131.088 170.877L134.298 162.97L108.72 120.174L101.773 124.31L101.779 124.316Z" fill="black"/>
<path d="M122.943 111.068L151.126 158.215C151.692 159.162 150.928 160.355 149.829 160.234L141.063 159.277L115.062 115.774L122.949 111.074H122.943V111.068Z" fill="#33FFDD"/>
<path d="M149.977 160.787C149.906 160.787 149.84 160.787 149.768 160.776L140.728 159.791L140.59 159.556L114.309 115.583L122.196 110.882L120.223 107.583L123.839 111.183L123.702 111.265L151.599 157.936C151.967 158.554 151.956 159.315 151.56 159.928C151.208 160.475 150.615 160.792 149.977 160.792V160.787ZM141.393 158.762L149.889 159.692C150.192 159.725 150.472 159.594 150.637 159.337C150.807 159.074 150.813 158.762 150.653 158.5L122.756 111.829L115.815 115.966L141.393 158.762Z" fill="black"/>
<path d="M111.99 117.602L115.057 115.769L141.063 159.276L136.606 158.784L134.924 162.932L108.918 119.429L111.99 117.602Z" fill="white"/>
<path d="M135.04 164.404L108.017 119.2L115.288 114.866L142.311 160.075L137.035 159.49L135.04 164.404ZM109.825 119.654L134.815 161.454L136.188 158.073L139.827 158.472L114.837 116.666L109.83 119.654H109.825Z" fill="black"/>
<path d="M125.911 147.922C125.911 147.922 120.053 152.36 122.015 159.233L118.157 152.754L125.911 147.922Z" fill="black"/>
<path d="M124.037 163.917L117.261 152.535L125.56 147.364L126.312 148.442C126.087 148.612 120.839 152.705 122.652 159.052L124.043 163.917H124.037ZM119.052 152.973L120.959 156.179C121.02 154.013 121.767 152.168 122.636 150.74L119.052 152.973Z" fill="black"/>
<path d="M49.6338 72.0747V124.836C49.6338 126.231 50.002 127.605 50.7 128.814C51.4035 130.023 52.4092 131.03 53.6183 131.731L99.3715 158.111C100.581 158.806 101.96 159.178 103.356 159.178C104.752 159.178 106.131 158.812 107.341 158.111L153.094 131.731C154.303 131.036 155.309 130.023 156.012 128.819C156.71 127.61 157.078 126.237 157.078 124.841V72.0747C157.078 70.6794 156.71 69.3059 156.012 68.0966C155.309 66.8873 154.303 65.8804 153.094 65.1855L107.341 38.7995C104.917 37.4041 101.79 37.4041 99.3715 38.7995L53.6183 65.1855C52.4092 65.8804 51.4035 66.8873 50.7 68.0966C50.002 69.3059 49.6338 70.6848 49.6338 72.0802V72.0747Z" fill="black"/>
<path d="M103.356 159.835C101.85 159.835 100.355 159.435 99.0416 158.68L53.2884 132.3C51.9804 131.545 50.8922 130.45 50.1283 129.142C49.3698 127.834 48.9741 126.346 48.9741 124.836V72.0747C48.9741 70.5645 49.3753 69.0761 50.1283 67.7683C50.8922 66.455 51.9859 65.366 53.2884 64.6164L99.0416 38.2304C101.658 36.7201 105.049 36.7201 107.67 38.2304L153.423 64.6164C154.726 65.366 155.819 66.455 156.583 67.7683C157.342 69.0761 157.738 70.5645 157.738 72.0747V124.841C157.738 126.352 157.336 127.84 156.583 129.148C155.814 130.467 154.72 131.555 153.423 132.3L107.67 158.68C106.368 159.435 104.873 159.835 103.356 159.835ZM50.2931 72.0802V124.836C50.2931 126.116 50.6339 127.375 51.2714 128.486C51.9144 129.596 52.8432 130.521 53.9479 131.161L99.7011 157.542C101.932 158.828 104.807 158.817 107.005 157.542L152.758 131.161C153.857 130.532 154.786 129.607 155.435 128.491C156.072 127.386 156.413 126.122 156.413 124.841V72.0747C156.413 70.7943 156.072 69.5302 155.435 68.4249C154.786 67.3141 153.863 66.3893 152.758 65.7546L107.011 39.3685C104.79 38.0881 101.921 38.0881 99.7011 39.3685L53.9479 65.7546C52.8432 66.3893 51.9144 67.3141 51.2714 68.4249C50.6339 69.5302 50.2931 70.7943 50.2931 72.0802Z" fill="black"/>
<path d="M47.084 70.5754V125.17C47.084 126.614 47.4632 128.037 48.1887 129.285C48.9141 130.538 49.9583 131.577 51.2059 132.3L98.5529 159.599C99.8059 160.322 101.229 160.705 102.675 160.705C104.12 160.705 105.549 160.322 106.797 159.599L154.144 132.305C155.397 131.583 156.435 130.543 157.161 129.29C157.886 128.037 158.266 126.614 158.266 125.17V70.5754C158.266 69.1308 157.886 67.708 157.161 66.4604C156.435 65.2073 155.391 64.1677 154.144 63.4454L106.797 36.1455C104.291 34.7064 101.054 34.7064 98.5529 36.1455L51.2059 63.4454C49.9528 64.1677 48.9141 65.2073 48.1887 66.455C47.4687 67.7081 47.084 69.1308 47.084 70.5754Z" fill="#33FFDD"/>
<path d="M102.675 161.252C101.136 161.252 99.6134 160.842 98.2779 160.076L50.9309 132.77C49.5954 131.999 48.4852 130.888 47.7103 129.553C46.9409 128.228 46.5342 126.707 46.5342 125.164V70.5754C46.5342 69.0432 46.9409 67.522 47.7103 66.1814C48.4852 64.8462 49.6009 63.7354 50.9309 62.9693L98.2779 35.6695C100.949 34.1318 104.4 34.1318 107.071 35.6695L154.418 62.9693C155.754 63.7409 156.864 64.8571 157.633 66.1868C158.403 67.5111 158.809 69.0268 158.809 70.5754V125.17C158.809 126.713 158.403 128.234 157.633 129.564C156.858 130.899 155.748 132.01 154.418 132.781L107.071 160.076C105.741 160.847 104.219 161.252 102.675 161.252ZM102.675 35.6093C101.334 35.6093 99.9981 35.9431 98.8275 36.6161L51.4805 63.916C50.3153 64.589 49.3426 65.5576 48.6611 66.7286C47.9851 67.8996 47.6279 69.2347 47.6279 70.5754V125.17C47.6279 126.521 47.9851 127.851 48.6611 129.011C49.3371 130.176 50.3098 131.151 51.4805 131.829L98.8275 159.129C101.174 160.48 104.191 160.475 106.522 159.129L153.869 131.835C155.034 131.161 156.007 130.187 156.683 129.022C157.359 127.856 157.716 126.527 157.716 125.175V70.5754C157.716 69.2238 157.359 67.8941 156.683 66.734C156.007 65.5685 155.034 64.5945 153.863 63.916L106.522 36.6161C105.351 35.9431 104.01 35.6093 102.675 35.6093Z" fill="black"/>
<path d="M102.675 155.118C103.631 155.118 104.587 154.872 105.445 154.379L150.291 128.524C151.148 128.031 151.841 127.326 152.319 126.499C152.797 125.673 153.061 124.721 153.061 123.736V72.0145C153.061 71.0241 152.797 70.0774 152.319 69.2512C151.841 68.4249 151.148 67.719 150.291 67.2265L105.445 41.3713C104.587 40.8788 103.631 40.6326 102.675 40.6326C101.719 40.6326 100.762 40.8788 99.9049 41.3713L55.0585 67.2265C54.2011 67.719 53.5087 68.4249 53.0305 69.2512C52.5524 70.0774 52.2886 71.0296 52.2886 72.0145V123.73C52.2886 124.721 52.5524 125.668 53.0305 126.494C53.5087 127.32 54.2011 128.026 55.0585 128.518L99.9049 154.374C100.762 154.866 101.719 155.112 102.675 155.112V155.118Z" fill="#F3F3F3"/>
<path d="M102.675 155.775H102.015V155.736C101.158 155.643 100.328 155.375 99.575 154.943L54.7286 129.088C53.7888 128.551 53.0029 127.763 52.4588 126.822C51.9147 125.881 51.6289 124.814 51.6289 123.73V72.0145C51.6289 70.9311 51.9147 69.864 52.4588 68.9229C53.0029 67.9817 53.7888 67.1992 54.7286 66.6574L99.575 40.8022C101.46 39.7188 103.895 39.7188 105.774 40.8022L150.621 66.6574C151.56 67.1937 152.346 67.9817 152.89 68.9229C153.435 69.8586 153.72 70.9311 153.72 72.0145V123.736C153.72 124.819 153.435 125.886 152.89 126.828C152.346 127.769 151.56 128.551 150.621 129.093L105.774 154.948C104.835 155.49 103.757 155.775 102.675 155.775ZM102.675 41.2892C101.817 41.2892 100.976 41.5136 100.234 41.9404L55.3881 67.7956C54.6461 68.2224 54.0306 68.8353 53.6019 69.5795C53.1732 70.3182 52.9479 71.1609 52.9479 72.0145V123.73C52.9479 124.584 53.1732 125.427 53.6019 126.166C54.0306 126.91 54.6516 127.523 55.3881 127.949L100.234 153.805C100.976 154.231 101.817 154.456 102.675 154.456H102.905C103.68 154.417 104.444 154.199 105.115 153.81L149.961 127.955C150.703 127.528 151.319 126.915 151.747 126.171C152.176 125.432 152.401 124.59 152.401 123.736V72.0145C152.401 71.1609 152.176 70.3182 151.747 69.5795C151.319 68.8353 150.698 68.2224 149.961 67.7956L105.115 41.9404C104.373 41.5136 103.532 41.2892 102.675 41.2892Z" fill="black"/>
<path d="M64.2199 72.5125L99.9046 51.9377C100.762 51.4452 101.718 51.199 102.675 51.199V40.6271C101.718 40.6271 100.762 40.8733 99.9046 41.3658L55.0583 67.2265C54.2009 67.719 53.5084 68.4249 53.0303 69.2511L62.1919 74.5316C62.67 73.7054 63.3625 72.9995 64.2199 72.507V72.5125Z" fill="#EEEEEF"/>
<path d="M62.4337 75.4291L52.1289 69.4919L52.4587 68.9228C53.0028 67.9817 53.7887 67.1992 54.7285 66.6574L99.5748 40.7967C100.515 40.255 101.586 39.9705 102.674 39.9705H103.334V51.8557H102.674C101.817 51.8557 100.976 52.08 100.234 52.5068L64.3572 73.191C63.7032 73.6069 63.1536 74.1814 62.7634 74.86L62.4337 75.4291ZM53.97 69.0323L61.983 73.6507C62.4941 72.9557 63.1426 72.3702 63.8901 71.9379L64.8793 71.3688L99.5748 51.3686C100.328 50.9364 101.158 50.6682 102.015 50.5752V41.3275C101.388 41.4151 100.784 41.6175 100.234 41.9349L55.388 67.7956C54.8384 68.113 54.3547 68.5343 53.97 69.0323Z" fill="black"/>
<path d="M105.445 51.9377L141.129 72.5125C141.987 73.005 142.679 73.7109 143.157 74.5371L152.319 69.2566C151.841 68.4304 151.148 67.7245 150.291 67.232L105.445 41.3713C104.587 40.8788 103.631 40.6326 102.675 40.6326V51.199C103.631 51.199 104.587 51.4453 105.445 51.9377Z" fill="#9E9E9F"/>
<path d="M142.915 75.4346L142.586 74.8655C142.157 74.1213 141.536 73.5084 140.8 73.0816L105.115 52.5068C104.373 52.08 103.532 51.8557 102.675 51.8557H102.015V39.976H102.675C103.763 39.976 104.835 40.2605 105.774 40.8022L150.621 66.6629C151.56 67.1992 152.346 67.9872 152.89 68.9283L153.22 69.4974L142.915 75.4346ZM103.334 50.5752C104.192 50.6683 105.027 50.9364 105.774 51.3687L141.459 71.9434C142.206 72.3757 142.861 72.9557 143.366 73.6562L151.379 69.0378C150.989 68.5344 150.511 68.113 149.961 67.8011L105.115 41.9404C104.565 41.623 103.961 41.4206 103.334 41.333V50.5752Z" fill="black"/>
<path d="M61.4556 118.45V77.3006C61.4556 76.3101 61.7194 75.3635 62.1975 74.5372L53.0359 69.2567C52.5577 70.083 52.2939 71.0351 52.2939 72.0201V123.736C52.2939 124.726 52.5577 125.673 53.0359 126.499L62.1975 121.219C61.7194 120.393 61.4556 119.44 61.4556 118.456V118.45Z" fill="#9E9E9F"/>
<path d="M52.7939 127.397L52.4642 126.828C51.9201 125.892 51.6343 124.819 51.6343 123.736V72.02C51.6343 70.9366 51.9201 69.8695 52.4642 68.9283L52.7939 68.3593L63.0987 74.2964L62.7689 74.8655C62.3402 75.6042 62.1149 76.4469 62.1149 77.3005V118.455C62.1149 119.309 62.3402 120.152 62.7689 120.891L63.0987 121.46L52.7939 127.397ZM53.316 70.176C53.0797 70.7615 52.9533 71.3853 52.9533 72.02V123.736C52.9533 124.371 53.0797 124.995 53.316 125.58L61.329 120.962C60.9773 120.174 60.7959 119.32 60.7959 118.455V77.3005C60.7959 76.4359 60.9773 75.5823 61.329 74.7943L53.316 70.176Z" fill="black"/>
<path d="M143.157 74.5372C143.635 75.3635 143.899 76.3156 143.899 77.3005V118.45C143.899 119.44 143.635 120.387 143.157 121.213L152.319 126.494C152.797 125.668 153.061 124.715 153.061 123.731V72.0146C153.061 71.0241 152.797 70.0775 152.319 69.2512L143.157 74.5317V74.5372Z" fill="#4D4D4D"/>
<path d="M152.561 127.391L142.256 121.454L142.586 120.885C143.014 120.146 143.24 119.304 143.24 118.45V77.3005C143.24 76.4469 143.014 75.6042 142.586 74.8654L142.498 74.7122V74.1541L152.561 68.3538L152.89 68.9228C153.434 69.8586 153.72 70.9311 153.72 72.0145V123.73C153.72 124.814 153.434 125.881 152.89 126.822L152.561 127.391ZM144.026 120.956L152.039 125.575C152.275 124.989 152.401 124.365 152.401 123.73V72.0145C152.401 71.3798 152.275 70.756 152.039 70.1705L144.026 74.7888C144.377 75.5768 144.559 76.4304 144.559 77.3005V118.45C144.559 119.315 144.377 120.168 144.026 120.956Z" fill="black"/>
<path d="M99.9046 143.813L64.2199 123.238C63.3625 122.746 62.67 122.04 62.1919 121.213L53.0303 126.494C53.5084 127.32 54.2009 128.026 55.0583 128.519L99.9046 154.374C100.762 154.866 101.718 155.112 102.675 155.112V144.546C101.718 144.546 100.762 144.3 99.9046 143.807V143.813Z" fill="#4D4D4D"/>
<path d="M103.334 155.769H102.674C101.586 155.769 100.515 155.485 99.5748 154.943L54.7285 129.088C53.7887 128.551 53.0028 127.763 52.4587 126.822L52.1289 126.253L62.4337 120.316L62.7634 120.885C63.1921 121.629 63.8131 122.242 64.5496 122.669L99.2451 142.675L100.234 143.238C100.976 143.665 101.823 143.889 102.674 143.889H103.334V155.769ZM53.97 126.713C54.3602 127.216 54.8384 127.637 55.388 127.949L100.234 153.805C100.784 154.122 101.388 154.324 102.015 154.412V145.17C101.52 145.115 101.031 145.006 100.564 144.836V144.951L99.5748 144.387L63.8901 123.813C63.1426 123.38 62.4886 122.795 61.983 122.1L53.97 126.718V126.713Z" fill="black"/>
<path d="M141.129 123.238L105.445 143.813C104.587 144.305 103.631 144.552 102.675 144.552V155.118C103.631 155.118 104.587 154.872 105.445 154.379L150.291 128.524C151.148 128.032 151.841 127.326 152.319 126.499L143.157 121.219C142.679 122.045 141.987 122.751 141.129 123.244V123.238Z" fill="#333333"/>
<path d="M102.675 155.775H102.015V143.895H102.675C103.532 143.895 104.373 143.67 105.115 143.244L140.986 122.559C141.64 122.144 142.196 121.569 142.586 120.891L142.915 120.321L153.22 126.259L152.89 126.828C152.346 127.769 151.56 128.551 150.621 129.093L105.774 154.948C104.835 155.49 103.757 155.775 102.675 155.775ZM103.334 145.175V154.417C103.961 154.33 104.565 154.127 105.115 153.81L149.961 127.955C150.511 127.637 150.994 127.216 151.379 126.718L143.366 122.1C142.855 122.795 142.206 123.38 141.459 123.813L140.47 124.382L105.774 144.382C105.021 144.814 104.192 145.082 103.334 145.175Z" fill="black"/>
<path d="M145.603 73.1254C145.097 72.2498 144.361 71.5002 143.454 70.9803L105.615 49.158C104.708 48.6327 103.691 48.37 102.68 48.37C101.669 48.37 100.652 48.6327 99.7452 49.158L61.9006 70.9749C60.9938 71.5002 60.2574 72.2444 59.7517 73.1199C59.2461 73.9954 58.9658 75.0023 58.9658 76.0529V119.687C58.9658 120.732 59.2461 121.744 59.7517 122.62C60.2574 123.495 60.9938 124.245 61.9006 124.765L99.7397 146.582C100.647 147.107 101.663 147.37 102.675 147.37C103.686 147.37 104.703 147.107 105.609 146.582L143.448 124.765C144.355 124.239 145.092 123.495 145.597 122.62C146.103 121.744 146.383 120.737 146.383 119.687V76.0583C146.383 75.0132 146.103 74.0009 145.597 73.1254H145.603Z" fill="#B4B4B5"/>
<path d="M102.674 148.026C101.526 148.026 100.399 147.725 99.4098 147.151L61.5707 125.334C60.5814 124.765 59.7516 123.944 59.18 122.948C58.6084 121.958 58.3062 120.83 58.3062 119.687V76.0529C58.3062 74.9092 58.6084 73.782 59.18 72.7916C59.7461 71.8066 60.576 70.9803 61.5707 70.4058L99.4153 48.5889C101.394 47.4398 103.966 47.4398 105.944 48.5889L143.784 70.4113C144.773 70.9803 145.603 71.8066 146.174 72.797L146.74 73.782H146.63C146.9 74.5098 147.043 75.2813 147.043 76.0584V119.687C147.043 120.83 146.74 121.958 146.169 122.948C145.603 123.933 144.773 124.759 143.778 125.334L105.939 147.151C104.95 147.725 103.823 148.026 102.674 148.026ZM102.674 49.0267C101.762 49.0267 100.861 49.2674 100.069 49.7271L62.2302 71.544C61.4388 72.0036 60.7738 72.6602 60.3231 73.4482C59.867 74.2417 59.6252 75.1391 59.6252 76.0529V119.687C59.6252 120.6 59.867 121.503 60.3231 122.291C60.7793 123.085 61.4388 123.741 62.2302 124.196L100.069 146.012C101.652 146.926 103.702 146.926 105.274 146.012L143.113 124.196C143.904 123.736 144.564 123.079 145.02 122.291C145.476 121.498 145.718 120.6 145.718 119.687V76.0584C145.718 75.1445 145.476 74.2417 145.02 73.4537L144.905 73.2567C144.454 72.5508 143.844 71.9653 143.119 71.5494L105.285 49.7271C104.494 49.2674 103.592 49.0267 102.68 49.0267H102.674Z" fill="black"/>
<path d="M91.529 97.6564L91.3037 97.4649C91.3037 97.4649 91.3312 97.4321 91.3422 97.4156L91.551 97.6236C91.551 97.6236 91.5345 97.6455 91.5235 97.6564H91.529Z" fill="black"/>
<path d="M92.1226 97.1639H92.0677V97.0052L92.0567 96.9943L91.9688 96.9067L92.0127 96.863L92.0952 96.8466H92.7107L92.1226 97.1639Z" fill="black"/>
<path d="M68.4953 119.665C67.2422 119.665 66.4014 121 67.0114 122.078C67.0114 122.078 67.0224 122.094 67.0224 122.1C67.4456 122.822 68.0556 123.435 68.8086 123.867L100.234 141.826C100.987 142.259 101.833 142.472 102.674 142.472C103.515 142.472 104.356 142.259 105.114 141.826L136.54 123.867C137.293 123.435 137.903 122.822 138.326 122.1C138.326 122.1 138.337 122.083 138.337 122.078C138.947 120.994 138.106 119.665 136.853 119.665H68.4953Z" fill="#33FFDD"/>
<path d="M102.674 143.019C101.718 143.019 100.778 142.773 99.9593 142.302L68.5339 124.343C67.7095 123.873 67.0225 123.189 66.5444 122.379L66.4619 122.226C66.1542 121.591 66.1871 120.858 66.5554 120.234C66.9621 119.539 67.6875 119.123 68.4899 119.123H136.848C137.65 119.123 138.375 119.533 138.782 120.228C139.145 120.847 139.178 121.58 138.881 122.215V122.242L138.793 122.379C138.315 123.194 137.628 123.873 136.809 124.343L105.384 142.302C104.559 142.773 103.62 143.019 102.669 143.019H102.674ZM67.5666 121.941C67.9458 122.538 68.4624 123.041 69.0835 123.397L100.509 141.356C101.811 142.105 103.521 142.105 104.845 141.356L136.271 123.397C136.886 123.046 137.403 122.549 137.782 121.952V121.941L137.864 121.815C138.046 121.487 138.04 121.109 137.848 120.781C137.639 120.425 137.271 120.217 136.859 120.217H68.4954C68.0832 120.217 67.715 120.431 67.5061 120.787C67.3138 121.12 67.3028 121.492 67.4897 121.815L67.5666 121.947V121.941Z" fill="black"/>
<path d="M90.5942 81.7384L96.5792 68.1295L96.5902 68.1405L90.5942 81.7384Z" fill="#E3FFFF"/>
<path d="M125.62 113.771L117.717 114.056V114.04L104.928 108.672L110.863 99.4677L117.717 102.543L125.62 113.771Z" fill="#2598AD"/>
<path d="M104.653 97.5579L107.632 94.5592L113.188 86.8656L117.717 92.1461L110.863 99.4676H100.245L104.653 97.5579Z" fill="#75E8FD"/>
<path d="M101.218 57.6396L102.916 61.1363L104.928 65.2731L103.46 70.4332L98.6733 73.9079V73.9025L101.218 57.6396Z" fill="#4EC0D5"/>
<path d="M100.245 99.4677L97.2886 97.9957L98.6735 95.3035L102.18 87.3253L102.762 85.3062L103.504 86.0941L104.18 86.811L105.846 88.5839L104.928 92.1462L100.245 99.4677Z" fill="#46B8CD"/>
<path d="M114.732 79.4238L109.802 85.7822L109.423 83.183L108.159 65.6398L114.732 79.4238Z" fill="#35A8BD"/>
<path d="M117.717 79.4237L121.927 84.2828L117.717 92.1461V79.4237Z" fill="#4EC0D5"/>
<path d="M90.5946 81.7384L94.6231 84.2829L95.5189 89.4485L91.8532 94.5593L90.0176 91.6592L90.5946 81.7384Z" fill="#A8FFFF"/>
<path d="M98.6733 73.9025L96.5903 68.1404L101.201 57.6615L101.218 57.6396L98.6733 73.9025Z" fill="#CDFFFF"/>
<path d="M90.5942 81.7383L96.5902 68.1404L98.6732 73.9024V73.9079L94.6227 84.2828L90.5942 81.7383Z" fill="#DAFFFF"/>
<path d="M81.5869 88.2009L86.3683 85.7822L84.802 94.5593L81.5869 88.2009Z" fill="#E3FFFF"/>
<path d="M76.0249 113.547L71.9579 111.977L69.875 109.476L74.6729 104.584L76.2172 108.168L76.0249 113.547Z" fill="#C3FFFF"/>
<path d="M97.6678 105.564L97.2886 97.9957L100.245 99.4677L97.6678 105.564Z" fill="#68DAF0"/>
<path d="M117.717 92.1461L121.927 84.2828L123.707 90.893L125.026 93.0326V93.038L125.928 106.22L117.717 92.1461Z" fill="#2FA1B7"/>
<path d="M105.846 77.2021L104.18 86.8L103.504 86.0941L102.762 85.3061L98.668 73.9463L98.6735 73.908L103.46 70.4332L105.846 77.2021Z" fill="#43B6CB"/>
<path d="M74.6729 104.584L78.3386 92.1461L84.8018 94.5593L74.6729 104.584Z" fill="#AFFFFF"/>
<path d="M103.46 70.4332L104.928 65.2731L106.329 68.1404L105.846 77.202L103.46 70.4332Z" fill="#35A8BD"/>
<path d="M88.2915 86.9642L90.5943 81.7384L90.0172 91.6592L88.2915 86.9642Z" fill="#E3FFFF"/>
<path d="M100.344 114.702H92.5234L95.5187 110.198L104.928 108.672L117.717 114.04V114.056L100.344 114.702Z" fill="#35A8BD"/>
<path d="M117.717 79.4237V92.1461L113.188 86.8656L114.732 79.4237H117.717Z" fill="#AFFFFF"/>
<path d="M109.423 83.183L109.803 85.7822L108.984 88.2938L104.928 92.1461L105.846 88.5839L109.423 83.183Z" fill="#B1FFFF"/>
<path d="M99.0912 89.4485H95.5189L94.623 84.2829L98.6735 73.908L98.668 73.9463L102.762 85.3062L102.18 87.3253L99.0912 89.4485Z" fill="#75E7FD"/>
<path d="M97.6678 105.569L92.5237 103.544L90.0176 91.6591L91.8532 94.5592L93.7878 97.8041L97.6678 105.563V105.569Z" fill="#4EC0D5"/>
<path d="M95.5186 110.198L92.5234 114.702H89.2478L89.1929 106.68L92.5234 103.544L97.6675 105.569L95.5186 110.198Z" fill="#2699AE"/>
<path d="M104.18 86.8L105.845 77.2021L106.329 68.1405L108.159 65.6398L109.423 83.183L105.845 88.5839L104.18 86.811V86.8Z" fill="#C2FFFF"/>
<path d="M86.3681 85.7822L88.2861 86.9642H88.2916L90.0173 91.6592L92.5235 103.544L89.193 106.68L84.8018 94.5593L86.3681 85.7822Z" fill="#68DAF0"/>
<path d="M78.3389 92.1461L81.5869 88.2008L84.802 94.5593L78.3389 92.1461Z" fill="#CDFFFF"/>
<path d="M100.245 99.4677L104.928 92.1461L108.984 88.2938L109.802 85.7822L114.732 79.4237L113.188 86.8656L107.632 94.5593L104.653 97.5579L100.245 99.4677Z" fill="#E3FFFF"/>
<path d="M104.18 86.8V86.8109L103.504 86.0941L104.18 86.8Z" fill="#C2FFFF"/>
<path d="M97.6675 105.563L100.245 99.4677H110.863L97.6675 105.569V105.563Z" fill="#68DAF0"/>
<path d="M125.026 93.0381L135.117 109.443L125.928 106.22L125.026 93.0381Z" fill="#2598AD"/>
<path d="M135.117 109.443L125.62 113.772L117.717 102.543L125.928 106.22L135.117 109.443Z" fill="#2FA1B7"/>
<path d="M89.248 114.702L76.0249 113.547L76.2173 108.168L89.193 106.68L89.248 114.702Z" fill="#46B8CD"/>
<path d="M95.5186 110.198L97.6674 105.569L110.863 99.4677L104.927 108.672L95.5186 110.198Z" fill="#AFFFFF"/>
<path d="M117.717 92.1461L125.927 106.22L117.717 102.543L110.863 99.4677L117.717 92.1461Z" fill="#5CCFE4"/>
<path d="M84.8018 94.5593L89.193 106.68L76.2172 108.168L74.6729 104.584L84.8018 94.5593Z" fill="#4EC0D5"/>
<path d="M97.2885 97.9957L94.1943 96.2447L91.853 94.5593L99.0911 89.4485L102.18 87.3253L98.6734 95.3035L97.2885 97.9957Z" fill="#53C6DB"/>
<path d="M97.2885 97.9957L97.6677 105.564L93.7876 97.8042L91.853 94.5593L94.1943 96.2447L97.2885 97.9957Z" fill="#5CCFE4"/>
<path d="M91.853 94.5593L95.5188 89.4485H99.0911L91.853 94.5593Z" fill="#6EE1F6"/>
<path d="M94.8103 132.573C94.596 132.573 94.4256 132.404 94.4256 132.19V131.085L94.2058 131.939C94.1618 132.108 94.0079 132.229 93.832 132.229H93.8046C93.3264 132.196 92.8483 132.021 92.3811 131.72C92.0569 131.512 91.7601 131.233 91.4963 130.888C91.227 131.233 90.9247 131.512 90.606 131.72C90.1388 132.021 89.6607 132.196 89.1825 132.229H89.1551C88.9792 132.229 88.8253 132.114 88.7813 131.939L88.3197 130.16C88.2922 130.051 88.3142 129.936 88.3801 129.843C88.4461 129.75 88.5505 129.69 88.6604 129.684C88.9517 129.657 89.3804 129.531 89.6881 128.743C89.952 128.064 90.0894 127.036 90.0948 125.679H88.9242C88.7099 125.679 88.5395 125.509 88.5395 125.296V123.572C88.5395 123.358 88.7099 123.189 88.9242 123.189H94.0574C94.2387 123.189 94.3926 123.315 94.4311 123.484V123.435C94.4311 123.222 94.6015 123.052 94.8158 123.052H96.9812C97.1955 123.052 97.3659 123.222 97.3659 123.435V132.19C97.3659 132.404 97.1955 132.573 96.9812 132.573H94.8103ZM92.8922 125.679C92.8922 126.538 92.9692 127.282 93.1121 127.889C93.2495 128.486 93.4418 128.945 93.6727 129.246C93.876 129.509 94.0903 129.651 94.3322 129.679C94.3651 129.679 94.3926 129.69 94.4201 129.7V125.378C94.3816 125.547 94.2277 125.673 94.0464 125.673H92.8922V125.679Z" fill="white"/>
<path d="M96.9755 123.435V132.19H94.8101V123.435H96.9755ZM94.0517 123.572V125.296H92.5073V125.629C92.5073 126.543 92.5843 127.326 92.7381 127.977C92.892 128.633 93.1009 129.131 93.3702 129.482C93.6395 129.832 93.9472 130.023 94.288 130.062L93.8263 131.84C93.4141 131.807 92.9964 131.659 92.5843 131.391C92.1721 131.123 91.8038 130.729 91.4906 130.209C91.1663 130.729 90.7981 131.123 90.3859 131.391C89.9737 131.659 89.556 131.807 89.1438 131.84L88.6822 130.062C89.2977 130.007 89.7484 129.613 90.0342 128.88C90.32 128.146 90.4683 127.057 90.4683 125.629V125.296H88.913V123.572H94.0462M96.97 122.669H94.8046C94.6122 122.669 94.4419 122.74 94.3045 122.85C94.222 122.822 94.1341 122.806 94.0462 122.806H88.913C88.4898 122.806 88.1436 123.15 88.1436 123.572V125.296C88.1436 125.717 88.4898 126.062 88.913 126.062H89.6934C89.6659 127.178 89.545 128.032 89.3197 128.601C89.0614 129.263 88.7481 129.29 88.6162 129.301C88.3909 129.323 88.1876 129.438 88.0557 129.624C87.9238 129.81 87.8798 130.04 87.9402 130.259L88.4019 132.037C88.4898 132.376 88.7976 132.612 89.1438 132.612H89.1988C89.7429 132.573 90.2815 132.382 90.8036 132.042C91.0454 131.889 91.2707 131.698 91.4851 131.479C91.6994 131.698 91.9248 131.889 92.1666 132.042C92.6887 132.382 93.2273 132.573 93.7714 132.612H93.8263C93.9307 132.612 94.0352 132.59 94.1231 132.551C94.255 132.792 94.5078 132.956 94.8046 132.956H96.97C97.3931 132.956 97.7394 132.612 97.7394 132.19V123.435C97.7394 123.014 97.3931 122.669 96.97 122.669ZM93.2822 126.062H94.0407V129.088C94.0407 129.088 94.0022 129.044 93.9802 129.016C93.7824 128.759 93.612 128.343 93.4856 127.802C93.3702 127.309 93.3042 126.724 93.2822 126.056V126.062Z" fill="black"/>
<path d="M104.247 132.573C104.032 132.573 103.862 132.404 103.862 132.19V123.457C103.862 123.243 104.032 123.074 104.247 123.074H106.412C106.626 123.074 106.797 123.243 106.797 123.457V132.19C106.797 132.404 106.626 132.573 106.412 132.573H104.247ZM98.3549 132.229C98.1406 132.229 97.9702 132.059 97.9702 131.845V126.789C97.9702 126.576 98.1406 126.406 98.3549 126.406H100.707V125.679H98.3549C98.1406 125.679 97.9702 125.509 97.9702 125.295V123.572C97.9702 123.358 98.1406 123.189 98.3549 123.189H103.246C103.461 123.189 103.631 123.358 103.631 123.572V128.513C103.631 128.726 103.461 128.896 103.246 128.896H100.905V129.739H103.477C103.691 129.739 103.862 129.908 103.862 130.122V131.845C103.862 132.059 103.691 132.229 103.477 132.229H98.3549Z" fill="white"/>
<path d="M106.412 123.457V132.19H104.246V123.457H106.412ZM103.246 123.572V128.513H100.52V130.122H103.477V131.845H98.3549V126.789H101.092V125.295H98.3549V123.572H103.246ZM106.412 122.691H104.246C104.021 122.691 103.818 122.784 103.68 122.937C103.559 122.855 103.406 122.806 103.246 122.806H98.3549C97.9317 122.806 97.5854 123.15 97.5854 123.572V125.295C97.5854 125.662 97.8383 125.963 98.1845 126.04C97.8438 126.116 97.5854 126.423 97.5854 126.784V131.84C97.5854 132.261 97.9317 132.606 98.3549 132.606H103.477C103.521 132.606 103.559 132.606 103.598 132.595C103.735 132.809 103.972 132.951 104.246 132.951H106.412C106.835 132.951 107.181 132.606 107.181 132.185V123.451C107.181 123.03 106.835 122.685 106.412 122.685V122.691ZM101.29 129.285H103.246C103.329 129.285 103.406 129.274 103.477 129.252V129.361H101.29V129.285Z" fill="black"/>
<path d="M108.022 132.573C107.808 132.573 107.637 132.404 107.637 132.19V128.912C107.637 128.814 107.676 128.721 107.736 128.655C107.698 128.612 107.665 128.557 107.648 128.497L107.187 126.773C107.154 126.658 107.181 126.538 107.253 126.439C107.324 126.346 107.44 126.291 107.555 126.291C107.918 126.291 108.209 126.166 108.462 125.903C108.715 125.635 108.841 125.213 108.841 124.644V123.462C108.841 123.249 109.011 123.079 109.226 123.079H111.38C111.594 123.079 111.765 123.249 111.765 123.462V124.644C111.765 125.213 111.891 125.64 112.144 125.903C112.391 126.166 112.688 126.291 113.051 126.291C113.144 126.291 113.232 126.324 113.298 126.384V123.462C113.298 123.249 113.468 123.079 113.683 123.079H115.848C116.063 123.079 116.233 123.249 116.233 123.462V124.973H116.711C116.925 124.973 117.096 125.142 117.096 125.356V127.079C117.096 127.293 116.925 127.462 116.711 127.462H116.233V129.148C116.233 129.361 116.063 129.531 115.848 129.531H113.683C113.468 129.531 113.298 129.361 113.298 129.148V127.238L112.963 128.497C112.919 128.666 112.765 128.781 112.589 128.781C112.111 128.781 111.644 128.688 111.204 128.502C110.88 128.365 110.578 128.185 110.308 127.96C110.034 128.185 109.731 128.365 109.407 128.502C109.385 128.513 109.363 128.519 109.341 128.529H110.187C110.402 128.529 110.572 128.699 110.572 128.912V130.078H115.848C116.063 130.078 116.233 130.248 116.233 130.461V132.185C116.233 132.398 116.063 132.568 115.848 132.568H108.022V132.573Z" fill="white"/>
<path d="M115.843 123.457V125.35H116.705V127.074H115.843V129.142H113.677V123.457H115.843ZM111.38 123.457V124.639C111.38 125.312 111.539 125.821 111.864 126.16C112.188 126.499 112.584 126.669 113.051 126.669L112.589 128.393C112.16 128.393 111.748 128.311 111.352 128.146C110.957 127.982 110.611 127.747 110.314 127.441C110.006 127.747 109.654 127.982 109.259 128.146C108.863 128.311 108.451 128.393 108.022 128.393L107.56 126.669C108.027 126.669 108.423 126.499 108.747 126.16C109.072 125.821 109.231 125.312 109.231 124.639V123.457H111.385M110.187 128.913V130.461H115.848V132.185H108.022V128.907H110.187M115.848 122.685H113.683C113.26 122.685 112.913 123.03 112.913 123.451V125.892C112.721 125.865 112.567 125.783 112.424 125.629C112.243 125.438 112.149 125.104 112.149 124.633V123.451C112.149 123.03 111.803 122.685 111.38 122.685H109.226C108.802 122.685 108.456 123.03 108.456 123.451V124.633C108.456 125.104 108.363 125.438 108.181 125.629C108.005 125.815 107.813 125.897 107.555 125.897C107.318 125.897 107.093 126.007 106.945 126.198C106.796 126.39 106.752 126.631 106.813 126.861L107.275 128.584C107.275 128.584 107.286 128.628 107.291 128.644C107.264 128.727 107.247 128.814 107.247 128.902V132.179C107.247 132.601 107.593 132.945 108.016 132.945H115.843C116.266 132.945 116.612 132.601 116.612 132.179V130.456C116.612 130.177 116.458 129.93 116.233 129.794C116.458 129.662 116.612 129.416 116.612 129.131V127.829H116.705C117.129 127.829 117.475 127.484 117.475 127.063V125.339C117.475 124.918 117.129 124.573 116.705 124.573H116.612V123.446C116.612 123.025 116.266 122.68 115.843 122.68L115.848 122.685ZM110.957 129.701V128.913C110.957 128.88 110.957 128.841 110.951 128.809C110.984 128.825 111.023 128.841 111.061 128.858C111.55 129.06 112.067 129.164 112.595 129.164C112.71 129.164 112.82 129.137 112.919 129.093V129.142C112.919 129.361 113.012 129.558 113.161 129.701H110.957Z" fill="black"/>
<path d="M133.649 94.3568L133.418 93.7932L133.187 94.3568C132.319 96.4964 130.879 98.3514 129.021 99.7194C129.049 99.7413 129.071 99.7632 129.098 99.7796C130.918 101.142 132.33 102.975 133.182 105.082L133.413 105.646L133.644 105.082C134.495 102.975 135.908 101.148 137.727 99.7796C137.754 99.7577 137.776 99.7358 137.804 99.7194C135.946 98.3514 134.506 96.4909 133.638 94.3568H133.649Z" fill="#FCFFB8"/>
<path d="M133.413 106.734C132.968 106.734 132.567 106.466 132.396 106.056L132.165 105.492C131.39 103.577 130.11 101.908 128.461 100.666C128.417 100.633 128.373 100.6 128.335 100.568C128.082 100.349 127.928 100.02 127.939 99.692C127.95 99.3582 128.104 99.0408 128.373 98.8438C130.066 97.5962 131.379 95.9054 132.176 93.9518L132.407 93.3828C132.578 92.9724 132.979 92.7042 133.424 92.7042C133.869 92.7042 134.27 92.9724 134.441 93.3828L134.671 93.9464C134.688 93.9901 134.704 94.0394 134.715 94.0832C135.518 95.982 136.809 97.6236 138.458 98.8438C138.749 99.0627 138.92 99.4074 138.903 99.7686C138.887 100.102 138.722 100.409 138.447 100.606C138.436 100.617 138.42 100.628 138.414 100.633C136.721 101.903 135.435 103.577 134.66 105.492L134.43 106.061C134.259 106.472 133.858 106.74 133.413 106.74V106.734ZM130.742 99.7193C131.803 100.682 132.704 101.804 133.413 103.046C134.122 101.81 135.018 100.682 136.084 99.7193C135.023 98.7563 134.127 97.6345 133.413 96.3924C132.704 97.6345 131.803 98.7563 130.742 99.7193ZM129.665 98.8438C129.665 98.8438 129.676 98.8493 129.681 98.8548C129.681 98.8548 129.67 98.8493 129.665 98.8438Z" fill="black"/>
<path d="M137.732 99.7851C137.732 99.7851 137.782 99.7413 137.809 99.7249C135.952 98.3569 134.512 96.4964 133.643 94.3623L133.413 93.7987V99.7906H137.732V99.7851Z" fill="#6BDEF1"/>
<path d="M133.418 99.785V105.651L133.649 105.087C134.501 102.981 135.913 101.153 137.732 99.785H133.418Z" fill="#1E91A5"/>
<path d="M133.418 93.7932L133.187 94.3568C132.319 96.4964 130.879 98.3514 129.021 99.7194C129.049 99.7413 129.071 99.7631 129.098 99.7796H133.413V93.7877L133.418 93.7932Z" fill="#A7FFFF"/>
<path d="M129.104 99.785C130.923 101.148 132.336 102.981 133.187 105.087L133.418 105.651V99.785H129.104Z" fill="#6BDEF1"/>
<path d="M133.511 97.5087L133.418 97.2734L133.325 97.5087C132.967 98.3897 132.374 99.1558 131.61 99.7194C132.374 100.283 132.967 101.049 133.325 101.93L133.418 102.165L133.511 101.93C133.869 101.049 134.462 100.283 135.226 99.7194C134.462 99.1558 133.869 98.3897 133.511 97.5087Z" fill="#BAFFFF"/>
<path d="M76.5523 75.3032L76.3215 74.7396L76.0907 75.3032C75.2223 77.4428 73.7824 79.2978 71.9248 80.6658C71.9523 80.6877 71.9743 80.7096 72.0017 80.726C73.8209 82.0885 75.2333 83.9216 76.0852 86.0284L76.316 86.592L76.5468 86.0284C77.3987 83.9216 78.8111 82.094 80.6303 80.726C80.6578 80.7041 80.6797 80.6822 80.7072 80.6658C78.8496 79.2978 77.4097 77.4373 76.5413 75.3032H76.5523Z" fill="#FCFFB8"/>
<path d="M76.3162 87.681C75.8711 87.681 75.4699 87.4128 75.2995 87.0024L75.0687 86.4388C74.2938 84.5236 73.0132 82.8546 71.3645 81.6125C71.3205 81.5797 71.2765 81.5523 71.2381 81.514C70.9852 81.2951 70.8314 80.9668 70.8423 80.633C70.8533 80.2992 71.0017 79.9818 71.271 79.7849C72.9638 78.5372 74.2773 76.8464 75.0742 74.8929L75.305 74.3238C75.4754 73.9134 75.8766 73.6453 76.3217 73.6453C76.7669 73.6453 77.1681 73.9134 77.3385 74.3238L77.5693 74.8874C77.5858 74.9312 77.6023 74.9804 77.6133 75.0242C78.4157 76.923 79.7072 78.5701 81.3615 79.7849C81.6582 80.0037 81.8231 80.3539 81.8066 80.7151C81.7901 81.0489 81.6198 81.3553 81.3505 81.5468C81.3395 81.5578 81.323 81.5687 81.323 81.5687C79.6303 82.8382 78.3442 84.5127 77.5693 86.4279L77.3385 86.997C77.1681 87.4074 76.7669 87.6755 76.3217 87.6755L76.3162 87.681ZM73.6452 80.6658C74.706 81.6289 75.6073 82.7507 76.3162 83.9928C77.0197 82.7562 77.921 81.6289 78.9872 80.6658C77.9265 79.7028 77.0252 78.581 76.3162 77.3389C75.6073 78.581 74.706 79.7028 73.6452 80.6658ZM72.5626 79.7849C72.5626 79.7849 72.579 79.7958 72.5845 79.8013C72.579 79.8013 72.5681 79.7903 72.5626 79.7849Z" fill="black"/>
<path d="M80.6415 80.7316C80.6415 80.7316 80.691 80.6878 80.7185 80.6714C78.8609 79.3034 77.421 77.4429 76.5526 75.3089L76.3218 74.7452V80.7371H80.6415V80.7316Z" fill="#6BDEF1"/>
<path d="M76.3271 80.7316V86.5976L76.558 86.0339C77.4098 83.9272 78.8223 82.0996 80.6414 80.7316H76.3271Z" fill="#1E91A5"/>
<path d="M76.3274 74.7397L76.0965 75.3033C75.2282 77.4429 73.7883 79.2979 71.9307 80.6659C71.9581 80.6878 71.9801 80.7097 72.0076 80.7261H76.3219V74.7343L76.3274 74.7397Z" fill="#A7FFFF"/>
<path d="M72.0132 80.7316C73.8323 82.0941 75.2448 83.9272 76.0966 86.0339L76.3274 86.5976V80.7316H72.0132Z" fill="#6BDEF1"/>
<path d="M76.4206 78.4553L76.3272 78.22L76.2338 78.4553C75.8765 79.3363 75.283 80.1023 74.519 80.666C75.283 81.2296 75.8765 81.9957 76.2338 82.8766L76.3272 83.1119L76.4206 82.8766C76.7779 81.9957 77.3714 81.2296 78.1353 80.666C77.3714 80.1023 76.7779 79.3363 76.4206 78.4553Z" fill="#BAFFFF"/>
</g>
<defs>
<clipPath id="clip0_1076_15318">
<rect width="121.349" height="147" fill="white" transform="translate(42 30.0005)"/>
</clipPath>
</defs>
</svg>
