<svg width="211" height="210" viewBox="0 0 211 210" fill="none" xmlns="http://www.w3.org/2000/svg">
<rect x="4.53613" y="4.50049" width="203" height="203" rx="28.5" fill="#1D1D1D" stroke="black" stroke-width="3"/>
<g filter="url(#filter0_d_1078_32409)">
<rect x="1.03613" y="1.00049" width="204" height="204" rx="29" fill="#1D1D1D" stroke="black" stroke-width="2"/>
</g>
<rect x="5.5" y="5.50049" width="203" height="203" rx="28.5" fill="black" stroke="black" stroke-width="3"/>
<rect x="1" y="1.00049" width="204" height="204" rx="29" fill="#1D1D1D" stroke="black" stroke-width="2"/>
<g clip-path="url(#clip0_1078_32409)">
<path d="M164.372 46.7489C164.397 46.6362 164.372 46.5081 164.305 46.4108L162.952 44.6637C162.952 44.6637 162.942 44.6534 162.932 44.6432C162.906 44.6073 162.865 44.5766 162.819 44.551C162.809 44.551 162.794 44.551 162.783 44.5407C162.747 44.5202 162.706 44.5151 162.671 44.5151H159.412C159.243 44.5151 159.084 44.6278 159.048 44.7969L158.085 48.4908L138.98 47.128C138.289 45.9804 136.649 46.2775 136.649 46.2878H119.409C119.342 46.2878 119.276 46.3083 119.225 46.3339C119.199 46.3544 118.579 46.7182 118.261 47.6762L104.157 48.7521L104.772 46.1853C104.797 46.0726 104.772 45.9599 104.705 45.8779L103.286 43.9362C103.286 43.9362 103.26 43.9106 103.25 43.9003C103.224 43.8747 103.194 43.8542 103.168 43.8337C103.148 43.8337 103.132 43.8235 103.112 43.8132C103.076 43.803 103.045 43.7927 103.009 43.7927H100.217C100.048 43.7927 99.8993 43.9054 99.8532 44.0745L97.5836 52.6407C97.3325 52.6407 97.1737 52.651 97.1737 52.651C97.0149 52.6612 96.8868 52.7739 96.8356 52.9225L89.4887 78.0218L61.2335 74.5482H57.268C57.0631 74.5482 56.894 74.7172 56.8837 74.9222L56.8274 77.5095C56.8274 77.6119 56.8632 77.7041 56.9401 77.781C57.0169 77.8578 57.1092 77.8937 57.2116 77.8937H61.1669L61.5767 77.9398L62.9856 79.0208L62.6424 81.4544H61.7355C61.5665 81.4544 61.4179 81.5671 61.3718 81.726L56.0896 100.16L50.7511 100.114C50.413 100.114 49.7828 100.308 49.6957 100.974H46.3706C46.2477 100.995 43.4759 101.471 43.2249 103.495C43.148 103.731 42.8816 104.689 43.4503 105.596C43.9985 106.472 45.1308 106.994 46.8215 107.138C48.4661 107.276 50.9765 107.568 54.2401 108.004L43.1429 146.751C40.9962 153.099 41.8262 155.733 41.857 155.815C42.9021 159.903 46.637 160.707 48.7735 160.81C49.5676 160.856 50.1158 160.81 50.0902 160.81C51.2481 160.877 55.316 161.455 55.3621 161.466C66.5361 162.752 75.5225 164.965 75.6454 164.996C82.7105 166.225 95.2627 171.856 95.3959 171.912C102.369 174.981 106.093 175.396 106.263 175.411C106.498 175.422 106.739 175.432 106.964 175.432C108.932 175.432 110.653 174.966 112.088 174.049C117.877 172.65 119.435 165.954 119.491 165.667L123.001 149.595C123.001 149.595 123.021 149.605 123.026 149.605C125.198 149.887 136.28 153.012 136.408 153.048C139.795 153.832 152.414 157.172 152.547 157.213C152.772 157.27 153.049 157.326 153.351 157.326H153.433C155.616 157.306 157.23 156.768 158.229 155.692C159.059 154.805 159.453 153.591 159.386 152.1C159.386 152.08 159.397 152.064 159.397 152.044V144.999L157.578 134.527L150.103 99.8421L152.444 90.4049C153.648 90.1539 154.043 88.7911 154.058 88.7245C154.058 88.6988 154.068 88.6579 154.068 88.6322V86.2499L158.485 86.6598H158.521C158.613 86.6598 158.705 86.6239 158.772 86.5573C158.849 86.4804 158.895 86.378 158.895 86.2755V83.6831C158.895 83.4884 158.756 83.3296 158.557 83.3091L154.56 82.8429L161.83 56.4371C161.851 56.3705 161.851 56.3039 161.83 56.2425C161.805 56.1605 161.764 56.0734 161.738 55.9914C161.774 55.9453 161.815 55.9094 161.83 55.8531L164.351 46.754L164.372 46.7643V46.7489ZM84.3244 96.1174C84.3807 96.2097 84.4832 96.2763 84.5857 96.2865C84.5857 96.2865 84.8367 96.3224 85.2312 96.389L84.2885 99.0378L80.8046 84.0673L87.5162 84.7231L84.268 95.7998C84.2424 95.9023 84.2578 96.015 84.3141 96.1072L84.3244 96.1174ZM156.466 54.6952C155.093 54.8899 153.925 55.1973 153.648 55.2844L103.173 53.855L103.547 52.528L104.603 52.9276C104.603 52.9276 104.695 52.9533 104.741 52.9533H104.751L118.451 52.4665C118.451 52.4665 118.487 52.4563 118.518 52.4461C119.107 52.8662 119.814 52.9328 120.116 52.9328H120.249L137.254 52.9072C137.356 52.9072 137.448 52.8713 137.515 52.7944C138.027 52.7483 138.422 52.5075 138.683 52.1028L156.717 53.7525L156.476 54.6952V54.685L156.466 54.6952ZM155.708 152.203C155.344 152.602 154.074 152.336 153.279 151.998C150.805 151.009 127.427 144.933 124.184 144.092L130.522 115.048H130.568L147.603 113.675L150.656 128.179L155.472 150.271C155.472 150.271 155.81 151.24 155.708 152.213V152.203ZM111.437 168.423C111.017 168.741 108.517 170.401 104.802 168.659C104.623 168.577 86.9731 159.79 75.5686 158.018C75.4302 157.992 61.7714 155.256 53.9071 154.939C53.8712 154.939 53.8302 154.939 53.8046 154.949C52.3496 155.313 48.3636 155.968 47.4414 154.554C47.4055 154.518 46.4424 153.499 48.0306 151.122L49.3678 150.02C49.4241 149.974 49.4703 149.897 49.4908 149.836V149.825L56.689 120.92L85.7897 125.771C87.5521 135.142 89.7397 141.07 89.7859 141.172C92.783 146.634 99.6329 146.905 99.9147 146.91C101.006 146.987 104.674 147.423 115.93 149.134H115.987L112.713 163.833C112.385 166.118 111.852 167.578 111.463 168.418L111.452 168.428L111.437 168.423ZM82.5466 112.169L84.4986 121.417L57.8674 117.103L59.9936 108.798C66.2748 109.684 74.2468 110.878 82.5415 112.169H82.5466ZM112.17 115.745C112.17 115.745 112.19 115.781 112.206 115.801L112.831 116.462C112.908 116.539 113 116.585 113.102 116.585H113.128L123.472 115.878L121.335 124.987L120.823 127.293L89.7039 122.252L87.5777 112.948C96.313 114.31 102.902 115.376 102.912 115.376C102.948 115.376 105.617 115.853 109.27 115.853C110.187 115.853 111.166 115.817 112.175 115.74V115.75L112.17 115.745ZM117.329 142.97C109.915 141.756 98.9669 141.505 98.8747 141.505L97.4863 141.413C94.5762 140.603 93.5823 137.155 93.5771 137.12L90.6107 126.571L119.891 131.453L117.324 142.97H117.334H117.329ZM133.278 102.332L142.126 103.377L141.649 105.703V105.77C141.649 105.816 141.649 105.852 141.66 105.903V105.929L141.957 106.733L132.53 105.77L133.278 102.353V102.332ZM126.807 101.64L125.987 105.14L98.5365 101.656C94.7658 101.318 92.3936 100.995 92.3219 100.985H90.2572L91.4356 97.6442L126.812 101.64H126.807ZM84.7752 100.426C84.7086 100.426 84.642 100.416 84.5959 100.406L84.4115 99.6116L84.7752 100.421V100.426ZM145.277 87.5717L143.468 87.5922L144.365 86.6598H145.999L145.282 87.5768L145.277 87.5717ZM65.66 85.425C65.8855 85.051 66.034 84.6053 66.0596 84.0878C66.0596 84.0315 66.2441 82.7455 67.2278 82.7455H67.2739L75.9067 83.596L79.6877 100.37L61.7868 100.221L65.66 85.425Z" fill="white"/>
<path d="M106.959 178.224C106.698 178.224 106.421 178.214 106.15 178.204C106.078 178.204 106.011 178.194 105.94 178.188C105.212 178.106 101.231 177.538 94.2636 174.469C92.9367 173.88 81.5168 168.859 75.1587 167.747C75.1074 167.737 75.0562 167.727 75.005 167.716C74.0111 167.476 65.4397 165.442 55.0393 164.243C54.9983 164.243 54.9625 164.232 54.9215 164.227C54.3528 164.14 51.2685 163.715 50.1363 163.623C49.6239 163.669 49.1013 163.633 48.6044 163.607C43.7936 163.377 40.2533 160.749 39.1569 156.583C38.8649 155.595 38.2962 152.367 40.4634 145.922L50.6537 110.371C49.004 110.171 47.6258 110.022 46.5858 109.93C43.9831 109.715 42.1285 108.757 41.0833 107.087C40.0382 105.427 40.2636 103.746 40.489 102.901C41.027 99.791 44.1471 98.4897 45.9505 98.213C46.0939 98.1925 46.2323 98.1823 46.3757 98.1823H48.2816C48.9989 97.6136 49.8955 97.3216 50.7562 97.3216L53.989 97.3523L58.6871 80.9678C58.7127 80.8756 58.7435 80.7885 58.7793 80.7014H57.2167C56.3714 80.7014 55.5721 80.3735 54.9727 79.7741C54.3681 79.1695 54.0351 78.3652 54.0351 77.5147L54.0915 74.8711C54.1735 73.0933 55.5721 71.7561 57.2731 71.7561H61.1924C61.3052 71.7561 61.4691 71.7612 61.5818 71.7766L87.4752 74.9582L94.1509 52.1439C94.3559 51.4881 94.7452 50.9399 95.2473 50.5403L97.1481 43.3676C97.5375 41.9638 98.7978 41.0057 100.217 41.0057H102.978C103.363 41.0057 103.634 41.0672 103.808 41.1133C103.865 41.1287 103.926 41.1441 103.988 41.1646C104.244 41.2414 104.485 41.3592 104.71 41.5078C104.879 41.6205 105.043 41.7435 105.212 41.9126C105.32 42.0202 105.458 42.1739 105.545 42.2968L106.964 44.2386C107.287 44.6484 107.492 45.1556 107.559 45.6987L116.581 45.0122C117.022 44.4742 117.462 44.1515 117.703 43.9926C117.79 43.9363 117.887 43.8799 117.98 43.8338C118.425 43.6135 118.917 43.5008 119.404 43.5008H136.383C137.469 43.3369 139.006 43.5111 140.225 44.423L155.959 45.545L156.328 44.1259C156.671 42.7323 157.952 41.723 159.407 41.723H162.645C162.993 41.723 163.337 41.7794 163.659 41.8921C163.854 41.9536 164.049 42.0407 164.228 42.1431C164.515 42.3122 164.761 42.512 164.976 42.7426C165.038 42.8092 165.099 42.8809 165.155 42.9526L166.508 44.6997C166.539 44.7407 166.569 44.7816 166.595 44.8226C167.128 45.586 167.302 46.539 167.072 47.4407C167.041 47.5687 166.995 47.6968 166.943 47.8198L164.628 56.1862C164.643 56.5346 164.602 56.883 164.505 57.2211L158.111 80.435L158.864 80.5221C160.442 80.6707 161.677 82.0335 161.677 83.6781V86.2756C161.677 87.1159 161.333 87.9356 160.734 88.535C160.104 89.1754 159.13 89.5289 158.203 89.447L156.774 89.3138C156.763 89.3701 156.748 89.4214 156.733 89.4777C156.471 90.4153 155.846 91.5271 154.837 92.3007L152.952 99.8884L160.293 133.938C160.304 133.974 160.309 134.01 160.314 134.051L162.133 144.523C162.158 144.682 162.174 144.841 162.174 145.005V152.049C162.174 152.1 162.174 152.152 162.174 152.203C162.22 154.355 161.559 156.225 160.252 157.613C158.726 159.258 156.43 160.103 153.438 160.134H153.331C152.711 160.134 152.188 160.021 151.855 159.939C151.824 159.929 151.789 159.924 151.758 159.913C151.317 159.796 139.021 156.542 135.763 155.789C135.717 155.779 135.665 155.769 135.619 155.753C133.293 155.092 128.257 153.709 125.116 152.935L122.201 166.277C122.201 166.277 120.526 174.576 113.169 176.667C111.36 177.712 109.27 178.245 106.939 178.245L106.959 178.224ZM106.488 172.614C107.784 172.665 108.886 172.491 109.839 172.076C108.215 172.404 106.088 172.353 103.614 171.19C103.598 171.185 103.527 171.149 103.511 171.144C101.698 170.252 85.5027 162.398 75.1382 160.784C75.0972 160.779 75.0562 160.769 75.0152 160.764C74.882 160.738 61.8329 158.12 54.1222 157.751C53.4716 157.9 52.6262 158.064 51.704 158.156C53.1693 158.325 55.0803 158.592 55.7002 158.684C66.2389 159.898 74.9896 161.953 76.2141 162.25C83.0947 163.474 94.3046 168.362 96.4923 169.335C102.512 171.989 105.909 172.537 106.483 172.614H106.488ZM115.454 164.34C115.152 166.389 114.66 168.157 113.983 169.602C113.845 169.894 113.661 170.155 113.435 170.386C115.941 168.567 116.73 165.139 116.74 165.098L120.254 148.996C120.439 148.161 120.992 147.454 121.756 147.08C122.319 146.803 122.954 146.726 123.559 146.854C123.646 146.869 123.738 146.885 123.841 146.9C123.723 146.869 123.605 146.839 123.482 146.808C122.027 146.429 121.13 144.969 121.448 143.498L127.786 114.454C128.062 113.194 129.159 112.287 130.44 112.251L147.377 110.888C148.382 110.806 149.299 111.257 149.857 112.015L147.357 100.426C147.265 100.006 147.275 99.5758 147.377 99.1608L149.719 89.7236C149.924 88.8885 150.497 88.2071 151.261 87.8587V86.2449C151.261 85.4815 151.573 84.7489 152.122 84.2263C151.753 83.5807 151.655 82.8174 151.855 82.095L158.951 56.3194C158.941 56.217 158.931 56.1196 158.931 56.0171C158.48 56.8727 157.609 57.4363 156.64 57.4978C155.544 57.6669 154.637 57.9077 154.442 57.964C154.156 58.0511 153.858 58.0819 153.561 58.0819L103.086 56.6524C102.225 56.6268 101.421 56.2067 100.909 55.5099C100.396 54.8132 100.237 53.9217 100.468 53.0917L100.842 51.7648C101.006 51.1807 101.354 50.6735 101.826 50.3097C101.6 49.9767 101.457 49.5976 101.39 49.2031L100.289 53.3632C100.109 54.0344 99.6995 54.5929 99.1564 54.9617L92.1784 78.8109C91.7942 80.1276 90.5133 80.9678 89.1505 80.8039L65.5575 77.9041C65.7625 78.3703 65.8393 78.8929 65.7625 79.4155L65.6395 80.2967C66.1057 80.0764 66.6386 79.9483 67.238 79.9483C67.3302 79.9483 67.4685 79.9483 67.5608 79.9637L76.1936 80.8141C77.2183 80.9166 78.0892 81.5673 78.4889 82.4895C78.5503 82.3973 78.6221 82.3102 78.6938 82.2231C79.2881 81.5468 80.1693 81.1933 81.071 81.2804L87.7826 81.931C88.6126 82.013 89.3657 82.4587 89.8319 83.1504C90.2982 83.842 90.4314 84.7079 90.2008 85.5071L87.4957 94.7445C87.5469 94.8162 87.5982 94.8931 87.6443 94.9699C88.0644 95.6821 88.1464 96.5479 87.8697 97.3267L87.2498 99.0686L87.3471 99.2838C87.4803 99.581 87.5572 99.8884 87.5828 100.206C87.5982 100.16 87.6135 100.109 87.6289 100.063L88.8073 96.7221C89.2428 95.4925 90.4724 94.724 91.7634 94.8675L127.14 98.8637C127.934 98.9559 128.652 99.3811 129.113 100.032C129.574 100.688 129.733 101.507 129.548 102.286L128.728 105.785C128.4 107.184 127.068 108.101 125.649 107.922L98.2496 104.448C95.2115 104.177 93.0597 103.91 92.1528 103.792H90.2725C89.3657 103.792 88.5101 103.352 87.9875 102.609C87.6904 102.194 87.5213 101.712 87.4803 101.215C87.4035 101.471 87.2908 101.723 87.1422 101.953C86.6247 102.747 85.7435 103.229 84.7906 103.229C84.4832 103.229 84.2168 103.188 84.0477 103.152C83.2228 102.983 82.5363 102.455 82.1469 101.738C82.0701 101.876 81.983 102.004 81.8805 102.132C81.3426 102.798 80.5587 103.172 79.6775 103.172L61.7765 103.024C60.9107 103.019 60.1012 102.609 59.5786 101.927C59.1943 101.43 58.9997 100.821 58.9997 100.206L58.7896 100.944C58.4412 102.153 57.3602 102.998 56.0742 102.973L51.7143 102.937C51.2019 103.464 50.4898 103.787 49.7059 103.787H46.6678C46.427 103.854 46.1401 103.972 45.9812 104.074C45.9812 104.1 45.971 104.12 45.9659 104.146C46.1657 104.223 46.5192 104.315 47.0623 104.361C48.8144 104.51 51.4273 104.817 54.6243 105.242C55.4287 105.35 56.1511 105.806 56.5968 106.487C57.0425 107.169 57.1706 108.009 56.9452 108.793L45.8378 147.525C45.8275 147.566 45.8122 147.607 45.7968 147.648C45.3306 149.032 45.0232 150.2 44.8234 151.173C45.0334 150.671 45.3203 150.133 45.6943 149.569C45.848 149.339 46.0325 149.134 46.2425 148.96L46.9547 148.371L53.9583 120.238C54.1581 119.424 54.7012 118.778 55.3979 118.425C55.07 117.81 54.983 117.093 55.1571 116.416L57.2833 108.111C57.6368 106.728 58.974 105.831 60.3881 106.031C66.4797 106.892 74.2928 108.06 82.9769 109.408C84.0631 109.577 84.9443 110.36 85.2414 111.411C85.3285 111.283 85.4259 111.16 85.5335 111.042C86.1636 110.36 87.091 110.038 88.0132 110.186C95.319 111.324 101.124 112.256 102.84 112.533L103.337 112.615C103.368 112.615 103.399 112.625 103.424 112.625C104.505 112.794 108.035 113.245 111.97 112.953C112.754 112.902 113.512 113.163 114.081 113.696C114.091 113.706 114.101 113.716 114.111 113.721L123.287 113.091C124.169 113.025 125.034 113.394 125.613 114.07C126.187 114.746 126.408 115.658 126.208 116.524L123.564 127.908C123.38 128.743 122.837 129.409 122.135 129.778C122.165 129.819 122.191 129.855 122.222 129.896C122.652 130.531 122.801 131.32 122.632 132.068L120.116 143.365C119.926 144.738 118.748 145.778 117.344 145.778H117.334C117.15 145.778 116.97 145.758 116.796 145.727C112.564 145.04 107.092 144.677 103.311 144.487C106.15 144.856 110.535 145.491 116.309 146.367C117.022 146.465 117.688 146.828 118.138 147.392C118.671 148.058 118.902 148.924 118.712 149.754L115.459 164.35L115.454 164.34ZM76.0604 155.267C87.009 156.988 102.902 164.612 105.981 166.123C107.513 166.845 108.619 166.681 109.224 166.461C109.47 165.759 109.736 164.776 109.926 163.443C109.936 163.372 109.946 163.3 109.967 163.233L112.585 151.47C103.101 150.051 100.468 149.769 99.7507 149.718C98.6134 149.672 90.9335 149.113 87.3215 142.53C87.2856 142.468 87.2549 142.402 87.2242 142.335C86.9885 141.818 85.0775 136.423 83.4073 128.226L58.7691 124.117L52.2215 150.42C52.2061 150.487 52.1907 150.548 52.1754 150.609C52.0012 151.219 51.6374 151.783 51.1507 152.187L50.6281 152.623C51.3607 152.582 52.2573 152.459 53.0976 152.254C53.4972 152.146 53.7943 152.152 54.0249 152.157C61.8841 152.474 75.0357 155.072 76.0655 155.277L76.0604 155.267ZM44.5416 155.031C44.5518 155.062 44.5621 155.098 44.5672 155.128C44.9156 156.486 45.8275 157.372 47.2928 157.777C46.4065 157.449 45.6328 156.916 45.0949 156.097C44.9053 155.82 44.6799 155.415 44.5211 154.903C44.5313 154.969 44.5364 155.01 44.5416 155.031ZM127.499 142.069C134.282 143.836 147.06 147.192 152.275 148.745L147.926 128.784L145.379 116.672L132.822 117.682L127.504 142.064L127.499 142.069ZM99.0232 138.718C100.181 138.749 108.337 138.979 115.162 139.84L116.519 133.738L94.5044 130.07L96.2771 136.372C96.4206 136.838 97.0456 138.226 98.0395 138.652L99.0232 138.718ZM88.3718 124.721C88.3872 124.762 88.4025 124.803 88.4179 124.844C88.4384 124.819 88.4538 124.798 88.4743 124.772C88.4384 124.757 88.4025 124.737 88.3718 124.721ZM92.0196 119.798L118.671 124.117L119.885 118.937L113.328 119.388C112.472 119.449 111.663 119.162 111.032 118.619C110.433 118.645 109.844 118.66 109.27 118.66C106.196 118.66 103.742 118.348 102.558 118.163C102.435 118.143 102.261 118.117 101.954 118.066C100.576 117.846 96.5486 117.2 91.2306 116.365L92.0145 119.803L92.0196 119.798ZM86.7169 123.143C86.8553 123.194 86.9885 123.251 87.1166 123.323C87.0602 123.184 87.0141 123.036 86.9782 122.887L86.9526 122.779C86.8809 122.908 86.804 123.025 86.7169 123.143ZM61.3461 114.843L80.9173 118.015L80.2103 114.654C73.4372 113.609 67.2585 112.681 62.089 111.938L61.3461 114.843ZM65.4243 97.4599L76.1987 97.5521L73.637 86.1988L68.611 85.7018C68.5291 85.9631 68.4215 86.2193 68.3036 86.4703L65.4243 97.465V97.4599ZM158.193 86.0861C158.223 86.0861 158.259 86.0963 158.29 86.0963L158.193 86.0861ZM159.135 55.6944C159.135 55.6944 159.125 55.7405 159.115 55.7661L159.135 55.6944ZM159.561 54.2342C159.561 54.2342 159.545 54.2496 159.54 54.265C159.545 54.2547 159.556 54.2445 159.561 54.2342ZM158.039 51.3037C158.418 51.5086 158.746 51.7955 158.997 52.1541C159.33 52.6255 159.504 53.1839 159.509 53.7475L160.642 49.6539C160.186 50.6632 159.166 51.3344 158.039 51.3037ZM120.075 50.1355L120.244 50.1458L136.716 50.1202C136.962 49.8794 137.249 49.6847 137.561 49.5515C137.346 49.4234 137.146 49.2646 136.972 49.0853C136.869 49.0955 136.762 49.1006 136.654 49.1006H120.68C120.47 49.4541 120.183 49.7564 119.845 49.9921C119.921 50.0331 119.998 50.0843 120.075 50.1355ZM137.156 49.0596C137.156 49.0596 137.177 49.0596 137.182 49.0648C137.976 48.9828 139.113 48.1989 139.39 46.9027C139.149 48.0042 138.268 48.8598 137.156 49.0596ZM102.415 47.497C102.446 47.538 102.476 47.579 102.507 47.62L102.415 47.497ZM141.972 109.546C141.88 109.546 141.783 109.546 141.685 109.53L132.258 108.567C131.464 108.485 130.742 108.07 130.276 107.425C129.809 106.779 129.635 105.965 129.809 105.186L130.547 101.81C130.665 101.22 130.972 100.672 131.434 100.267C132.033 99.7347 132.827 99.4785 133.621 99.5707L142.469 100.616C143.248 100.708 143.95 101.123 144.411 101.758C144.867 102.394 145.041 103.193 144.882 103.961L144.539 105.627L144.595 105.775C144.934 106.682 144.775 107.696 144.186 108.465C143.653 109.156 142.833 109.551 141.972 109.551V109.546ZM143.484 90.4102C142.367 90.4102 141.357 89.7493 140.912 88.7195C140.466 87.6845 140.681 86.4806 141.46 85.6711L142.356 84.7386C142.884 84.1904 143.612 83.8779 144.375 83.8779H146.009C147.08 83.8779 148.059 84.4876 148.53 85.4559C149.001 86.4242 148.873 87.5667 148.212 88.4121L147.495 89.3291C146.973 89.9952 146.173 90.3897 145.323 90.3999L143.509 90.4204H143.478L143.484 90.4102Z" fill="white"/>
<path d="M164.372 46.7489C164.397 46.6362 164.372 46.5081 164.305 46.4108L162.952 44.6637C162.952 44.6637 162.942 44.6534 162.932 44.6432C162.906 44.6073 162.865 44.5766 162.819 44.551C162.809 44.551 162.794 44.551 162.783 44.5407C162.747 44.5202 162.706 44.5151 162.671 44.5151H159.412C159.243 44.5151 159.084 44.6278 159.048 44.7969L158.085 48.4908L138.98 47.128C138.289 45.9804 136.649 46.2775 136.649 46.2878H119.409C119.342 46.2878 119.276 46.3083 119.225 46.3339C119.199 46.3544 118.579 46.7182 118.261 47.6762L104.157 48.7521L104.772 46.1853C104.797 46.0726 104.772 45.9599 104.705 45.8779L103.286 43.9362C103.286 43.9362 103.26 43.9106 103.25 43.9003C103.224 43.8747 103.194 43.8542 103.168 43.8337C103.148 43.8337 103.132 43.8235 103.112 43.8132C103.076 43.803 103.045 43.7927 103.009 43.7927H100.217C100.048 43.7927 99.8993 43.9054 99.8532 44.0745L97.5836 52.6407C97.3325 52.6407 97.1737 52.651 97.1737 52.651C97.0149 52.6612 96.8868 52.7739 96.8356 52.9225L89.4887 78.0218L61.2335 74.5482H57.268C57.0631 74.5482 56.894 74.7172 56.8837 74.9222L56.8274 77.5095C56.8274 77.6119 56.8632 77.7041 56.9401 77.781C57.0169 77.8578 57.1092 77.8937 57.2116 77.8937H61.1669L61.5767 77.9398L62.9856 79.0208L62.6424 81.4544H61.7355C61.5665 81.4544 61.4179 81.5671 61.3718 81.726L56.0896 100.16L50.7511 100.114C50.413 100.114 49.7828 100.308 49.6957 100.974H46.3706C46.2477 100.995 43.4759 101.471 43.2249 103.495C43.148 103.731 42.8816 104.689 43.4503 105.596C43.9985 106.472 45.1308 106.994 46.8215 107.138C48.4661 107.276 50.9765 107.568 54.2401 108.004L43.1429 146.751C40.9962 153.099 41.8262 155.733 41.857 155.815C42.9021 159.903 46.637 160.707 48.7735 160.81C49.5676 160.856 50.1158 160.81 50.0902 160.81C51.2481 160.877 55.316 161.455 55.3621 161.466C66.5361 162.752 75.5225 164.965 75.6454 164.996C82.7105 166.225 95.2627 171.856 95.3959 171.912C102.369 174.981 106.093 175.396 106.263 175.411C106.498 175.422 106.739 175.432 106.964 175.432C108.932 175.432 110.653 174.966 112.088 174.049C117.877 172.65 119.435 165.954 119.491 165.667L123.001 149.595C123.001 149.595 123.021 149.605 123.026 149.605C125.198 149.887 136.28 153.012 136.408 153.048C139.795 153.832 152.414 157.172 152.547 157.213C152.772 157.27 153.049 157.326 153.351 157.326H153.433C155.616 157.306 157.23 156.768 158.229 155.692C159.059 154.805 159.453 153.591 159.386 152.1C159.386 152.08 159.397 152.064 159.397 152.044V144.999L157.578 134.527L150.103 99.8421L152.444 90.4049C153.648 90.1539 154.043 88.7911 154.058 88.7245C154.058 88.6988 154.068 88.6579 154.068 88.6322V86.2499L158.485 86.6598H158.521C158.613 86.6598 158.705 86.6239 158.772 86.5573C158.849 86.4804 158.895 86.378 158.895 86.2755V83.6831C158.895 83.4884 158.756 83.3296 158.557 83.3091L154.56 82.8429L161.83 56.4371C161.851 56.3705 161.851 56.3039 161.83 56.2425C161.805 56.1605 161.764 56.0734 161.738 55.9914C161.774 55.9453 161.815 55.9094 161.83 55.8531L164.351 46.754L164.372 46.7643V46.7489ZM84.3244 96.1174C84.3807 96.2097 84.4832 96.2763 84.5857 96.2865C84.5857 96.2865 84.8367 96.3224 85.2312 96.389L84.2885 99.0378L80.8046 84.0673L87.5162 84.7231L84.268 95.7998C84.2424 95.9023 84.2578 96.015 84.3141 96.1072L84.3244 96.1174ZM156.466 54.6952C155.093 54.8899 153.925 55.1973 153.648 55.2844L103.173 53.855L103.547 52.528L104.603 52.9276C104.603 52.9276 104.695 52.9533 104.741 52.9533H104.751L118.451 52.4665C118.451 52.4665 118.487 52.4563 118.518 52.4461C119.107 52.8662 119.814 52.9328 120.116 52.9328H120.249L137.254 52.9072C137.356 52.9072 137.448 52.8713 137.515 52.7944C138.027 52.7483 138.422 52.5075 138.683 52.1028L156.717 53.7525L156.476 54.6952V54.685L156.466 54.6952ZM155.708 152.203C155.344 152.602 154.074 152.336 153.279 151.998C150.805 151.009 127.427 144.933 124.184 144.092L130.522 115.048H130.568L147.603 113.675L150.656 128.179L155.472 150.271C155.472 150.271 155.81 151.24 155.708 152.213V152.203ZM111.437 168.423C111.017 168.741 108.517 170.401 104.802 168.659C104.623 168.577 86.9731 159.79 75.5686 158.018C75.4302 157.992 61.7714 155.256 53.9071 154.939C53.8712 154.939 53.8302 154.939 53.8046 154.949C52.3496 155.313 48.3636 155.968 47.4414 154.554C47.4055 154.518 46.4424 153.499 48.0306 151.122L49.3678 150.02C49.4241 149.974 49.4703 149.897 49.4908 149.836V149.825L56.689 120.92L85.7897 125.771C87.5521 135.142 89.7397 141.07 89.7859 141.172C92.783 146.634 99.6329 146.905 99.9147 146.91C101.006 146.987 104.674 147.423 115.93 149.134H115.987L112.713 163.833C112.385 166.118 111.852 167.578 111.463 168.418L111.452 168.428L111.437 168.423ZM82.5466 112.169L84.4986 121.417L57.8674 117.103L59.9936 108.798C66.2748 109.684 74.2468 110.878 82.5415 112.169H82.5466ZM112.17 115.745C112.17 115.745 112.19 115.781 112.206 115.801L112.831 116.462C112.908 116.539 113 116.585 113.102 116.585H113.128L123.472 115.878L121.335 124.987L120.823 127.293L89.7039 122.252L87.5777 112.948C96.313 114.31 102.902 115.376 102.912 115.376C102.948 115.376 105.617 115.853 109.27 115.853C110.187 115.853 111.166 115.817 112.175 115.74V115.75L112.17 115.745ZM117.329 142.97C109.915 141.756 98.9669 141.505 98.8747 141.505L97.4863 141.413C94.5762 140.603 93.5823 137.155 93.5771 137.12L90.6107 126.571L119.891 131.453L117.324 142.97H117.334H117.329ZM133.278 102.332L142.126 103.377L141.649 105.703V105.77C141.649 105.816 141.649 105.852 141.66 105.903V105.929L141.957 106.733L132.53 105.77L133.278 102.353V102.332ZM126.807 101.64L125.987 105.14L98.5365 101.656C94.7658 101.318 92.3936 100.995 92.3219 100.985H90.2572L91.4356 97.6442L126.812 101.64H126.807ZM84.7752 100.426C84.7086 100.426 84.642 100.416 84.5959 100.406L84.4115 99.6116L84.7752 100.421V100.426ZM145.277 87.5717L143.468 87.5922L144.365 86.6598H145.999L145.282 87.5768L145.277 87.5717ZM65.66 85.425C65.8855 85.051 66.034 84.6053 66.0596 84.0878C66.0596 84.0315 66.2441 82.7455 67.2278 82.7455H67.2739L75.9067 83.596L79.6877 100.37L61.7868 100.221L65.66 85.425Z" fill="black"/>
<path d="M106.959 176.359C106.724 176.359 106.467 176.349 106.222 176.339C105.735 176.288 101.882 175.785 95.0168 172.763C93.6744 172.168 82.0598 167.06 75.4814 165.913C74.4414 165.662 65.7676 163.602 55.2545 162.393C55.029 162.357 51.3095 161.835 50.1209 161.753C49.8186 161.788 49.3831 161.788 48.7171 161.747C44.6594 161.553 41.8262 159.478 40.9501 156.055C40.8681 155.815 40.0535 152.981 42.2566 146.459L53.0514 108.798C50.4027 108.449 48.2406 108.203 46.7446 108.075C44.7567 107.911 43.3837 107.245 42.6613 106.103C41.9594 104.981 42.1592 103.828 42.3129 103.305C42.7125 100.636 46.0837 100.088 46.2323 100.062L46.3757 100.052H49.0757C49.46 99.4886 50.126 99.1914 50.7562 99.1914L55.3928 99.2324L60.4803 81.48C60.6442 80.9216 61.1617 80.5322 61.7406 80.5322H61.838L61.9917 79.4358L61.2181 78.8415L61.1156 78.8312H57.2116C56.8632 78.8312 56.5302 78.6929 56.2843 78.447C56.0332 78.1959 55.8949 77.8681 55.8949 77.5145L55.9513 74.9068C55.9871 74.1741 56.5609 73.6208 57.268 73.6208H61.3513L88.8175 77.0022L95.939 52.6663C96.0773 52.2206 96.4257 51.8876 96.8458 51.7697L98.9464 43.8388C99.1052 43.2599 99.6278 42.8654 100.212 42.8654H102.973C103.127 42.8654 103.229 42.8858 103.296 42.9012H103.44L103.675 43.0549C103.752 43.1062 103.824 43.1574 103.901 43.2342L104.039 43.3879L105.458 45.3297C105.684 45.6217 105.771 46.0265 105.678 46.4107L105.361 47.7274L117.621 46.795C117.995 46.0726 118.487 45.6986 118.707 45.5551L118.804 45.4988C118.994 45.4065 119.199 45.3553 119.404 45.3553H136.552C137.12 45.258 138.555 45.2426 139.462 46.2263L157.373 47.502L158.142 44.5561C158.259 44.0027 158.797 43.5775 159.407 43.5775H162.645C162.758 43.5775 162.86 43.5877 162.957 43.6134H163.07L163.29 43.7414C163.413 43.8132 163.516 43.8951 163.603 43.9874L163.69 44.0847L165.043 45.8318C165.294 46.1904 165.371 46.6003 165.273 46.9692L164.981 48.1168L164.94 48.0963L162.742 56.0324C162.793 56.2629 162.783 56.4781 162.727 56.683L155.749 82.0231L158.664 82.3612C159.315 82.4227 159.822 82.9812 159.822 83.6626V86.2601C159.822 86.6085 159.678 86.9517 159.427 87.1977C159.192 87.4333 158.859 87.5717 158.516 87.5717H158.393L154.996 87.254L154.95 88.955C154.898 89.1292 154.478 90.5176 153.223 91.1017L151.056 99.837L158.49 134.307L160.329 144.979V152.162C160.38 153.842 159.904 155.251 158.91 156.312C157.742 157.572 155.897 158.217 153.438 158.238C152.931 158.238 152.562 158.161 152.321 158.1C152.198 158.064 139.559 154.718 136.198 153.939C134.876 153.56 126.746 151.296 123.718 150.661L120.403 165.851C120.393 165.903 118.815 173.26 112.462 174.904C110.899 175.862 109.05 176.349 106.97 176.349L106.959 176.359ZM49.1116 159.821L50.1414 159.877C51.3197 159.944 55.3928 160.518 55.5414 160.543C66.0955 161.758 74.8718 163.843 75.835 164.073C82.6029 165.252 94.4122 170.447 95.7392 171.036C102.384 173.962 105.976 174.433 106.365 174.479C106.519 174.479 106.749 174.489 106.964 174.489C108.742 174.489 110.3 174.074 111.586 173.255L111.719 173.173L111.867 173.137C117.139 171.861 118.559 165.549 118.574 165.482L122.34 148.242L123.287 148.693C125.859 149.088 136.562 152.116 136.67 152.146C140.03 152.92 152.731 156.286 152.808 156.312C152.936 156.342 153.146 156.388 153.356 156.388C155.36 156.373 156.743 155.922 157.552 155.051C158.208 154.349 158.516 153.371 158.459 152.136V152.003L158.469 151.941V145.071L156.666 134.676L149.15 99.8165L151.686 89.6005L152.26 89.4827C152.803 89.37 153.075 88.7347 153.146 88.5297V85.2201L157.967 85.6709V84.1749L153.382 83.6369L160.893 56.3602C160.882 56.3295 160.872 56.2988 160.862 56.268L160.708 55.7864L160.99 55.438L163.398 46.7437L162.394 45.4526H159.858L158.813 49.4796L138.447 48.0246L138.196 47.6096C138.058 47.3841 137.817 47.2714 137.576 47.2202H119.614C119.481 47.3483 119.286 47.5788 119.158 47.9682L118.963 48.5574L102.963 49.7767L103.819 46.2211L102.727 44.7303H100.663L98.3213 53.5783H97.6399L90.1854 79.0464L61.2027 75.4857H57.8315L57.8008 76.9612H61.3L61.9661 77.0432L64.0103 78.6161L63.4774 82.392H62.1761L56.812 101.102L50.7613 101.051C50.7306 101.051 50.6537 101.077 50.6332 101.097L50.5308 101.912H46.4782C46.1349 101.979 44.3213 102.409 44.1727 103.613L44.1368 103.782C44.0805 103.956 43.9268 104.566 44.2649 105.099C44.7516 105.872 45.9761 106.128 46.9188 106.205C48.6402 106.354 51.2224 106.656 54.3886 107.076L55.4594 107.22L44.0395 147.008C42.0106 153.002 42.733 155.502 42.7433 155.528C43.6603 159.109 46.9393 159.785 48.8144 159.877C48.9169 159.883 49.0194 159.888 49.1116 159.893V159.821ZM158.444 84.2261C158.444 84.2261 158.459 84.2261 158.469 84.2261H158.444ZM160.934 56.1758C160.934 56.1758 160.934 56.1861 160.934 56.1912V56.1758ZM103.952 46.4261C103.952 46.4261 103.967 46.4466 103.972 46.4568L103.952 46.4261ZM103.865 45.9701C103.865 45.9701 103.865 45.9701 103.865 45.9804V45.9701ZM159.96 44.9967L159.95 45.0428C159.95 45.0428 159.96 45.012 159.96 44.9967ZM108.086 170.38C107.026 170.38 105.786 170.15 104.403 169.499C102.492 168.562 86.0612 160.59 75.4251 158.935C75.2509 158.899 61.6689 156.194 53.9327 155.866C52.6262 156.178 48.0869 157.095 46.6934 155.118C46.3757 154.728 45.474 153.258 47.2467 150.599L47.4311 150.399L48.6197 149.421L55.982 119.854L86.5786 124.957L86.7016 125.597C88.3923 134.578 90.4314 140.24 90.6261 140.778C93.3773 145.706 99.6688 145.968 99.9352 145.978C101.129 146.06 104.854 146.511 115.992 148.196H117.083L116.888 149.334L113.615 164.032C113.353 165.877 112.907 167.506 112.298 168.807L112.221 168.977L112.006 169.166C111.652 169.438 110.248 170.38 108.097 170.38H108.086ZM53.9019 154.001C61.9353 154.324 75.6147 157.07 75.7479 157.101C86.389 158.755 102.107 166.297 105.151 167.793C108.081 169.171 110.09 168.182 110.694 167.798C111.048 166.989 111.483 165.667 111.765 163.699L114.834 149.913C103.875 148.258 100.724 147.904 99.8276 147.843C99.5509 147.832 92.1887 147.525 88.9456 141.623C88.8944 141.515 86.7579 135.818 84.975 126.586L57.3653 121.98L50.3719 150.087C50.3002 150.338 50.1465 150.573 49.9467 150.737L48.7171 151.752C47.7078 153.325 48.1228 153.934 48.1228 153.939L48.2048 154.042C48.5941 154.631 51.1968 154.631 53.5638 154.042C53.6662 154.006 53.8148 154.006 53.8917 154.006L53.9019 154.001ZM54.0915 155.83C54.0607 155.84 54.0198 155.845 53.9788 155.856C54.0095 155.851 54.0505 155.84 54.0915 155.83ZM155.016 153.335C154.12 153.335 153.177 152.966 152.916 152.853C150.933 152.059 133.775 147.54 123.953 144.994L123.082 144.769L129.774 114.111H130.527L148.351 112.676L151.573 127.985L156.379 150.025C156.379 150.025 156.389 150.051 156.389 150.061L156.64 149.784V151.373C156.666 151.665 156.671 151.987 156.635 152.31L155.775 152.264L156.394 152.828C156.046 153.212 155.539 153.335 155.011 153.335H155.016ZM125.291 143.411C130.388 144.738 151.24 150.174 153.628 151.127C154.043 151.301 154.468 151.409 154.775 151.45C154.724 150.963 154.596 150.573 154.591 150.568L154.56 150.466L149.744 128.374L146.86 114.669L131.285 115.924L125.285 143.416L125.291 143.411ZM117.339 143.903H116.166L116.202 143.739C108.901 142.668 98.972 142.438 98.8746 142.438L97.2454 142.31C93.7974 141.346 92.6908 137.386 92.6805 137.35L89.3196 125.408L121.023 130.695L118.241 143.175L117.416 142.991L117.339 143.908V143.903ZM98.9515 140.573C99.0693 140.573 109.193 140.808 116.612 141.91L118.774 132.206L91.9171 127.728L94.4891 136.858C94.4993 136.889 95.3498 139.768 97.6655 140.48L98.9566 140.568L98.9515 140.573ZM121.551 128.354L88.9405 123.071L86.3634 111.81L87.7262 112.02C95.027 113.158 100.832 114.09 102.548 114.367L103.137 114.459C104.218 114.628 106.452 114.91 109.275 114.91C110.182 114.91 111.135 114.874 112.108 114.802L113.112 114.725V115.386L113.343 115.632L124.681 114.853L121.551 128.348V128.354ZM90.4826 121.432L120.111 126.232L120.434 124.788L122.283 116.898L113.205 117.523C112.759 117.533 112.436 117.384 112.18 117.128L111.78 116.703C110.925 116.759 110.085 116.785 109.275 116.785C106.329 116.785 103.983 116.488 102.85 116.309C102.917 116.309 102.686 116.283 102.251 116.211C100.642 115.955 95.4522 115.12 88.797 114.08L90.4775 121.427L90.4826 121.432ZM85.6974 122.559L56.7146 117.866L59.3019 107.758L60.1268 107.875C66.2133 108.736 74.011 109.899 82.69 111.247L83.3253 111.344L85.6923 122.554L85.6974 122.559ZM59.0304 116.35L83.3099 120.284L81.7729 112.994C73.7446 111.749 66.4951 110.668 60.7006 109.843L59.0355 116.35H59.0304ZM143.366 107.809L131.408 106.59L132.356 102.25V101.302L133.401 101.405L143.258 102.568L142.608 105.744V105.77L143.371 107.809H143.366ZM133.678 104.945L140.727 105.662L140.748 105.514L141.019 104.187L134.026 103.362L133.678 104.945ZM126.715 106.175L98.4289 102.588C95.2678 102.306 93.0545 102.03 92.2502 101.922H88.9507L90.8105 96.64L127.97 100.836L126.715 106.18V106.175ZM91.5841 100.057H92.4397C93.2851 100.175 95.4625 100.452 98.6236 100.734L125.275 104.115L125.665 102.455L92.0708 98.6637L91.579 100.062L91.5841 100.057ZM84.0938 102.353L79.5955 83.0119L88.7253 83.8982L85.3388 95.4565C85.3388 95.4565 85.3644 95.4565 85.3797 95.4616L86.4813 95.6461L85.1953 99.258L85.2773 99.2324L86.2302 101.359H84.7906C84.6625 101.359 84.5446 101.343 84.4627 101.328L84.0989 102.347L84.0938 102.353ZM84.6676 95.3592C84.6676 95.3592 84.6983 95.3592 84.724 95.3643C84.7086 95.3643 84.6881 95.3592 84.6676 95.3592ZM82.0035 85.1278L83.9555 93.5301L86.2968 85.548L82.0035 85.1278ZM80.8661 101.323L60.5879 101.154L64.8659 84.9588C65.0247 84.6924 65.1169 84.385 65.1374 84.0519C65.1374 83.5191 65.6549 81.8284 67.238 81.8284H67.3763L76.6803 82.7506L80.8661 101.328V101.323ZM63.001 99.3041L78.5298 99.4322L75.1587 84.4669L67.197 83.6831C67.1509 83.7292 67.033 84.0007 67.0023 84.1954C66.9562 84.7948 66.8076 85.3174 66.5463 85.7887L63.0061 99.3041H63.001ZM141.26 88.5554L143.97 85.7324H147.92L145.738 88.5092L141.255 88.5554H141.26ZM155.523 62.083V55.8018C154.729 55.9555 154.109 56.1195 153.904 56.1809L153.761 56.2219H153.612L101.938 54.7566L102.912 51.2984L104.828 52.0259L118.307 51.5494L118.63 51.4623L119.05 51.698C119.476 52.0003 120.039 52.0105 120.106 52.0105L136.987 51.9849L137.054 51.9132L137.423 51.8773C137.643 51.8568 137.781 51.7749 137.894 51.6058L138.201 51.1344L157.885 52.9379L155.534 62.083H155.523ZM135.911 53.8498L152.547 54.3212L139.062 53.0864C138.729 53.399 138.319 53.6039 137.853 53.6961C137.669 53.7935 137.459 53.8498 137.238 53.8498H135.911Z" fill="black"/>
<path d="M162.374 44.9097L163.726 46.6567L161.205 55.7558L160.924 55.8121C160.652 55.4586 160.222 55.2332 159.709 55.1051L159.73 55.0385L162.374 44.9097Z" fill="#909BA2"/>
<path d="M162.374 44.9097L159.73 55.0385L159.709 55.1051C158.792 54.8643 157.588 54.9002 156.487 55.0385L156.897 53.4503L157.296 51.9184L158.08 48.911L159.125 44.9045H162.363L162.374 44.9097Z" fill="#DEE5EE"/>
<path d="M161.205 56.3449L153.812 83.181L146.507 82.3305V82.2844L153.423 56.5498V55.6635C153.423 55.6635 154.853 55.2434 156.492 55.0384C157.594 54.9001 158.797 54.8591 159.715 55.105C160.227 55.2383 160.657 55.4586 160.929 55.8121C161.062 55.9606 161.154 56.14 161.211 56.3449H161.205Z" fill="#C6CB8C"/>
<path d="M158.741 145.071V152.054C158.664 150.768 158.254 149.728 158.254 149.728L145.215 87.956L146.522 86.2858L147.285 89.8311L149.442 99.8473L156.938 134.614L158.746 145.066H158.736L158.741 145.071Z" fill="#909BA2"/>
<path d="M158.736 152.054C158.849 154.155 158.065 156.916 153.157 156.952C152.885 156.962 152.624 156.916 152.362 156.85C150.18 156.271 139.324 153.407 136.214 152.684C136.214 152.684 125.014 149.518 122.791 149.231L122.417 149.149L122.975 146.593C126.735 147.458 149.96 153.632 149.96 153.632L152.45 154.39C153.085 154.585 153.792 154.595 154.402 154.324C155.334 153.904 155.698 153.13 155.8 152.362C155.949 151.24 155.559 150.138 155.559 150.138L150.754 128.092L147.628 113.235L146.604 108.342L146.435 107.578L146.127 106.093L145.492 103.07L143.412 93.1869L142.602 89.3341L142.321 87.9918L145.215 87.9662L158.254 149.738C158.254 149.738 158.664 150.773 158.741 152.064L158.736 152.054Z" fill="#DEE5EE"/>
<path d="M153.812 83.181L158.249 83.6934V86.2858L153.423 85.84L146.619 85.1945L133.749 83.9905L132.914 83.9188V80.7423L146.507 82.3305L153.812 83.181Z" fill="#546614"/>
<path d="M158.09 48.9161L157.306 51.9235L157.122 51.8774L135.906 50.1611L135.45 50.2841C135.338 49.8639 135.312 49.4182 135.291 48.9315C135.266 48.1835 135.45 47.6711 135.676 47.3279L158.095 48.9264L158.09 48.9161Z" fill="#DEE5EE"/>
<path d="M157.307 51.9236L156.907 53.4554L156.692 53.3991L138.202 51.7084L136.373 51.5393L136.296 51.6162C136.163 51.483 136.034 51.3344 135.901 51.1858C135.666 50.904 135.527 50.5966 135.445 50.279L135.901 50.156L157.117 51.8723L157.302 51.9184L157.307 51.9236Z" fill="#909BA2"/>
<path d="M152.864 152.351C152.864 152.351 155.196 153.33 155.805 152.362C155.703 153.125 155.339 153.904 154.407 154.324C153.802 154.595 153.09 154.585 152.455 154.39L149.965 153.632C149.965 153.632 126.741 147.464 122.98 146.593L123.467 144.369C123.467 144.369 150.262 151.306 152.87 152.351H152.864Z" fill="#909BA2"/>
<path d="M153.423 85.84V88.6322C153.423 88.6322 153.049 90.0309 151.866 90.0873L147.367 89.8157L147.285 89.8362L146.522 86.2909L146.624 85.1996L153.428 85.8451L153.423 85.84Z" fill="#313335"/>
<path d="M153.423 55.6635V56.5499L146.517 82.2844V82.3305L132.919 80.7423H127.171V83.9137H128.524C128.524 83.9137 126.879 92.4235 128.923 92.4184L129.102 92.4543L127.022 101.323H126.997L91.1846 97.2702L91.3178 96.0919L102.702 55.7558L102.748 54.2239L153.423 55.6635Z" fill="#C6CB8C"/>
<path d="M151.865 90.0873L149.437 99.8524L147.28 89.8363L147.367 89.8158L151.865 90.0873Z" fill="#C6CB8C"/>
<path d="M146.599 108.342L147.628 113.235L147.357 113.291L130.265 114.674L129.958 114.608L131.188 108.951L146.43 108.383L146.599 108.342Z" fill="#C6CB8C"/>
<path d="M146.619 85.1945L146.517 86.2857H143.94L142.316 87.9867L142.597 89.329L142.316 89.3854L134.692 88.7347L133.468 88.6322L133.749 83.9905L146.619 85.1945Z" fill="#313335"/>
<path d="M146.43 107.578L146.599 108.342L146.43 108.383L131.188 108.951L131.808 106.093L142.27 107.158L146.43 107.578Z" fill="#909BA2"/>
<path d="M146.122 106.093L146.43 107.578L142.269 107.158V107.148L141.757 105.785L146.122 106.093Z" fill="#909BA2"/>
<path d="M145.487 103.07L146.122 106.093L141.752 105.785L142.31 103.07C142.31 103.07 144.252 102.829 145.482 103.07H145.487Z" fill="#DEE5EE"/>
<path d="M143.407 93.1869L145.487 103.07C144.257 102.829 142.316 103.07 142.316 103.07L132.914 101.948L132.719 101.902L135.061 91.1786L134.164 90.5996L134.303 90.3742L134.656 89.0114L134.682 88.7296L142.305 89.3854L142.587 89.329L143.397 93.1818L143.407 93.1869Z" fill="#C6CB8C"/>
<path d="M135.671 47.3177C135.445 47.6609 135.261 48.1784 135.286 48.9213C135.307 49.408 135.333 49.8537 135.445 50.2738C135.527 50.5915 135.671 50.8989 135.901 51.1807C136.034 51.3293 136.162 51.4778 136.296 51.611L136.373 51.5342L138.202 51.7033C137.961 52.2617 137.495 52.441 136.977 52.4205C135.942 52.3847 134.728 51.5905 134.728 51.5905H118.569V51.1807C118.477 50.8989 118.4 50.6376 118.343 50.3866C118.092 49.3773 118.118 48.6241 118.262 48.0606C118.502 47.0359 119.122 46.6875 119.122 46.6875H136.362C136.362 46.6875 135.978 46.8361 135.671 47.3125V47.3177Z" fill="#C6CB8C"/>
<path d="M136.977 52.4256V52.528L119.962 52.5536C119.962 52.5536 118.907 52.6356 118.256 52.0054C118.133 51.8927 118.031 51.7544 117.949 51.5956H134.733C134.733 51.5956 135.947 52.3897 136.982 52.4256H136.977Z" fill="#C6CB8C"/>
<path d="M135.061 91.1786L132.72 101.902L131.802 106.093L131.188 108.946L129.958 114.602L123.462 144.369L122.975 146.593L122.417 149.149L118.83 165.585C118.83 165.585 117.329 172.343 111.673 173.685C114.967 171.559 115.613 167.691 115.613 167.691L133.15 89.9285L134.169 90.5894L135.066 91.1683L135.061 91.1786Z" fill="#909BA2"/>
<path d="M133.467 88.6323L134.692 88.7348L134.666 89.0166L134.313 90.3794L134.174 90.6048L133.155 89.9439H129.692L129.102 92.4646L128.923 92.4287C126.879 92.4389 128.523 83.924 128.523 83.924H132.919L133.749 84.0008L133.467 88.6374V88.6323Z" fill="#313335"/>
<path d="M116.146 148.832L116.827 145.809L117.36 143.411L120.086 131.156L120.849 127.729L121.438 125.08L123.677 115.52L125.122 109.361L125.542 107.578L126.018 105.56L127.017 101.323L129.097 92.4543L129.687 89.9336H133.15L115.613 167.696C115.613 167.696 114.967 171.559 111.673 173.69H111.663C110.29 174.587 108.44 175.166 105.986 175.032C105.986 175.032 102.251 174.638 95.2527 171.559C95.2527 171.559 82.6134 165.867 75.4202 164.617C75.4202 164.617 66.4492 162.393 55.1215 161.087C55.1215 161.087 51.0074 160.497 49.8188 160.431C49.8188 160.431 49.286 160.487 48.5021 160.441L48.4099 157.885C48.7276 157.885 49.0708 157.859 49.4295 157.808L51.4634 157.48C51.4634 157.48 74.3699 158.136 95.7138 167.691C95.7138 167.691 107.426 175.094 110.966 169.52C110.966 169.52 111.181 169.258 111.468 168.659C111.878 167.819 112.447 166.297 112.795 163.889L116.146 148.826V148.832Z" fill="#DEE5EE"/>
<path d="M132.914 80.7423V83.9188H128.518H127.166V80.7423H132.914Z" fill="#414C12"/>
<path d="M126.018 105.56L125.542 107.578L89.4836 103.623L87.9825 102.829C87.7878 102.465 87.5419 102.158 87.2755 101.912C87.0962 101.743 86.9015 101.605 86.7068 101.482L87.2089 101.369H92.0607C92.0607 101.369 94.4123 101.697 98.2394 102.04L126.018 105.56Z" fill="#909BA2"/>
<path d="M125.542 107.578L125.122 109.361L124.783 109.279L114.87 109.577C111.657 109.53 111.657 111.032 111.657 111.032C108.035 111.067 103.301 110.678 103.301 110.678L59.8911 104.366L85.7999 103.618L87.2652 101.912C87.5367 102.153 87.7775 102.46 87.9722 102.829L89.4733 103.623L125.531 107.578H125.542Z" fill="#C6CB8C"/>
<path d="M125.122 109.361L123.677 115.52L123.508 115.484L112.841 116.211L112.216 115.55L112.195 115.356C112.99 115.289 113.799 115.197 114.624 115.069C114.624 115.069 115.213 114.264 114.588 111.037H111.668C111.668 111.037 111.668 109.535 114.88 109.582L124.794 109.284L125.132 109.366L125.122 109.361Z" fill="#C6CB8C"/>
<path d="M120.849 127.729L120.085 131.156L89.827 126.104L87.5573 125.73L85.8769 125.449L56.1103 120.484C56.1103 120.484 55.27 120.561 55.4852 119.167C55.4852 119.167 55.5057 119.055 55.5518 118.896C55.6901 118.394 56.1 117.385 57.14 117.41L84.6729 121.873L86.6966 122.2L89.0482 122.574L120.849 127.729Z" fill="#BBC6D2"/>
<path d="M118.569 51.1857V51.5956H117.944C118.026 51.7544 118.128 51.8927 118.251 52.0055L118.159 52.0874L104.459 52.5741L103.019 52.0259L101.892 51.5956L117.949 50.4838L118.349 50.3916C118.405 50.6426 118.482 50.9039 118.574 51.1857H118.569Z" fill="#909BA2"/>
<path d="M118.349 50.3917L117.949 50.4839L101.892 51.5957L102.441 49.1979H103.383L118.261 48.0708C118.123 48.6292 118.092 49.3875 118.343 50.3968L118.349 50.3917Z" fill="#DEE5EE"/>
<path d="M117.355 143.411L116.822 145.809C116.822 145.809 103.773 144.052 98.0448 143.754C98.0448 143.754 94.6583 144.39 91.8097 140.619C91.8097 140.619 91.0361 138.974 90.7851 138.108L87.5369 125.833L87.5574 125.73L89.827 126.104L92.9522 137.232C92.9522 137.232 93.9615 140.901 97.1226 141.787L98.5879 141.889C98.5879 141.889 109.89 142.141 117.36 143.411H117.355Z" fill="#909BA2"/>
<path d="M116.827 145.809L116.146 148.832C114.66 148.606 102.231 146.705 99.6434 146.536C99.6434 146.536 92.7576 146.321 89.8219 140.993C89.8219 140.993 87.6291 135.111 85.8462 125.602L85.8718 125.454L87.5523 125.736L87.5318 125.838L90.78 138.114C91.031 138.979 91.8046 140.624 91.8046 140.624C94.6532 144.395 98.0398 143.759 98.0398 143.759C103.773 144.057 116.817 145.814 116.817 145.814L116.827 145.809Z" fill="#BBC6D2"/>
<path d="M53.1131 103.388L59.8964 104.366L103.307 110.678C103.307 110.678 108.04 111.073 111.663 111.032H114.583C115.208 114.259 114.619 115.064 114.619 115.064C113.799 115.197 112.985 115.289 112.19 115.351C106.98 115.781 102.697 115.007 102.697 115.007C102.697 115.007 95.8623 113.906 86.8759 112.507C86.1484 112.384 85.4107 112.271 84.6627 112.164C84.0069 112.061 83.346 111.959 82.6748 111.856C75.0564 110.673 66.5158 109.382 59.4456 108.383C58.6617 108.27 57.9034 108.168 57.1657 108.065C56.223 107.932 55.3059 107.814 54.4401 107.701C51.0894 107.256 48.3433 106.928 46.5603 106.779C42.2209 106.415 43.3121 103.608 43.3121 103.608C43.4966 101.804 46.1505 101.379 46.1505 101.379H50.9459C50.9459 101.379 52.8211 102.46 53.1029 103.398L53.1131 103.388Z" fill="#DEE5EE"/>
<path d="M111.468 168.669C111.181 169.269 110.966 169.53 110.966 169.53C107.431 175.104 95.7136 167.701 95.7136 167.701C74.3697 158.141 51.4632 157.49 51.4632 157.49L49.4292 157.818C49.0757 157.864 48.7274 157.895 48.4097 157.895C44.8336 157.905 44.06 155.144 44.06 155.144C43.0814 152.259 46.1606 149.247 46.1606 149.247L48.8298 149.744L47.4568 150.881C45.597 153.632 46.8881 154.846 46.8881 154.846C48.1023 156.706 53.6099 155.333 53.6099 155.333C61.546 155.651 75.215 158.402 75.215 158.402C86.7118 160.185 104.357 169.007 104.357 169.007C108.65 171.031 111.468 168.679 111.468 168.679V168.669Z" fill="#DEE5EE"/>
<path d="M102.702 44.1821L104.121 46.1239L103.383 49.1928H102.441L101.892 51.5905L103.019 52.0208L102.461 53.9882V54.2136H102.174C101.744 53.8294 101.155 53.5681 100.53 53.3939L102.702 44.1821Z" fill="#909BA2"/>
<path d="M87.7418 84.4003L88.8433 80.65L89.4888 78.447L96.9279 53.0403C96.9279 53.0403 97.1892 53.0198 97.5991 53.0301C98.3164 53.0403 99.4742 53.1069 100.53 53.3938C101.155 53.5732 101.744 53.8345 102.174 54.2033H102.456L102.753 54.2238L102.707 55.7557L91.3127 96.0969L91.1795 97.2753L90.9182 97.2497L89.6323 97.1011C89.289 96.9218 88.6793 96.7578 87.9877 96.5888C87.1475 96.3941 86.1945 96.2148 85.4773 96.1021C84.8215 95.9893 84.3757 95.9227 84.3757 95.9227L87.7469 84.4055L87.7418 84.4003Z" fill="#C6CB8C"/>
<path d="M102.702 44.1821L100.53 53.3939C99.4743 53.107 98.3164 53.0404 97.5991 53.0301L99.9405 44.1821H102.702Z" fill="#DEE5EE"/>
<path d="M90.913 97.2446L89.4836 101.313V101.369H87.7467V101.313L86.927 99.586L87.9824 96.5786C88.6741 96.7477 89.2786 96.9168 89.627 97.0909L90.913 97.2395V97.2446Z" fill="#909BA2"/>
<path d="M89.4889 78.4471L88.8434 80.6502L61.4591 77.5864L60.916 77.5249V74.9376L89.4889 78.4471Z" fill="#546614"/>
<path d="M86.8554 112.681L89.0789 122.39L89.0533 122.574L86.7017 122.2L86.7222 122.088L84.6575 112.261L84.678 112.159C85.426 112.271 86.1637 112.384 86.8912 112.502L86.8656 112.681H86.8554Z" fill="#909BA2"/>
<path d="M88.8433 80.6501L87.7417 84.4004L80.1438 83.6523L78.156 83.4577L76.0554 83.2527L67.0588 82.3766C65.6499 82.3203 65.4347 84.0468 65.4347 84.0468C65.3988 84.6155 65.2503 85.0254 65.0402 85.3277C64.4715 86.1884 63.493 86.1013 63.493 86.1013C63.2112 86.1013 63.0062 86.0091 62.8372 85.8605C62.3607 85.4506 62.289 84.636 62.289 84.636L62.6886 81.8438L63.1189 78.8671L61.459 77.5863L88.8433 80.6501Z" fill="#313335"/>
<path d="M87.9826 96.5838L86.9272 99.5912L84.3706 99.1915L85.4721 96.1022C86.1894 96.2149 87.1423 96.3891 87.9826 96.5889V96.5838Z" fill="#DEE5EE"/>
<path d="M87.752 101.318V101.374H87.2089L86.7069 101.487C86.1843 101.169 85.6258 101 85.1494 100.908L84.3757 99.1915L86.9323 99.5911L87.752 101.318Z" fill="#909BA2"/>
<path d="M87.2756 101.912L85.8103 103.618L59.9016 104.366L53.1183 103.387C52.8365 102.455 50.9613 101.369 50.9613 101.369H49.7932V101.072C49.8291 100.524 50.4849 100.513 50.4849 100.513L56.1154 100.559L58.6002 100.58L61.0748 100.6L79.8621 100.759L82.0908 100.78L84.0428 100.8C84.0428 100.8 84.5192 100.78 85.1545 100.913C85.631 101.005 86.1895 101.174 86.712 101.492C86.9067 101.615 87.1065 101.753 87.2807 101.922L87.2756 101.912Z" fill="#C6CB8C"/>
<path d="M84.6524 112.266L86.7171 122.093L86.6966 122.206L84.6729 121.878L84.6934 121.755L82.6492 112.077L82.685 111.851C83.3562 111.954 84.0222 112.056 84.6729 112.159L84.6524 112.261V112.266Z" fill="#BBC6D2"/>
<path d="M80.1131 83.9187L84.0376 100.795L82.0856 100.775V100.585L78.1458 83.5908L78.156 83.4576L80.1439 83.6575L80.1131 83.9187Z" fill="#909BA2"/>
<path d="M82.0856 100.585V100.775L79.8518 100.754V100.513L76.0298 83.5141L76.0554 83.2528L78.156 83.4577L78.1457 83.5909L82.0856 100.585Z" fill="#BBC6D2"/>
<path d="M65.0401 85.3278L61.0644 100.513V100.595L58.5898 100.575V100.508L62.8371 85.8555C63.0062 86.004 63.2111 86.0963 63.4929 86.0963C63.4929 86.0963 64.4714 86.1782 65.0401 85.3226V85.3278Z" fill="#909BA2"/>
<path d="M62.8371 85.8606L58.5898 100.513V100.58L56.105 100.559V100.513L61.4538 81.8439H62.6834L62.2837 84.6361C62.2837 84.6361 62.3606 85.4456 62.8319 85.8606H62.8371Z" fill="#DEE5EE"/>
<path d="M60.9159 74.9376V77.5249H56.9402L56.9965 74.9376H60.9159Z" fill="#414C12"/>
<path d="M59.4505 108.383L57.1348 117.42C56.0999 117.395 55.69 118.399 55.5465 118.906L54.363 118.588L57.1706 108.07C57.9084 108.173 58.6615 108.275 59.4505 108.388V108.383Z" fill="#909BA2"/>
<path d="M57.1707 108.065L54.3631 118.583L46.1607 149.236C46.1607 149.236 43.0815 152.249 44.0601 155.133C44.0601 155.133 44.8337 157.895 48.4098 157.885L48.502 160.441C46.5244 160.339 42.9227 159.611 41.9288 155.728C41.9288 155.728 41.0783 153.181 43.2096 146.88L54.4451 107.696C55.311 107.809 56.228 107.932 57.1707 108.06V108.065Z" fill="#DEE5EE"/>
<path d="M56.1102 120.489L48.8299 149.733L46.1606 149.236L54.3631 118.583L55.5466 118.901C55.5005 119.06 55.48 119.173 55.48 119.173C55.2648 120.561 56.1051 120.489 56.1051 120.489H56.1102Z" fill="#909BA2"/>
<path d="M126.992 101.692C126.992 101.692 126.961 101.692 126.946 101.692L89.581 97.4752C89.5349 97.4752 89.4939 97.4547 89.4529 97.4342C89.1148 97.26 88.4436 97.0858 87.8954 96.9526C87.1474 96.7784 86.2201 96.5991 85.4157 96.4761C84.7651 96.3634 84.3194 96.2968 84.3194 96.2968C84.2118 96.2814 84.1144 96.2199 84.0581 96.1277C83.9966 96.0355 83.9812 95.9228 84.012 95.8152L96.5641 52.9328C96.6103 52.774 96.7486 52.6664 96.9125 52.6612C96.9125 52.6612 97.1789 52.651 97.5991 52.651C98.3932 52.6612 99.5613 52.733 100.627 53.0301C101.324 53.2299 101.892 53.5015 102.318 53.8396L102.476 53.8499H102.748L153.372 55.2844C153.664 55.2024 154.96 54.8489 156.446 54.6645C157.399 54.5415 158.751 54.4595 159.807 54.7413C160.442 54.9053 160.918 55.1871 161.226 55.5867C161.38 55.7609 161.497 55.9914 161.569 56.2476C161.59 56.3142 161.59 56.3808 161.569 56.4474L154.176 83.2886C154.12 83.4884 153.915 83.6063 153.71 83.555C153.51 83.4987 153.392 83.2886 153.444 83.0888L160.806 56.3501C160.765 56.2425 160.708 56.1451 160.637 56.058C160.422 55.7762 160.083 55.5867 159.617 55.4637C158.869 55.2639 157.803 55.2434 156.538 55.4074C154.945 55.6072 153.541 56.017 153.525 56.0222C153.49 56.0324 153.444 56.0375 153.408 56.0375L102.143 54.5825C102.061 54.5774 101.985 54.5466 101.923 54.4903C101.575 54.188 101.068 53.937 100.427 53.7576C99.4383 53.4861 98.342 53.4195 97.5939 53.4093C97.4454 53.4093 97.3173 53.4093 97.2097 53.4093L84.8573 95.6102C85.0417 95.641 85.2723 95.6769 85.5387 95.723C86.3533 95.851 87.3063 96.0355 88.0696 96.2148C88.9047 96.4197 89.4068 96.5734 89.7347 96.7271L91.2154 96.8962L127.033 100.939C127.238 100.964 127.391 101.149 127.366 101.359C127.345 101.553 127.181 101.692 126.992 101.697V101.692Z" fill="black"/>
<path d="M100.53 53.773C100.499 53.773 100.473 53.773 100.443 53.7628C100.238 53.7167 100.115 53.5117 100.161 53.3068L102.226 44.5612H100.233L97.9629 53.1275C97.9117 53.3273 97.6965 53.4502 97.5018 53.3939C97.302 53.3426 97.179 53.1326 97.2354 52.9328L99.5768 44.0848C99.6229 43.9208 99.7714 43.803 99.9405 43.803H102.702C102.82 43.803 102.927 43.8542 102.999 43.9464C103.071 44.0387 103.096 44.1565 103.071 44.2692L100.899 53.481C100.858 53.6552 100.704 53.773 100.53 53.773Z" fill="black"/>
<path d="M86.9271 99.9651C86.9271 99.9651 86.8861 99.9651 86.8656 99.9651L84.309 99.5655C84.1963 99.5501 84.099 99.4835 84.0426 99.3862C83.9863 99.2888 83.976 99.171 84.0119 99.0685L85.1134 95.9791C85.1851 95.7793 85.4003 95.6769 85.595 95.7486C85.7897 95.8203 85.8922 96.0355 85.8256 96.2302L84.8777 98.8892L86.6709 99.171L87.6187 96.4607C87.6904 96.266 87.9005 96.1584 88.1003 96.2302C88.295 96.3019 88.4026 96.5171 88.3309 96.7118L87.2755 99.7192C87.2242 99.8729 87.0756 99.9702 86.9168 99.9702L86.9271 99.9651Z" fill="black"/>
<path d="M103.383 49.5719C103.271 49.5719 103.168 49.5258 103.096 49.4387C103.02 49.3465 102.989 49.2235 103.014 49.1057L103.711 46.2058L102.394 44.4075C102.272 44.2385 102.307 44.0028 102.476 43.8798C102.646 43.7569 102.881 43.7927 103.004 43.9618L104.423 45.9036C104.49 45.9907 104.51 46.1085 104.485 46.2161L103.87 48.7829L118.231 47.6916C118.436 47.666 118.62 47.8299 118.635 48.04C118.651 48.2501 118.497 48.4294 118.287 48.4447L103.409 49.5719C103.409 49.5719 103.388 49.5719 103.378 49.5719H103.383Z" fill="black"/>
<path d="M101.892 51.9747C101.78 51.9747 101.677 51.9286 101.605 51.8415C101.529 51.7493 101.498 51.6263 101.524 51.5136L102.072 49.1159C102.113 48.9468 102.261 48.8239 102.441 48.8239H103.383C103.593 48.8239 103.762 48.9929 103.762 49.203C103.762 49.413 103.593 49.5821 103.383 49.5821H102.743L102.374 51.1908L117.918 50.1149C118.154 50.0944 118.308 50.2584 118.323 50.4633C118.338 50.6734 118.179 50.8527 117.975 50.8681L101.918 51.9798C101.918 51.9798 101.903 51.9798 101.892 51.9798V51.9747Z" fill="black"/>
<path d="M118.569 51.5597C118.41 51.5597 118.262 51.4573 118.21 51.3036C118.113 51.0115 118.031 50.7349 117.975 50.4736C117.739 49.5411 117.713 48.6958 117.893 47.9734C118.169 46.8053 118.902 46.38 118.933 46.3647C118.989 46.3339 119.051 46.3186 119.117 46.3186H136.357C136.357 46.3186 138.012 46.006 138.699 47.1639C138.806 47.3432 138.745 47.5738 138.565 47.6814C138.386 47.789 138.155 47.7275 138.048 47.5482C137.638 46.8565 136.439 47.0614 136.429 47.0614H119.235C119.097 47.1793 118.779 47.4969 118.625 48.1476C118.472 48.7522 118.502 49.4694 118.707 50.2943C118.764 50.5453 118.835 50.7912 118.922 51.0577C118.989 51.2575 118.881 51.4675 118.687 51.5341C118.646 51.5495 118.605 51.5546 118.569 51.5546V51.5597Z" fill="black"/>
<path d="M119.829 52.9379C119.496 52.9379 118.61 52.8764 117.99 52.277C117.847 52.1438 117.719 51.9747 117.611 51.7697C117.549 51.6519 117.555 51.5136 117.621 51.3957C117.688 51.2779 117.811 51.2113 117.944 51.2113H134.728C134.8 51.2113 134.871 51.2318 134.933 51.2728C134.943 51.283 136.07 52.0105 136.987 52.0413C137.541 52.072 137.751 51.7697 137.848 51.5494C137.93 51.3599 138.156 51.2677 138.345 51.3548C138.535 51.4367 138.627 51.6622 138.54 51.8517C138.299 52.4102 137.838 52.7381 137.228 52.7893C137.162 52.8559 137.064 52.8969 136.962 52.8969L119.957 52.9225C119.957 52.9225 119.906 52.9225 119.824 52.9225L119.829 52.9379ZM118.866 51.9747C119.363 52.2206 119.932 52.1796 119.937 52.1796L134.938 52.154C134.8 52.0823 134.692 52.0157 134.62 51.9747H118.866Z" fill="black"/>
<path d="M137.535 52.5691C136.803 52.5691 136.326 52.1797 136.029 51.8774C135.901 51.7493 135.778 51.6059 135.65 51.4624C135.363 51.1191 135.189 50.7759 135.081 50.3711C134.958 49.9049 134.928 49.4079 134.912 48.9366C134.887 48.2193 135.035 47.6045 135.353 47.1127C135.717 46.5491 136.173 46.3596 136.224 46.3391C136.419 46.2622 136.639 46.3596 136.711 46.5542C136.787 46.7489 136.69 46.9641 136.5 47.041C136.48 47.0512 136.214 47.169 135.983 47.5226C135.747 47.8863 135.64 48.3525 135.66 48.911C135.681 49.3567 135.701 49.7871 135.809 50.1816C135.886 50.4787 136.014 50.7298 136.193 50.945C136.331 51.1038 136.444 51.2319 136.562 51.3497C136.905 51.693 137.202 51.8262 137.582 51.8159H137.592C137.797 51.8159 137.961 51.9747 137.971 52.1797C137.976 52.3897 137.817 52.5639 137.607 52.5691C137.582 52.5691 137.561 52.5691 137.535 52.5691Z" fill="black"/>
<path d="M104.459 52.9533C104.413 52.9533 104.367 52.943 104.326 52.9276L101.759 51.9491C101.565 51.8774 101.467 51.6571 101.539 51.4624C101.611 51.2677 101.831 51.1703 102.026 51.2421L104.521 52.195L118.144 51.7134C118.344 51.7032 118.528 51.8671 118.533 52.0772C118.543 52.2872 118.379 52.4614 118.169 52.4665L104.469 52.9533H104.454H104.459Z" fill="black"/>
<path d="M102.461 54.3725C102.425 54.3725 102.394 54.3725 102.359 54.3571C102.159 54.3007 102.041 54.0907 102.097 53.8909L102.656 51.9235C102.712 51.7237 102.922 51.611 103.122 51.6622C103.322 51.7186 103.44 51.9286 103.383 52.1284L102.825 54.0958C102.779 54.2598 102.625 54.3725 102.461 54.3725Z" fill="black"/>
<path d="M157.117 52.2514C157.117 52.2514 157.096 52.2514 157.086 52.2514L135.87 50.5351C135.66 50.5197 135.507 50.3353 135.522 50.1252C135.537 49.9151 135.722 49.7563 135.927 49.7768L157.143 51.4931C157.353 51.5085 157.506 51.6929 157.491 51.903C157.476 52.1028 157.312 52.2514 157.117 52.2514Z" fill="black"/>
<path d="M158.09 49.2952C158.09 49.2952 158.075 49.2952 158.065 49.2952L135.645 47.6967C135.44 47.6814 135.266 47.5123 135.276 47.3074C135.281 47.1024 135.43 46.9436 135.635 46.9436H135.671L158.116 48.5421C158.326 48.5575 158.48 48.7368 158.464 48.9468C158.449 49.1466 158.285 49.2952 158.085 49.2952H158.09Z" fill="black"/>
<path d="M159.735 55.4176C159.704 55.4176 159.673 55.4176 159.638 55.4074C159.438 55.3562 159.315 55.1461 159.366 54.9463L161.882 45.2939H159.422L156.856 55.1358C156.804 55.3357 156.599 55.4586 156.394 55.4074C156.195 55.3562 156.072 55.1512 156.123 54.9463L158.767 44.8174C158.808 44.6535 158.961 44.5356 159.13 44.5356H162.368C162.486 44.5356 162.594 44.592 162.665 44.6842C162.737 44.7764 162.763 44.8994 162.732 45.0121L160.088 55.141C160.042 55.31 159.889 55.4228 159.725 55.4228L159.735 55.4176Z" fill="black"/>
<path d="M161.205 56.1348C161.175 56.1348 161.139 56.1348 161.103 56.1195C160.903 56.0631 160.785 55.8531 160.842 55.6532L163.311 46.7335L162.071 45.135C161.943 44.9711 161.974 44.7303 162.138 44.6073C162.302 44.4792 162.538 44.51 162.671 44.6739L164.023 46.421C164.095 46.5132 164.121 46.6362 164.09 46.754L161.569 55.8531C161.523 56.0221 161.369 56.1297 161.205 56.1297V56.1348Z" fill="black"/>
<path d="M156.692 53.773C156.692 53.773 156.671 53.773 156.656 53.773L136.337 51.9184C136.126 51.8979 135.978 51.7134 135.993 51.5085C136.014 51.3036 136.178 51.1447 136.403 51.1652L156.722 53.0199C156.932 53.0404 157.081 53.2248 157.066 53.4298C157.045 53.6244 156.881 53.773 156.692 53.773Z" fill="black"/>
<path d="M146.517 82.4689C146.517 82.4689 146.486 82.4689 146.471 82.4586C146.389 82.4381 146.332 82.3766 146.332 82.2895C146.332 82.2691 146.332 82.2537 146.343 82.2332L146.588 81.3264C146.609 81.2341 146.717 81.1778 146.814 81.1931C146.86 81.2136 146.906 81.2393 146.927 81.2854C146.957 81.3212 146.962 81.3776 146.947 81.4237L146.706 82.3203C146.686 82.4023 146.614 82.4586 146.527 82.4586L146.517 82.4689ZM147.121 80.2197C147.121 80.2197 147.085 80.2095 147.075 80.2095C146.993 80.189 146.937 80.1172 146.937 80.0302V79.9738L147.188 79.0772C147.208 78.9747 147.311 78.9184 147.413 78.944C147.459 78.9542 147.495 78.9901 147.526 79.026C147.557 79.0721 147.557 79.1182 147.547 79.1643L147.306 80.0711C147.285 80.148 147.213 80.2095 147.126 80.2095L147.121 80.2197ZM147.726 77.9603H147.669C147.593 77.9347 147.536 77.8681 147.536 77.781C147.526 77.7605 147.536 77.7451 147.536 77.7246L147.782 76.8178C147.808 76.7256 147.91 76.659 148.018 76.6846C148.064 76.7051 148.1 76.7307 148.131 76.7768C148.156 76.8127 148.156 76.869 148.151 76.9152L147.91 77.8117C147.89 77.8937 147.818 77.9501 147.731 77.9501L147.726 77.9603ZM148.33 75.7112C148.33 75.7112 148.295 75.7009 148.274 75.7009C148.197 75.6804 148.146 75.6087 148.136 75.5319C148.136 75.5114 148.146 75.496 148.146 75.4755L148.387 74.5687C148.417 74.4764 148.52 74.4098 148.622 74.4355C148.669 74.4457 148.704 74.4816 148.735 74.5174C148.756 74.5635 148.766 74.6097 148.756 74.6558L148.51 75.5626C148.484 75.6446 148.417 75.7009 148.33 75.7009V75.7112ZM148.93 73.4518H148.884C148.807 73.4262 148.756 73.3596 148.745 73.2725C148.745 73.252 148.756 73.2366 148.756 73.2161L148.996 72.3093C149.027 72.217 149.124 72.1607 149.222 72.1761C149.324 72.2068 149.381 72.3093 149.36 72.4117L149.119 73.3083C149.089 73.3903 149.017 73.4467 148.935 73.4467L148.93 73.4518ZM149.534 71.2026C149.534 71.2026 149.504 71.1924 149.488 71.1924C149.401 71.1719 149.35 71.1002 149.35 71.0233C149.35 70.9926 149.35 70.9772 149.36 70.967L149.601 70.0601C149.632 69.9679 149.734 69.9013 149.826 69.9269C149.929 69.9577 149.985 70.0601 149.96 70.1523L149.714 71.0592C149.693 71.1411 149.621 71.1975 149.534 71.1975V71.2026ZM150.139 68.9432H150.093C150.011 68.9125 149.954 68.851 149.954 68.7639C149.954 68.7434 149.954 68.7281 149.965 68.7076L150.2 67.811C150.231 67.7085 150.339 67.6419 150.436 67.6778C150.539 67.6983 150.595 67.8007 150.564 67.9032L150.323 68.7998C150.303 68.8818 150.231 68.9381 150.144 68.9381L150.139 68.9432ZM150.743 66.6941C150.743 66.6941 150.708 66.6941 150.697 66.6838C150.615 66.6633 150.559 66.5916 150.559 66.5148C150.559 66.4943 150.559 66.4789 150.569 66.4584L150.805 65.5516C150.836 65.4594 150.928 65.3928 151.041 65.4235C151.133 65.4491 151.199 65.5516 151.174 65.6592L150.933 66.5558C150.913 66.6377 150.841 66.6941 150.754 66.6941H150.743ZM151.343 64.4347H151.297C151.22 64.4142 151.169 64.3425 151.158 64.2554C151.158 64.2349 151.169 64.2195 151.169 64.199L151.41 63.3024C151.44 63.2 151.538 63.1436 151.645 63.1692C151.737 63.1897 151.804 63.2922 151.773 63.3946L151.532 64.3015C151.512 64.3783 151.43 64.4347 151.348 64.4347H151.343ZM151.947 62.1855C151.947 62.1855 151.917 62.1855 151.901 62.1753C151.824 62.1548 151.768 62.0831 151.763 62.0062C151.763 61.9857 151.773 61.9704 151.773 61.9499L152.019 61.043C152.045 60.9508 152.147 60.8842 152.245 60.9098C152.347 60.9354 152.403 61.043 152.383 61.1455L152.142 62.0421C152.111 62.1241 152.04 62.1804 151.958 62.1804L151.947 62.1855ZM152.552 59.9261H152.506C152.424 59.8954 152.368 59.8339 152.368 59.7468C152.368 59.7263 152.368 59.7161 152.378 59.6905L152.619 58.7939C152.649 58.6914 152.752 58.6351 152.844 58.6607C152.89 58.6709 152.936 58.6965 152.957 58.7427C152.987 58.7888 152.993 58.8349 152.977 58.881L152.742 59.7878C152.716 59.8647 152.639 59.921 152.557 59.921L152.552 59.9261ZM153.157 57.677C153.157 57.677 153.121 57.677 153.11 57.6667C153.028 57.6463 152.972 57.5848 152.972 57.4977C152.972 57.4772 152.972 57.4618 152.982 57.4413L153.218 56.5345C153.254 56.4423 153.346 56.3757 153.454 56.4013C153.556 56.4269 153.613 56.5345 153.582 56.637L153.341 57.5335C153.321 57.6155 153.249 57.6719 153.162 57.6719L153.157 57.677Z" fill="black"/>
<path d="M91.6713 95.016C91.6713 95.016 91.6354 95.016 91.6149 95.0057C91.5688 94.9955 91.5329 94.9699 91.5022 94.9238C91.4715 94.8879 91.4715 94.8315 91.4817 94.7854L91.7328 93.8888C91.7584 93.7864 91.8711 93.73 91.9684 93.7556C92.0453 93.7761 92.1016 93.8479 92.1068 93.9247C92.1068 93.9452 92.0965 93.9606 92.0965 93.9811L91.8455 94.8879C91.8147 94.9596 91.743 95.016 91.6662 95.016H91.6713ZM92.3066 92.7771C92.3066 92.7771 92.2707 92.7668 92.2502 92.7668C92.2041 92.7463 92.1682 92.7207 92.1375 92.6849C92.1068 92.6387 92.1068 92.5824 92.117 92.5363L92.3681 91.6397C92.3937 91.5475 92.5064 91.4809 92.6037 91.5116C92.6857 91.5321 92.7318 91.6038 92.7421 91.6909C92.7421 91.7114 92.7318 91.7268 92.7318 91.7473L92.4808 92.6439C92.4551 92.7258 92.3783 92.7822 92.3014 92.7822L92.3066 92.7771ZM92.9316 90.5279C92.9316 90.5279 92.906 90.5279 92.8855 90.5177C92.8394 90.5074 92.7933 90.4716 92.7728 90.4357C92.7472 90.3896 92.7472 90.3435 92.7523 90.2974L93.0033 89.3905C93.0341 89.2983 93.1417 89.242 93.239 89.2676C93.3159 89.2881 93.3722 89.3598 93.3774 89.4367C93.3774 89.4571 93.3671 89.4725 93.3671 89.493L93.1161 90.3998C93.0904 90.4716 93.0136 90.5279 92.9316 90.5279ZM93.5669 88.289C93.5669 88.289 93.531 88.2788 93.5208 88.2788C93.4183 88.248 93.362 88.1456 93.3876 88.0431L93.6386 87.1465C93.6643 87.0441 93.777 86.9877 93.8743 87.0133C93.9512 87.0338 94.0075 87.1055 94.0075 87.1926V87.249L93.7565 88.1456C93.7257 88.2275 93.654 88.2839 93.572 88.2839L93.5669 88.289ZM94.2022 86.0399C94.2022 86.0399 94.1715 86.0399 94.1561 86.0296C94.0536 86.004 93.9973 85.8964 94.028 85.8042L94.2791 84.8974C94.3098 84.8052 94.4123 84.7385 94.5147 84.7642C94.5916 84.7949 94.6479 84.8564 94.6479 84.9435V84.9998L94.3867 85.8964C94.3662 85.9784 94.2944 86.0348 94.2073 86.0348L94.2022 86.0399ZM94.8375 83.7907H94.7914C94.7453 83.7702 94.6992 83.7446 94.6787 83.6985C94.6531 83.6524 94.6531 83.6063 94.6582 83.5602L94.9092 82.6636C94.94 82.5611 95.0424 82.5048 95.1449 82.5304C95.2218 82.5509 95.2781 82.6226 95.2781 82.7097V82.7661L95.0271 83.6626C94.9963 83.7395 94.9246 83.7959 94.8426 83.7959L94.8375 83.7907ZM95.4728 81.5518C95.4728 81.5518 95.4421 81.5518 95.4267 81.5416C95.3806 81.5313 95.3345 81.4955 95.314 81.4494C95.2832 81.4135 95.2832 81.3571 95.2935 81.311L95.5445 80.4144C95.5701 80.3222 95.6726 80.2556 95.7802 80.2812C95.8571 80.312 95.9083 80.3735 95.9083 80.4606V80.5169L95.6572 81.4135C95.6265 81.4955 95.5548 81.5518 95.4728 81.5518ZM96.1081 79.3027C96.1081 79.3027 96.0774 79.3027 96.062 79.2924C96.0159 79.2822 95.9698 79.2566 95.9493 79.2105C95.9237 79.1644 95.9237 79.1182 95.9288 79.0721L96.1798 78.1755C96.2106 78.0731 96.3182 78.0167 96.4155 78.0423C96.4923 78.0628 96.5487 78.1346 96.5487 78.2114V78.2678L96.2977 79.1746C96.272 79.2514 96.1952 79.3078 96.1132 79.3078L96.1081 79.3027ZM96.7434 77.0638C96.7434 77.0638 96.7075 77.0535 96.6973 77.0535C96.5948 77.0279 96.5385 76.9254 96.5641 76.8179L96.8151 75.9213C96.8407 75.8188 96.9483 75.7624 97.0508 75.7881C97.1276 75.8086 97.184 75.8803 97.184 75.9674V76.0237L96.9227 76.9203C96.9022 77.0023 96.8305 77.0587 96.7434 77.0587V77.0638ZM97.3787 74.8146C97.3787 74.8146 97.3479 74.8146 97.3326 74.8044C97.2865 74.7941 97.2404 74.7583 97.2199 74.7224C97.1891 74.6763 97.184 74.6302 97.1994 74.5841L97.4504 73.6772C97.476 73.585 97.5785 73.5287 97.6861 73.5543C97.7629 73.5748 97.8142 73.6363 97.8142 73.7234C97.8142 73.7438 97.8142 73.7592 97.8039 73.7797L97.5529 74.6763C97.5324 74.7583 97.4607 74.8146 97.3736 74.8146H97.3787ZM98.014 72.5655H97.9679C97.9115 72.545 97.8756 72.5194 97.8552 72.4733C97.8295 72.4272 97.8193 72.381 97.8347 72.3349L98.0857 71.4383C98.1164 71.3359 98.2189 71.2795 98.3214 71.3103C98.3982 71.3308 98.4546 71.4025 98.4546 71.4896C98.4546 71.5101 98.4546 71.5254 98.4443 71.5459L98.1933 72.4425C98.1728 72.5142 98.1011 72.5706 98.014 72.5706V72.5655ZM98.6493 70.3266C98.6493 70.3266 98.6134 70.3266 98.6032 70.3163C98.5468 70.3061 98.5109 70.2702 98.4905 70.2241C98.4648 70.1882 98.4546 70.1319 98.47 70.0858L98.721 69.1892C98.7466 69.097 98.8542 69.0304 98.9567 69.056C99.0335 69.0816 99.0899 69.1482 99.0899 69.2353C99.0899 69.2558 99.0899 69.2712 99.0796 69.2917L98.8286 70.1882C98.8081 70.2702 98.7364 70.3266 98.6493 70.3266ZM99.2846 68.0774C99.2846 68.0774 99.2487 68.0774 99.2385 68.0672C99.136 68.0416 99.0796 67.934 99.1104 67.8418L99.3614 66.9452C99.387 66.8427 99.4895 66.7761 99.5971 66.8171C99.6688 66.8376 99.7252 66.9093 99.7252 66.9862C99.7252 67.0067 99.7252 67.022 99.7149 67.0425L99.4639 67.9493C99.4434 68.0262 99.3717 68.0774 99.2846 68.0774ZM99.9199 65.8385C99.9199 65.8385 99.884 65.8283 99.8635 65.8283C99.8174 65.8078 99.7815 65.7822 99.7508 65.7361C99.7303 65.69 99.7201 65.6438 99.7405 65.5977L99.9916 64.7011C100.022 64.6089 100.125 64.5423 100.227 64.5679C100.304 64.5936 100.36 64.6602 100.36 64.7473V64.8036L100.099 65.7002C100.079 65.7822 100.007 65.8385 99.9199 65.8385ZM100.555 63.5894C100.555 63.5894 100.519 63.5894 100.509 63.5791C100.407 63.5535 100.35 63.4459 100.376 63.3537L100.627 62.4469C100.653 62.3547 100.76 62.2983 100.852 62.3239C100.934 62.3444 100.991 62.4161 100.991 62.493C100.991 62.5135 100.991 62.5288 100.98 62.5493L100.729 63.4459C100.709 63.5279 100.637 63.5843 100.55 63.5843L100.555 63.5894ZM101.19 61.3402H101.144C101.088 61.3197 101.052 61.2941 101.032 61.248C101.001 61.2121 100.996 61.1558 101.011 61.1097L101.262 60.2131C101.288 60.1106 101.39 60.0543 101.488 60.0799C101.57 60.1004 101.626 60.1721 101.626 60.2592C101.626 60.2797 101.626 60.2951 101.616 60.3156L101.365 61.2121C101.344 61.289 101.272 61.3454 101.185 61.3454L101.19 61.3402ZM101.826 59.1013C101.826 59.1013 101.79 59.1013 101.769 59.0911C101.723 59.0808 101.687 59.045 101.667 59.0091C101.641 58.963 101.631 58.9169 101.646 58.8605L101.897 57.9639C101.928 57.8717 102.031 57.8051 102.123 57.8307C102.205 57.8615 102.261 57.923 102.261 58.0101C102.261 58.0306 102.261 58.0459 102.251 58.0664L102 58.963C101.979 59.045 101.908 59.1013 101.821 59.1013H101.826ZM102.461 56.8522H102.405C102.312 56.8266 102.256 56.719 102.271 56.6165L102.533 55.7199C102.558 55.6175 102.666 55.5611 102.768 55.5867C102.845 55.6072 102.902 55.6789 102.902 55.766C102.902 55.7865 102.902 55.8019 102.891 55.8121L102.64 56.719C102.62 56.7958 102.548 56.8522 102.461 56.8522Z" fill="black"/>
<path d="M132.919 84.2928H127.171C126.961 84.2928 126.792 84.1237 126.792 83.9136V80.7423C126.792 80.5322 126.961 80.3632 127.171 80.3632H132.919C133.129 80.3632 133.298 80.5322 133.298 80.7423V83.9136C133.298 84.1237 133.129 84.2928 132.919 84.2928ZM127.55 83.5396H132.545V81.1214H127.55V83.5396Z" fill="black"/>
<path d="M158.249 86.6649C158.249 86.6649 158.224 86.6649 158.213 86.6649L132.884 84.2928C132.673 84.2723 132.52 84.0929 132.54 83.8829C132.561 83.6728 132.745 83.5294 132.95 83.5396L157.87 85.8707V84.0263L132.873 81.1163C132.663 81.0907 132.52 80.9062 132.54 80.6962C132.566 80.4861 132.766 80.3427 132.96 80.3632L158.29 83.3142C158.48 83.3347 158.623 83.4986 158.623 83.6882V86.2857C158.623 86.3933 158.577 86.4958 158.5 86.5675C158.429 86.629 158.341 86.6649 158.244 86.6649H158.249Z" fill="black"/>
<path d="M60.9159 77.8989H56.9402C56.8377 77.8989 56.7404 77.8579 56.6686 77.7862C56.5969 77.7145 56.561 77.6171 56.561 77.5146L56.6174 74.9274C56.6174 74.7224 56.7916 74.5585 56.9965 74.5585H60.9159C61.1259 74.5585 61.295 74.7275 61.295 74.9376V77.5249C61.295 77.7349 61.1259 77.904 60.9159 77.904V77.8989ZM57.3244 77.1458H60.5368V75.3167H57.3654L57.3244 77.1458Z" fill="black"/>
<path d="M89.4888 78.8262C89.4888 78.8262 89.4581 78.8262 89.4427 78.8262L60.8698 75.3167C60.6649 75.2911 60.5163 75.1016 60.5419 74.8966C60.5676 74.6917 60.7622 74.5482 60.9621 74.5687L89.5349 78.0782C89.7399 78.1038 89.8885 78.2934 89.8628 78.4983C89.8372 78.6879 89.6784 78.8313 89.4888 78.8313V78.8262Z" fill="black"/>
<path d="M88.8433 81.0291C88.8433 81.0291 88.8126 81.0291 88.8023 81.0291L60.875 77.9039C60.67 77.8783 60.5214 77.6887 60.5471 77.4838C60.5727 77.2789 60.7571 77.1252 60.9672 77.1559L61.5103 77.2225L88.8945 80.2863C89.0995 80.3119 89.2532 80.4963 89.2275 80.7013C89.2071 80.8959 89.0431 81.0394 88.8535 81.0394L88.8433 81.0291Z" fill="black"/>
<path d="M63.5646 86.4805C63.4929 86.4805 63.4673 86.4805 63.457 86.4805C63.1394 86.4805 62.8473 86.3678 62.5912 86.1423C62.0225 85.6505 61.9251 84.7693 61.9149 84.6719L62.7141 79.0363L61.2284 77.8938C61.0644 77.7657 61.0337 77.53 61.1618 77.3661C61.2898 77.2021 61.5255 77.1714 61.6895 77.2995L63.3494 78.5803C63.457 78.6623 63.5134 78.8006 63.4929 78.9338L62.6629 84.7027C62.6834 84.8 62.7961 85.3329 63.0881 85.5839C63.206 85.6915 63.3289 85.7325 63.4929 85.7325C63.5544 85.7325 64.2921 85.7786 64.7276 85.1279C64.9172 84.8513 65.0299 84.4824 65.0555 84.0315C65.1477 83.2938 65.6549 81.9617 67.0741 82.0078L87.7775 84.0367C87.9773 84.0571 88.131 84.2313 88.1208 84.4311C88.1106 84.631 87.9517 84.7898 87.7468 84.7898L67.0177 82.7609C65.9777 82.6995 65.8138 84.0469 65.8035 84.1033C65.7676 84.6719 65.6139 85.1638 65.3475 85.548C64.7737 86.4139 63.8669 86.4907 63.5595 86.4907L63.5646 86.4805Z" fill="black"/>
<path d="M128.918 92.7975C128.6 92.7975 128.319 92.6592 128.098 92.3979C126.833 90.8763 128.006 84.5592 128.144 83.8419C128.185 83.637 128.375 83.4987 128.585 83.5448C128.79 83.5858 128.923 83.7805 128.882 83.9854C128.385 86.5522 127.893 90.9736 128.672 91.9163C128.764 92.029 128.862 92.07 128.908 92.0393C129.118 92.0393 129.287 92.2084 129.287 92.4133C129.287 92.6233 129.102 92.8027 128.903 92.7924L128.918 92.7975Z" fill="black"/>
<path d="M134.308 90.7533C134.277 90.7533 134.246 90.7533 134.21 90.7431C134.011 90.6918 133.888 90.4818 133.939 90.282L134.292 88.9192C134.344 88.7193 134.549 88.5964 134.753 88.6476C134.953 88.6989 135.076 88.9089 135.025 89.1087L134.672 90.4715C134.625 90.6406 134.477 90.7533 134.308 90.7533Z" fill="black"/>
<path d="M133.467 89.0063H130.286C130.076 89.0063 129.907 88.8372 129.907 88.6271C129.907 88.4171 130.076 88.248 130.286 88.248H133.114L133.37 83.9649C133.38 83.7548 133.539 83.596 133.77 83.6114C133.98 83.6216 134.139 83.8009 134.123 84.011L133.841 88.6476C133.831 88.8474 133.662 89.0011 133.462 89.0011L133.467 89.0063Z" fill="black"/>
<path d="M151.881 90.4665L147.342 90.1949C147.132 90.1847 146.973 90.0053 146.988 89.7953C146.998 89.5852 147.162 89.4367 147.388 89.4418L151.886 89.7133C152.649 89.6775 152.977 88.786 153.044 88.5811V85.8452C153.044 85.6351 153.213 85.4661 153.423 85.4661C153.633 85.4661 153.802 85.6351 153.802 85.8452V88.6374C153.802 88.6682 153.802 88.704 153.792 88.7348C153.771 88.8014 153.331 90.405 151.886 90.4716L151.881 90.4665Z" fill="black"/>
<path d="M142.316 89.7645C142.316 89.7645 142.295 89.7645 142.285 89.7645L133.437 89.0114C133.227 88.996 133.073 88.8116 133.094 88.6015C133.109 88.3966 133.278 88.2429 133.503 88.2583L142.352 89.0165C142.562 89.0319 142.715 89.2163 142.695 89.4264C142.679 89.6211 142.51 89.7697 142.321 89.7697L142.316 89.7645Z" fill="black"/>
<path d="M111.673 174.069C111.55 174.069 111.427 174.008 111.355 173.895C111.242 173.721 111.294 173.485 111.468 173.372C114.588 171.359 115.234 167.67 115.239 167.634L132.678 90.3127H129.989L120.454 131.233L113.164 163.976C112.815 166.405 112.236 167.957 111.811 168.828C111.509 169.448 111.283 169.73 111.258 169.76C107.589 175.545 96.0056 168.321 95.5137 168.013C74.5336 158.622 51.6835 157.864 51.453 157.859L49.4907 158.182C49.0809 158.233 48.7325 158.269 48.3943 158.259C44.5928 158.259 43.7116 155.261 43.7014 155.231C42.7382 152.403 45.3357 149.544 45.8276 149.036L56.8171 107.963C56.8735 107.763 57.0784 107.645 57.2782 107.696C57.478 107.747 57.601 107.958 57.5446 108.157L46.5243 149.334C46.509 149.4 46.4731 149.457 46.4219 149.508C46.3911 149.539 43.522 152.392 44.4135 155.015C44.4494 155.133 45.1718 157.51 48.3841 157.51C48.6761 157.51 49.0091 157.49 49.3729 157.439L51.3966 157.111C51.6989 157.111 74.6925 157.869 95.8621 167.347C96.021 167.445 107.344 174.51 110.638 169.32C110.663 169.284 110.858 169.038 111.119 168.5C111.519 167.675 112.072 166.2 112.411 163.843L121.059 124.998L129.312 89.8516C129.353 89.6825 129.507 89.5596 129.681 89.5596H133.145C133.257 89.5596 133.37 89.6108 133.442 89.703C133.514 89.7952 133.539 89.908 133.514 90.0207L115.976 167.783C115.951 167.926 115.269 171.815 111.873 174.008C111.811 174.049 111.739 174.069 111.668 174.069H111.673Z" fill="black"/>
<path d="M106.672 175.432C106.442 175.432 106.206 175.427 105.971 175.411C105.796 175.396 102.077 174.976 95.104 171.907C94.9759 171.851 82.4237 166.215 75.3586 164.991C75.2408 164.96 66.2544 162.752 55.0804 161.466C55.0292 161.461 50.9612 160.877 49.8034 160.815C49.8238 160.815 49.2808 160.871 48.4867 160.825C46.3553 160.713 42.6153 159.918 41.5701 155.83C41.5394 155.748 40.7145 153.115 42.8561 146.767L54.0865 107.604C54.1428 107.404 54.3478 107.286 54.5527 107.343C54.7525 107.399 54.8703 107.609 54.814 107.809L43.5734 146.987C41.524 153.058 42.2823 155.589 42.2925 155.615C43.2199 159.263 46.5961 159.97 48.5225 160.067C49.2654 160.108 49.7726 160.062 49.7829 160.057C51.033 160.123 55.0087 160.687 55.1777 160.713C66.3927 162.004 75.4252 164.227 75.5174 164.248C82.6542 165.488 95.2884 171.159 95.4165 171.215C102.261 174.228 105.996 174.653 106.032 174.658C108.153 174.766 109.982 174.341 111.463 173.372C111.637 173.26 111.873 173.306 111.985 173.48C112.098 173.654 112.052 173.89 111.878 174.003C110.428 174.95 108.681 175.427 106.678 175.427L106.672 175.432Z" fill="black"/>
<path d="M111.663 174.069C111.453 174.069 111.283 173.9 111.283 173.69C111.283 173.48 111.453 173.311 111.663 173.311C116.95 172.045 118.446 165.57 118.461 165.503L134.636 91.3527L132.94 90.2512C132.766 90.1385 132.714 89.9028 132.827 89.7286C132.94 89.5545 133.176 89.5032 133.35 89.6159L135.261 90.8558C135.394 90.9429 135.461 91.1017 135.425 91.2554L119.194 165.662C119.132 165.949 117.575 172.67 111.755 174.049C111.724 174.054 111.688 174.059 111.657 174.059L111.663 174.069Z" fill="black"/>
<path d="M107.81 170.201C106.77 170.201 105.556 169.976 104.198 169.335C104.014 169.243 86.4712 160.518 75.164 158.766C75.0103 158.735 61.4744 156.025 53.6511 155.702C52.857 155.897 47.8668 157.019 46.5757 155.046C46.5757 155.046 45.1412 153.637 47.1496 150.661C47.1701 150.63 47.1957 150.604 47.2213 150.584L47.9744 149.959L46.0993 149.61C45.8943 149.574 45.756 149.375 45.797 149.17C45.8329 148.965 46.0327 148.826 46.2376 148.867L48.9069 149.364C49.0503 149.39 49.1682 149.498 49.204 149.641C49.2399 149.785 49.1938 149.933 49.0811 150.025L47.749 151.127C46.1608 153.514 47.1188 154.524 47.1598 154.565C48.082 155.963 52.1653 155.292 53.523 154.954C53.5589 154.944 53.5947 154.933 53.6306 154.944C61.5052 155.261 75.1589 157.992 75.2972 158.023C86.7069 159.79 104.357 168.572 104.531 168.659C108.532 170.544 111.125 168.469 111.232 168.382C111.396 168.249 111.632 168.27 111.765 168.433C111.898 168.592 111.878 168.833 111.719 168.966C111.632 169.038 110.187 170.211 107.815 170.211L107.81 170.201Z" fill="black"/>
<path d="M57.1349 117.794C57.1042 117.794 57.0734 117.794 57.0427 117.784C56.8429 117.733 56.7199 117.528 56.7712 117.323L59.0869 108.285C59.1381 108.086 59.3482 107.957 59.548 108.014C59.7478 108.065 59.8708 108.27 59.8195 108.475L57.5038 117.513C57.4577 117.682 57.304 117.799 57.14 117.799L57.1349 117.794Z" fill="black"/>
<path d="M58.5898 100.892C58.5539 100.892 58.5181 100.892 58.4822 100.877C58.2824 100.821 58.1646 100.611 58.2261 100.411L62.4733 85.7581C62.5297 85.5583 62.7397 85.4405 62.9395 85.5019C63.1393 85.5583 63.2572 85.7683 63.1957 85.9682L58.9484 100.621C58.9023 100.785 58.7486 100.892 58.5847 100.892H58.5898Z" fill="black"/>
<path d="M56.1103 100.892C56.0744 100.892 56.0385 100.892 56.0078 100.877C55.808 100.821 55.6902 100.611 55.7465 100.411L61.0953 81.7414C61.1414 81.5774 61.29 81.4698 61.459 81.4698H62.6938C62.9038 81.4698 63.0729 81.6389 63.0729 81.849C63.0729 82.059 62.9038 82.2281 62.6938 82.2281H61.746L56.474 100.621C56.4279 100.785 56.2742 100.898 56.1103 100.898V100.892Z" fill="black"/>
<path d="M61.0644 100.892C61.0336 100.892 60.9977 100.892 60.967 100.882C60.7672 100.831 60.6442 100.621 60.6955 100.421L64.6712 85.2354C64.7224 85.0356 64.9325 84.9076 65.1323 84.9639C65.3321 85.0151 65.4551 85.2252 65.4038 85.425L61.4281 100.611C61.382 100.78 61.2283 100.892 61.0644 100.892Z" fill="black"/>
<path d="M108.993 115.858C105.34 115.858 102.671 115.386 102.635 115.376C102.635 115.376 95.8059 114.275 86.8247 112.876C86.092 112.753 85.3594 112.64 84.6165 112.533C83.9607 112.43 83.2998 112.328 82.6286 112.225C74.0675 110.893 65.8189 109.658 59.3994 108.752L57.1246 108.434C56.1819 108.306 55.27 108.183 54.4041 108.07C50.8998 107.604 48.251 107.291 46.5449 107.148C44.8593 107.005 43.7271 106.487 43.1789 105.611C42.6153 104.709 42.8766 103.746 42.9586 103.516C43.2096 101.487 45.9865 101.015 46.1043 100.995H50.9612C51.0279 100.995 51.0945 101.005 51.1508 101.041C51.3557 101.159 53.1643 102.23 53.4819 103.275C53.5434 103.475 53.4307 103.685 53.2309 103.746C53.0311 103.808 52.821 103.695 52.7595 103.495C52.5956 102.942 51.5453 102.158 50.8639 101.748H46.1607C46.1607 101.748 43.8552 102.153 43.7015 103.639C43.7015 103.674 43.6912 103.705 43.6759 103.736C43.6759 103.741 43.3838 104.53 43.8193 105.217C44.2343 105.867 45.1924 106.277 46.6013 106.395C48.3227 106.538 50.9817 106.851 54.4964 107.322C55.3622 107.435 56.2793 107.558 57.222 107.686L59.5019 108.004C65.9214 108.91 74.1751 110.145 82.7414 111.477C83.4125 111.58 84.0734 111.682 84.7292 111.785C85.4772 111.897 86.215 112.01 86.9476 112.133C95.934 113.532 102.763 114.633 102.763 114.633C102.815 114.643 107.067 115.391 112.165 114.976C113 114.905 113.804 114.813 114.562 114.69C114.762 114.664 114.962 114.797 114.998 115.002C115.029 115.207 114.89 115.402 114.685 115.438C113.912 115.561 113.082 115.658 112.231 115.73C111.104 115.822 110.013 115.858 108.999 115.858H108.993Z" fill="black"/>
<path d="M125.542 107.958C125.542 107.958 125.511 107.958 125.501 107.958L89.4427 104.002C89.3966 104.002 89.3505 103.982 89.3095 103.961L87.8084 103.167C87.7418 103.131 87.6854 103.08 87.6496 103.013C87.4754 102.696 87.2653 102.419 87.0194 102.199C86.8708 102.061 86.7069 101.932 86.5019 101.809C86.1023 101.569 85.6207 101.389 85.0674 101.282C84.4885 101.164 84.0479 101.174 84.0427 101.179L50.4695 100.898C50.4285 100.898 50.1723 100.918 50.1569 101.108C50.1416 101.318 49.9571 101.471 49.7522 101.461C49.5421 101.446 49.3884 101.266 49.3987 101.056C49.4448 100.344 50.1159 100.15 50.4592 100.144L84.0222 100.426C84.0222 100.426 84.5346 100.406 85.2057 100.544C85.841 100.667 86.4046 100.877 86.8862 101.169C87.1372 101.323 87.3422 101.476 87.5215 101.646C87.7982 101.891 88.0441 102.199 88.249 102.552L89.5913 103.259L125.578 107.209C125.788 107.23 125.936 107.42 125.911 107.624C125.89 107.819 125.726 107.963 125.537 107.963L125.542 107.958Z" fill="black"/>
<path d="M114.624 115.443C114.547 115.443 114.47 115.417 114.398 115.371C114.234 115.253 114.194 115.023 114.306 114.854C114.327 114.813 114.737 114.029 114.27 111.411H111.663C108.051 111.447 103.327 111.057 103.276 111.052L49.209 103.198C49.0041 103.167 48.8606 102.978 48.8914 102.768C48.9221 102.563 49.1117 102.419 49.3217 102.45L103.363 110.299C103.363 110.299 108.081 110.683 111.657 110.647H114.583C114.762 110.647 114.921 110.775 114.952 110.955C115.577 114.182 115.039 115.125 114.921 115.284C114.849 115.386 114.731 115.438 114.619 115.438L114.624 115.443Z" fill="black"/>
<path d="M112.841 116.59C112.739 116.59 112.636 116.549 112.564 116.473L111.939 115.812C111.796 115.658 111.801 115.422 111.955 115.279C112.108 115.135 112.344 115.14 112.488 115.294L112.99 115.827L123.482 115.11C123.682 115.11 123.872 115.253 123.887 115.463C123.902 115.673 123.744 115.853 123.533 115.868L112.867 116.596C112.867 116.596 112.851 116.596 112.841 116.596V116.59Z" fill="black"/>
<path d="M130.265 115.048C130.071 115.048 129.907 114.9 129.891 114.7C129.876 114.49 130.03 114.31 130.24 114.295L147.331 112.912C147.531 112.886 147.721 113.05 147.736 113.26C147.751 113.47 147.598 113.65 147.388 113.665L130.296 115.048C130.296 115.048 130.276 115.048 130.265 115.048Z" fill="black"/>
<path d="M111.663 111.405H111.652C111.447 111.4 111.283 111.236 111.283 111.031C111.283 110.98 111.299 110.509 111.76 110.053C112.359 109.464 113.384 109.192 114.88 109.197L124.773 108.9C124.978 108.905 125.157 109.059 125.163 109.269C125.168 109.479 125.004 109.653 124.794 109.658L114.88 109.956C112.697 109.915 112.057 110.652 112.037 111.042C112.026 111.242 111.857 111.405 111.657 111.405H111.663Z" fill="black"/>
<path d="M131.188 109.33C130.988 109.33 130.819 109.172 130.809 108.967C130.798 108.757 130.962 108.582 131.172 108.577L146.414 108.009C146.624 107.968 146.799 108.162 146.804 108.372C146.814 108.582 146.65 108.757 146.44 108.762L131.198 109.33C131.198 109.33 131.188 109.33 131.183 109.33H131.188Z" fill="black"/>
<path d="M59.8963 104.745C59.6914 104.745 59.5223 104.581 59.5172 104.376C59.5121 104.166 59.676 103.992 59.8861 103.987L85.7948 103.239C86.01 103.249 86.1791 103.398 86.1842 103.608C86.1893 103.818 86.0254 103.992 85.8153 103.997L59.9066 104.745H59.8963Z" fill="black"/>
<path d="M153.377 154.908C153.039 154.908 152.685 154.857 152.342 154.749L149.852 153.996C149.632 153.94 126.607 147.822 122.893 146.967C122.688 146.921 122.56 146.716 122.611 146.516C122.657 146.311 122.862 146.183 123.062 146.234C126.787 147.095 149.826 153.212 150.057 153.274L152.562 154.032C153.162 154.216 153.761 154.201 154.248 153.986C154.924 153.683 155.319 153.12 155.426 152.321C155.457 152.111 155.662 151.967 155.851 151.998C156.056 152.029 156.205 152.218 156.174 152.423C156.031 153.484 155.472 154.267 154.555 154.677C154.197 154.836 153.792 154.918 153.377 154.918V154.908Z" fill="black"/>
<path d="M153.075 157.331C152.772 157.331 152.485 157.27 152.27 157.218C152.137 157.183 139.518 153.842 136.132 153.058C136.004 153.022 124.917 149.892 122.744 149.61C122.534 149.585 122.391 149.395 122.417 149.185C122.442 148.98 122.637 148.826 122.842 148.857C125.065 149.144 135.86 152.192 136.316 152.321C139.703 153.099 152.332 156.45 152.455 156.481C152.655 156.527 152.89 156.568 153.136 156.573C155.114 156.558 156.548 156.091 157.399 155.184C158.101 154.436 158.423 153.391 158.352 152.075C158.28 150.871 157.896 149.882 157.891 149.872L144.898 88.3453L142.772 88.3658L151.118 128.02L155.923 150.066C155.923 150.066 156.333 151.224 156.169 152.408C156.144 152.618 155.939 152.761 155.744 152.73C155.539 152.7 155.39 152.51 155.421 152.305C155.559 151.296 155.201 150.281 155.196 150.271L150.375 128.179L141.936 88.0686C141.916 87.9559 141.936 87.8432 142.013 87.7561C142.085 87.669 142.193 87.6178 142.305 87.6178L145.2 87.5922C145.379 87.5922 145.533 87.7151 145.569 87.8944L158.608 149.667C158.608 149.667 159.023 150.722 159.1 152.049C159.182 153.581 158.792 154.816 157.942 155.722C156.938 156.788 155.324 157.336 153.141 157.352C153.116 157.352 153.09 157.352 153.059 157.352L153.075 157.331Z" fill="black"/>
<path d="M116.294 149.241C116.294 149.241 116.248 149.241 116.222 149.236L115.654 149.144C104.382 147.433 100.714 146.987 99.6176 146.915C99.3409 146.905 92.491 146.629 89.4939 141.177C89.4478 141.07 87.2447 135.106 85.4772 125.674C85.4362 125.469 85.5745 125.274 85.7795 125.233C85.9844 125.203 86.1842 125.331 86.2201 125.536C87.9774 134.901 90.1548 140.808 90.1804 140.865C92.9521 145.896 99.592 146.162 99.6586 146.162C100.781 146.234 104.475 146.68 115.772 148.396L116.371 148.493C116.576 148.534 116.709 148.734 116.668 148.939C116.632 149.118 116.473 149.247 116.299 149.247L116.294 149.241Z" fill="black"/>
<path d="M84.6883 122.134C84.5141 122.134 84.3553 122.011 84.3194 121.832L82.2752 112.154C82.2342 111.949 82.3623 111.749 82.5672 111.703C82.7722 111.662 82.972 111.79 83.013 111.995L85.0572 121.673C85.0982 121.878 84.9701 122.077 84.7651 122.124C84.7395 122.129 84.7139 122.134 84.6883 122.134Z" fill="black"/>
<path d="M79.8517 100.892C79.6775 100.892 79.5238 100.775 79.4828 100.595L75.6556 83.596C75.6095 83.3911 75.7376 83.1912 75.9425 83.1451C76.1424 83.099 76.3473 83.2271 76.3934 83.432L80.2205 100.431C80.2666 100.636 80.1386 100.836 79.9336 100.882C79.908 100.887 79.8773 100.892 79.8517 100.892Z" fill="black"/>
<path d="M82.0855 100.964C81.9113 100.964 81.7576 100.846 81.7166 100.672L77.7768 83.6728C77.7306 83.4679 77.8536 83.2681 78.0585 83.2169C78.2635 83.1656 78.4633 83.2937 78.5145 83.4986L82.4544 100.498C82.5005 100.703 82.3775 100.903 82.1726 100.954C82.1418 100.959 82.1162 100.964 82.0855 100.964Z" fill="black"/>
<path d="M86.712 122.472C86.5378 122.472 86.379 122.349 86.3431 122.17L84.2784 112.343C84.2374 112.138 84.3655 111.938 84.5704 111.897C84.7702 111.856 84.9752 111.984 85.0161 112.189L87.0808 122.016C87.1218 122.221 86.9938 122.421 86.7888 122.462C86.7632 122.467 86.7376 122.472 86.712 122.472Z" fill="black"/>
<path d="M84.0377 101.169C83.8635 101.169 83.7098 101.051 83.6688 100.877L79.7494 84.0007C79.7033 83.7958 79.8263 83.596 80.0312 83.5447C80.231 83.4935 80.4359 83.6216 80.4872 83.8265L84.4065 100.703C84.4526 100.908 84.3297 101.108 84.1247 101.159C84.094 101.164 84.0684 101.169 84.0377 101.169Z" fill="black"/>
<path d="M89.0737 122.769C88.8995 122.769 88.7458 122.651 88.7048 122.477L86.4813 112.768C86.4352 112.563 86.5633 112.364 86.7682 112.318C86.968 112.271 87.173 112.394 87.2191 112.599L89.4426 122.308C89.4887 122.513 89.3606 122.713 89.1557 122.759C89.125 122.764 89.0993 122.769 89.0686 122.769H89.0737Z" fill="black"/>
<path d="M116.827 146.188C116.827 146.188 116.791 146.188 116.776 146.188C116.648 146.173 103.675 144.431 98.0243 144.139C97.9629 144.159 94.4636 144.764 91.5074 140.855C91.4357 140.721 90.6775 139.107 90.4213 138.221L87.1731 125.935C87.1219 125.736 87.2397 125.525 87.4395 125.474C87.6393 125.423 87.8494 125.541 87.9006 125.741L91.1488 138.016C91.3896 138.836 92.1427 140.445 92.153 140.46C94.771 143.918 97.8502 143.411 97.9782 143.385C103.747 143.677 116.745 145.419 116.878 145.435C117.083 145.466 117.232 145.655 117.201 145.86C117.175 146.05 117.011 146.188 116.827 146.188Z" fill="black"/>
<path d="M117.355 143.79C117.355 143.79 117.314 143.79 117.293 143.785C109.941 142.535 98.6902 142.269 98.5775 142.269L97.0917 142.166C93.6847 141.218 92.6242 137.494 92.5832 137.335L89.4579 126.212C89.4016 126.012 89.5194 125.802 89.7192 125.746C89.919 125.684 90.1291 125.807 90.1855 126.007L93.3107 137.135C93.3209 137.171 94.3046 140.614 97.2198 141.428L98.6082 141.515C98.7056 141.515 110.008 141.782 117.416 143.042C117.621 143.078 117.759 143.273 117.723 143.478C117.693 143.662 117.534 143.795 117.349 143.795L117.355 143.79Z" fill="black"/>
<path d="M154.765 153.166C153.864 153.166 152.88 152.771 152.716 152.7C150.17 151.68 123.636 144.805 123.364 144.738C123.164 144.687 123.041 144.482 123.093 144.277C123.144 144.077 123.349 143.949 123.554 144.005C124.65 144.287 150.405 150.958 153.003 151.998C153.828 152.341 155.185 152.633 155.482 152.157C155.595 151.977 155.831 151.931 156.005 152.039C156.184 152.152 156.236 152.382 156.123 152.561C155.836 153.017 155.319 153.166 154.765 153.166Z" fill="black"/>
<path d="M158.741 152.433C158.531 152.433 158.362 152.264 158.362 152.054V145.071L156.559 134.681L146.317 87.1568L145.508 88.1917C145.379 88.3556 145.139 88.3864 144.975 88.2583C144.811 88.1302 144.78 87.8945 144.908 87.7254L146.215 86.0552C146.307 85.9374 146.455 85.8862 146.599 85.922C146.742 85.9528 146.85 86.0655 146.886 86.2089L157.301 134.537L159.115 145.004V152.049C159.12 152.259 158.951 152.428 158.741 152.428V152.433Z" fill="black"/>
<path d="M142.316 88.3658C142.223 88.3658 142.126 88.33 142.054 88.2634C141.906 88.1199 141.901 87.8791 142.044 87.7305L143.668 86.0296C143.74 85.9527 143.837 85.9117 143.94 85.9117H146.517C146.727 85.9117 146.896 86.0808 146.896 86.2909C146.896 86.5009 146.727 86.67 146.517 86.67H144.104L142.592 88.2531C142.516 88.33 142.418 88.3709 142.321 88.3709L142.316 88.3658Z" fill="black"/>
<path d="M126.018 105.939C126.018 105.939 125.988 105.939 125.972 105.939L98.1934 102.419C94.4124 102.076 92.0352 101.748 92.0095 101.748H87.209C86.9989 101.748 86.8298 101.584 86.8298 101.374C86.8298 101.164 86.9989 100.995 87.209 100.995H92.0608C92.1376 101 94.4995 101.328 98.2754 101.666L126.064 105.186C126.269 105.211 126.418 105.401 126.392 105.606C126.367 105.795 126.208 105.939 126.018 105.939Z" fill="black"/>
<path d="M146.435 107.958C146.435 107.958 146.409 107.958 146.394 107.958L131.767 106.472C131.556 106.451 131.408 106.267 131.428 106.057C131.449 105.852 131.644 105.693 131.843 105.719L146.471 107.204C146.681 107.225 146.829 107.409 146.809 107.619C146.788 107.814 146.624 107.958 146.435 107.958Z" fill="black"/>
<path d="M85.1442 101.282C85.0007 101.282 84.8624 101.2 84.8009 101.061L84.0273 99.3452C83.9402 99.1556 84.0273 98.9302 84.2169 98.8431C84.4064 98.756 84.6318 98.8431 84.7189 99.0326L85.4926 100.749C85.5797 100.939 85.4926 101.164 85.303 101.251C85.2518 101.272 85.2005 101.287 85.1493 101.287L85.1442 101.282Z" fill="black"/>
<path d="M87.752 101.692C87.6085 101.692 87.4753 101.61 87.4087 101.476L86.589 99.7499C86.4968 99.5603 86.5787 99.3349 86.7683 99.2478C86.9579 99.1556 87.1833 99.2375 87.2704 99.4271L88.0901 101.154C88.1823 101.343 88.1004 101.569 87.9108 101.656C87.8596 101.681 87.8032 101.692 87.7469 101.692H87.752Z" fill="black"/>
<path d="M89.4889 101.692C89.4479 101.692 89.4069 101.687 89.3659 101.671C89.1712 101.599 89.0636 101.384 89.1354 101.19L90.5596 97.1319C90.6058 96.9782 90.7492 96.8604 90.9183 96.8604C91.1283 96.8604 91.2974 97.0243 91.2974 97.2344C91.2974 97.2753 91.2923 97.3266 91.2769 97.3676L89.8475 101.435C89.7911 101.589 89.6477 101.687 89.4889 101.687V101.692Z" fill="black"/>
<path d="M149.437 100.226C149.406 100.226 149.376 100.226 149.345 100.216C149.145 100.165 149.017 99.9599 149.068 99.7601L151.497 89.995C151.548 89.7952 151.748 89.6671 151.953 89.7183C152.152 89.7696 152.281 89.9745 152.229 90.1743L149.801 99.9394C149.76 100.114 149.606 100.226 149.432 100.226H149.437Z" fill="black"/>
<path d="M145.487 103.449C145.487 103.449 145.441 103.449 145.415 103.444C144.257 103.213 142.377 103.444 142.362 103.444L132.873 102.322C132.663 102.296 132.52 102.107 132.54 101.902C132.566 101.692 132.755 101.548 132.96 101.569L142.357 102.691C142.357 102.691 144.283 102.445 145.559 102.691C145.764 102.732 145.897 102.932 145.856 103.136C145.82 103.316 145.661 103.444 145.487 103.444V103.449Z" fill="black"/>
<path d="M141.132 101.558C141.132 101.558 141.101 101.558 141.086 101.548C141.004 101.528 140.948 101.456 140.948 101.379C140.948 101.359 140.948 101.343 140.958 101.323L141.199 100.416C141.235 100.324 141.337 100.267 141.434 100.283C141.537 100.314 141.593 100.416 141.568 100.518L141.317 101.415C141.296 101.497 141.224 101.553 141.137 101.553L141.132 101.558ZM141.757 99.3093C141.757 99.3093 141.721 99.3093 141.711 99.2991C141.629 99.2786 141.573 99.2069 141.573 99.13C141.573 99.1095 141.573 99.0942 141.583 99.0737L141.834 98.1771C141.86 98.0746 141.972 98.0183 142.06 98.0439C142.106 98.0541 142.152 98.0797 142.172 98.1258C142.203 98.1617 142.208 98.2181 142.193 98.2642L141.947 99.1608C141.921 99.2427 141.844 99.2991 141.762 99.2991L141.757 99.3093ZM142.382 97.0602H142.336C142.254 97.0346 142.198 96.968 142.198 96.8809C142.198 96.8604 142.198 96.845 142.208 96.8245L142.459 95.9279C142.485 95.8255 142.587 95.7691 142.685 95.7998C142.787 95.8255 142.843 95.9279 142.818 96.0253L142.567 96.9321C142.546 97.0038 142.475 97.0602 142.387 97.0602H142.382ZM143.007 94.811H142.961C142.874 94.7803 142.823 94.7188 142.823 94.6317C142.823 94.6112 142.823 94.5959 142.833 94.5754L143.084 93.6788C143.11 93.5763 143.212 93.52 143.31 93.5456C143.356 93.5558 143.402 93.5917 143.422 93.6276C143.453 93.6737 143.458 93.7198 143.443 93.7761L143.192 94.6727C143.171 94.7496 143.1 94.8059 143.012 94.8059L143.007 94.811Z" fill="black"/>
<path d="M142.269 107.527C142.116 107.527 141.972 107.435 141.916 107.281L141.404 105.918C141.357 105.801 141.378 105.662 141.455 105.56C141.532 105.457 141.66 105.396 141.783 105.411L146.153 105.719C146.363 105.734 146.517 105.913 146.501 106.123C146.486 106.328 146.327 106.502 146.097 106.472L142.315 106.205L142.623 107.015C142.695 107.209 142.597 107.43 142.403 107.501C142.356 107.517 142.315 107.527 142.269 107.527Z" fill="black"/>
<path d="M141.757 106.164C141.757 106.164 141.706 106.164 141.68 106.154C141.475 106.113 141.347 105.913 141.388 105.708L141.947 102.993C141.988 102.788 142.177 102.655 142.392 102.701C142.597 102.742 142.725 102.942 142.684 103.147L142.126 105.862C142.09 106.041 141.931 106.164 141.757 106.164Z" fill="black"/>
<path d="M120.085 131.535C120.085 131.535 120.044 131.535 120.024 131.53L56.0846 120.868C55.9513 120.868 55.6439 120.833 55.3929 120.566C55.106 120.259 55.0087 119.772 55.1111 119.116C55.1111 119.116 55.1316 118.983 55.188 118.799C55.5056 117.661 56.2075 117.041 57.1502 117.041L120.91 127.36C121.115 127.39 121.259 127.585 121.223 127.795C121.192 128 120.992 128.144 120.787 128.108L57.0734 117.794H57.0529C56.3612 117.794 56.0384 118.553 55.9104 119.009C55.8694 119.142 55.854 119.234 55.854 119.239C55.772 119.787 55.8847 119.987 55.936 120.044C55.9975 120.115 56.0846 120.11 56.0846 120.115L120.142 130.787C120.347 130.823 120.485 131.018 120.454 131.223C120.424 131.407 120.265 131.54 120.08 131.54L120.085 131.535Z" fill="black"/>
<path d="M48.83 150.107C48.7992 150.107 48.7685 150.107 48.7377 150.097C48.5328 150.046 48.4098 149.841 48.4611 149.641L55.7414 120.397C55.7926 120.192 56.0026 120.069 56.1973 120.12C56.4023 120.172 56.5252 120.377 56.474 120.576L49.1937 149.82C49.1527 149.995 48.999 150.107 48.8248 150.107H48.83Z" fill="black"/>
</g>
<defs>
<filter id="filter0_d_1078_32409" x="0.0361328" y="0.000488281" width="210" height="210" filterUnits="userSpaceOnUse" color-interpolation-filters="sRGB">
<feFlood flood-opacity="0" result="BackgroundImageFix"/>
<feColorMatrix in="SourceAlpha" type="matrix" values="0 0 0 0 0 0 0 0 0 0 0 0 0 0 0 0 0 0 127 0" result="hardAlpha"/>
<feOffset dx="4" dy="4"/>
<feComposite in2="hardAlpha" operator="out"/>
<feColorMatrix type="matrix" values="0 0 0 0 0 0 0 0 0 0 0 0 0 0 0 0 0 0 1 0"/>
<feBlend mode="normal" in2="BackgroundImageFix" result="effect1_dropShadow_1078_32409"/>
<feBlend mode="normal" in="SourceGraphic" in2="effect1_dropShadow_1078_32409" result="shape"/>
</filter>
<clipPath id="clip0_1078_32409">
<rect width="128.314" height="137.224" fill="white" transform="translate(38.8701 41.0005)"/>
</clipPath>
</defs>
</svg>
