<svg width="20" height="20" viewBox="0 0 20 20" fill="none" xmlns="http://www.w3.org/2000/svg">
<path d="M19.2485 13.2258C19.9783 11.1356 19.9783 8.8596 19.2485 6.76937L19.2197 6.69251C18.5379 4.79279 17.2864 3.15003 15.6362 1.98869C13.986 0.827354 12.0176 0.204102 9.99993 0.204102C7.98231 0.204102 6.0139 0.827354 4.36368 1.98869C2.71347 3.15003 1.46196 4.79279 0.780171 6.69251L0.751359 6.76937C0.021601 8.8596 0.021601 11.1356 0.751359 13.2258L0.780171 13.3027C1.46097 15.2027 2.71162 16.8462 4.36123 18.0084C6.01084 19.1706 7.97893 19.7948 9.99656 19.7959C12.0142 19.7969 13.9829 19.1747 15.6337 18.0142C17.2846 16.8538 18.5369 15.2116 19.2197 13.3123L19.2485 13.2258ZM7.28202 13.6486H12.7178C12.1704 15.4068 11.2388 16.9825 9.99993 18.1931C8.76103 16.9825 7.82945 15.4068 7.28202 13.6486ZM6.99391 12.4956C6.64807 10.8482 6.64807 9.14694 6.99391 7.49956H13.006C13.3518 9.14694 13.3518 10.8482 13.006 12.4956H6.99391ZM1.35641 9.99759C1.3544 9.15148 1.47738 8.30971 1.72135 7.49956H5.81262C5.50523 9.15072 5.50523 10.8445 5.81262 12.4956H1.72135C1.47738 11.6855 1.3544 10.8437 1.35641 9.99759ZM12.7178 6.34662H7.28202C7.82945 4.5884 8.76103 3.01272 9.99993 1.80213C11.2388 3.01272 12.1704 4.5884 12.7178 6.34662ZM14.1968 7.49956H18.2785C18.7654 9.1293 18.7654 10.8659 18.2785 12.4956H14.1968C14.4914 10.8433 14.4914 9.15188 14.1968 7.49956ZM17.8367 6.34662H13.9279C13.4355 4.52397 12.5171 2.84449 11.2484 1.44664C12.6663 1.65383 14.0105 2.21001 15.1604 3.06526C16.3103 3.9205 17.23 5.04803 17.8367 6.34662ZM8.75142 1.44664C7.48276 2.84449 6.56436 4.52397 6.07193 6.34662H2.16314C2.76991 5.04803 3.68953 3.9205 4.83945 3.06526C5.98937 2.21001 7.33359 1.65383 8.75142 1.44664ZM2.16314 13.6486H6.07193C6.56637 15.4733 7.48444 17.1554 8.75142 18.5581C7.33375 18.3467 5.99034 17.7878 4.84086 16.9312C3.69137 16.0746 2.77149 14.9469 2.16314 13.6486ZM11.2484 18.5581C12.5154 17.1554 13.4335 15.4733 13.9279 13.6486H17.8367C17.2284 14.9469 16.3085 16.0746 15.159 16.9312C14.0095 17.7878 12.6661 18.3467 11.2484 18.5581Z" fill="black"/>
<path fill-rule="evenodd" clip-rule="evenodd" d="M4.24629 1.82178C5.93089 0.636243 7.94032 0 10 0C12.0597 0 14.0691 0.636243 15.7537 1.82178C17.4379 3.00702 18.7153 4.68348 19.4113 6.62215C19.4115 6.62262 19.4117 6.62308 19.4118 6.62355L19.4413 6.70206C20.1861 8.83538 20.1862 11.1582 19.4417 13.2916C19.4416 13.2921 19.4414 13.2926 19.4412 13.2931L19.4119 13.3813C18.7149 15.3202 17.4364 16.9965 15.7512 18.1812C14.066 19.3658 12.0562 20.001 9.99652 20C7.93684 19.9989 5.92773 19.3616 4.24376 18.1752C2.5602 16.9891 1.28371 15.3119 0.588629 13.3729C0.588458 13.3724 0.588286 13.372 0.588115 13.3715L0.558699 13.2931C-0.186266 11.1593 -0.186216 8.83587 0.558749 6.70208L0.560278 6.6977L0.588641 6.62218C1.28473 4.6835 2.5621 3.00703 4.24629 1.82178ZM10 0.408162C8.02443 0.408162 6.09703 1.01842 4.4812 2.15557C2.86537 3.29271 1.63991 4.90126 0.972322 6.76142L0.971352 6.76412L0.943341 6.83879C0.229803 8.88415 0.229803 11.111 0.94334 13.1563L0.972378 13.2338C1.639 15.0943 2.86359 16.7035 4.47884 17.8415C6.09408 18.9795 8.02115 19.5908 9.99673 19.5918C11.9723 19.5928 13.9 18.9836 15.5164 17.8473C17.1322 16.7114 18.3582 15.1043 19.0269 13.2455L19.055 13.1613L19.0559 13.1585C19.7702 11.1126 19.7705 8.88487 19.0567 6.83878L19.0277 6.76143C18.3601 4.90127 17.1346 3.29271 15.5188 2.15557C13.903 1.01842 11.9756 0.408162 10 0.408162ZM9.28504 1.16241L8.90261 1.58378C7.65569 2.95768 6.75301 4.60839 6.26901 6.39983L6.22826 6.55069H1.84258L1.97831 6.26021C2.59938 4.93101 3.54069 3.77689 4.71772 2.90148C5.89476 2.02607 7.27069 1.45676 8.72198 1.24469L9.28504 1.16241ZM10.715 1.16241L11.278 1.24469C12.7293 1.45676 14.1052 2.02607 15.2823 2.90148C16.4593 3.77689 17.4006 4.93101 18.0217 6.26021L18.1574 6.55069H13.7717L13.731 6.39983C13.247 4.60839 12.3443 2.95768 11.0974 1.58378L10.715 1.16241ZM8.21935 1.75012C7.04242 2.00429 5.9311 2.50772 4.96131 3.22899C3.92514 3.99963 3.08047 4.9967 2.49065 6.14252H5.91678C6.37379 4.53379 7.1583 3.03858 8.21935 1.75012ZM11.7807 1.75012C12.8417 3.03858 13.6262 4.53379 14.0832 6.14252H17.5093C16.9195 4.9967 16.0749 3.99963 15.0387 3.22899C14.0689 2.50772 12.9576 2.00429 11.7807 1.75012ZM10 1.51678L10.1426 1.65615C11.408 2.89263 12.3563 4.49859 12.9128 6.28594L12.9952 6.55069H7.00481L7.08723 6.28594C7.64372 4.49859 8.59196 2.89263 9.85737 1.65615L10 1.51678ZM7.5628 6.14252H12.4372C11.9128 4.58819 11.0806 3.19319 10 2.09051C8.91937 3.19319 8.08716 4.58819 7.5628 6.14252ZM1.56974 7.29546H6.05827L6.01332 7.53689C5.71052 9.16336 5.71052 10.8318 6.01332 12.4582L6.05827 12.6997H1.56974L1.52601 12.5544C1.27629 11.7252 1.15039 10.8636 1.15239 9.99757C1.15039 9.13153 1.27629 8.26993 1.52601 7.44069L1.56974 7.29546ZM1.87452 7.70362C1.66445 8.44968 1.55872 9.22151 1.56055 9.99709V9.99805C1.55872 10.7736 1.66445 11.5455 1.87452 12.2915H5.56932C5.31431 10.7729 5.31431 9.22227 5.56932 7.70362H1.87452ZM6.82829 7.29546H13.1717L13.2058 7.45761C13.5574 9.13265 13.5574 10.8625 13.2058 12.5375L13.1717 12.6997H6.82829L6.79425 12.5375C6.4426 10.8625 6.4426 9.13265 6.79425 7.45761L6.82829 7.29546ZM7.16083 7.70362C6.86462 9.21856 6.86462 10.7766 7.16083 12.2915H12.8392C13.1354 10.7766 13.1354 9.21856 12.8392 7.70362H7.16083ZM13.9532 7.29546H18.4306L18.4741 7.44113C18.9724 9.10898 18.9724 10.8862 18.4741 12.554L18.4306 12.6997H13.9532L13.996 12.4598C14.2863 10.8312 14.2863 9.16399 13.996 7.53536L13.9532 7.29546ZM14.4385 7.70362C14.683 9.22313 14.683 10.772 14.4385 12.2915H18.1251C18.5445 10.791 18.5445 9.20412 18.1251 7.70362H14.4385ZM1.84221 13.4445H6.22814L6.26897 13.5952C6.75502 15.3889 7.65748 17.0424 8.90294 18.4213L9.28469 18.844L8.72139 18.76C7.27041 18.5436 5.89545 17.9715 4.71898 17.0948C3.5425 16.2181 2.60103 15.064 1.9784 13.7351L1.84221 13.4445ZM2.49102 13.8526C3.08214 14.9983 3.92704 15.9957 4.96287 16.7676C5.93231 17.49 7.043 17.9956 8.21966 18.253C7.15986 16.9607 6.37551 15.4632 5.91689 13.8526H2.49102ZM7.00481 13.4445H12.9952L12.9128 13.7092C12.3563 15.4966 11.408 17.1025 10.1426 18.339L10 18.4784L9.85737 18.339C8.59196 17.1025 7.64372 15.4966 7.08723 13.7092L7.00481 13.4445ZM7.5628 13.8526C8.08716 15.4069 8.91937 16.802 10 17.9046C11.0806 16.802 11.9128 15.4069 12.4372 13.8526H7.5628ZM13.7719 13.4445H18.1578L18.0216 13.7351C17.399 15.064 16.4575 16.2181 15.281 17.0948C14.1045 17.9715 12.7296 18.5436 11.2786 18.76L10.7153 18.844L11.0971 18.4213C12.3425 17.0424 13.245 15.3889 13.731 13.5952L13.7719 13.4445ZM14.0831 13.8526C13.6245 15.4631 12.8401 16.9607 11.7803 18.253C12.957 17.9956 14.0677 17.49 15.0371 16.7676C16.073 15.9957 16.9179 14.9983 17.509 13.8526H14.0831Z" fill="black"/>
</svg>
